G75*
%MOIN*%
%OFA0B0*%
%FSLAX25Y25*%
%IPPOS*%
%LPD*%
%AMOC8*
5,1,8,0,0,1.08239X$1,22.5*
%
%ADD10C,0.00100*%
%ADD11C,0.07400*%
%ADD12R,0.06299X0.07087*%
%ADD13R,0.08000X0.05000*%
%ADD14C,0.07800*%
%ADD15C,0.06600*%
%ADD16C,0.05200*%
%ADD17C,0.01000*%
%ADD18R,0.05000X0.07874*%
%ADD19C,0.05400*%
%ADD20R,0.06425X0.06425*%
%ADD21C,0.06425*%
%ADD22C,0.05200*%
%ADD23C,0.08268*%
%ADD24R,0.09000X0.06969*%
%ADD25R,0.05150X0.05150*%
%ADD26C,0.05150*%
%ADD27C,0.06900*%
%ADD28OC8,0.06600*%
%ADD29R,0.02500X0.05000*%
%ADD30C,0.00800*%
%ADD31R,0.07400X0.07400*%
%ADD32R,0.04600X0.06300*%
%ADD33C,0.01600*%
%ADD34C,0.05000*%
%ADD35C,0.03200*%
%ADD36C,0.05000*%
%ADD37C,0.02400*%
%ADD38C,0.03600*%
%ADD39C,0.01200*%
%ADD40C,0.04000*%
%ADD41C,0.02600*%
%ADD42C,0.02800*%
%ADD43C,0.03200*%
%ADD44C,0.02500*%
%ADD45C,0.04000*%
%ADD46C,0.02000*%
D10*
X0057595Y0046433D02*
X0057595Y0288933D01*
X0057598Y0289175D01*
X0057607Y0289416D01*
X0057621Y0289657D01*
X0057642Y0289898D01*
X0057668Y0290138D01*
X0057700Y0290378D01*
X0057738Y0290617D01*
X0057781Y0290854D01*
X0057831Y0291091D01*
X0057886Y0291326D01*
X0057946Y0291560D01*
X0058013Y0291792D01*
X0058084Y0292023D01*
X0058162Y0292252D01*
X0058245Y0292479D01*
X0058333Y0292704D01*
X0058427Y0292927D01*
X0058526Y0293147D01*
X0058631Y0293365D01*
X0058740Y0293580D01*
X0058855Y0293793D01*
X0058975Y0294003D01*
X0059100Y0294209D01*
X0059230Y0294413D01*
X0059365Y0294614D01*
X0059505Y0294811D01*
X0059649Y0295005D01*
X0059798Y0295195D01*
X0059952Y0295381D01*
X0060110Y0295564D01*
X0060272Y0295743D01*
X0060439Y0295918D01*
X0060610Y0296089D01*
X0060785Y0296256D01*
X0060964Y0296418D01*
X0061147Y0296576D01*
X0061333Y0296730D01*
X0061523Y0296879D01*
X0061717Y0297023D01*
X0061914Y0297163D01*
X0062115Y0297298D01*
X0062319Y0297428D01*
X0062525Y0297553D01*
X0062735Y0297673D01*
X0062948Y0297788D01*
X0063163Y0297897D01*
X0063381Y0298002D01*
X0063601Y0298101D01*
X0063824Y0298195D01*
X0064049Y0298283D01*
X0064276Y0298366D01*
X0064505Y0298444D01*
X0064736Y0298515D01*
X0064968Y0298582D01*
X0065202Y0298642D01*
X0065437Y0298697D01*
X0065674Y0298747D01*
X0065911Y0298790D01*
X0066150Y0298828D01*
X0066390Y0298860D01*
X0066630Y0298886D01*
X0066871Y0298907D01*
X0067112Y0298921D01*
X0067353Y0298930D01*
X0067595Y0298933D01*
X0375095Y0298933D01*
X0397595Y0276433D01*
X0397595Y0058933D01*
X0375095Y0036433D01*
X0067595Y0036433D01*
X0067353Y0036436D01*
X0067112Y0036445D01*
X0066871Y0036459D01*
X0066630Y0036480D01*
X0066390Y0036506D01*
X0066150Y0036538D01*
X0065911Y0036576D01*
X0065674Y0036619D01*
X0065437Y0036669D01*
X0065202Y0036724D01*
X0064968Y0036784D01*
X0064736Y0036851D01*
X0064505Y0036922D01*
X0064276Y0037000D01*
X0064049Y0037083D01*
X0063824Y0037171D01*
X0063601Y0037265D01*
X0063381Y0037364D01*
X0063163Y0037469D01*
X0062948Y0037578D01*
X0062735Y0037693D01*
X0062525Y0037813D01*
X0062319Y0037938D01*
X0062115Y0038068D01*
X0061914Y0038203D01*
X0061717Y0038343D01*
X0061523Y0038487D01*
X0061333Y0038636D01*
X0061147Y0038790D01*
X0060964Y0038948D01*
X0060785Y0039110D01*
X0060610Y0039277D01*
X0060439Y0039448D01*
X0060272Y0039623D01*
X0060110Y0039802D01*
X0059952Y0039985D01*
X0059798Y0040171D01*
X0059649Y0040361D01*
X0059505Y0040555D01*
X0059365Y0040752D01*
X0059230Y0040953D01*
X0059100Y0041157D01*
X0058975Y0041363D01*
X0058855Y0041573D01*
X0058740Y0041786D01*
X0058631Y0042001D01*
X0058526Y0042219D01*
X0058427Y0042439D01*
X0058333Y0042662D01*
X0058245Y0042887D01*
X0058162Y0043114D01*
X0058084Y0043343D01*
X0058013Y0043574D01*
X0057946Y0043806D01*
X0057886Y0044040D01*
X0057831Y0044275D01*
X0057781Y0044512D01*
X0057738Y0044749D01*
X0057700Y0044988D01*
X0057668Y0045228D01*
X0057642Y0045468D01*
X0057621Y0045709D01*
X0057607Y0045950D01*
X0057598Y0046191D01*
X0057595Y0046433D01*
D11*
X0190883Y0053539D03*
X0200883Y0053539D03*
X0210883Y0053539D03*
X0220883Y0053539D03*
X0230883Y0053539D03*
X0240883Y0053539D03*
X0250883Y0053539D03*
X0260883Y0053539D03*
X0270883Y0053539D03*
X0280883Y0053539D03*
X0290883Y0053539D03*
X0300883Y0053539D03*
X0300883Y0123539D03*
X0290883Y0123539D03*
X0280883Y0123539D03*
X0270883Y0123539D03*
X0260883Y0123539D03*
X0250883Y0123539D03*
X0240883Y0123539D03*
X0230883Y0123539D03*
X0220883Y0123539D03*
X0210883Y0123539D03*
X0200883Y0123539D03*
X0190883Y0123539D03*
X0282595Y0270958D03*
X0292595Y0270908D03*
X0302595Y0270958D03*
X0378595Y0205683D03*
X0378595Y0195683D03*
D12*
X0313107Y0286433D03*
X0302083Y0286433D03*
X0288107Y0286433D03*
X0277083Y0286433D03*
X0208786Y0275813D03*
X0197762Y0275813D03*
X0198087Y0255390D03*
X0209111Y0255390D03*
X0209111Y0235390D03*
X0198087Y0235390D03*
X0198087Y0215390D03*
X0209111Y0215390D03*
X0209111Y0195390D03*
X0198087Y0195390D03*
X0198264Y0175528D03*
X0209288Y0175528D03*
X0209111Y0155390D03*
X0198087Y0155390D03*
D13*
X0180099Y0155705D03*
X0180099Y0165390D03*
X0180099Y0175390D03*
X0180099Y0185390D03*
X0180099Y0195390D03*
X0180099Y0205390D03*
X0180099Y0215390D03*
X0180099Y0225390D03*
X0180099Y0235390D03*
X0180099Y0245390D03*
X0180099Y0255390D03*
X0180099Y0265390D03*
X0180099Y0275390D03*
X0152099Y0275390D03*
X0152099Y0265390D03*
X0152099Y0255390D03*
X0152099Y0245390D03*
X0152099Y0235390D03*
X0152099Y0225390D03*
X0152099Y0215390D03*
X0152099Y0205390D03*
X0152099Y0195390D03*
X0152099Y0185390D03*
X0152099Y0175390D03*
X0152099Y0165390D03*
X0152099Y0155705D03*
X0152099Y0145705D03*
X0180099Y0145705D03*
D14*
X0080294Y0149359D02*
X0072494Y0149359D01*
X0072494Y0169159D02*
X0080294Y0169159D01*
X0080294Y0188859D02*
X0072494Y0188859D01*
X0072494Y0208559D02*
X0080294Y0208559D01*
X0080294Y0228259D02*
X0072494Y0228259D01*
X0072494Y0247959D02*
X0080294Y0247959D01*
X0080294Y0267759D02*
X0072494Y0267759D01*
X0072494Y0129065D02*
X0080294Y0129065D01*
X0080294Y0109265D02*
X0072494Y0109265D01*
X0072455Y0089128D02*
X0080255Y0089128D01*
X0080255Y0069328D02*
X0072455Y0069328D01*
X0374896Y0159565D02*
X0382696Y0159565D01*
X0382696Y0179365D02*
X0374896Y0179365D01*
X0374945Y0221733D02*
X0382745Y0221733D01*
X0382745Y0241433D02*
X0374945Y0241433D01*
X0374945Y0261133D02*
X0382745Y0261133D01*
D15*
X0330595Y0197746D03*
X0335595Y0190120D03*
X0318595Y0197746D03*
X0163745Y0112236D03*
X0153745Y0092236D03*
X0123745Y0112236D03*
X0103745Y0112236D03*
D16*
X0134865Y0063853D02*
X0140065Y0063853D01*
X0140065Y0053853D02*
X0134865Y0053853D01*
X0134865Y0043853D02*
X0140065Y0043853D01*
X0235135Y0146453D02*
X0240335Y0146453D01*
X0240335Y0156453D02*
X0235135Y0156453D01*
X0235135Y0166453D02*
X0240335Y0166453D01*
X0240335Y0176453D02*
X0235135Y0176453D01*
X0235135Y0186453D02*
X0240335Y0186453D01*
X0240335Y0196453D02*
X0235135Y0196453D01*
X0235135Y0206453D02*
X0240335Y0206453D01*
X0240335Y0216453D02*
X0235135Y0216453D01*
X0235135Y0226453D02*
X0240335Y0226453D01*
X0240335Y0236453D02*
X0235135Y0236453D01*
X0235135Y0246453D02*
X0240335Y0246453D01*
X0240335Y0256453D02*
X0235135Y0256453D01*
X0235135Y0266453D02*
X0240335Y0266453D01*
X0240335Y0276453D02*
X0235135Y0276453D01*
X0265135Y0276453D02*
X0270335Y0276453D01*
X0270335Y0266453D02*
X0265135Y0266453D01*
X0265135Y0256453D02*
X0270335Y0256453D01*
X0270335Y0246453D02*
X0265135Y0246453D01*
X0265135Y0236453D02*
X0270335Y0236453D01*
X0270335Y0226453D02*
X0265135Y0226453D01*
X0265135Y0216453D02*
X0270335Y0216453D01*
X0270335Y0206453D02*
X0265135Y0206453D01*
X0265135Y0196453D02*
X0270335Y0196453D01*
X0270335Y0186453D02*
X0265135Y0186453D01*
X0265135Y0176453D02*
X0270335Y0176453D01*
X0270335Y0166453D02*
X0265135Y0166453D01*
X0265135Y0156453D02*
X0270335Y0156453D01*
X0270335Y0146453D02*
X0265135Y0146453D01*
D17*
X0316973Y0111366D02*
X0316973Y0104492D01*
X0316973Y0111366D02*
X0320973Y0111366D01*
X0320973Y0104492D01*
X0316973Y0104492D01*
X0316973Y0105491D02*
X0320973Y0105491D01*
X0320973Y0106490D02*
X0316973Y0106490D01*
X0316973Y0107489D02*
X0320973Y0107489D01*
X0320973Y0108488D02*
X0316973Y0108488D01*
X0316973Y0109487D02*
X0320973Y0109487D01*
X0320973Y0110486D02*
X0316973Y0110486D01*
X0324847Y0111366D02*
X0324847Y0104492D01*
X0324847Y0111366D02*
X0328847Y0111366D01*
X0328847Y0104492D01*
X0324847Y0104492D01*
X0324847Y0105491D02*
X0328847Y0105491D01*
X0328847Y0106490D02*
X0324847Y0106490D01*
X0324847Y0107489D02*
X0328847Y0107489D01*
X0328847Y0108488D02*
X0324847Y0108488D01*
X0324847Y0109487D02*
X0328847Y0109487D01*
X0328847Y0110486D02*
X0324847Y0110486D01*
X0348469Y0111374D02*
X0348469Y0104500D01*
X0348469Y0111374D02*
X0352469Y0111374D01*
X0352469Y0104500D01*
X0348469Y0104500D01*
X0348469Y0105499D02*
X0352469Y0105499D01*
X0352469Y0106498D02*
X0348469Y0106498D01*
X0348469Y0107497D02*
X0352469Y0107497D01*
X0352469Y0108496D02*
X0348469Y0108496D01*
X0348469Y0109495D02*
X0352469Y0109495D01*
X0352469Y0110494D02*
X0348469Y0110494D01*
X0355969Y0111374D02*
X0355969Y0104500D01*
X0355969Y0111374D02*
X0359969Y0111374D01*
X0359969Y0104500D01*
X0355969Y0104500D01*
X0355969Y0105499D02*
X0359969Y0105499D01*
X0359969Y0106498D02*
X0355969Y0106498D01*
X0355969Y0107497D02*
X0359969Y0107497D01*
X0359969Y0108496D02*
X0355969Y0108496D01*
X0355969Y0109495D02*
X0359969Y0109495D01*
X0359969Y0110494D02*
X0355969Y0110494D01*
X0322595Y0071433D02*
X0325095Y0068933D01*
X0326847Y0067181D01*
X0326845Y0055808D02*
X0326847Y0055806D01*
X0326847Y0047056D01*
X0324847Y0048374D02*
X0324847Y0041500D01*
X0324847Y0048374D02*
X0328847Y0048374D01*
X0328847Y0041500D01*
X0324847Y0041500D01*
X0324847Y0042499D02*
X0328847Y0042499D01*
X0328847Y0043498D02*
X0324847Y0043498D01*
X0324847Y0044497D02*
X0328847Y0044497D01*
X0328847Y0045496D02*
X0324847Y0045496D01*
X0324847Y0046495D02*
X0328847Y0046495D01*
X0328847Y0047494D02*
X0324847Y0047494D01*
X0326847Y0041681D02*
X0330095Y0038433D01*
X0339595Y0038433D01*
X0342595Y0041433D01*
X0342595Y0051433D01*
X0346532Y0055370D01*
X0346532Y0061937D01*
X0348469Y0048374D02*
X0348469Y0041500D01*
X0348469Y0048374D02*
X0352469Y0048374D01*
X0352469Y0041500D01*
X0348469Y0041500D01*
X0348469Y0042499D02*
X0352469Y0042499D01*
X0352469Y0043498D02*
X0348469Y0043498D01*
X0348469Y0044497D02*
X0352469Y0044497D01*
X0352469Y0045496D02*
X0348469Y0045496D01*
X0348469Y0046495D02*
X0352469Y0046495D01*
X0352469Y0047494D02*
X0348469Y0047494D01*
X0356343Y0048374D02*
X0356343Y0041500D01*
X0356343Y0048374D02*
X0360343Y0048374D01*
X0360343Y0041500D01*
X0356343Y0041500D01*
X0356343Y0042499D02*
X0360343Y0042499D01*
X0360343Y0043498D02*
X0356343Y0043498D01*
X0356343Y0044497D02*
X0360343Y0044497D01*
X0360343Y0045496D02*
X0356343Y0045496D01*
X0356343Y0046495D02*
X0360343Y0046495D01*
X0360343Y0047494D02*
X0356343Y0047494D01*
X0364217Y0048374D02*
X0364217Y0041500D01*
X0364217Y0048374D02*
X0368217Y0048374D01*
X0368217Y0041500D01*
X0364217Y0041500D01*
X0364217Y0042499D02*
X0368217Y0042499D01*
X0368217Y0043498D02*
X0364217Y0043498D01*
X0364217Y0044497D02*
X0368217Y0044497D01*
X0368217Y0045496D02*
X0364217Y0045496D01*
X0364217Y0046495D02*
X0368217Y0046495D01*
X0368217Y0047494D02*
X0364217Y0047494D01*
X0332721Y0048374D02*
X0332721Y0041500D01*
X0332721Y0048374D02*
X0336721Y0048374D01*
X0336721Y0041500D01*
X0332721Y0041500D01*
X0332721Y0042499D02*
X0336721Y0042499D01*
X0336721Y0043498D02*
X0332721Y0043498D01*
X0332721Y0044497D02*
X0336721Y0044497D01*
X0336721Y0045496D02*
X0332721Y0045496D01*
X0332721Y0046495D02*
X0336721Y0046495D01*
X0336721Y0047494D02*
X0332721Y0047494D01*
X0316973Y0048374D02*
X0316973Y0041500D01*
X0316973Y0048374D02*
X0320973Y0048374D01*
X0320973Y0041500D01*
X0316973Y0041500D01*
X0316973Y0042499D02*
X0320973Y0042499D01*
X0320973Y0043498D02*
X0316973Y0043498D01*
X0316973Y0044497D02*
X0320973Y0044497D01*
X0320973Y0045496D02*
X0316973Y0045496D01*
X0316973Y0046495D02*
X0320973Y0046495D01*
X0320973Y0047494D02*
X0316973Y0047494D01*
D18*
X0322910Y0061937D03*
X0330784Y0061937D03*
X0338658Y0061937D03*
X0346532Y0061937D03*
X0362280Y0061937D03*
X0370154Y0061937D03*
X0370154Y0138709D03*
X0338610Y0138709D03*
X0322910Y0138709D03*
D19*
X0290345Y0146433D03*
X0382595Y0061433D03*
D20*
X0294595Y0221433D03*
X0305095Y0236433D03*
D21*
X0305095Y0226433D03*
X0305095Y0216433D03*
X0294595Y0211433D03*
X0305095Y0206433D03*
X0294595Y0201433D03*
X0305095Y0196433D03*
X0294595Y0191433D03*
X0305095Y0186433D03*
X0305095Y0176433D03*
D22*
X0313345Y0161433D03*
X0323345Y0161433D03*
D23*
X0166985Y0100433D03*
X0159111Y0124055D03*
X0111079Y0124055D03*
X0111079Y0076811D03*
X0159111Y0076811D03*
D24*
X0128135Y0145433D03*
X0110056Y0145433D03*
X0110056Y0165433D03*
X0128135Y0165433D03*
X0128135Y0185433D03*
X0110056Y0185433D03*
X0110056Y0205433D03*
X0128135Y0205433D03*
X0128135Y0225433D03*
X0110056Y0225433D03*
X0110056Y0245433D03*
X0128135Y0245433D03*
X0128135Y0265433D03*
X0110056Y0265433D03*
D25*
X0334595Y0259622D03*
D26*
X0334595Y0267496D03*
X0334595Y0275370D03*
X0334595Y0283244D03*
D27*
X0300845Y0133558D03*
X0290845Y0133558D03*
X0280845Y0133558D03*
X0270845Y0133558D03*
X0260845Y0133558D03*
X0250845Y0133558D03*
X0240845Y0133558D03*
X0230845Y0133558D03*
X0220845Y0133558D03*
X0210845Y0133558D03*
X0200845Y0133558D03*
X0190845Y0133558D03*
X0190845Y0043433D03*
X0200845Y0043433D03*
X0210845Y0043433D03*
X0220845Y0043433D03*
X0230845Y0043433D03*
X0240845Y0043433D03*
X0250845Y0043433D03*
X0260845Y0043433D03*
X0270845Y0043433D03*
X0280845Y0043433D03*
X0290845Y0043433D03*
X0300845Y0043433D03*
D28*
X0324595Y0190120D03*
D29*
X0326895Y0218933D03*
X0330095Y0218933D03*
X0333295Y0218933D03*
D30*
X0332595Y0218933D02*
X0330095Y0218933D01*
X0326847Y0067181D02*
X0326845Y0067179D01*
X0326845Y0055808D01*
D31*
X0312620Y0270908D03*
D32*
X0344095Y0243933D03*
X0350095Y0243933D03*
X0356095Y0243933D03*
D33*
X0360195Y0247333D02*
X0360195Y0247829D01*
X0359141Y0248883D01*
X0353095Y0248883D01*
X0353095Y0284530D01*
X0352638Y0285632D01*
X0342638Y0295632D01*
X0341795Y0296476D01*
X0340692Y0296933D01*
X0199498Y0296933D01*
X0198396Y0296476D01*
X0185896Y0283976D01*
X0185052Y0283132D01*
X0184595Y0282030D01*
X0184595Y0279690D01*
X0179595Y0279690D01*
X0179595Y0297283D01*
X0374412Y0297283D01*
X0395945Y0275750D01*
X0395945Y0059617D01*
X0374412Y0038083D01*
X0342498Y0038083D01*
X0343548Y0039133D01*
X0344895Y0040480D01*
X0344895Y0050480D01*
X0348832Y0054417D01*
X0348832Y0056200D01*
X0349778Y0056200D01*
X0350832Y0057254D01*
X0350832Y0066620D01*
X0349778Y0067674D01*
X0343287Y0067674D01*
X0342595Y0066983D01*
X0341904Y0067674D01*
X0341258Y0067674D01*
X0341258Y0075887D01*
X0340862Y0076843D01*
X0340131Y0077574D01*
X0321573Y0096132D01*
X0321573Y0099649D01*
X0321601Y0099677D01*
X0322073Y0100816D01*
X0322073Y0102050D01*
X0321988Y0102255D01*
X0322910Y0103176D01*
X0323894Y0102192D01*
X0323995Y0102192D01*
X0323995Y0098717D01*
X0323967Y0098689D01*
X0323495Y0097550D01*
X0323495Y0096316D01*
X0323967Y0095177D01*
X0324839Y0094305D01*
X0325979Y0093833D01*
X0327212Y0093833D01*
X0328351Y0094305D01*
X0329223Y0095177D01*
X0329695Y0096316D01*
X0329695Y0097550D01*
X0329223Y0098689D01*
X0329195Y0098717D01*
X0329195Y0102192D01*
X0329800Y0102192D01*
X0331147Y0103539D01*
X0331147Y0112319D01*
X0329800Y0113666D01*
X0329447Y0113666D01*
X0329447Y0122698D01*
X0329051Y0123654D01*
X0325195Y0127510D01*
X0325195Y0132972D01*
X0326156Y0132972D01*
X0327210Y0134026D01*
X0327210Y0143391D01*
X0326156Y0144446D01*
X0319665Y0144446D01*
X0318610Y0143391D01*
X0318610Y0141595D01*
X0310195Y0150010D01*
X0310195Y0158361D01*
X0310853Y0157703D01*
X0312470Y0157033D01*
X0314220Y0157033D01*
X0315838Y0157703D01*
X0317075Y0158941D01*
X0317745Y0160558D01*
X0317745Y0162308D01*
X0317075Y0163925D01*
X0315838Y0165163D01*
X0314220Y0165833D01*
X0313172Y0165833D01*
X0317299Y0169960D01*
X0317695Y0170916D01*
X0317695Y0177939D01*
X0325736Y0169898D01*
X0326618Y0169533D01*
X0345470Y0169533D01*
X0345782Y0169220D01*
X0346959Y0168733D01*
X0348232Y0168733D01*
X0349408Y0169220D01*
X0350308Y0170120D01*
X0350795Y0171297D01*
X0350795Y0172570D01*
X0350308Y0173746D01*
X0349408Y0174646D01*
X0348232Y0175133D01*
X0346959Y0175133D01*
X0345782Y0174646D01*
X0345470Y0174333D01*
X0328089Y0174333D01*
X0309087Y0193336D01*
X0309345Y0193594D01*
X0310108Y0195436D01*
X0310108Y0197430D01*
X0309345Y0199272D01*
X0307935Y0200683D01*
X0306123Y0201433D01*
X0307935Y0202184D01*
X0309345Y0203594D01*
X0310108Y0205436D01*
X0310108Y0207430D01*
X0309345Y0209272D01*
X0307935Y0210683D01*
X0306123Y0211433D01*
X0307935Y0212184D01*
X0309345Y0213594D01*
X0310108Y0215436D01*
X0310108Y0217430D01*
X0309345Y0219272D01*
X0307935Y0220683D01*
X0306123Y0221433D01*
X0307935Y0222184D01*
X0309345Y0223594D01*
X0310108Y0225436D01*
X0310108Y0227430D01*
X0309345Y0229272D01*
X0307935Y0230683D01*
X0306153Y0231420D01*
X0308545Y0231420D01*
X0309003Y0231543D01*
X0309413Y0231780D01*
X0309748Y0232115D01*
X0309985Y0232526D01*
X0310108Y0232983D01*
X0310108Y0236229D01*
X0305299Y0236229D01*
X0305299Y0236637D01*
X0304891Y0236637D01*
X0304891Y0236229D01*
X0300083Y0236229D01*
X0300083Y0232983D01*
X0300205Y0232526D01*
X0300442Y0232115D01*
X0300777Y0231780D01*
X0301188Y0231543D01*
X0301646Y0231420D01*
X0304037Y0231420D01*
X0302256Y0230683D01*
X0300846Y0229272D01*
X0300083Y0227430D01*
X0300083Y0225436D01*
X0300846Y0223594D01*
X0302256Y0222184D01*
X0304068Y0221433D01*
X0302256Y0220683D01*
X0300846Y0219272D01*
X0300083Y0217430D01*
X0300083Y0215436D01*
X0300846Y0213594D01*
X0302256Y0212184D01*
X0304068Y0211433D01*
X0302256Y0210683D01*
X0300846Y0209272D01*
X0300083Y0207430D01*
X0300083Y0205436D01*
X0300846Y0203594D01*
X0302256Y0202184D01*
X0304068Y0201433D01*
X0302256Y0200683D01*
X0300846Y0199272D01*
X0300664Y0198833D01*
X0298944Y0198833D01*
X0299608Y0200436D01*
X0299608Y0202430D01*
X0298845Y0204272D01*
X0297435Y0205683D01*
X0295592Y0206446D01*
X0295149Y0206446D01*
X0295769Y0206544D01*
X0296519Y0206788D01*
X0297222Y0207146D01*
X0297861Y0207610D01*
X0298419Y0208168D01*
X0298882Y0208806D01*
X0299240Y0209509D01*
X0299484Y0210259D01*
X0299608Y0211039D01*
X0299608Y0211229D01*
X0294799Y0211229D01*
X0294799Y0211637D01*
X0299608Y0211637D01*
X0299608Y0211828D01*
X0299484Y0212607D01*
X0299240Y0213357D01*
X0298882Y0214060D01*
X0298419Y0214699D01*
X0297861Y0215256D01*
X0297222Y0215720D01*
X0296519Y0216078D01*
X0295769Y0216322D01*
X0295149Y0216420D01*
X0298553Y0216420D01*
X0299608Y0217475D01*
X0299608Y0225391D01*
X0298553Y0226446D01*
X0290637Y0226446D01*
X0289583Y0225391D01*
X0289583Y0217475D01*
X0290637Y0216420D01*
X0294042Y0216420D01*
X0293421Y0216322D01*
X0292671Y0216078D01*
X0291968Y0215720D01*
X0291330Y0215256D01*
X0290772Y0214699D01*
X0290308Y0214060D01*
X0289950Y0213357D01*
X0289706Y0212607D01*
X0289583Y0211828D01*
X0289583Y0211637D01*
X0294391Y0211637D01*
X0294391Y0211229D01*
X0289583Y0211229D01*
X0289583Y0211039D01*
X0289706Y0210259D01*
X0289950Y0209509D01*
X0290308Y0208806D01*
X0290772Y0208168D01*
X0291330Y0207610D01*
X0291968Y0207146D01*
X0292671Y0206788D01*
X0293421Y0206544D01*
X0294042Y0206446D01*
X0293598Y0206446D01*
X0291756Y0205683D01*
X0290639Y0204566D01*
X0285195Y0210010D01*
X0285195Y0241992D01*
X0285578Y0241833D01*
X0318170Y0241833D01*
X0318282Y0241720D01*
X0319459Y0241233D01*
X0319618Y0241233D01*
X0338918Y0221933D01*
X0336345Y0221933D01*
X0336345Y0222179D01*
X0335291Y0223233D01*
X0327538Y0223233D01*
X0323377Y0227393D01*
X0322978Y0228359D01*
X0322021Y0229315D01*
X0320771Y0229833D01*
X0319419Y0229833D01*
X0318169Y0229315D01*
X0317213Y0228359D01*
X0316695Y0227109D01*
X0316695Y0225757D01*
X0317213Y0224507D01*
X0318169Y0223551D01*
X0319135Y0223151D01*
X0323845Y0218440D01*
X0323845Y0215687D01*
X0324900Y0214633D01*
X0330345Y0214633D01*
X0330345Y0202846D01*
X0329581Y0202846D01*
X0327706Y0202069D01*
X0326272Y0200635D01*
X0325495Y0198760D01*
X0325495Y0196731D01*
X0326121Y0195220D01*
X0324595Y0195220D01*
X0323069Y0195220D01*
X0323695Y0196731D01*
X0323695Y0198760D01*
X0322919Y0200635D01*
X0321484Y0202069D01*
X0319610Y0202846D01*
X0317581Y0202846D01*
X0315706Y0202069D01*
X0314272Y0200635D01*
X0313495Y0198760D01*
X0313495Y0196731D01*
X0314272Y0194857D01*
X0315706Y0193422D01*
X0317581Y0192646D01*
X0319610Y0192646D01*
X0320119Y0192857D01*
X0319495Y0192233D01*
X0319495Y0190121D01*
X0324595Y0190121D01*
X0324595Y0195220D01*
X0324595Y0190121D01*
X0324595Y0190121D01*
X0324595Y0190120D01*
X0324595Y0190120D01*
X0324595Y0185020D01*
X0322483Y0185020D01*
X0319495Y0188008D01*
X0319495Y0190120D01*
X0324595Y0190120D01*
X0324595Y0185020D01*
X0326708Y0185020D01*
X0329695Y0188008D01*
X0329695Y0190120D01*
X0324595Y0190120D01*
X0324595Y0190121D01*
X0329695Y0190121D01*
X0329695Y0192233D01*
X0329071Y0192857D01*
X0329581Y0192646D01*
X0331121Y0192646D01*
X0330495Y0191135D01*
X0330495Y0189106D01*
X0331272Y0187232D01*
X0332706Y0185797D01*
X0334581Y0185020D01*
X0336610Y0185020D01*
X0338484Y0185797D01*
X0339919Y0187232D01*
X0340695Y0189106D01*
X0340695Y0191135D01*
X0339919Y0193009D01*
X0338484Y0194444D01*
X0336610Y0195220D01*
X0335069Y0195220D01*
X0335695Y0196731D01*
X0335695Y0198540D01*
X0335888Y0198734D01*
X0336345Y0199836D01*
X0336345Y0215933D01*
X0338852Y0215933D01*
X0338995Y0215790D01*
X0338995Y0215717D01*
X0339543Y0214394D01*
X0340556Y0213381D01*
X0341879Y0212833D01*
X0343311Y0212833D01*
X0344634Y0213381D01*
X0345647Y0214394D01*
X0345884Y0214967D01*
X0349995Y0210856D01*
X0349995Y0194109D01*
X0349882Y0193996D01*
X0349395Y0192820D01*
X0349395Y0191547D01*
X0349882Y0190370D01*
X0350782Y0189470D01*
X0351959Y0188983D01*
X0353232Y0188983D01*
X0354408Y0189470D01*
X0355308Y0190370D01*
X0355795Y0191547D01*
X0355795Y0192820D01*
X0355308Y0193996D01*
X0355195Y0194109D01*
X0355195Y0202799D01*
X0355959Y0202483D01*
X0357232Y0202483D01*
X0357945Y0202779D01*
X0357945Y0175177D01*
X0346601Y0163833D01*
X0327114Y0163833D01*
X0327075Y0163925D01*
X0325838Y0165163D01*
X0324220Y0165833D01*
X0322470Y0165833D01*
X0320853Y0165163D01*
X0319615Y0163925D01*
X0318945Y0162308D01*
X0318945Y0160558D01*
X0319615Y0158941D01*
X0320853Y0157703D01*
X0322470Y0157033D01*
X0324220Y0157033D01*
X0325838Y0157703D01*
X0327075Y0158941D01*
X0327114Y0159033D01*
X0348073Y0159033D01*
X0348955Y0159398D01*
X0349630Y0160074D01*
X0361695Y0172139D01*
X0361695Y0148257D01*
X0362213Y0147007D01*
X0363169Y0146051D01*
X0365854Y0143366D01*
X0365854Y0134026D01*
X0366754Y0133126D01*
X0366754Y0110757D01*
X0367272Y0109507D01*
X0371533Y0105246D01*
X0371933Y0104281D01*
X0373002Y0103212D01*
X0374398Y0102633D01*
X0375910Y0102633D01*
X0377307Y0103212D01*
X0378376Y0104281D01*
X0378954Y0105677D01*
X0378954Y0107189D01*
X0378376Y0108586D01*
X0377307Y0109655D01*
X0376341Y0110055D01*
X0373554Y0112841D01*
X0373554Y0133126D01*
X0374454Y0134026D01*
X0374454Y0143391D01*
X0373554Y0144291D01*
X0373554Y0144550D01*
X0373037Y0145800D01*
X0368495Y0150341D01*
X0368495Y0252525D01*
X0372109Y0256138D01*
X0373811Y0255433D01*
X0383879Y0255433D01*
X0385974Y0256301D01*
X0387577Y0257904D01*
X0388445Y0259999D01*
X0388445Y0262267D01*
X0387577Y0264362D01*
X0385974Y0265965D01*
X0383879Y0266833D01*
X0373811Y0266833D01*
X0371716Y0265965D01*
X0370113Y0264362D01*
X0369687Y0263333D01*
X0362213Y0255859D01*
X0361695Y0254609D01*
X0361695Y0247841D01*
X0361187Y0247333D01*
X0360195Y0247333D01*
X0360195Y0247437D02*
X0361290Y0247437D01*
X0361695Y0249035D02*
X0353095Y0249035D01*
X0353095Y0250634D02*
X0361695Y0250634D01*
X0361695Y0252232D02*
X0353095Y0252232D01*
X0353095Y0253831D02*
X0361695Y0253831D01*
X0362035Y0255429D02*
X0353095Y0255429D01*
X0353095Y0257028D02*
X0363381Y0257028D01*
X0364980Y0258626D02*
X0353095Y0258626D01*
X0353095Y0260225D02*
X0366578Y0260225D01*
X0368177Y0261823D02*
X0353095Y0261823D01*
X0353095Y0263422D02*
X0369723Y0263422D01*
X0370771Y0265020D02*
X0353095Y0265020D01*
X0353095Y0266619D02*
X0373294Y0266619D01*
X0384396Y0266619D02*
X0395945Y0266619D01*
X0395945Y0268217D02*
X0353095Y0268217D01*
X0353095Y0269816D02*
X0395945Y0269816D01*
X0395945Y0271414D02*
X0353095Y0271414D01*
X0353095Y0273013D02*
X0395945Y0273013D01*
X0395945Y0274611D02*
X0353095Y0274611D01*
X0353095Y0276210D02*
X0395485Y0276210D01*
X0393886Y0277808D02*
X0353095Y0277808D01*
X0353095Y0279407D02*
X0392288Y0279407D01*
X0390689Y0281005D02*
X0353095Y0281005D01*
X0353095Y0282604D02*
X0389091Y0282604D01*
X0387492Y0284202D02*
X0353095Y0284202D01*
X0352470Y0285801D02*
X0385894Y0285801D01*
X0384295Y0287399D02*
X0350871Y0287399D01*
X0349273Y0288998D02*
X0382697Y0288998D01*
X0381098Y0290596D02*
X0347674Y0290596D01*
X0346076Y0292195D02*
X0379500Y0292195D01*
X0377901Y0293793D02*
X0344477Y0293793D01*
X0342879Y0295392D02*
X0376303Y0295392D01*
X0374704Y0296990D02*
X0179595Y0296990D01*
X0179595Y0295392D02*
X0197311Y0295392D01*
X0195713Y0293793D02*
X0179595Y0293793D01*
X0179595Y0292195D02*
X0194114Y0292195D01*
X0192516Y0290596D02*
X0179595Y0290596D01*
X0179595Y0288998D02*
X0190917Y0288998D01*
X0189319Y0287399D02*
X0179595Y0287399D01*
X0179595Y0285801D02*
X0187720Y0285801D01*
X0186122Y0284202D02*
X0179595Y0284202D01*
X0179595Y0282604D02*
X0184833Y0282604D01*
X0184595Y0281005D02*
X0179595Y0281005D01*
X0180099Y0275390D02*
X0180306Y0275183D01*
X0181345Y0270183D02*
X0180095Y0268933D01*
X0180095Y0265394D01*
X0180099Y0265390D01*
X0190565Y0265020D02*
X0230974Y0265020D01*
X0231058Y0264764D02*
X0231372Y0264147D01*
X0231455Y0264033D01*
X0229521Y0264033D01*
X0229408Y0264146D01*
X0228232Y0264633D01*
X0226959Y0264633D01*
X0225782Y0264146D01*
X0224882Y0263246D01*
X0224395Y0262070D01*
X0224395Y0260797D01*
X0224882Y0259620D01*
X0225782Y0258720D01*
X0226959Y0258233D01*
X0228232Y0258233D01*
X0229408Y0258720D01*
X0229521Y0258833D01*
X0231426Y0258833D01*
X0231372Y0258759D01*
X0231058Y0258142D01*
X0230843Y0257483D01*
X0230735Y0256799D01*
X0230735Y0256453D01*
X0230735Y0256107D01*
X0230843Y0255423D01*
X0231058Y0254764D01*
X0231372Y0254147D01*
X0231455Y0254033D01*
X0216172Y0254033D01*
X0214060Y0256145D01*
X0214060Y0259679D01*
X0213006Y0260733D01*
X0205216Y0260733D01*
X0204161Y0259679D01*
X0204161Y0251101D01*
X0205216Y0250046D01*
X0212805Y0250046D01*
X0213622Y0249229D01*
X0214578Y0248833D01*
X0220470Y0248833D01*
X0219882Y0248246D01*
X0219395Y0247070D01*
X0219395Y0245797D01*
X0219882Y0244620D01*
X0220782Y0243720D01*
X0221959Y0243233D01*
X0222118Y0243233D01*
X0224995Y0240356D01*
X0224995Y0227710D01*
X0215111Y0237594D01*
X0214156Y0237990D01*
X0214060Y0237990D01*
X0214060Y0239679D01*
X0213006Y0240733D01*
X0205216Y0240733D01*
X0204161Y0239679D01*
X0204161Y0231101D01*
X0205216Y0230046D01*
X0213006Y0230046D01*
X0214060Y0231101D01*
X0214060Y0231291D01*
X0217446Y0227905D01*
X0217117Y0227769D01*
X0216259Y0226911D01*
X0215795Y0225790D01*
X0215795Y0224576D01*
X0216245Y0223490D01*
X0216245Y0219362D01*
X0215952Y0219483D01*
X0214738Y0219483D01*
X0214060Y0219202D01*
X0214060Y0219679D01*
X0213006Y0220733D01*
X0205216Y0220733D01*
X0204161Y0219679D01*
X0204161Y0211101D01*
X0205216Y0210046D01*
X0213006Y0210046D01*
X0214060Y0211101D01*
X0214060Y0213664D01*
X0214738Y0213383D01*
X0215952Y0213383D01*
X0216245Y0213505D01*
X0216245Y0199154D01*
X0215452Y0199483D01*
X0214238Y0199483D01*
X0214060Y0199409D01*
X0214060Y0199679D01*
X0213006Y0200733D01*
X0205216Y0200733D01*
X0204161Y0199679D01*
X0204161Y0191101D01*
X0205216Y0190046D01*
X0213006Y0190046D01*
X0214060Y0191101D01*
X0214060Y0193457D01*
X0214238Y0193383D01*
X0215452Y0193383D01*
X0216245Y0193712D01*
X0216245Y0184666D01*
X0216641Y0183710D01*
X0221122Y0179229D01*
X0222078Y0178833D01*
X0231358Y0178833D01*
X0231066Y0178128D01*
X0214238Y0178128D01*
X0214238Y0179816D01*
X0213183Y0180871D01*
X0205393Y0180871D01*
X0204338Y0179816D01*
X0204338Y0171239D01*
X0205393Y0170184D01*
X0213183Y0170184D01*
X0214238Y0171239D01*
X0214238Y0172928D01*
X0232438Y0172928D01*
X0232643Y0172723D01*
X0234260Y0172053D01*
X0241210Y0172053D01*
X0242828Y0172723D01*
X0244065Y0173961D01*
X0244735Y0175578D01*
X0244735Y0177328D01*
X0244112Y0178833D01*
X0246518Y0178833D01*
X0261102Y0164249D01*
X0261324Y0164157D01*
X0261405Y0163961D01*
X0262643Y0162723D01*
X0264260Y0162053D01*
X0271210Y0162053D01*
X0272828Y0162723D01*
X0274065Y0163961D01*
X0274735Y0165578D01*
X0274735Y0167328D01*
X0274065Y0168945D01*
X0272828Y0170183D01*
X0271210Y0170853D01*
X0264260Y0170853D01*
X0262643Y0170183D01*
X0262582Y0170123D01*
X0249799Y0182906D01*
X0249068Y0183637D01*
X0248112Y0184033D01*
X0244095Y0184033D01*
X0244735Y0185578D01*
X0244735Y0187328D01*
X0244112Y0188833D01*
X0246518Y0188833D01*
X0261102Y0174249D01*
X0261324Y0174157D01*
X0261405Y0173961D01*
X0262643Y0172723D01*
X0264260Y0172053D01*
X0271210Y0172053D01*
X0272828Y0172723D01*
X0274065Y0173961D01*
X0274735Y0175578D01*
X0274735Y0177328D01*
X0274065Y0178945D01*
X0272828Y0180183D01*
X0271210Y0180853D01*
X0264260Y0180853D01*
X0262643Y0180183D01*
X0262582Y0180123D01*
X0249799Y0192906D01*
X0249068Y0193637D01*
X0248112Y0194033D01*
X0244095Y0194033D01*
X0244735Y0195578D01*
X0244735Y0197328D01*
X0244112Y0198833D01*
X0244518Y0198833D01*
X0259102Y0184249D01*
X0260058Y0183853D01*
X0261513Y0183853D01*
X0262643Y0182723D01*
X0264260Y0182053D01*
X0271210Y0182053D01*
X0272828Y0182723D01*
X0274065Y0183961D01*
X0274735Y0185578D01*
X0274735Y0187328D01*
X0274065Y0188945D01*
X0272828Y0190183D01*
X0271210Y0190853D01*
X0264260Y0190853D01*
X0262643Y0190183D01*
X0261582Y0189123D01*
X0256852Y0193853D01*
X0261513Y0193853D01*
X0262643Y0192723D01*
X0264260Y0192053D01*
X0271210Y0192053D01*
X0272828Y0192723D01*
X0274065Y0193961D01*
X0274735Y0195578D01*
X0274735Y0197328D01*
X0274065Y0198945D01*
X0273978Y0199033D01*
X0276601Y0199033D01*
X0280191Y0195443D01*
X0280391Y0194960D01*
X0284995Y0190356D01*
X0284995Y0158416D01*
X0285391Y0157460D01*
X0286122Y0156729D01*
X0292398Y0150454D01*
X0291240Y0150933D01*
X0289450Y0150933D01*
X0287796Y0150248D01*
X0286582Y0149034D01*
X0273960Y0149051D01*
X0272828Y0150183D01*
X0271210Y0150853D01*
X0264260Y0150853D01*
X0262643Y0150183D01*
X0261405Y0148945D01*
X0260735Y0147328D01*
X0260735Y0145578D01*
X0261405Y0143961D01*
X0262643Y0142723D01*
X0264260Y0142053D01*
X0271210Y0142053D01*
X0272828Y0142723D01*
X0273956Y0143851D01*
X0286576Y0143834D01*
X0286578Y0143833D01*
X0286581Y0143833D01*
X0287796Y0142618D01*
X0289450Y0141933D01*
X0291240Y0141933D01*
X0292894Y0142618D01*
X0294160Y0143884D01*
X0294845Y0145538D01*
X0294845Y0147328D01*
X0294366Y0148486D01*
X0307495Y0135356D01*
X0307495Y0100859D01*
X0307382Y0100746D01*
X0306895Y0099570D01*
X0306895Y0098297D01*
X0307382Y0097120D01*
X0308282Y0096220D01*
X0309459Y0095733D01*
X0310732Y0095733D01*
X0311908Y0096220D01*
X0312808Y0097120D01*
X0313295Y0098297D01*
X0313295Y0099570D01*
X0312808Y0100746D01*
X0312695Y0100859D01*
X0312695Y0109342D01*
X0312959Y0109233D01*
X0314232Y0109233D01*
X0314673Y0109416D01*
X0314673Y0103539D01*
X0315958Y0102255D01*
X0315873Y0102050D01*
X0315873Y0100816D01*
X0316345Y0099677D01*
X0316373Y0099649D01*
X0316373Y0094538D01*
X0316582Y0094033D01*
X0278672Y0094033D01*
X0273483Y0099223D01*
X0273483Y0118663D01*
X0273998Y0118877D01*
X0275545Y0120424D01*
X0275883Y0121238D01*
X0276220Y0120424D01*
X0277767Y0118877D01*
X0279789Y0118039D01*
X0281977Y0118039D01*
X0283998Y0118877D01*
X0285545Y0120424D01*
X0285882Y0121238D01*
X0286179Y0120657D01*
X0286687Y0119956D01*
X0287300Y0119344D01*
X0288000Y0118835D01*
X0288771Y0118442D01*
X0289595Y0118175D01*
X0290450Y0118039D01*
X0290683Y0118039D01*
X0290683Y0123339D01*
X0291083Y0123339D01*
X0291083Y0118039D01*
X0291315Y0118039D01*
X0292170Y0118175D01*
X0292994Y0118442D01*
X0293765Y0118835D01*
X0294466Y0119344D01*
X0295078Y0119956D01*
X0295587Y0120657D01*
X0295883Y0121238D01*
X0296220Y0120424D01*
X0297767Y0118877D01*
X0299789Y0118039D01*
X0301977Y0118039D01*
X0303998Y0118877D01*
X0305545Y0120424D01*
X0306383Y0122445D01*
X0306383Y0124633D01*
X0305545Y0126655D01*
X0303998Y0128202D01*
X0302816Y0128692D01*
X0303819Y0129107D01*
X0305296Y0130584D01*
X0306095Y0132514D01*
X0306095Y0134602D01*
X0305296Y0136532D01*
X0303819Y0138009D01*
X0301889Y0138808D01*
X0299801Y0138808D01*
X0297871Y0138009D01*
X0296394Y0136532D01*
X0295837Y0135185D01*
X0295710Y0135573D01*
X0295335Y0136310D01*
X0294850Y0136978D01*
X0294265Y0137563D01*
X0293597Y0138048D01*
X0292860Y0138423D01*
X0292075Y0138679D01*
X0291258Y0138808D01*
X0290920Y0138808D01*
X0290920Y0133633D01*
X0290770Y0133633D01*
X0290770Y0138808D01*
X0290432Y0138808D01*
X0289616Y0138679D01*
X0288830Y0138423D01*
X0288094Y0138048D01*
X0287425Y0137563D01*
X0286841Y0136978D01*
X0286355Y0136310D01*
X0285980Y0135573D01*
X0285854Y0135185D01*
X0285296Y0136532D01*
X0283819Y0138009D01*
X0281889Y0138808D01*
X0279801Y0138808D01*
X0277871Y0138009D01*
X0276394Y0136532D01*
X0275845Y0135206D01*
X0275296Y0136532D01*
X0273819Y0138009D01*
X0271889Y0138808D01*
X0269801Y0138808D01*
X0267871Y0138009D01*
X0266394Y0136532D01*
X0265845Y0135206D01*
X0265296Y0136532D01*
X0263819Y0138009D01*
X0261889Y0138808D01*
X0259801Y0138808D01*
X0257871Y0138009D01*
X0256394Y0136532D01*
X0255845Y0135206D01*
X0255296Y0136532D01*
X0253819Y0138009D01*
X0253132Y0138293D01*
X0253799Y0138960D01*
X0259799Y0144960D01*
X0260195Y0145916D01*
X0260195Y0149508D01*
X0260308Y0149620D01*
X0260795Y0150797D01*
X0260795Y0152070D01*
X0260308Y0153246D01*
X0259721Y0153833D01*
X0261533Y0153833D01*
X0262643Y0152723D01*
X0264260Y0152053D01*
X0271210Y0152053D01*
X0272828Y0152723D01*
X0274065Y0153961D01*
X0274735Y0155578D01*
X0274735Y0157328D01*
X0274065Y0158945D01*
X0272828Y0160183D01*
X0271210Y0160853D01*
X0264260Y0160853D01*
X0262643Y0160183D01*
X0261493Y0159033D01*
X0252078Y0159033D01*
X0251122Y0158637D01*
X0246518Y0154033D01*
X0244095Y0154033D01*
X0244735Y0155578D01*
X0244735Y0157328D01*
X0244065Y0158945D01*
X0242828Y0160183D01*
X0241210Y0160853D01*
X0234260Y0160853D01*
X0232643Y0160183D01*
X0231405Y0158945D01*
X0231009Y0157990D01*
X0214060Y0157990D01*
X0214060Y0159679D01*
X0213006Y0160733D01*
X0205216Y0160733D01*
X0204161Y0159679D01*
X0204161Y0151101D01*
X0205216Y0150046D01*
X0212532Y0150046D01*
X0211518Y0149033D01*
X0195407Y0149033D01*
X0196421Y0150046D01*
X0201982Y0150046D01*
X0203037Y0151101D01*
X0203037Y0159679D01*
X0201982Y0160733D01*
X0194192Y0160733D01*
X0193138Y0159679D01*
X0193138Y0154117D01*
X0191514Y0152493D01*
X0189401Y0152493D01*
X0190278Y0153370D01*
X0190765Y0154547D01*
X0190765Y0155820D01*
X0190565Y0156302D01*
X0190565Y0171579D01*
X0190839Y0171305D01*
X0191979Y0170833D01*
X0193212Y0170833D01*
X0193571Y0170982D01*
X0194369Y0170184D01*
X0202160Y0170184D01*
X0203214Y0171239D01*
X0203214Y0179816D01*
X0202160Y0180871D01*
X0194369Y0180871D01*
X0193315Y0179816D01*
X0193315Y0177979D01*
X0192717Y0177732D01*
X0192018Y0177033D01*
X0191979Y0177033D01*
X0190839Y0176561D01*
X0190570Y0176292D01*
X0190365Y0176785D01*
X0190365Y0191779D01*
X0190839Y0191305D01*
X0191979Y0190833D01*
X0193212Y0190833D01*
X0193349Y0190890D01*
X0194192Y0190046D01*
X0201982Y0190046D01*
X0203037Y0191101D01*
X0203037Y0199679D01*
X0201982Y0200733D01*
X0194192Y0200733D01*
X0193138Y0199679D01*
X0193138Y0197825D01*
X0192579Y0197594D01*
X0192018Y0197033D01*
X0191979Y0197033D01*
X0190839Y0196561D01*
X0190570Y0196292D01*
X0190565Y0196302D01*
X0190565Y0211579D01*
X0190839Y0211305D01*
X0191979Y0210833D01*
X0193212Y0210833D01*
X0193349Y0210890D01*
X0194192Y0210046D01*
X0201982Y0210046D01*
X0203037Y0211101D01*
X0203037Y0219679D01*
X0201982Y0220733D01*
X0194192Y0220733D01*
X0193138Y0219679D01*
X0193138Y0217825D01*
X0192579Y0217594D01*
X0192018Y0217033D01*
X0191979Y0217033D01*
X0190839Y0216561D01*
X0190570Y0216292D01*
X0190565Y0216302D01*
X0190565Y0231579D01*
X0190839Y0231305D01*
X0191979Y0230833D01*
X0193212Y0230833D01*
X0193349Y0230890D01*
X0194192Y0230046D01*
X0201982Y0230046D01*
X0203037Y0231101D01*
X0203037Y0239679D01*
X0201982Y0240733D01*
X0194192Y0240733D01*
X0193138Y0239679D01*
X0193138Y0237825D01*
X0192579Y0237594D01*
X0192018Y0237033D01*
X0191979Y0237033D01*
X0190839Y0236561D01*
X0190570Y0236292D01*
X0190565Y0236302D01*
X0190565Y0251579D01*
X0190839Y0251305D01*
X0191979Y0250833D01*
X0193212Y0250833D01*
X0193349Y0250890D01*
X0194192Y0250046D01*
X0201982Y0250046D01*
X0203037Y0251101D01*
X0203037Y0259679D01*
X0201982Y0260733D01*
X0194192Y0260733D01*
X0193138Y0259679D01*
X0193138Y0257825D01*
X0192579Y0257594D01*
X0192018Y0257033D01*
X0191979Y0257033D01*
X0190839Y0256561D01*
X0190570Y0256292D01*
X0190565Y0256302D01*
X0190565Y0271579D01*
X0190839Y0271305D01*
X0191979Y0270833D01*
X0193212Y0270833D01*
X0193418Y0270919D01*
X0193867Y0270470D01*
X0201658Y0270470D01*
X0202712Y0271524D01*
X0202712Y0280102D01*
X0201658Y0281156D01*
X0193867Y0281156D01*
X0192813Y0280102D01*
X0192813Y0277828D01*
X0192018Y0277033D01*
X0191979Y0277033D01*
X0190839Y0276561D01*
X0190595Y0276317D01*
X0190595Y0280190D01*
X0201338Y0290933D01*
X0272408Y0290933D01*
X0272256Y0290671D01*
X0272134Y0290213D01*
X0272134Y0287208D01*
X0276308Y0287208D01*
X0276308Y0285658D01*
X0272134Y0285658D01*
X0272134Y0282653D01*
X0272256Y0282195D01*
X0272493Y0281785D01*
X0272828Y0281449D01*
X0273239Y0281212D01*
X0273697Y0281090D01*
X0276309Y0281090D01*
X0276309Y0285658D01*
X0277858Y0285658D01*
X0277858Y0281090D01*
X0280470Y0281090D01*
X0280928Y0281212D01*
X0281338Y0281449D01*
X0281673Y0281785D01*
X0281910Y0282195D01*
X0282033Y0282653D01*
X0282033Y0285658D01*
X0277858Y0285658D01*
X0277858Y0287208D01*
X0282033Y0287208D01*
X0282033Y0290213D01*
X0281910Y0290671D01*
X0281759Y0290933D01*
X0283368Y0290933D01*
X0283157Y0290722D01*
X0283157Y0282144D01*
X0284212Y0281090D01*
X0292002Y0281090D01*
X0293057Y0282144D01*
X0293057Y0283833D01*
X0293311Y0283833D01*
X0293339Y0283805D01*
X0294479Y0283333D01*
X0295712Y0283333D01*
X0296851Y0283805D01*
X0296879Y0283833D01*
X0297134Y0283833D01*
X0297134Y0282144D01*
X0298188Y0281090D01*
X0305979Y0281090D01*
X0307033Y0282144D01*
X0307033Y0290722D01*
X0306822Y0290933D01*
X0308368Y0290933D01*
X0308157Y0290722D01*
X0308157Y0283172D01*
X0301402Y0276417D01*
X0299480Y0275621D01*
X0297932Y0274074D01*
X0297698Y0273508D01*
X0297471Y0273508D01*
X0297258Y0274024D01*
X0295711Y0275571D01*
X0293689Y0276408D01*
X0291501Y0276408D01*
X0289480Y0275571D01*
X0287932Y0274024D01*
X0287605Y0273234D01*
X0287258Y0274074D01*
X0285711Y0275621D01*
X0283689Y0276458D01*
X0281501Y0276458D01*
X0279480Y0275621D01*
X0277932Y0274074D01*
X0277095Y0272052D01*
X0277095Y0269864D01*
X0277932Y0267843D01*
X0279480Y0266295D01*
X0281205Y0265581D01*
X0290896Y0255890D01*
X0291998Y0255433D01*
X0321852Y0255433D01*
X0335052Y0242234D01*
X0335896Y0241390D01*
X0336998Y0240933D01*
X0339995Y0240933D01*
X0339995Y0240037D01*
X0340695Y0239337D01*
X0340695Y0233760D01*
X0323795Y0250660D01*
X0323795Y0250820D01*
X0323308Y0251996D01*
X0322408Y0252896D01*
X0321232Y0253383D01*
X0319959Y0253383D01*
X0318782Y0252896D01*
X0318670Y0252783D01*
X0292422Y0252783D01*
X0276548Y0268657D01*
X0275592Y0269053D01*
X0273958Y0269053D01*
X0272828Y0270183D01*
X0271210Y0270853D01*
X0264260Y0270853D01*
X0262643Y0270183D01*
X0261405Y0268945D01*
X0260735Y0267328D01*
X0260735Y0265578D01*
X0261405Y0263961D01*
X0262643Y0262723D01*
X0264260Y0262053D01*
X0271210Y0262053D01*
X0272828Y0262723D01*
X0273958Y0263853D01*
X0273998Y0263853D01*
X0289141Y0248710D01*
X0289872Y0247979D01*
X0290828Y0247583D01*
X0318670Y0247583D01*
X0318782Y0247470D01*
X0318924Y0247412D01*
X0318282Y0247146D01*
X0318170Y0247033D01*
X0287172Y0247033D01*
X0284799Y0249406D01*
X0276299Y0257906D01*
X0275568Y0258637D01*
X0274612Y0259033D01*
X0273978Y0259033D01*
X0272828Y0260183D01*
X0271210Y0260853D01*
X0264260Y0260853D01*
X0262643Y0260183D01*
X0261405Y0258945D01*
X0260735Y0257328D01*
X0260735Y0255578D01*
X0261405Y0253961D01*
X0262643Y0252723D01*
X0264260Y0252053D01*
X0271210Y0252053D01*
X0272828Y0252723D01*
X0273478Y0253373D01*
X0279995Y0246856D01*
X0279995Y0208416D01*
X0280391Y0207460D01*
X0281122Y0206729D01*
X0281122Y0206729D01*
X0288622Y0199229D01*
X0289578Y0198833D01*
X0290246Y0198833D01*
X0283595Y0198833D01*
X0283585Y0198837D01*
X0279630Y0202793D01*
X0278955Y0203468D01*
X0278073Y0203833D01*
X0273938Y0203833D01*
X0274065Y0203961D01*
X0274735Y0205578D01*
X0274735Y0207328D01*
X0274065Y0208945D01*
X0272828Y0210183D01*
X0271210Y0210853D01*
X0264260Y0210853D01*
X0262643Y0210183D01*
X0261513Y0209053D01*
X0258652Y0209053D01*
X0255195Y0212510D01*
X0255195Y0220433D01*
X0255391Y0219960D01*
X0256122Y0219229D01*
X0261102Y0214249D01*
X0261324Y0214157D01*
X0261405Y0213961D01*
X0262643Y0212723D01*
X0264260Y0212053D01*
X0271210Y0212053D01*
X0272828Y0212723D01*
X0274065Y0213961D01*
X0274735Y0215578D01*
X0274735Y0217328D01*
X0274065Y0218945D01*
X0272828Y0220183D01*
X0271210Y0220853D01*
X0264260Y0220853D01*
X0262643Y0220183D01*
X0262582Y0220123D01*
X0260195Y0222510D01*
X0260195Y0266950D01*
X0259799Y0267906D01*
X0254799Y0272906D01*
X0254068Y0273637D01*
X0253112Y0274033D01*
X0244016Y0274033D01*
X0244098Y0274147D01*
X0244413Y0274764D01*
X0244627Y0275423D01*
X0244735Y0276107D01*
X0244735Y0276453D01*
X0237735Y0276453D01*
X0230735Y0276453D01*
X0230735Y0276107D01*
X0230843Y0275423D01*
X0231058Y0274764D01*
X0231372Y0274147D01*
X0231455Y0274033D01*
X0223672Y0274033D01*
X0219688Y0278017D01*
X0218732Y0278413D01*
X0213736Y0278413D01*
X0213736Y0280102D01*
X0212681Y0281156D01*
X0204891Y0281156D01*
X0203836Y0280102D01*
X0203836Y0271524D01*
X0204891Y0270470D01*
X0212681Y0270470D01*
X0213736Y0271524D01*
X0213736Y0273213D01*
X0217138Y0273213D01*
X0221122Y0269229D01*
X0222078Y0268833D01*
X0231426Y0268833D01*
X0231372Y0268759D01*
X0231058Y0268142D01*
X0230843Y0267483D01*
X0230735Y0266799D01*
X0230735Y0266453D01*
X0230735Y0266107D01*
X0230843Y0265423D01*
X0231058Y0264764D01*
X0230735Y0266453D02*
X0237735Y0266453D01*
X0237735Y0266453D01*
X0230735Y0266453D01*
X0230735Y0266619D02*
X0190565Y0266619D01*
X0190565Y0268217D02*
X0231096Y0268217D01*
X0225058Y0263422D02*
X0190565Y0263422D01*
X0190565Y0261823D02*
X0224395Y0261823D01*
X0224632Y0260225D02*
X0213514Y0260225D01*
X0214060Y0258626D02*
X0226010Y0258626D01*
X0229181Y0258626D02*
X0231304Y0258626D01*
X0230771Y0257028D02*
X0214060Y0257028D01*
X0214776Y0255429D02*
X0230842Y0255429D01*
X0230735Y0256453D02*
X0237735Y0256453D01*
X0237735Y0256453D01*
X0230735Y0256453D01*
X0227595Y0261433D02*
X0247595Y0261433D01*
X0252595Y0256433D01*
X0252595Y0211433D01*
X0257575Y0206453D01*
X0267735Y0206453D01*
X0263820Y0210671D02*
X0257034Y0210671D01*
X0255436Y0212269D02*
X0263738Y0212269D01*
X0261498Y0213868D02*
X0255195Y0213868D01*
X0255195Y0215466D02*
X0259885Y0215466D01*
X0258286Y0217065D02*
X0255195Y0217065D01*
X0255195Y0218663D02*
X0256688Y0218663D01*
X0255266Y0220262D02*
X0255195Y0220262D01*
X0257595Y0221433D02*
X0257595Y0266433D01*
X0252595Y0271433D01*
X0222595Y0271433D01*
X0218215Y0275813D01*
X0208786Y0275813D01*
X0203836Y0276210D02*
X0202712Y0276210D01*
X0202712Y0277808D02*
X0203836Y0277808D01*
X0203836Y0279407D02*
X0202712Y0279407D01*
X0201809Y0281005D02*
X0204740Y0281005D01*
X0203836Y0274611D02*
X0202712Y0274611D01*
X0202712Y0273013D02*
X0203836Y0273013D01*
X0203946Y0271414D02*
X0202602Y0271414D01*
X0197762Y0275813D02*
X0194475Y0275813D01*
X0192595Y0273933D01*
X0190730Y0271414D02*
X0190565Y0271414D01*
X0190565Y0269816D02*
X0220536Y0269816D01*
X0218937Y0271414D02*
X0213626Y0271414D01*
X0213736Y0273013D02*
X0217339Y0273013D01*
X0221495Y0276210D02*
X0230735Y0276210D01*
X0230735Y0276453D02*
X0237735Y0276453D01*
X0237735Y0276453D01*
X0237735Y0280853D01*
X0234789Y0280853D01*
X0234105Y0280745D01*
X0233446Y0280531D01*
X0232829Y0280216D01*
X0232269Y0279809D01*
X0231779Y0279319D01*
X0231372Y0278759D01*
X0231058Y0278142D01*
X0230843Y0277483D01*
X0230735Y0276799D01*
X0230735Y0276453D01*
X0230949Y0277808D02*
X0219897Y0277808D01*
X0223094Y0274611D02*
X0231135Y0274611D01*
X0231866Y0279407D02*
X0213736Y0279407D01*
X0212832Y0281005D02*
X0305990Y0281005D01*
X0307033Y0282604D02*
X0307589Y0282604D01*
X0307033Y0284202D02*
X0308157Y0284202D01*
X0308157Y0285801D02*
X0307033Y0285801D01*
X0307033Y0287399D02*
X0308157Y0287399D01*
X0308157Y0288998D02*
X0307033Y0288998D01*
X0307033Y0290596D02*
X0308157Y0290596D01*
X0313107Y0286433D02*
X0315095Y0286433D01*
X0299570Y0270908D01*
X0292595Y0270908D01*
X0302545Y0270908D01*
X0302595Y0270958D01*
X0298470Y0274611D02*
X0296670Y0274611D01*
X0294168Y0276210D02*
X0300902Y0276210D01*
X0302793Y0277808D02*
X0274536Y0277808D01*
X0274735Y0277328D02*
X0274065Y0278945D01*
X0272828Y0280183D01*
X0271210Y0280853D01*
X0264260Y0280853D01*
X0262643Y0280183D01*
X0261405Y0278945D01*
X0260735Y0277328D01*
X0260735Y0275578D01*
X0261405Y0273961D01*
X0262643Y0272723D01*
X0264260Y0272053D01*
X0271210Y0272053D01*
X0272828Y0272723D01*
X0274065Y0273961D01*
X0274735Y0275578D01*
X0274735Y0277328D01*
X0274735Y0276210D02*
X0280902Y0276210D01*
X0278470Y0274611D02*
X0274335Y0274611D01*
X0273117Y0273013D02*
X0277493Y0273013D01*
X0277095Y0271414D02*
X0256291Y0271414D01*
X0257889Y0269816D02*
X0262275Y0269816D01*
X0261103Y0268217D02*
X0259488Y0268217D01*
X0260195Y0266619D02*
X0260735Y0266619D01*
X0260966Y0265020D02*
X0260195Y0265020D01*
X0260195Y0263422D02*
X0261944Y0263422D01*
X0260195Y0261823D02*
X0276028Y0261823D01*
X0277627Y0260225D02*
X0272727Y0260225D01*
X0275579Y0258626D02*
X0279225Y0258626D01*
X0280824Y0257028D02*
X0277178Y0257028D01*
X0278776Y0255429D02*
X0282422Y0255429D01*
X0284021Y0253831D02*
X0280375Y0253831D01*
X0281973Y0252232D02*
X0285619Y0252232D01*
X0287218Y0250634D02*
X0283572Y0250634D01*
X0285170Y0249035D02*
X0288816Y0249035D01*
X0286769Y0247437D02*
X0318864Y0247437D01*
X0320595Y0250183D02*
X0291345Y0250183D01*
X0275075Y0266453D01*
X0267735Y0266453D01*
X0273195Y0269816D02*
X0277115Y0269816D01*
X0276988Y0268217D02*
X0277777Y0268217D01*
X0278586Y0266619D02*
X0279156Y0266619D01*
X0280185Y0265020D02*
X0281765Y0265020D01*
X0281783Y0263422D02*
X0283364Y0263422D01*
X0283382Y0261823D02*
X0284962Y0261823D01*
X0284980Y0260225D02*
X0286561Y0260225D01*
X0286579Y0258626D02*
X0288159Y0258626D01*
X0288178Y0257028D02*
X0289758Y0257028D01*
X0289776Y0255429D02*
X0321856Y0255429D01*
X0323455Y0253831D02*
X0291375Y0253831D01*
X0293838Y0261433D02*
X0287308Y0267963D01*
X0287585Y0268632D01*
X0287932Y0267793D01*
X0289480Y0266245D01*
X0291501Y0265408D01*
X0293689Y0265408D01*
X0295711Y0266245D01*
X0297258Y0267793D01*
X0297471Y0268308D01*
X0297740Y0268308D01*
X0297932Y0267843D01*
X0299480Y0266295D01*
X0301501Y0265458D01*
X0303689Y0265458D01*
X0305711Y0266295D01*
X0307120Y0267705D01*
X0307120Y0266971D01*
X0307243Y0266513D01*
X0307480Y0266103D01*
X0307815Y0265768D01*
X0308225Y0265531D01*
X0308683Y0265408D01*
X0312534Y0265408D01*
X0312534Y0270822D01*
X0312706Y0270822D01*
X0312706Y0265408D01*
X0316557Y0265408D01*
X0317015Y0265531D01*
X0317425Y0265768D01*
X0317760Y0266103D01*
X0317997Y0266513D01*
X0318120Y0266971D01*
X0318120Y0270822D01*
X0312706Y0270822D01*
X0312706Y0270994D01*
X0312534Y0270994D01*
X0312534Y0276408D01*
X0308747Y0276408D01*
X0313429Y0281090D01*
X0317002Y0281090D01*
X0318057Y0282144D01*
X0318057Y0290722D01*
X0317845Y0290933D01*
X0338852Y0290933D01*
X0347095Y0282690D01*
X0347095Y0248883D01*
X0341050Y0248883D01*
X0339995Y0247829D01*
X0339995Y0246933D01*
X0338838Y0246933D01*
X0324795Y0260976D01*
X0323692Y0261433D01*
X0293838Y0261433D01*
X0293448Y0261823D02*
X0330220Y0261823D01*
X0330220Y0262942D02*
X0330220Y0256302D01*
X0331275Y0255247D01*
X0337916Y0255247D01*
X0338970Y0256302D01*
X0338970Y0262942D01*
X0337916Y0263997D01*
X0337283Y0263997D01*
X0338304Y0265018D01*
X0338970Y0266626D01*
X0338970Y0268366D01*
X0338304Y0269974D01*
X0337073Y0271205D01*
X0336522Y0271433D01*
X0337073Y0271661D01*
X0338304Y0272892D01*
X0338970Y0274500D01*
X0338970Y0276240D01*
X0338304Y0277848D01*
X0337073Y0279079D01*
X0336513Y0279311D01*
X0336888Y0279502D01*
X0337445Y0279907D01*
X0337932Y0280394D01*
X0338337Y0280951D01*
X0338649Y0281565D01*
X0338862Y0282220D01*
X0338970Y0282900D01*
X0338970Y0283244D01*
X0334595Y0283244D01*
X0330220Y0283244D01*
X0330220Y0282900D01*
X0330328Y0282220D01*
X0330541Y0281565D01*
X0330853Y0280951D01*
X0331258Y0280394D01*
X0331745Y0279907D01*
X0332302Y0279502D01*
X0332678Y0279311D01*
X0332117Y0279079D01*
X0330886Y0277848D01*
X0330220Y0276240D01*
X0330220Y0274500D01*
X0330886Y0272892D01*
X0332117Y0271661D01*
X0332668Y0271433D01*
X0332117Y0271205D01*
X0330886Y0269974D01*
X0330220Y0268366D01*
X0330220Y0266626D01*
X0330886Y0265018D01*
X0331907Y0263997D01*
X0331275Y0263997D01*
X0330220Y0262942D01*
X0330700Y0263422D02*
X0291849Y0263422D01*
X0290251Y0265020D02*
X0330885Y0265020D01*
X0330223Y0266619D02*
X0318026Y0266619D01*
X0318120Y0268217D02*
X0330220Y0268217D01*
X0330821Y0269816D02*
X0318120Y0269816D01*
X0318120Y0270994D02*
X0318120Y0274845D01*
X0317997Y0275303D01*
X0317760Y0275713D01*
X0317425Y0276048D01*
X0317015Y0276285D01*
X0316557Y0276408D01*
X0312706Y0276408D01*
X0312706Y0270994D01*
X0318120Y0270994D01*
X0318120Y0271414D02*
X0332623Y0271414D01*
X0330836Y0273013D02*
X0318120Y0273013D01*
X0318120Y0274611D02*
X0330220Y0274611D01*
X0330220Y0276210D02*
X0317146Y0276210D01*
X0312706Y0276210D02*
X0312534Y0276210D01*
X0312534Y0274611D02*
X0312706Y0274611D01*
X0312706Y0273013D02*
X0312534Y0273013D01*
X0312534Y0271414D02*
X0312706Y0271414D01*
X0312706Y0269816D02*
X0312534Y0269816D01*
X0312534Y0268217D02*
X0312706Y0268217D01*
X0312706Y0266619D02*
X0312534Y0266619D01*
X0307215Y0266619D02*
X0306034Y0266619D01*
X0299156Y0266619D02*
X0296084Y0266619D01*
X0297434Y0268217D02*
X0297777Y0268217D01*
X0289106Y0266619D02*
X0288652Y0266619D01*
X0287757Y0268217D02*
X0287413Y0268217D01*
X0286720Y0274611D02*
X0288520Y0274611D01*
X0291022Y0276210D02*
X0284289Y0276210D01*
X0283157Y0282604D02*
X0282020Y0282604D01*
X0282033Y0284202D02*
X0283157Y0284202D01*
X0283157Y0285801D02*
X0277858Y0285801D01*
X0276308Y0285801D02*
X0196206Y0285801D01*
X0197804Y0287399D02*
X0272134Y0287399D01*
X0272134Y0288998D02*
X0199403Y0288998D01*
X0201001Y0290596D02*
X0272236Y0290596D01*
X0272134Y0284202D02*
X0194607Y0284202D01*
X0193009Y0282604D02*
X0272147Y0282604D01*
X0273604Y0279407D02*
X0304392Y0279407D01*
X0297134Y0282604D02*
X0293057Y0282604D01*
X0295095Y0286433D02*
X0302083Y0286433D01*
X0295095Y0286433D02*
X0288107Y0286433D01*
X0283157Y0287399D02*
X0282033Y0287399D01*
X0282033Y0288998D02*
X0283157Y0288998D01*
X0283157Y0290596D02*
X0281930Y0290596D01*
X0277858Y0284202D02*
X0276309Y0284202D01*
X0276309Y0282604D02*
X0277858Y0282604D01*
X0261866Y0279407D02*
X0243604Y0279407D01*
X0243691Y0279319D02*
X0243202Y0279809D01*
X0242641Y0280216D01*
X0242024Y0280531D01*
X0241365Y0280745D01*
X0240681Y0280853D01*
X0237735Y0280853D01*
X0237735Y0276453D01*
X0237735Y0276453D01*
X0237735Y0276453D01*
X0244735Y0276453D01*
X0244735Y0276799D01*
X0244627Y0277483D01*
X0244413Y0278142D01*
X0244098Y0278759D01*
X0243691Y0279319D01*
X0244521Y0277808D02*
X0260934Y0277808D01*
X0260735Y0276210D02*
X0244735Y0276210D01*
X0244335Y0274611D02*
X0261136Y0274611D01*
X0262353Y0273013D02*
X0254692Y0273013D01*
X0251518Y0268833D02*
X0254995Y0265356D01*
X0254995Y0257433D01*
X0254799Y0257906D01*
X0249799Y0262906D01*
X0249068Y0263637D01*
X0248112Y0264033D01*
X0244016Y0264033D01*
X0244098Y0264147D01*
X0244413Y0264764D01*
X0244627Y0265423D01*
X0244735Y0266107D01*
X0244735Y0266453D01*
X0237735Y0266453D01*
X0237735Y0266453D01*
X0244735Y0266453D01*
X0244735Y0266799D01*
X0244627Y0267483D01*
X0244413Y0268142D01*
X0244098Y0268759D01*
X0244045Y0268833D01*
X0251518Y0268833D01*
X0252134Y0268217D02*
X0244375Y0268217D01*
X0244735Y0266619D02*
X0253733Y0266619D01*
X0254995Y0265020D02*
X0244496Y0265020D01*
X0249283Y0263422D02*
X0254995Y0263422D01*
X0254995Y0261823D02*
X0250882Y0261823D01*
X0252480Y0260225D02*
X0254995Y0260225D01*
X0254995Y0258626D02*
X0254079Y0258626D01*
X0249995Y0255356D02*
X0249995Y0210916D01*
X0250340Y0210084D01*
X0249282Y0209646D01*
X0248695Y0209059D01*
X0248695Y0247416D01*
X0248695Y0248450D01*
X0248299Y0249406D01*
X0244068Y0253637D01*
X0243807Y0253745D01*
X0244098Y0254147D01*
X0244413Y0254764D01*
X0244627Y0255423D01*
X0244735Y0256107D01*
X0244735Y0256453D01*
X0237735Y0256453D01*
X0237735Y0256453D01*
X0244735Y0256453D01*
X0244735Y0256799D01*
X0244627Y0257483D01*
X0244413Y0258142D01*
X0244098Y0258759D01*
X0244045Y0258833D01*
X0246518Y0258833D01*
X0249995Y0255356D01*
X0249922Y0255429D02*
X0244628Y0255429D01*
X0244699Y0257028D02*
X0248324Y0257028D01*
X0246725Y0258626D02*
X0244166Y0258626D01*
X0243869Y0253831D02*
X0249995Y0253831D01*
X0249995Y0252232D02*
X0245473Y0252232D01*
X0247072Y0250634D02*
X0249995Y0250634D01*
X0249995Y0249035D02*
X0248453Y0249035D01*
X0248695Y0247437D02*
X0249995Y0247437D01*
X0249995Y0245838D02*
X0248695Y0245838D01*
X0248695Y0244240D02*
X0249995Y0244240D01*
X0249995Y0242641D02*
X0248695Y0242641D01*
X0248695Y0241043D02*
X0249995Y0241043D01*
X0249995Y0239444D02*
X0248695Y0239444D01*
X0248695Y0237845D02*
X0249995Y0237845D01*
X0249995Y0236247D02*
X0248695Y0236247D01*
X0248695Y0234648D02*
X0249995Y0234648D01*
X0249995Y0233050D02*
X0248695Y0233050D01*
X0248695Y0231451D02*
X0249995Y0231451D01*
X0249995Y0229853D02*
X0248695Y0229853D01*
X0248695Y0228254D02*
X0249995Y0228254D01*
X0249995Y0226656D02*
X0248695Y0226656D01*
X0248695Y0225057D02*
X0249995Y0225057D01*
X0249995Y0223459D02*
X0248695Y0223459D01*
X0248695Y0221860D02*
X0249995Y0221860D01*
X0249995Y0220262D02*
X0248695Y0220262D01*
X0248695Y0218663D02*
X0249995Y0218663D01*
X0249995Y0217065D02*
X0248695Y0217065D01*
X0248695Y0215466D02*
X0249995Y0215466D01*
X0249995Y0213868D02*
X0248695Y0213868D01*
X0248695Y0212269D02*
X0249995Y0212269D01*
X0250097Y0210671D02*
X0248695Y0210671D01*
X0248695Y0209072D02*
X0248709Y0209072D01*
X0246095Y0206433D02*
X0246095Y0247933D01*
X0242595Y0251433D01*
X0215095Y0251433D01*
X0211138Y0255390D01*
X0209111Y0255390D01*
X0204161Y0255429D02*
X0203037Y0255429D01*
X0203037Y0253831D02*
X0204161Y0253831D01*
X0204161Y0252232D02*
X0203037Y0252232D01*
X0202570Y0250634D02*
X0204629Y0250634D01*
X0204161Y0257028D02*
X0203037Y0257028D01*
X0203037Y0258626D02*
X0204161Y0258626D01*
X0204707Y0260225D02*
X0202491Y0260225D01*
X0198087Y0255390D02*
X0194052Y0255390D01*
X0192595Y0253933D01*
X0191965Y0257028D02*
X0190565Y0257028D01*
X0190565Y0258626D02*
X0193138Y0258626D01*
X0193684Y0260225D02*
X0190565Y0260225D01*
X0190565Y0250634D02*
X0193605Y0250634D01*
X0190565Y0249035D02*
X0214090Y0249035D01*
X0219547Y0247437D02*
X0190565Y0247437D01*
X0190565Y0245838D02*
X0219395Y0245838D01*
X0220263Y0244240D02*
X0190565Y0244240D01*
X0190565Y0242641D02*
X0222710Y0242641D01*
X0224309Y0241043D02*
X0190565Y0241043D01*
X0190565Y0239444D02*
X0193138Y0239444D01*
X0193138Y0237845D02*
X0190565Y0237845D01*
X0194052Y0235390D02*
X0192595Y0233933D01*
X0194052Y0235390D02*
X0198087Y0235390D01*
X0203037Y0234648D02*
X0204161Y0234648D01*
X0204161Y0233050D02*
X0203037Y0233050D01*
X0203037Y0231451D02*
X0204161Y0231451D01*
X0204161Y0236247D02*
X0203037Y0236247D01*
X0203037Y0237845D02*
X0204161Y0237845D01*
X0204161Y0239444D02*
X0203037Y0239444D01*
X0209111Y0235390D02*
X0213638Y0235390D01*
X0223845Y0225183D01*
X0223845Y0195183D01*
X0227595Y0191433D01*
X0247595Y0191433D01*
X0262575Y0176453D01*
X0267735Y0176453D01*
X0262923Y0180299D02*
X0262406Y0180299D01*
X0260808Y0181898D02*
X0284995Y0181898D01*
X0284995Y0183496D02*
X0273601Y0183496D01*
X0274535Y0185095D02*
X0284995Y0185095D01*
X0284995Y0186693D02*
X0274735Y0186693D01*
X0274336Y0188292D02*
X0284995Y0188292D01*
X0284995Y0189890D02*
X0273121Y0189890D01*
X0273192Y0193087D02*
X0282264Y0193087D01*
X0283863Y0191489D02*
X0259216Y0191489D01*
X0257618Y0193087D02*
X0262278Y0193087D01*
X0262350Y0189890D02*
X0260815Y0189890D01*
X0260575Y0186453D02*
X0245595Y0201433D01*
X0232595Y0201433D01*
X0227595Y0206433D01*
X0227595Y0241433D01*
X0222595Y0246433D01*
X0224995Y0239444D02*
X0214060Y0239444D01*
X0214504Y0237845D02*
X0224995Y0237845D01*
X0224995Y0236247D02*
X0216458Y0236247D01*
X0218057Y0234648D02*
X0224995Y0234648D01*
X0224995Y0233050D02*
X0219655Y0233050D01*
X0221254Y0231451D02*
X0224995Y0231451D01*
X0224995Y0229853D02*
X0222852Y0229853D01*
X0224451Y0228254D02*
X0224995Y0228254D01*
X0218845Y0225183D02*
X0218845Y0185183D01*
X0222595Y0181433D01*
X0247595Y0181433D01*
X0262575Y0166453D01*
X0267735Y0166453D01*
X0262661Y0162715D02*
X0242810Y0162715D01*
X0242828Y0162723D02*
X0244065Y0163961D01*
X0244735Y0165578D01*
X0244735Y0167328D01*
X0244065Y0168945D01*
X0242828Y0170183D01*
X0241210Y0170853D01*
X0234260Y0170853D01*
X0232643Y0170183D01*
X0231405Y0168945D01*
X0230735Y0167328D01*
X0230735Y0165578D01*
X0231405Y0163961D01*
X0232643Y0162723D01*
X0234260Y0162053D01*
X0241210Y0162053D01*
X0242828Y0162723D01*
X0244212Y0164314D02*
X0261037Y0164314D01*
X0259439Y0165912D02*
X0244735Y0165912D01*
X0244659Y0167511D02*
X0257840Y0167511D01*
X0256242Y0169110D02*
X0243901Y0169110D01*
X0241560Y0170708D02*
X0254643Y0170708D01*
X0253045Y0172307D02*
X0241822Y0172307D01*
X0244010Y0173905D02*
X0251446Y0173905D01*
X0249848Y0175504D02*
X0244704Y0175504D01*
X0244735Y0177102D02*
X0248249Y0177102D01*
X0246651Y0178701D02*
X0244167Y0178701D01*
X0250808Y0181898D02*
X0253454Y0181898D01*
X0252406Y0180299D02*
X0255052Y0180299D01*
X0254005Y0178701D02*
X0256651Y0178701D01*
X0255603Y0177102D02*
X0258249Y0177102D01*
X0257202Y0175504D02*
X0259848Y0175504D01*
X0258800Y0173905D02*
X0261461Y0173905D01*
X0260399Y0172307D02*
X0263648Y0172307D01*
X0263910Y0170708D02*
X0261997Y0170708D01*
X0271560Y0170708D02*
X0284995Y0170708D01*
X0284995Y0169110D02*
X0273901Y0169110D01*
X0274659Y0167511D02*
X0284995Y0167511D01*
X0284995Y0165912D02*
X0274735Y0165912D01*
X0274212Y0164314D02*
X0284995Y0164314D01*
X0284995Y0162715D02*
X0272810Y0162715D01*
X0273492Y0159518D02*
X0284995Y0159518D01*
X0284995Y0161117D02*
X0190565Y0161117D01*
X0190565Y0162715D02*
X0232661Y0162715D01*
X0231259Y0164314D02*
X0190565Y0164314D01*
X0190565Y0165912D02*
X0230735Y0165912D01*
X0230811Y0167511D02*
X0190565Y0167511D01*
X0190565Y0169110D02*
X0231569Y0169110D01*
X0233910Y0170708D02*
X0213707Y0170708D01*
X0214238Y0172307D02*
X0233648Y0172307D01*
X0236810Y0175528D02*
X0237735Y0176453D01*
X0236810Y0175528D02*
X0209288Y0175528D01*
X0204338Y0175504D02*
X0203214Y0175504D01*
X0203214Y0177102D02*
X0204338Y0177102D01*
X0204338Y0178701D02*
X0203214Y0178701D01*
X0202731Y0180299D02*
X0204821Y0180299D01*
X0204338Y0173905D02*
X0203214Y0173905D01*
X0203214Y0172307D02*
X0204338Y0172307D01*
X0204869Y0170708D02*
X0202683Y0170708D01*
X0198264Y0175528D02*
X0194190Y0175528D01*
X0192595Y0173933D01*
X0192087Y0177102D02*
X0190365Y0177102D01*
X0190365Y0178701D02*
X0193315Y0178701D01*
X0193797Y0180299D02*
X0190365Y0180299D01*
X0190365Y0181898D02*
X0218454Y0181898D01*
X0216855Y0183496D02*
X0190365Y0183496D01*
X0190365Y0185095D02*
X0216245Y0185095D01*
X0216245Y0186693D02*
X0190365Y0186693D01*
X0190365Y0188292D02*
X0216245Y0188292D01*
X0216245Y0189890D02*
X0190365Y0189890D01*
X0190365Y0191489D02*
X0190655Y0191489D01*
X0192595Y0193933D02*
X0194052Y0195390D01*
X0198087Y0195390D01*
X0203037Y0194686D02*
X0204161Y0194686D01*
X0204161Y0196284D02*
X0203037Y0196284D01*
X0203037Y0197883D02*
X0204161Y0197883D01*
X0204161Y0199481D02*
X0203037Y0199481D01*
X0203037Y0193087D02*
X0204161Y0193087D01*
X0204161Y0191489D02*
X0203037Y0191489D01*
X0209111Y0195390D02*
X0210552Y0196390D01*
X0214845Y0196433D01*
X0214234Y0199481D02*
X0214060Y0199481D01*
X0215456Y0199481D02*
X0216245Y0199481D01*
X0216245Y0201080D02*
X0190565Y0201080D01*
X0190565Y0202678D02*
X0216245Y0202678D01*
X0216245Y0204277D02*
X0190565Y0204277D01*
X0190565Y0205875D02*
X0216245Y0205875D01*
X0216245Y0207474D02*
X0190565Y0207474D01*
X0190565Y0209072D02*
X0216245Y0209072D01*
X0216245Y0210671D02*
X0213630Y0210671D01*
X0214060Y0212269D02*
X0216245Y0212269D01*
X0215345Y0216433D02*
X0210241Y0216433D01*
X0209111Y0215390D01*
X0204161Y0215466D02*
X0203037Y0215466D01*
X0203037Y0213868D02*
X0204161Y0213868D01*
X0204161Y0212269D02*
X0203037Y0212269D01*
X0202607Y0210671D02*
X0204591Y0210671D01*
X0204161Y0217065D02*
X0203037Y0217065D01*
X0203037Y0218663D02*
X0204161Y0218663D01*
X0204745Y0220262D02*
X0202454Y0220262D01*
X0198087Y0215390D02*
X0194052Y0215390D01*
X0192595Y0213933D01*
X0192050Y0217065D02*
X0190565Y0217065D01*
X0190565Y0218663D02*
X0193138Y0218663D01*
X0193721Y0220262D02*
X0190565Y0220262D01*
X0190565Y0221860D02*
X0216245Y0221860D01*
X0216245Y0220262D02*
X0213477Y0220262D01*
X0216245Y0223459D02*
X0190565Y0223459D01*
X0190565Y0225057D02*
X0215795Y0225057D01*
X0216154Y0226656D02*
X0190565Y0226656D01*
X0190565Y0228254D02*
X0217097Y0228254D01*
X0215498Y0229853D02*
X0190565Y0229853D01*
X0190565Y0231451D02*
X0190693Y0231451D01*
X0181345Y0230183D02*
X0180095Y0228933D01*
X0180095Y0225394D01*
X0180099Y0225390D01*
X0180306Y0235183D02*
X0180099Y0235390D01*
X0180099Y0245390D02*
X0180095Y0245394D01*
X0180095Y0248933D01*
X0181345Y0250183D01*
X0209111Y0235390D02*
X0209366Y0235558D01*
X0193568Y0210671D02*
X0190565Y0210671D01*
X0181345Y0210183D02*
X0180095Y0208933D01*
X0180095Y0205394D01*
X0180099Y0205390D01*
X0190565Y0199481D02*
X0193138Y0199481D01*
X0193138Y0197883D02*
X0190565Y0197883D01*
X0180306Y0195183D02*
X0180099Y0195390D01*
X0181345Y0190183D02*
X0180095Y0188933D01*
X0180095Y0185394D01*
X0180099Y0185390D01*
X0181345Y0170183D02*
X0180095Y0168933D01*
X0180095Y0165394D01*
X0180099Y0165390D01*
X0190565Y0170708D02*
X0193845Y0170708D01*
X0193138Y0159518D02*
X0190565Y0159518D01*
X0190565Y0157920D02*
X0193138Y0157920D01*
X0193138Y0156321D02*
X0190565Y0156321D01*
X0190765Y0154723D02*
X0193138Y0154723D01*
X0192145Y0153124D02*
X0190032Y0153124D01*
X0192591Y0149893D02*
X0186915Y0149893D01*
X0182727Y0145705D01*
X0180099Y0145705D01*
X0180095Y0136433D02*
X0190095Y0146433D01*
X0212595Y0146433D01*
X0217595Y0151433D01*
X0247595Y0151433D01*
X0252595Y0156433D01*
X0267715Y0156433D01*
X0267735Y0156453D01*
X0262241Y0153124D02*
X0260358Y0153124D01*
X0260795Y0151526D02*
X0291325Y0151526D01*
X0289727Y0153124D02*
X0273229Y0153124D01*
X0274381Y0154723D02*
X0288128Y0154723D01*
X0286530Y0156321D02*
X0274735Y0156321D01*
X0274490Y0157920D02*
X0285201Y0157920D01*
X0287595Y0158933D02*
X0287595Y0191433D01*
X0282595Y0196433D01*
X0280666Y0194686D02*
X0274366Y0194686D01*
X0274735Y0196284D02*
X0279350Y0196284D01*
X0277751Y0197883D02*
X0274505Y0197883D01*
X0274196Y0204277D02*
X0283574Y0204277D01*
X0281976Y0205875D02*
X0274735Y0205875D01*
X0274675Y0207474D02*
X0280385Y0207474D01*
X0279995Y0209072D02*
X0273938Y0209072D01*
X0271650Y0210671D02*
X0279995Y0210671D01*
X0279995Y0212269D02*
X0271732Y0212269D01*
X0273972Y0213868D02*
X0279995Y0213868D01*
X0279995Y0215466D02*
X0274689Y0215466D01*
X0274735Y0217065D02*
X0279995Y0217065D01*
X0279995Y0218663D02*
X0274182Y0218663D01*
X0272638Y0220262D02*
X0279995Y0220262D01*
X0279995Y0221860D02*
X0260845Y0221860D01*
X0260195Y0223459D02*
X0261907Y0223459D01*
X0261405Y0223961D02*
X0262643Y0222723D01*
X0264260Y0222053D01*
X0271210Y0222053D01*
X0272828Y0222723D01*
X0274065Y0223961D01*
X0274735Y0225578D01*
X0274735Y0227328D01*
X0274065Y0228945D01*
X0272828Y0230183D01*
X0271210Y0230853D01*
X0264260Y0230853D01*
X0262643Y0230183D01*
X0261405Y0228945D01*
X0260735Y0227328D01*
X0260735Y0225578D01*
X0261405Y0223961D01*
X0260951Y0225057D02*
X0260195Y0225057D01*
X0260195Y0226656D02*
X0260735Y0226656D01*
X0261119Y0228254D02*
X0260195Y0228254D01*
X0260195Y0229853D02*
X0262312Y0229853D01*
X0260195Y0231451D02*
X0279995Y0231451D01*
X0279995Y0229853D02*
X0273158Y0229853D01*
X0274352Y0228254D02*
X0279995Y0228254D01*
X0279995Y0226656D02*
X0274735Y0226656D01*
X0274520Y0225057D02*
X0279995Y0225057D01*
X0279995Y0223459D02*
X0273564Y0223459D01*
X0267735Y0216453D02*
X0262575Y0216453D01*
X0257595Y0221433D01*
X0262443Y0220262D02*
X0262833Y0220262D01*
X0261532Y0209072D02*
X0258633Y0209072D01*
X0246095Y0206433D02*
X0256075Y0196453D01*
X0267735Y0196453D01*
X0267735Y0186453D02*
X0260575Y0186453D01*
X0258257Y0185095D02*
X0257611Y0185095D01*
X0256658Y0186693D02*
X0256012Y0186693D01*
X0255060Y0188292D02*
X0254413Y0188292D01*
X0253461Y0189890D02*
X0252815Y0189890D01*
X0251863Y0191489D02*
X0251216Y0191489D01*
X0250264Y0193087D02*
X0249618Y0193087D01*
X0248666Y0194686D02*
X0244366Y0194686D01*
X0244735Y0196284D02*
X0247067Y0196284D01*
X0245469Y0197883D02*
X0244505Y0197883D01*
X0244336Y0188292D02*
X0247060Y0188292D01*
X0248658Y0186693D02*
X0244735Y0186693D01*
X0244535Y0185095D02*
X0250257Y0185095D01*
X0249209Y0183496D02*
X0251855Y0183496D01*
X0259209Y0183496D02*
X0261870Y0183496D01*
X0272548Y0180299D02*
X0284995Y0180299D01*
X0284995Y0178701D02*
X0274167Y0178701D01*
X0274735Y0177102D02*
X0284995Y0177102D01*
X0284995Y0175504D02*
X0274704Y0175504D01*
X0274010Y0173905D02*
X0284995Y0173905D01*
X0284995Y0172307D02*
X0271822Y0172307D01*
X0261978Y0159518D02*
X0243492Y0159518D01*
X0244490Y0157920D02*
X0250405Y0157920D01*
X0248807Y0156321D02*
X0244735Y0156321D01*
X0244381Y0154723D02*
X0247208Y0154723D01*
X0251365Y0151526D02*
X0254395Y0151526D01*
X0254395Y0152070D02*
X0254395Y0150797D01*
X0254882Y0149620D01*
X0254995Y0149508D01*
X0254995Y0147510D01*
X0250518Y0143033D01*
X0243138Y0143033D01*
X0244065Y0143961D01*
X0244735Y0145578D01*
X0244735Y0147328D01*
X0244112Y0148833D01*
X0248112Y0148833D01*
X0249068Y0149229D01*
X0249799Y0149960D01*
X0253672Y0153833D01*
X0255470Y0153833D01*
X0254882Y0153246D01*
X0254395Y0152070D01*
X0254832Y0153124D02*
X0252963Y0153124D01*
X0254755Y0149927D02*
X0249766Y0149927D01*
X0254995Y0148329D02*
X0244321Y0148329D01*
X0244735Y0146730D02*
X0254215Y0146730D01*
X0252617Y0145132D02*
X0244550Y0145132D01*
X0243638Y0143533D02*
X0251018Y0143533D01*
X0251595Y0140433D02*
X0188095Y0140433D01*
X0184095Y0136433D01*
X0184095Y0114933D01*
X0227595Y0071433D01*
X0230795Y0071600D02*
X0238751Y0071600D01*
X0240349Y0070002D02*
X0230466Y0070002D01*
X0230308Y0069620D02*
X0230795Y0070797D01*
X0230795Y0072070D01*
X0230308Y0073246D01*
X0229408Y0074146D01*
X0228232Y0074633D01*
X0228072Y0074633D01*
X0186695Y0116010D01*
X0186695Y0119949D01*
X0187767Y0118877D01*
X0189789Y0118039D01*
X0191977Y0118039D01*
X0193998Y0118877D01*
X0195545Y0120424D01*
X0195883Y0121238D01*
X0196220Y0120424D01*
X0197767Y0118877D01*
X0199789Y0118039D01*
X0201977Y0118039D01*
X0203998Y0118877D01*
X0205545Y0120424D01*
X0205883Y0121238D01*
X0206220Y0120424D01*
X0207767Y0118877D01*
X0208283Y0118663D01*
X0208283Y0102628D01*
X0208678Y0101673D01*
X0240391Y0069960D01*
X0241122Y0069229D01*
X0242078Y0068833D01*
X0312337Y0068833D01*
X0318610Y0062560D01*
X0318610Y0061314D01*
X0316769Y0059473D01*
X0316373Y0058517D01*
X0316373Y0050674D01*
X0316020Y0050674D01*
X0314673Y0049327D01*
X0314673Y0040547D01*
X0316020Y0039200D01*
X0321926Y0039200D01*
X0322910Y0040184D01*
X0323894Y0039200D01*
X0326043Y0039200D01*
X0326099Y0039177D01*
X0327192Y0038083D01*
X0179595Y0038083D01*
X0179595Y0049756D01*
X0182299Y0052460D01*
X0182695Y0053416D01*
X0182695Y0112656D01*
X0224395Y0070956D01*
X0224395Y0070797D01*
X0224882Y0069620D01*
X0225782Y0068720D01*
X0226959Y0068233D01*
X0228232Y0068233D01*
X0229408Y0068720D01*
X0230308Y0069620D01*
X0228643Y0068403D02*
X0312767Y0068403D01*
X0314365Y0066805D02*
X0182695Y0066805D01*
X0182695Y0068403D02*
X0226548Y0068403D01*
X0224724Y0070002D02*
X0182695Y0070002D01*
X0182695Y0071600D02*
X0223751Y0071600D01*
X0222152Y0073199D02*
X0182695Y0073199D01*
X0182695Y0074797D02*
X0220554Y0074797D01*
X0218955Y0076396D02*
X0182695Y0076396D01*
X0182695Y0077994D02*
X0217357Y0077994D01*
X0215758Y0079593D02*
X0182695Y0079593D01*
X0182695Y0081191D02*
X0214160Y0081191D01*
X0212561Y0082790D02*
X0182695Y0082790D01*
X0182695Y0084388D02*
X0210963Y0084388D01*
X0209364Y0085987D02*
X0182695Y0085987D01*
X0182695Y0087585D02*
X0207766Y0087585D01*
X0206167Y0089184D02*
X0182695Y0089184D01*
X0182695Y0090782D02*
X0204569Y0090782D01*
X0202970Y0092381D02*
X0182695Y0092381D01*
X0182695Y0093979D02*
X0201372Y0093979D01*
X0199773Y0095578D02*
X0182695Y0095578D01*
X0182695Y0097177D02*
X0198175Y0097177D01*
X0196576Y0098775D02*
X0182695Y0098775D01*
X0182695Y0100374D02*
X0194978Y0100374D01*
X0193379Y0101972D02*
X0182695Y0101972D01*
X0182695Y0103571D02*
X0191781Y0103571D01*
X0190182Y0105169D02*
X0182695Y0105169D01*
X0182695Y0106768D02*
X0188584Y0106768D01*
X0186985Y0108366D02*
X0182695Y0108366D01*
X0182695Y0109965D02*
X0185387Y0109965D01*
X0183788Y0111563D02*
X0182695Y0111563D01*
X0187945Y0114760D02*
X0208283Y0114760D01*
X0208283Y0113162D02*
X0189544Y0113162D01*
X0191142Y0111563D02*
X0208283Y0111563D01*
X0208283Y0109965D02*
X0192741Y0109965D01*
X0194339Y0108366D02*
X0208283Y0108366D01*
X0208283Y0106768D02*
X0195938Y0106768D01*
X0197536Y0105169D02*
X0208283Y0105169D01*
X0208283Y0103571D02*
X0199135Y0103571D01*
X0200733Y0101972D02*
X0208554Y0101972D01*
X0209978Y0100374D02*
X0202332Y0100374D01*
X0203930Y0098775D02*
X0211576Y0098775D01*
X0213175Y0097177D02*
X0205529Y0097177D01*
X0207127Y0095578D02*
X0214773Y0095578D01*
X0216372Y0093979D02*
X0208726Y0093979D01*
X0210324Y0092381D02*
X0217970Y0092381D01*
X0219569Y0090782D02*
X0211923Y0090782D01*
X0213521Y0089184D02*
X0221167Y0089184D01*
X0222766Y0087585D02*
X0215120Y0087585D01*
X0216718Y0085987D02*
X0224364Y0085987D01*
X0225963Y0084388D02*
X0218317Y0084388D01*
X0219915Y0082790D02*
X0227561Y0082790D01*
X0229160Y0081191D02*
X0221514Y0081191D01*
X0223112Y0079593D02*
X0230758Y0079593D01*
X0232357Y0077994D02*
X0224711Y0077994D01*
X0226309Y0076396D02*
X0233955Y0076396D01*
X0235554Y0074797D02*
X0227908Y0074797D01*
X0230327Y0073199D02*
X0237152Y0073199D01*
X0242595Y0071433D02*
X0313414Y0071433D01*
X0322910Y0061937D01*
X0318973Y0058000D01*
X0318973Y0044937D01*
X0314673Y0044426D02*
X0306095Y0044426D01*
X0306095Y0044477D02*
X0305296Y0046407D01*
X0303819Y0047884D01*
X0302710Y0048343D01*
X0303998Y0048877D01*
X0305545Y0050424D01*
X0306383Y0052445D01*
X0306383Y0054633D01*
X0305545Y0056655D01*
X0303998Y0058202D01*
X0301977Y0059039D01*
X0299789Y0059039D01*
X0297767Y0058202D01*
X0296220Y0056655D01*
X0295883Y0055840D01*
X0295545Y0056655D01*
X0293998Y0058202D01*
X0291977Y0059039D01*
X0289789Y0059039D01*
X0287767Y0058202D01*
X0286220Y0056655D01*
X0285883Y0055840D01*
X0285545Y0056655D01*
X0283998Y0058202D01*
X0281977Y0059039D01*
X0279789Y0059039D01*
X0277767Y0058202D01*
X0276220Y0056655D01*
X0275883Y0055841D01*
X0275587Y0056422D01*
X0275078Y0057122D01*
X0274466Y0057735D01*
X0273765Y0058243D01*
X0272994Y0058636D01*
X0272170Y0058904D01*
X0271315Y0059039D01*
X0271083Y0059039D01*
X0271083Y0053739D01*
X0270683Y0053739D01*
X0270683Y0059039D01*
X0270450Y0059039D01*
X0269595Y0058904D01*
X0268771Y0058636D01*
X0268000Y0058243D01*
X0267300Y0057735D01*
X0266687Y0057122D01*
X0266179Y0056422D01*
X0265882Y0055841D01*
X0265545Y0056655D01*
X0263998Y0058202D01*
X0261977Y0059039D01*
X0259789Y0059039D01*
X0257767Y0058202D01*
X0256220Y0056655D01*
X0255883Y0055840D01*
X0255545Y0056655D01*
X0253998Y0058202D01*
X0251977Y0059039D01*
X0249789Y0059039D01*
X0247767Y0058202D01*
X0246220Y0056655D01*
X0245883Y0055840D01*
X0245545Y0056655D01*
X0243998Y0058202D01*
X0241977Y0059039D01*
X0239789Y0059039D01*
X0237767Y0058202D01*
X0236220Y0056655D01*
X0235883Y0055840D01*
X0235545Y0056655D01*
X0233998Y0058202D01*
X0231977Y0059039D01*
X0229789Y0059039D01*
X0227767Y0058202D01*
X0226220Y0056655D01*
X0225883Y0055840D01*
X0225545Y0056655D01*
X0223998Y0058202D01*
X0221977Y0059039D01*
X0220503Y0059039D01*
X0221422Y0059958D01*
X0293186Y0059958D01*
X0293339Y0059805D01*
X0294479Y0059333D01*
X0295712Y0059333D01*
X0296851Y0059805D01*
X0297723Y0060677D01*
X0298195Y0061816D01*
X0298195Y0063050D01*
X0297723Y0064189D01*
X0296851Y0065061D01*
X0295712Y0065533D01*
X0294479Y0065533D01*
X0293573Y0065158D01*
X0219828Y0065158D01*
X0218872Y0064762D01*
X0218141Y0064031D01*
X0212806Y0058696D01*
X0211977Y0059039D01*
X0209789Y0059039D01*
X0207767Y0058202D01*
X0206220Y0056655D01*
X0205883Y0055840D01*
X0205545Y0056655D01*
X0203998Y0058202D01*
X0201977Y0059039D01*
X0199789Y0059039D01*
X0197767Y0058202D01*
X0196220Y0056655D01*
X0195883Y0055840D01*
X0195545Y0056655D01*
X0193998Y0058202D01*
X0191977Y0059039D01*
X0189789Y0059039D01*
X0187767Y0058202D01*
X0186220Y0056655D01*
X0185383Y0054633D01*
X0185383Y0052445D01*
X0186220Y0050424D01*
X0187767Y0048877D01*
X0189018Y0048359D01*
X0187871Y0047884D01*
X0186394Y0046407D01*
X0185595Y0044477D01*
X0185595Y0042389D01*
X0186394Y0040459D01*
X0187871Y0038982D01*
X0189801Y0038183D01*
X0191889Y0038183D01*
X0193819Y0038982D01*
X0195296Y0040459D01*
X0195845Y0041785D01*
X0196394Y0040459D01*
X0197871Y0038982D01*
X0199801Y0038183D01*
X0201889Y0038183D01*
X0203819Y0038982D01*
X0205296Y0040459D01*
X0205845Y0041785D01*
X0206394Y0040459D01*
X0207871Y0038982D01*
X0209801Y0038183D01*
X0211889Y0038183D01*
X0213819Y0038982D01*
X0215296Y0040459D01*
X0215845Y0041785D01*
X0216394Y0040459D01*
X0217871Y0038982D01*
X0219801Y0038183D01*
X0221889Y0038183D01*
X0223819Y0038982D01*
X0225296Y0040459D01*
X0225845Y0041785D01*
X0226394Y0040459D01*
X0227871Y0038982D01*
X0229801Y0038183D01*
X0231889Y0038183D01*
X0233819Y0038982D01*
X0235296Y0040459D01*
X0235845Y0041785D01*
X0236394Y0040459D01*
X0237871Y0038982D01*
X0239801Y0038183D01*
X0241889Y0038183D01*
X0243819Y0038982D01*
X0245296Y0040459D01*
X0245845Y0041785D01*
X0246394Y0040459D01*
X0247871Y0038982D01*
X0249801Y0038183D01*
X0251889Y0038183D01*
X0253819Y0038982D01*
X0255296Y0040459D01*
X0255845Y0041785D01*
X0256394Y0040459D01*
X0257871Y0038982D01*
X0259801Y0038183D01*
X0261889Y0038183D01*
X0263819Y0038982D01*
X0265296Y0040459D01*
X0265854Y0041806D01*
X0265980Y0041418D01*
X0266355Y0040681D01*
X0266841Y0040013D01*
X0267425Y0039429D01*
X0268094Y0038943D01*
X0268830Y0038568D01*
X0269616Y0038312D01*
X0270432Y0038183D01*
X0270770Y0038183D01*
X0270770Y0043358D01*
X0270920Y0043358D01*
X0270920Y0038183D01*
X0271258Y0038183D01*
X0272075Y0038312D01*
X0272860Y0038568D01*
X0273597Y0038943D01*
X0274265Y0039429D01*
X0274850Y0040013D01*
X0275335Y0040681D01*
X0275710Y0041418D01*
X0275837Y0041806D01*
X0276394Y0040459D01*
X0277871Y0038982D01*
X0279801Y0038183D01*
X0281889Y0038183D01*
X0283819Y0038982D01*
X0285296Y0040459D01*
X0285845Y0041785D01*
X0286394Y0040459D01*
X0287871Y0038982D01*
X0289801Y0038183D01*
X0291889Y0038183D01*
X0293819Y0038982D01*
X0295296Y0040459D01*
X0295845Y0041785D01*
X0296394Y0040459D01*
X0297871Y0038982D01*
X0299801Y0038183D01*
X0301889Y0038183D01*
X0303819Y0038982D01*
X0305296Y0040459D01*
X0306095Y0042389D01*
X0306095Y0044477D01*
X0306095Y0042827D02*
X0314673Y0042827D01*
X0314673Y0041229D02*
X0305615Y0041229D01*
X0304467Y0039630D02*
X0315590Y0039630D01*
X0314673Y0046024D02*
X0305454Y0046024D01*
X0304080Y0047623D02*
X0314673Y0047623D01*
X0314673Y0049221D02*
X0304342Y0049221D01*
X0305709Y0050820D02*
X0316373Y0050820D01*
X0316373Y0052418D02*
X0306371Y0052418D01*
X0306383Y0054017D02*
X0316373Y0054017D01*
X0316373Y0055615D02*
X0305976Y0055615D01*
X0304986Y0057214D02*
X0316373Y0057214D01*
X0316495Y0058812D02*
X0302525Y0058812D01*
X0299240Y0058812D02*
X0292525Y0058812D01*
X0294986Y0057214D02*
X0296779Y0057214D01*
X0297457Y0060411D02*
X0317707Y0060411D01*
X0318610Y0062009D02*
X0298195Y0062009D01*
X0297964Y0063608D02*
X0317562Y0063608D01*
X0315964Y0065206D02*
X0296501Y0065206D01*
X0293690Y0065206D02*
X0182695Y0065206D01*
X0182695Y0063608D02*
X0217718Y0063608D01*
X0216119Y0062009D02*
X0182695Y0062009D01*
X0182695Y0060411D02*
X0214521Y0060411D01*
X0212922Y0058812D02*
X0212525Y0058812D01*
X0209240Y0058812D02*
X0202525Y0058812D01*
X0204986Y0057214D02*
X0206779Y0057214D01*
X0210883Y0053539D02*
X0211326Y0053539D01*
X0220345Y0062558D01*
X0294970Y0062558D01*
X0295095Y0062433D01*
X0289240Y0058812D02*
X0282525Y0058812D01*
X0284986Y0057214D02*
X0286779Y0057214D01*
X0279240Y0058812D02*
X0272453Y0058812D01*
X0271083Y0058812D02*
X0270683Y0058812D01*
X0269312Y0058812D02*
X0262525Y0058812D01*
X0264986Y0057214D02*
X0266779Y0057214D01*
X0270683Y0057214D02*
X0271083Y0057214D01*
X0271083Y0055615D02*
X0270683Y0055615D01*
X0270683Y0054017D02*
X0271083Y0054017D01*
X0271083Y0053339D02*
X0271083Y0048683D01*
X0270920Y0048683D01*
X0270920Y0043508D01*
X0270770Y0043508D01*
X0270770Y0048683D01*
X0270683Y0048683D01*
X0270683Y0053339D01*
X0271083Y0053339D01*
X0271083Y0052418D02*
X0270683Y0052418D01*
X0270683Y0050820D02*
X0271083Y0050820D01*
X0271083Y0049221D02*
X0270683Y0049221D01*
X0270770Y0047623D02*
X0270920Y0047623D01*
X0270920Y0046024D02*
X0270770Y0046024D01*
X0270770Y0044426D02*
X0270920Y0044426D01*
X0270920Y0042827D02*
X0270770Y0042827D01*
X0270770Y0041229D02*
X0270920Y0041229D01*
X0270920Y0039630D02*
X0270770Y0039630D01*
X0267223Y0039630D02*
X0264467Y0039630D01*
X0265615Y0041229D02*
X0266076Y0041229D01*
X0274467Y0039630D02*
X0277223Y0039630D01*
X0276076Y0041229D02*
X0275614Y0041229D01*
X0284467Y0039630D02*
X0287223Y0039630D01*
X0286076Y0041229D02*
X0285615Y0041229D01*
X0294467Y0039630D02*
X0297223Y0039630D01*
X0296076Y0041229D02*
X0295615Y0041229D01*
X0276779Y0057214D02*
X0274986Y0057214D01*
X0259240Y0058812D02*
X0252525Y0058812D01*
X0254986Y0057214D02*
X0256779Y0057214D01*
X0249240Y0058812D02*
X0242525Y0058812D01*
X0244986Y0057214D02*
X0246779Y0057214D01*
X0239240Y0058812D02*
X0232525Y0058812D01*
X0234986Y0057214D02*
X0236779Y0057214D01*
X0229240Y0058812D02*
X0222525Y0058812D01*
X0224986Y0057214D02*
X0226779Y0057214D01*
X0226076Y0041229D02*
X0225615Y0041229D01*
X0224467Y0039630D02*
X0227223Y0039630D01*
X0234467Y0039630D02*
X0237223Y0039630D01*
X0236076Y0041229D02*
X0235615Y0041229D01*
X0244467Y0039630D02*
X0247223Y0039630D01*
X0246076Y0041229D02*
X0245615Y0041229D01*
X0254467Y0039630D02*
X0257223Y0039630D01*
X0256076Y0041229D02*
X0255615Y0041229D01*
X0217223Y0039630D02*
X0214467Y0039630D01*
X0215615Y0041229D02*
X0216076Y0041229D01*
X0207223Y0039630D02*
X0204467Y0039630D01*
X0205615Y0041229D02*
X0206076Y0041229D01*
X0197223Y0039630D02*
X0194467Y0039630D01*
X0195615Y0041229D02*
X0196076Y0041229D01*
X0187223Y0039630D02*
X0179595Y0039630D01*
X0179595Y0041229D02*
X0186076Y0041229D01*
X0185595Y0042827D02*
X0179595Y0042827D01*
X0179595Y0044426D02*
X0185595Y0044426D01*
X0186236Y0046024D02*
X0179595Y0046024D01*
X0179595Y0047623D02*
X0187610Y0047623D01*
X0187423Y0049221D02*
X0179595Y0049221D01*
X0180659Y0050820D02*
X0186056Y0050820D01*
X0185394Y0052418D02*
X0182257Y0052418D01*
X0182695Y0054017D02*
X0185383Y0054017D01*
X0185789Y0055615D02*
X0182695Y0055615D01*
X0182695Y0057214D02*
X0186779Y0057214D01*
X0189240Y0058812D02*
X0182695Y0058812D01*
X0175720Y0063933D02*
X0174890Y0063853D01*
X0180095Y0053933D02*
X0175095Y0048933D01*
X0125095Y0048933D01*
X0180095Y0053933D02*
X0180095Y0136433D01*
X0192591Y0149893D02*
X0198087Y0155390D01*
X0203037Y0154723D02*
X0204161Y0154723D01*
X0204161Y0156321D02*
X0203037Y0156321D01*
X0203037Y0157920D02*
X0204161Y0157920D01*
X0204161Y0159518D02*
X0203037Y0159518D01*
X0203037Y0153124D02*
X0204161Y0153124D01*
X0204161Y0151526D02*
X0203037Y0151526D01*
X0196302Y0149927D02*
X0212413Y0149927D01*
X0209111Y0155390D02*
X0236672Y0155390D01*
X0237735Y0156453D01*
X0231978Y0159518D02*
X0214060Y0159518D01*
X0214238Y0178701D02*
X0231304Y0178701D01*
X0220052Y0180299D02*
X0213755Y0180299D01*
X0214060Y0191489D02*
X0216245Y0191489D01*
X0216245Y0193087D02*
X0214060Y0193087D01*
X0180099Y0155705D02*
X0180621Y0155183D01*
X0210883Y0123539D02*
X0210883Y0103146D01*
X0242595Y0071433D01*
X0242595Y0076433D02*
X0317595Y0076433D01*
X0325095Y0068933D01*
X0331095Y0069933D02*
X0331095Y0062248D01*
X0330784Y0061937D01*
X0330595Y0061748D01*
X0330595Y0053933D01*
X0334721Y0049807D01*
X0334721Y0044937D01*
X0326847Y0044937D02*
X0326847Y0041681D01*
X0326847Y0044937D02*
X0326847Y0047056D01*
X0323464Y0039630D02*
X0322356Y0039630D01*
X0343548Y0039133D02*
X0343548Y0039133D01*
X0344045Y0039630D02*
X0347128Y0039630D01*
X0347003Y0039713D02*
X0347380Y0039462D01*
X0347798Y0039288D01*
X0348243Y0039200D01*
X0350019Y0039200D01*
X0350019Y0044487D01*
X0346169Y0044487D01*
X0346169Y0041273D01*
X0346258Y0040829D01*
X0346431Y0040411D01*
X0346683Y0040034D01*
X0347003Y0039713D01*
X0346178Y0041229D02*
X0344895Y0041229D01*
X0344895Y0042827D02*
X0346169Y0042827D01*
X0346169Y0044426D02*
X0344895Y0044426D01*
X0346169Y0045387D02*
X0350019Y0045387D01*
X0350019Y0044487D01*
X0350919Y0044487D01*
X0350919Y0039200D01*
X0352696Y0039200D01*
X0353140Y0039288D01*
X0353559Y0039462D01*
X0353935Y0039713D01*
X0354256Y0040034D01*
X0354376Y0040214D01*
X0355390Y0039200D01*
X0361296Y0039200D01*
X0362280Y0040184D01*
X0363264Y0039200D01*
X0369170Y0039200D01*
X0370517Y0040547D01*
X0370517Y0047633D01*
X0375351Y0047633D01*
X0376748Y0048212D01*
X0377817Y0049281D01*
X0385817Y0057281D01*
X0386395Y0058677D01*
X0386395Y0058869D01*
X0386410Y0058884D01*
X0387095Y0060538D01*
X0387095Y0062328D01*
X0386410Y0063982D01*
X0385144Y0065248D01*
X0383490Y0065933D01*
X0381700Y0065933D01*
X0380046Y0065248D01*
X0378780Y0063982D01*
X0378095Y0062328D01*
X0378095Y0060538D01*
X0378163Y0060375D01*
X0373021Y0055233D01*
X0369169Y0055233D01*
X0368202Y0056200D01*
X0369704Y0056200D01*
X0369704Y0061487D01*
X0370604Y0061487D01*
X0370604Y0056200D01*
X0372891Y0056200D01*
X0373349Y0056323D01*
X0373759Y0056560D01*
X0374095Y0056895D01*
X0374332Y0057305D01*
X0374454Y0057763D01*
X0374454Y0061487D01*
X0370604Y0061487D01*
X0370604Y0062387D01*
X0369704Y0062387D01*
X0369704Y0067674D01*
X0367417Y0067674D01*
X0366959Y0067551D01*
X0366549Y0067314D01*
X0366217Y0066983D01*
X0365526Y0067674D01*
X0359035Y0067674D01*
X0357980Y0066620D01*
X0357980Y0057254D01*
X0358795Y0056439D01*
X0358795Y0055677D01*
X0358891Y0055445D01*
X0357831Y0056505D01*
X0357478Y0057359D01*
X0356521Y0058315D01*
X0355271Y0058833D01*
X0353919Y0058833D01*
X0352669Y0058315D01*
X0351713Y0057359D01*
X0351195Y0056109D01*
X0351195Y0054257D01*
X0351713Y0053007D01*
X0354718Y0050002D01*
X0354376Y0049660D01*
X0354256Y0049840D01*
X0353935Y0050161D01*
X0353559Y0050412D01*
X0353140Y0050586D01*
X0352696Y0050674D01*
X0350919Y0050674D01*
X0350919Y0045387D01*
X0350019Y0045387D01*
X0350019Y0050674D01*
X0348243Y0050674D01*
X0347798Y0050586D01*
X0347380Y0050412D01*
X0347003Y0050161D01*
X0346683Y0049840D01*
X0346431Y0049463D01*
X0346258Y0049045D01*
X0346169Y0048601D01*
X0346169Y0045387D01*
X0346169Y0046024D02*
X0344895Y0046024D01*
X0344895Y0047623D02*
X0346169Y0047623D01*
X0346331Y0049221D02*
X0344895Y0049221D01*
X0345234Y0050820D02*
X0353900Y0050820D01*
X0352302Y0052418D02*
X0346833Y0052418D01*
X0348431Y0054017D02*
X0351295Y0054017D01*
X0351195Y0055615D02*
X0348832Y0055615D01*
X0350791Y0057214D02*
X0351653Y0057214D01*
X0350832Y0058812D02*
X0353869Y0058812D01*
X0355322Y0058812D02*
X0357980Y0058812D01*
X0357980Y0060411D02*
X0350832Y0060411D01*
X0350832Y0062009D02*
X0357980Y0062009D01*
X0357980Y0063608D02*
X0350832Y0063608D01*
X0350832Y0065206D02*
X0357980Y0065206D01*
X0358165Y0066805D02*
X0350647Y0066805D01*
X0341258Y0068403D02*
X0395945Y0068403D01*
X0395945Y0066805D02*
X0374195Y0066805D01*
X0374095Y0066979D02*
X0373759Y0067314D01*
X0373349Y0067551D01*
X0372891Y0067674D01*
X0370604Y0067674D01*
X0370604Y0062387D01*
X0374454Y0062387D01*
X0374454Y0066111D01*
X0374332Y0066569D01*
X0374095Y0066979D01*
X0374454Y0065206D02*
X0380004Y0065206D01*
X0378625Y0063608D02*
X0374454Y0063608D01*
X0374454Y0060411D02*
X0378148Y0060411D01*
X0378095Y0062009D02*
X0370604Y0062009D01*
X0370604Y0060411D02*
X0369704Y0060411D01*
X0369704Y0058812D02*
X0370604Y0058812D01*
X0370604Y0057214D02*
X0369704Y0057214D01*
X0368787Y0055615D02*
X0373403Y0055615D01*
X0374279Y0057214D02*
X0375002Y0057214D01*
X0374454Y0058812D02*
X0376600Y0058812D01*
X0370604Y0063608D02*
X0369704Y0063608D01*
X0369704Y0065206D02*
X0370604Y0065206D01*
X0370604Y0066805D02*
X0369704Y0066805D01*
X0358021Y0057214D02*
X0357538Y0057214D01*
X0358721Y0055615D02*
X0358821Y0055615D01*
X0350919Y0049221D02*
X0350019Y0049221D01*
X0350019Y0047623D02*
X0350919Y0047623D01*
X0350919Y0046024D02*
X0350019Y0046024D01*
X0350019Y0044426D02*
X0350919Y0044426D01*
X0350919Y0042827D02*
X0350019Y0042827D01*
X0350019Y0041229D02*
X0350919Y0041229D01*
X0350919Y0039630D02*
X0350019Y0039630D01*
X0353811Y0039630D02*
X0354960Y0039630D01*
X0361726Y0039630D02*
X0362834Y0039630D01*
X0369600Y0039630D02*
X0375959Y0039630D01*
X0377557Y0041229D02*
X0370517Y0041229D01*
X0370517Y0042827D02*
X0379156Y0042827D01*
X0380754Y0044426D02*
X0370517Y0044426D01*
X0370517Y0046024D02*
X0382353Y0046024D01*
X0383951Y0047623D02*
X0370517Y0047623D01*
X0377757Y0049221D02*
X0385550Y0049221D01*
X0387148Y0050820D02*
X0379356Y0050820D01*
X0380954Y0052418D02*
X0388747Y0052418D01*
X0390345Y0054017D02*
X0382553Y0054017D01*
X0384151Y0055615D02*
X0391944Y0055615D01*
X0393542Y0057214D02*
X0385750Y0057214D01*
X0386395Y0058812D02*
X0395141Y0058812D01*
X0395945Y0060411D02*
X0387042Y0060411D01*
X0387095Y0062009D02*
X0395945Y0062009D01*
X0395945Y0063608D02*
X0386565Y0063608D01*
X0385186Y0065206D02*
X0395945Y0065206D01*
X0395945Y0070002D02*
X0341258Y0070002D01*
X0341258Y0071600D02*
X0395945Y0071600D01*
X0395945Y0073199D02*
X0341258Y0073199D01*
X0341258Y0074797D02*
X0395945Y0074797D01*
X0395945Y0076396D02*
X0341047Y0076396D01*
X0339711Y0077994D02*
X0395945Y0077994D01*
X0395945Y0079593D02*
X0338112Y0079593D01*
X0336514Y0081191D02*
X0395945Y0081191D01*
X0395945Y0082790D02*
X0334915Y0082790D01*
X0333317Y0084388D02*
X0395945Y0084388D01*
X0395945Y0085987D02*
X0331718Y0085987D01*
X0330120Y0087585D02*
X0395945Y0087585D01*
X0395945Y0089184D02*
X0328521Y0089184D01*
X0326923Y0090782D02*
X0395945Y0090782D01*
X0395945Y0092381D02*
X0325324Y0092381D01*
X0325625Y0093979D02*
X0323726Y0093979D01*
X0323801Y0095578D02*
X0322127Y0095578D01*
X0321573Y0097177D02*
X0323495Y0097177D01*
X0323995Y0098775D02*
X0321573Y0098775D01*
X0321890Y0100374D02*
X0323995Y0100374D01*
X0323995Y0101972D02*
X0322073Y0101972D01*
X0318973Y0101433D02*
X0318973Y0107929D01*
X0314673Y0108366D02*
X0312695Y0108366D01*
X0312695Y0106768D02*
X0314673Y0106768D01*
X0314673Y0105169D02*
X0312695Y0105169D01*
X0312695Y0103571D02*
X0314673Y0103571D01*
X0315873Y0101972D02*
X0312695Y0101972D01*
X0312962Y0100374D02*
X0316057Y0100374D01*
X0316373Y0098775D02*
X0313295Y0098775D01*
X0312831Y0097177D02*
X0316373Y0097177D01*
X0316373Y0095578D02*
X0277127Y0095578D01*
X0275529Y0097177D02*
X0307359Y0097177D01*
X0306895Y0098775D02*
X0273930Y0098775D01*
X0273483Y0100374D02*
X0307228Y0100374D01*
X0307495Y0101972D02*
X0273483Y0101972D01*
X0273483Y0103571D02*
X0307495Y0103571D01*
X0307495Y0105169D02*
X0273483Y0105169D01*
X0273483Y0106768D02*
X0307495Y0106768D01*
X0307495Y0108366D02*
X0273483Y0108366D01*
X0273483Y0109965D02*
X0307495Y0109965D01*
X0307495Y0111563D02*
X0273483Y0111563D01*
X0273483Y0113162D02*
X0307495Y0113162D01*
X0307495Y0114760D02*
X0273483Y0114760D01*
X0273483Y0116359D02*
X0307495Y0116359D01*
X0307495Y0117957D02*
X0273483Y0117957D01*
X0274677Y0119556D02*
X0277088Y0119556D01*
X0275917Y0121154D02*
X0275848Y0121154D01*
X0270883Y0123539D02*
X0270883Y0098146D01*
X0277595Y0091433D01*
X0316095Y0091433D01*
X0329845Y0077683D01*
X0338658Y0075370D02*
X0338658Y0061937D01*
X0337595Y0063000D01*
X0331095Y0069933D02*
X0314595Y0086433D01*
X0242595Y0086433D01*
X0240883Y0088146D01*
X0240883Y0123539D01*
X0244677Y0119556D02*
X0247088Y0119556D01*
X0247767Y0118877D02*
X0249789Y0118039D01*
X0251977Y0118039D01*
X0253998Y0118877D01*
X0255545Y0120424D01*
X0255883Y0121238D01*
X0256220Y0120424D01*
X0257767Y0118877D01*
X0259789Y0118039D01*
X0261977Y0118039D01*
X0263998Y0118877D01*
X0265545Y0120424D01*
X0265883Y0121238D01*
X0266220Y0120424D01*
X0267767Y0118877D01*
X0268283Y0118663D01*
X0268283Y0097628D01*
X0268678Y0096673D01*
X0269410Y0095941D01*
X0275391Y0089960D01*
X0276122Y0089229D01*
X0276595Y0089033D01*
X0243672Y0089033D01*
X0243483Y0089223D01*
X0243483Y0118663D01*
X0243998Y0118877D01*
X0245545Y0120424D01*
X0245883Y0121238D01*
X0246220Y0120424D01*
X0247767Y0118877D01*
X0245917Y0121154D02*
X0245848Y0121154D01*
X0243483Y0117957D02*
X0268283Y0117957D01*
X0268283Y0116359D02*
X0243483Y0116359D01*
X0243483Y0114760D02*
X0268283Y0114760D01*
X0268283Y0113162D02*
X0243483Y0113162D01*
X0243483Y0111563D02*
X0268283Y0111563D01*
X0268283Y0109965D02*
X0243483Y0109965D01*
X0243483Y0108366D02*
X0268283Y0108366D01*
X0268283Y0106768D02*
X0243483Y0106768D01*
X0243483Y0105169D02*
X0268283Y0105169D01*
X0268283Y0103571D02*
X0243483Y0103571D01*
X0243483Y0101972D02*
X0268283Y0101972D01*
X0268283Y0100374D02*
X0243483Y0100374D01*
X0243483Y0098775D02*
X0268283Y0098775D01*
X0268470Y0097177D02*
X0243483Y0097177D01*
X0243483Y0095578D02*
X0269773Y0095578D01*
X0269410Y0095941D02*
X0269410Y0095941D01*
X0271372Y0093979D02*
X0243483Y0093979D01*
X0243483Y0092381D02*
X0272970Y0092381D01*
X0274569Y0090782D02*
X0243483Y0090782D01*
X0243521Y0089184D02*
X0276231Y0089184D01*
X0297595Y0081433D02*
X0242595Y0081433D01*
X0230883Y0093146D01*
X0230883Y0123539D01*
X0234677Y0119556D02*
X0237088Y0119556D01*
X0237767Y0118877D02*
X0238283Y0118663D01*
X0238283Y0089423D01*
X0233483Y0094223D01*
X0233483Y0118663D01*
X0233998Y0118877D01*
X0235545Y0120424D01*
X0235883Y0121238D01*
X0236220Y0120424D01*
X0237767Y0118877D01*
X0238283Y0117957D02*
X0233483Y0117957D01*
X0233483Y0116359D02*
X0238283Y0116359D01*
X0238283Y0114760D02*
X0233483Y0114760D01*
X0233483Y0113162D02*
X0238283Y0113162D01*
X0238283Y0111563D02*
X0233483Y0111563D01*
X0233483Y0109965D02*
X0238283Y0109965D01*
X0238283Y0108366D02*
X0233483Y0108366D01*
X0233483Y0106768D02*
X0238283Y0106768D01*
X0238283Y0105169D02*
X0233483Y0105169D01*
X0233483Y0103571D02*
X0238283Y0103571D01*
X0238283Y0101972D02*
X0233483Y0101972D01*
X0233483Y0100374D02*
X0238283Y0100374D01*
X0238283Y0098775D02*
X0233483Y0098775D01*
X0233483Y0097177D02*
X0238283Y0097177D01*
X0238283Y0095578D02*
X0233483Y0095578D01*
X0233726Y0093979D02*
X0238283Y0093979D01*
X0238283Y0092381D02*
X0235324Y0092381D01*
X0236923Y0090782D02*
X0238283Y0090782D01*
X0228283Y0094423D02*
X0223483Y0099223D01*
X0223483Y0118663D01*
X0223998Y0118877D01*
X0225545Y0120424D01*
X0225883Y0121238D01*
X0226220Y0120424D01*
X0227767Y0118877D01*
X0228283Y0118663D01*
X0228283Y0094423D01*
X0228283Y0095578D02*
X0227127Y0095578D01*
X0228283Y0097177D02*
X0225529Y0097177D01*
X0223930Y0098775D02*
X0228283Y0098775D01*
X0228283Y0100374D02*
X0223483Y0100374D01*
X0223483Y0101972D02*
X0228283Y0101972D01*
X0228283Y0103571D02*
X0223483Y0103571D01*
X0223483Y0105169D02*
X0228283Y0105169D01*
X0228283Y0106768D02*
X0223483Y0106768D01*
X0223483Y0108366D02*
X0228283Y0108366D01*
X0228283Y0109965D02*
X0223483Y0109965D01*
X0223483Y0111563D02*
X0228283Y0111563D01*
X0228283Y0113162D02*
X0223483Y0113162D01*
X0223483Y0114760D02*
X0228283Y0114760D01*
X0228283Y0116359D02*
X0223483Y0116359D01*
X0223483Y0117957D02*
X0228283Y0117957D01*
X0227088Y0119556D02*
X0224677Y0119556D01*
X0225848Y0121154D02*
X0225917Y0121154D01*
X0220883Y0123539D02*
X0220883Y0098146D01*
X0242595Y0076433D01*
X0218283Y0099423D02*
X0213483Y0104223D01*
X0213483Y0118663D01*
X0213998Y0118877D01*
X0215545Y0120424D01*
X0215883Y0121238D01*
X0216220Y0120424D01*
X0217767Y0118877D01*
X0218283Y0118663D01*
X0218283Y0099423D01*
X0218283Y0100374D02*
X0217332Y0100374D01*
X0218283Y0101972D02*
X0215733Y0101972D01*
X0214135Y0103571D02*
X0218283Y0103571D01*
X0218283Y0105169D02*
X0213483Y0105169D01*
X0213483Y0106768D02*
X0218283Y0106768D01*
X0218283Y0108366D02*
X0213483Y0108366D01*
X0213483Y0109965D02*
X0218283Y0109965D01*
X0218283Y0111563D02*
X0213483Y0111563D01*
X0213483Y0113162D02*
X0218283Y0113162D01*
X0218283Y0114760D02*
X0213483Y0114760D01*
X0213483Y0116359D02*
X0218283Y0116359D01*
X0218283Y0117957D02*
X0213483Y0117957D01*
X0214677Y0119556D02*
X0217088Y0119556D01*
X0215917Y0121154D02*
X0215848Y0121154D01*
X0208283Y0117957D02*
X0186695Y0117957D01*
X0186695Y0116359D02*
X0208283Y0116359D01*
X0207088Y0119556D02*
X0204677Y0119556D01*
X0205848Y0121154D02*
X0205917Y0121154D01*
X0197088Y0119556D02*
X0194677Y0119556D01*
X0195848Y0121154D02*
X0195917Y0121154D01*
X0187088Y0119556D02*
X0186695Y0119556D01*
X0235848Y0121154D02*
X0235917Y0121154D01*
X0254677Y0119556D02*
X0257088Y0119556D01*
X0255917Y0121154D02*
X0255848Y0121154D01*
X0264677Y0119556D02*
X0267088Y0119556D01*
X0265917Y0121154D02*
X0265848Y0121154D01*
X0284677Y0119556D02*
X0287088Y0119556D01*
X0285925Y0121154D02*
X0285848Y0121154D01*
X0290683Y0121154D02*
X0291083Y0121154D01*
X0291083Y0119556D02*
X0290683Y0119556D01*
X0290683Y0122753D02*
X0291083Y0122753D01*
X0291083Y0123739D02*
X0290683Y0123739D01*
X0290683Y0128308D01*
X0290770Y0128308D01*
X0290770Y0133483D01*
X0290920Y0133483D01*
X0290920Y0128308D01*
X0291083Y0128308D01*
X0291083Y0123739D01*
X0291083Y0124351D02*
X0290683Y0124351D01*
X0290683Y0125950D02*
X0291083Y0125950D01*
X0291083Y0127548D02*
X0290683Y0127548D01*
X0290770Y0129147D02*
X0290920Y0129147D01*
X0290920Y0130745D02*
X0290770Y0130745D01*
X0290770Y0132344D02*
X0290920Y0132344D01*
X0290920Y0133942D02*
X0290770Y0133942D01*
X0290770Y0135541D02*
X0290920Y0135541D01*
X0290920Y0137139D02*
X0290770Y0137139D01*
X0290770Y0138738D02*
X0290920Y0138738D01*
X0291702Y0138738D02*
X0299631Y0138738D01*
X0302059Y0138738D02*
X0304113Y0138738D01*
X0304689Y0137139D02*
X0305712Y0137139D01*
X0305706Y0135541D02*
X0307310Y0135541D01*
X0307495Y0133942D02*
X0306095Y0133942D01*
X0306025Y0132344D02*
X0307495Y0132344D01*
X0307495Y0130745D02*
X0305363Y0130745D01*
X0303858Y0129147D02*
X0307495Y0129147D01*
X0307495Y0127548D02*
X0304652Y0127548D01*
X0305837Y0125950D02*
X0307495Y0125950D01*
X0307495Y0124351D02*
X0306383Y0124351D01*
X0306383Y0122753D02*
X0307495Y0122753D01*
X0307495Y0121154D02*
X0305848Y0121154D01*
X0304677Y0119556D02*
X0307495Y0119556D01*
X0316195Y0119556D02*
X0324247Y0119556D01*
X0324247Y0121104D02*
X0324247Y0113666D01*
X0323894Y0113666D01*
X0322910Y0112682D01*
X0321926Y0113666D01*
X0316548Y0113666D01*
X0316308Y0114246D01*
X0316195Y0114359D01*
X0316195Y0123549D01*
X0316959Y0123233D01*
X0318232Y0123233D01*
X0319408Y0123720D01*
X0320308Y0124620D01*
X0320432Y0124919D01*
X0321122Y0124229D01*
X0324247Y0121104D01*
X0324197Y0121154D02*
X0316195Y0121154D01*
X0316195Y0122753D02*
X0322599Y0122753D01*
X0321000Y0124351D02*
X0320039Y0124351D01*
X0317595Y0126433D02*
X0317595Y0138933D01*
X0307595Y0148933D01*
X0307595Y0163933D01*
X0315095Y0171433D01*
X0315095Y0178933D01*
X0307595Y0186433D01*
X0305095Y0186433D01*
X0300439Y0188292D02*
X0298543Y0188292D01*
X0298845Y0188594D02*
X0299027Y0189033D01*
X0300746Y0189033D01*
X0300083Y0187430D01*
X0300083Y0185436D01*
X0300846Y0183594D01*
X0302256Y0182184D01*
X0304068Y0181433D01*
X0302256Y0180683D01*
X0300846Y0179272D01*
X0300746Y0179033D01*
X0299578Y0179033D01*
X0298622Y0178637D01*
X0297891Y0177906D01*
X0292891Y0172906D01*
X0292495Y0171950D01*
X0292495Y0157710D01*
X0290195Y0160010D01*
X0290195Y0188957D01*
X0290346Y0188594D01*
X0291756Y0187184D01*
X0293598Y0186420D01*
X0295592Y0186420D01*
X0297435Y0187184D01*
X0298845Y0188594D01*
X0300083Y0186693D02*
X0296250Y0186693D01*
X0292940Y0186693D02*
X0290195Y0186693D01*
X0290195Y0185095D02*
X0300224Y0185095D01*
X0300943Y0183496D02*
X0290195Y0183496D01*
X0290195Y0181898D02*
X0302946Y0181898D01*
X0301872Y0180299D02*
X0290195Y0180299D01*
X0290195Y0178701D02*
X0298775Y0178701D01*
X0297087Y0177102D02*
X0290195Y0177102D01*
X0290195Y0175504D02*
X0295489Y0175504D01*
X0293890Y0173905D02*
X0290195Y0173905D01*
X0290195Y0172307D02*
X0292643Y0172307D01*
X0292495Y0170708D02*
X0290195Y0170708D01*
X0290195Y0169110D02*
X0292495Y0169110D01*
X0292495Y0167511D02*
X0290195Y0167511D01*
X0290195Y0165912D02*
X0292495Y0165912D01*
X0292495Y0164314D02*
X0290195Y0164314D01*
X0290195Y0162715D02*
X0292495Y0162715D01*
X0292495Y0161117D02*
X0290195Y0161117D01*
X0290687Y0159518D02*
X0292495Y0159518D01*
X0292495Y0157920D02*
X0292285Y0157920D01*
X0295095Y0156433D02*
X0295095Y0171433D01*
X0300095Y0176433D01*
X0305095Y0176433D01*
X0314850Y0167511D02*
X0350279Y0167511D01*
X0349140Y0169110D02*
X0351877Y0169110D01*
X0350551Y0170708D02*
X0353476Y0170708D01*
X0355074Y0172307D02*
X0350795Y0172307D01*
X0350149Y0173905D02*
X0356673Y0173905D01*
X0357945Y0175504D02*
X0326919Y0175504D01*
X0325320Y0177102D02*
X0357945Y0177102D01*
X0357945Y0178701D02*
X0323722Y0178701D01*
X0322123Y0180299D02*
X0357945Y0180299D01*
X0357945Y0181898D02*
X0320525Y0181898D01*
X0318926Y0183496D02*
X0357945Y0183496D01*
X0357945Y0185095D02*
X0336789Y0185095D01*
X0334402Y0185095D02*
X0326782Y0185095D01*
X0324595Y0185095D02*
X0324595Y0185095D01*
X0324595Y0186693D02*
X0324595Y0186693D01*
X0324595Y0188292D02*
X0324595Y0188292D01*
X0324595Y0189890D02*
X0324595Y0189890D01*
X0324595Y0191489D02*
X0324595Y0191489D01*
X0324595Y0193087D02*
X0324595Y0193087D01*
X0324595Y0194686D02*
X0324595Y0194686D01*
X0323510Y0196284D02*
X0325680Y0196284D01*
X0325495Y0197883D02*
X0323695Y0197883D01*
X0323396Y0199481D02*
X0325794Y0199481D01*
X0326717Y0201080D02*
X0322474Y0201080D01*
X0320014Y0202678D02*
X0329177Y0202678D01*
X0330345Y0204277D02*
X0309628Y0204277D01*
X0310108Y0205875D02*
X0330345Y0205875D01*
X0330345Y0207474D02*
X0310090Y0207474D01*
X0309428Y0209072D02*
X0330345Y0209072D01*
X0330345Y0210671D02*
X0307946Y0210671D01*
X0308020Y0212269D02*
X0330345Y0212269D01*
X0330345Y0213868D02*
X0309458Y0213868D01*
X0310108Y0215466D02*
X0324066Y0215466D01*
X0323845Y0217065D02*
X0310108Y0217065D01*
X0309597Y0218663D02*
X0323622Y0218663D01*
X0322024Y0220262D02*
X0308355Y0220262D01*
X0307154Y0221860D02*
X0320425Y0221860D01*
X0318391Y0223459D02*
X0309210Y0223459D01*
X0309951Y0225057D02*
X0316985Y0225057D01*
X0316695Y0226656D02*
X0310108Y0226656D01*
X0309766Y0228254D02*
X0317169Y0228254D01*
X0310108Y0233050D02*
X0327801Y0233050D01*
X0326203Y0234648D02*
X0310108Y0234648D01*
X0310108Y0236637D02*
X0310108Y0239883D01*
X0309985Y0240340D01*
X0309748Y0240751D01*
X0309413Y0241086D01*
X0309003Y0241323D01*
X0308545Y0241446D01*
X0305299Y0241446D01*
X0305299Y0236637D01*
X0310108Y0236637D01*
X0310108Y0237845D02*
X0323006Y0237845D01*
X0324604Y0236247D02*
X0305299Y0236247D01*
X0304891Y0236247D02*
X0285195Y0236247D01*
X0285195Y0237845D02*
X0300083Y0237845D01*
X0300083Y0236637D02*
X0300083Y0239883D01*
X0300205Y0240340D01*
X0300442Y0240751D01*
X0300777Y0241086D01*
X0301188Y0241323D01*
X0301646Y0241446D01*
X0304891Y0241446D01*
X0304891Y0236637D01*
X0300083Y0236637D01*
X0300083Y0234648D02*
X0285195Y0234648D01*
X0285195Y0233050D02*
X0300083Y0233050D01*
X0301530Y0231451D02*
X0285195Y0231451D01*
X0285195Y0229853D02*
X0301426Y0229853D01*
X0300424Y0228254D02*
X0285195Y0228254D01*
X0285195Y0226656D02*
X0300083Y0226656D01*
X0300239Y0225057D02*
X0299608Y0225057D01*
X0299608Y0223459D02*
X0300980Y0223459D01*
X0299608Y0221860D02*
X0303036Y0221860D01*
X0301835Y0220262D02*
X0299608Y0220262D01*
X0299608Y0218663D02*
X0300593Y0218663D01*
X0300083Y0217065D02*
X0299198Y0217065D01*
X0300083Y0215466D02*
X0297572Y0215466D01*
X0298980Y0213868D02*
X0300732Y0213868D01*
X0299538Y0212269D02*
X0302170Y0212269D01*
X0302244Y0210671D02*
X0299549Y0210671D01*
X0299018Y0209072D02*
X0300763Y0209072D01*
X0300101Y0207474D02*
X0297674Y0207474D01*
X0296969Y0205875D02*
X0300083Y0205875D01*
X0300563Y0204277D02*
X0298840Y0204277D01*
X0299505Y0202678D02*
X0301761Y0202678D01*
X0303215Y0201080D02*
X0299608Y0201080D01*
X0299212Y0199481D02*
X0301054Y0199481D01*
X0294595Y0201433D02*
X0290095Y0201433D01*
X0282595Y0208933D01*
X0282595Y0247933D01*
X0274095Y0256433D01*
X0267755Y0256433D01*
X0267735Y0256453D01*
X0262743Y0260225D02*
X0260195Y0260225D01*
X0260195Y0258626D02*
X0261273Y0258626D01*
X0260735Y0257028D02*
X0260195Y0257028D01*
X0260195Y0255429D02*
X0260797Y0255429D01*
X0260195Y0253831D02*
X0261535Y0253831D01*
X0260195Y0252232D02*
X0263828Y0252232D01*
X0264260Y0250853D02*
X0262643Y0250183D01*
X0261405Y0248945D01*
X0260735Y0247328D01*
X0260735Y0245578D01*
X0261405Y0243961D01*
X0262643Y0242723D01*
X0264260Y0242053D01*
X0271210Y0242053D01*
X0272828Y0242723D01*
X0274065Y0243961D01*
X0274735Y0245578D01*
X0274735Y0247328D01*
X0274065Y0248945D01*
X0272828Y0250183D01*
X0271210Y0250853D01*
X0264260Y0250853D01*
X0263730Y0250634D02*
X0260195Y0250634D01*
X0260195Y0249035D02*
X0261495Y0249035D01*
X0260780Y0247437D02*
X0260195Y0247437D01*
X0260195Y0245838D02*
X0260735Y0245838D01*
X0260195Y0244240D02*
X0261289Y0244240D01*
X0260195Y0242641D02*
X0262840Y0242641D01*
X0263446Y0240531D02*
X0262829Y0240216D01*
X0262269Y0239809D01*
X0261779Y0239319D01*
X0261372Y0238759D01*
X0261058Y0238142D01*
X0260843Y0237483D01*
X0260735Y0236799D01*
X0260735Y0236453D01*
X0260735Y0236107D01*
X0260843Y0235423D01*
X0261058Y0234764D01*
X0261372Y0234147D01*
X0261779Y0233587D01*
X0262269Y0233097D01*
X0262829Y0232690D01*
X0263446Y0232375D01*
X0264105Y0232161D01*
X0264789Y0232053D01*
X0267735Y0232053D01*
X0267735Y0236453D01*
X0260735Y0236453D01*
X0267735Y0236453D01*
X0267735Y0236453D01*
X0267735Y0236453D01*
X0267735Y0240853D01*
X0264789Y0240853D01*
X0264105Y0240745D01*
X0263446Y0240531D01*
X0261904Y0239444D02*
X0260195Y0239444D01*
X0260195Y0237845D02*
X0260961Y0237845D01*
X0260735Y0236247D02*
X0260195Y0236247D01*
X0260195Y0234648D02*
X0261116Y0234648D01*
X0260195Y0233050D02*
X0262333Y0233050D01*
X0267735Y0233050D02*
X0267735Y0233050D01*
X0267735Y0232053D02*
X0270681Y0232053D01*
X0271365Y0232161D01*
X0272024Y0232375D01*
X0272641Y0232690D01*
X0273202Y0233097D01*
X0273691Y0233587D01*
X0274098Y0234147D01*
X0274413Y0234764D01*
X0274627Y0235423D01*
X0274735Y0236107D01*
X0274735Y0236453D01*
X0267735Y0236453D01*
X0267735Y0236453D01*
X0267735Y0232053D01*
X0267735Y0234648D02*
X0267735Y0234648D01*
X0267735Y0236247D02*
X0267735Y0236247D01*
X0267735Y0236453D02*
X0267735Y0236453D01*
X0267735Y0240853D01*
X0270681Y0240853D01*
X0271365Y0240745D01*
X0272024Y0240531D01*
X0272641Y0240216D01*
X0273202Y0239809D01*
X0273691Y0239319D01*
X0274098Y0238759D01*
X0274413Y0238142D01*
X0274627Y0237483D01*
X0274735Y0236799D01*
X0274735Y0236453D01*
X0267735Y0236453D01*
X0267735Y0237845D02*
X0267735Y0237845D01*
X0267735Y0239444D02*
X0267735Y0239444D01*
X0273567Y0239444D02*
X0279995Y0239444D01*
X0279995Y0237845D02*
X0274509Y0237845D01*
X0274735Y0236247D02*
X0279995Y0236247D01*
X0279995Y0234648D02*
X0274354Y0234648D01*
X0273137Y0233050D02*
X0279995Y0233050D01*
X0285195Y0239444D02*
X0300083Y0239444D01*
X0300734Y0241043D02*
X0285195Y0241043D01*
X0286095Y0244433D02*
X0282595Y0247933D01*
X0279415Y0247437D02*
X0274690Y0247437D01*
X0274735Y0245838D02*
X0279995Y0245838D01*
X0279995Y0244240D02*
X0274181Y0244240D01*
X0272630Y0242641D02*
X0279995Y0242641D01*
X0279995Y0241043D02*
X0260195Y0241043D01*
X0271740Y0250634D02*
X0276218Y0250634D01*
X0274619Y0252232D02*
X0271643Y0252232D01*
X0273976Y0249035D02*
X0277816Y0249035D01*
X0286095Y0244433D02*
X0320095Y0244433D01*
X0352595Y0211933D01*
X0352595Y0192183D01*
X0350363Y0189890D02*
X0340695Y0189890D01*
X0340549Y0191489D02*
X0349419Y0191489D01*
X0349506Y0193087D02*
X0339841Y0193087D01*
X0337901Y0194686D02*
X0349995Y0194686D01*
X0349995Y0196284D02*
X0335510Y0196284D01*
X0335695Y0197883D02*
X0349995Y0197883D01*
X0349995Y0199481D02*
X0336198Y0199481D01*
X0336345Y0201080D02*
X0349995Y0201080D01*
X0349995Y0202678D02*
X0336345Y0202678D01*
X0336345Y0204277D02*
X0349995Y0204277D01*
X0349995Y0205875D02*
X0336345Y0205875D01*
X0336345Y0207474D02*
X0349995Y0207474D01*
X0349995Y0209072D02*
X0336345Y0209072D01*
X0336345Y0210671D02*
X0349995Y0210671D01*
X0348582Y0212269D02*
X0336345Y0212269D01*
X0336345Y0213868D02*
X0340069Y0213868D01*
X0339099Y0215466D02*
X0336345Y0215466D01*
X0333345Y0218183D02*
X0332595Y0218933D01*
X0337392Y0223459D02*
X0327312Y0223459D01*
X0325713Y0225057D02*
X0335794Y0225057D01*
X0334195Y0226656D02*
X0324115Y0226656D01*
X0323021Y0228254D02*
X0332597Y0228254D01*
X0330998Y0229853D02*
X0308764Y0229853D01*
X0308660Y0231451D02*
X0329400Y0231451D01*
X0336610Y0237845D02*
X0340695Y0237845D01*
X0340695Y0236247D02*
X0338208Y0236247D01*
X0339807Y0234648D02*
X0340695Y0234648D01*
X0340589Y0239444D02*
X0335011Y0239444D01*
X0333413Y0241043D02*
X0336734Y0241043D01*
X0334645Y0242641D02*
X0331814Y0242641D01*
X0333046Y0244240D02*
X0330216Y0244240D01*
X0331448Y0245838D02*
X0328617Y0245838D01*
X0329849Y0247437D02*
X0327019Y0247437D01*
X0328250Y0249035D02*
X0325420Y0249035D01*
X0326652Y0250634D02*
X0323822Y0250634D01*
X0323072Y0252232D02*
X0325053Y0252232D01*
X0320595Y0250183D02*
X0356595Y0214183D01*
X0356595Y0205683D01*
X0355487Y0202678D02*
X0355195Y0202678D01*
X0355195Y0201080D02*
X0357945Y0201080D01*
X0357945Y0202678D02*
X0357703Y0202678D01*
X0357945Y0199481D02*
X0355195Y0199481D01*
X0355195Y0197883D02*
X0357945Y0197883D01*
X0357945Y0196284D02*
X0355195Y0196284D01*
X0355195Y0194686D02*
X0357945Y0194686D01*
X0357945Y0193087D02*
X0355684Y0193087D01*
X0355771Y0191489D02*
X0357945Y0191489D01*
X0357945Y0189890D02*
X0354828Y0189890D01*
X0357945Y0188292D02*
X0340358Y0188292D01*
X0339380Y0186693D02*
X0357945Y0186693D01*
X0368495Y0186693D02*
X0395945Y0186693D01*
X0395945Y0185095D02*
X0368495Y0185095D01*
X0368495Y0183496D02*
X0370966Y0183496D01*
X0371667Y0184197D02*
X0370064Y0182593D01*
X0369196Y0180498D01*
X0369196Y0178231D01*
X0370064Y0176136D01*
X0371667Y0174532D01*
X0373762Y0173665D01*
X0383830Y0173665D01*
X0385925Y0174532D01*
X0387528Y0176136D01*
X0388396Y0178231D01*
X0388396Y0180498D01*
X0387528Y0182593D01*
X0385925Y0184197D01*
X0383830Y0185065D01*
X0373762Y0185065D01*
X0371667Y0184197D01*
X0369776Y0181898D02*
X0368495Y0181898D01*
X0368495Y0180299D02*
X0369196Y0180299D01*
X0369196Y0178701D02*
X0368495Y0178701D01*
X0368495Y0177102D02*
X0369663Y0177102D01*
X0370696Y0175504D02*
X0368495Y0175504D01*
X0368495Y0173905D02*
X0373182Y0173905D01*
X0368495Y0172307D02*
X0395945Y0172307D01*
X0395945Y0173905D02*
X0384410Y0173905D01*
X0386896Y0175504D02*
X0395945Y0175504D01*
X0395945Y0177102D02*
X0387928Y0177102D01*
X0388396Y0178701D02*
X0395945Y0178701D01*
X0395945Y0180299D02*
X0388396Y0180299D01*
X0387816Y0181898D02*
X0395945Y0181898D01*
X0395945Y0183496D02*
X0386625Y0183496D01*
X0381711Y0191020D02*
X0383258Y0192568D01*
X0384095Y0194589D01*
X0384095Y0196777D01*
X0383258Y0198799D01*
X0381711Y0200346D01*
X0380896Y0200683D01*
X0381711Y0201020D01*
X0383258Y0202568D01*
X0384095Y0204589D01*
X0384095Y0206777D01*
X0383258Y0208799D01*
X0381711Y0210346D01*
X0379689Y0211183D01*
X0377501Y0211183D01*
X0375480Y0210346D01*
X0373932Y0208799D01*
X0373095Y0206777D01*
X0373095Y0204589D01*
X0373932Y0202568D01*
X0375480Y0201020D01*
X0376294Y0200683D01*
X0375480Y0200346D01*
X0373932Y0198799D01*
X0373095Y0196777D01*
X0373095Y0194589D01*
X0373932Y0192568D01*
X0375480Y0191020D01*
X0377501Y0190183D01*
X0379689Y0190183D01*
X0381711Y0191020D01*
X0382179Y0191489D02*
X0395945Y0191489D01*
X0395945Y0193087D02*
X0383473Y0193087D01*
X0384095Y0194686D02*
X0395945Y0194686D01*
X0395945Y0196284D02*
X0384095Y0196284D01*
X0383637Y0197883D02*
X0395945Y0197883D01*
X0395945Y0199481D02*
X0382575Y0199481D01*
X0381770Y0201080D02*
X0395945Y0201080D01*
X0395945Y0202678D02*
X0383304Y0202678D01*
X0383966Y0204277D02*
X0395945Y0204277D01*
X0395945Y0205875D02*
X0384095Y0205875D01*
X0383807Y0207474D02*
X0395945Y0207474D01*
X0395945Y0209072D02*
X0382984Y0209072D01*
X0380926Y0210671D02*
X0395945Y0210671D01*
X0395945Y0212269D02*
X0368495Y0212269D01*
X0368495Y0210671D02*
X0376264Y0210671D01*
X0374206Y0209072D02*
X0368495Y0209072D01*
X0368495Y0207474D02*
X0373384Y0207474D01*
X0373095Y0205875D02*
X0368495Y0205875D01*
X0368495Y0204277D02*
X0373224Y0204277D01*
X0373887Y0202678D02*
X0368495Y0202678D01*
X0368495Y0201080D02*
X0375420Y0201080D01*
X0374615Y0199481D02*
X0368495Y0199481D01*
X0368495Y0197883D02*
X0373553Y0197883D01*
X0373095Y0196284D02*
X0368495Y0196284D01*
X0368495Y0194686D02*
X0373095Y0194686D01*
X0373717Y0193087D02*
X0368495Y0193087D01*
X0368495Y0191489D02*
X0375011Y0191489D01*
X0368495Y0189890D02*
X0395945Y0189890D01*
X0395945Y0188292D02*
X0368495Y0188292D01*
X0368495Y0170708D02*
X0395945Y0170708D01*
X0395945Y0169110D02*
X0368495Y0169110D01*
X0368495Y0167511D02*
X0395945Y0167511D01*
X0395945Y0165912D02*
X0368495Y0165912D01*
X0368495Y0164314D02*
X0371584Y0164314D01*
X0371667Y0164397D02*
X0370064Y0162793D01*
X0369196Y0160698D01*
X0369196Y0158431D01*
X0370064Y0156336D01*
X0371667Y0154732D01*
X0373762Y0153865D01*
X0383830Y0153865D01*
X0385925Y0154732D01*
X0387528Y0156336D01*
X0388396Y0158431D01*
X0388396Y0160698D01*
X0387528Y0162793D01*
X0385925Y0164397D01*
X0383830Y0165265D01*
X0373762Y0165265D01*
X0371667Y0164397D01*
X0370031Y0162715D02*
X0368495Y0162715D01*
X0368495Y0161117D02*
X0369369Y0161117D01*
X0369196Y0159518D02*
X0368495Y0159518D01*
X0368495Y0157920D02*
X0369408Y0157920D01*
X0370078Y0156321D02*
X0368495Y0156321D01*
X0368495Y0154723D02*
X0371690Y0154723D01*
X0368495Y0153124D02*
X0395945Y0153124D01*
X0395945Y0151526D02*
X0368495Y0151526D01*
X0368909Y0149927D02*
X0395945Y0149927D01*
X0395945Y0148329D02*
X0370508Y0148329D01*
X0372106Y0146730D02*
X0395945Y0146730D01*
X0395945Y0145132D02*
X0373313Y0145132D01*
X0374312Y0143533D02*
X0395945Y0143533D01*
X0395945Y0141935D02*
X0374454Y0141935D01*
X0374454Y0140336D02*
X0395945Y0140336D01*
X0395945Y0138738D02*
X0374454Y0138738D01*
X0374454Y0137139D02*
X0395945Y0137139D01*
X0395945Y0135541D02*
X0374454Y0135541D01*
X0374370Y0133942D02*
X0395945Y0133942D01*
X0395945Y0132344D02*
X0373554Y0132344D01*
X0373554Y0130745D02*
X0395945Y0130745D01*
X0395945Y0129147D02*
X0373554Y0129147D01*
X0373554Y0127548D02*
X0395945Y0127548D01*
X0395945Y0125950D02*
X0373554Y0125950D01*
X0373554Y0124351D02*
X0395945Y0124351D01*
X0395945Y0122753D02*
X0373554Y0122753D01*
X0373554Y0121154D02*
X0395945Y0121154D01*
X0395945Y0119556D02*
X0373554Y0119556D01*
X0373554Y0117957D02*
X0395945Y0117957D01*
X0395945Y0116359D02*
X0373554Y0116359D01*
X0373554Y0114760D02*
X0395945Y0114760D01*
X0395945Y0113162D02*
X0373554Y0113162D01*
X0374832Y0111563D02*
X0395945Y0111563D01*
X0395945Y0109965D02*
X0376558Y0109965D01*
X0378467Y0108366D02*
X0395945Y0108366D01*
X0395945Y0106768D02*
X0378954Y0106768D01*
X0378744Y0105169D02*
X0395945Y0105169D01*
X0395945Y0103571D02*
X0377666Y0103571D01*
X0372643Y0103571D02*
X0362269Y0103571D01*
X0362269Y0103547D02*
X0362269Y0112327D01*
X0360922Y0113674D01*
X0355016Y0113674D01*
X0354219Y0112877D01*
X0353422Y0113674D01*
X0347516Y0113674D01*
X0346169Y0112327D01*
X0346169Y0103547D01*
X0347516Y0102200D01*
X0353422Y0102200D01*
X0354219Y0102997D01*
X0355016Y0102200D01*
X0360922Y0102200D01*
X0362269Y0103547D01*
X0362269Y0105169D02*
X0371565Y0105169D01*
X0370011Y0106768D02*
X0362269Y0106768D01*
X0362269Y0108366D02*
X0368413Y0108366D01*
X0367082Y0109965D02*
X0362269Y0109965D01*
X0362269Y0111563D02*
X0366754Y0111563D01*
X0366754Y0113162D02*
X0361434Y0113162D01*
X0354504Y0113162D02*
X0353934Y0113162D01*
X0347004Y0113162D02*
X0330304Y0113162D01*
X0331147Y0111563D02*
X0346169Y0111563D01*
X0346169Y0109965D02*
X0331147Y0109965D01*
X0331147Y0108366D02*
X0346169Y0108366D01*
X0346169Y0106768D02*
X0331147Y0106768D01*
X0331147Y0105169D02*
X0346169Y0105169D01*
X0346169Y0103571D02*
X0331147Y0103571D01*
X0329195Y0101972D02*
X0395945Y0101972D01*
X0395945Y0100374D02*
X0329195Y0100374D01*
X0329195Y0098775D02*
X0395945Y0098775D01*
X0395945Y0097177D02*
X0329695Y0097177D01*
X0329389Y0095578D02*
X0395945Y0095578D01*
X0395945Y0093979D02*
X0327565Y0093979D01*
X0326595Y0096933D02*
X0326595Y0107677D01*
X0326847Y0107929D01*
X0326847Y0122181D01*
X0322595Y0126433D01*
X0322595Y0138394D01*
X0322910Y0138709D01*
X0327210Y0138738D02*
X0334310Y0138738D01*
X0334310Y0140336D02*
X0327210Y0140336D01*
X0327210Y0141935D02*
X0334310Y0141935D01*
X0334310Y0143391D02*
X0334310Y0134026D01*
X0335365Y0132972D01*
X0341856Y0132972D01*
X0342910Y0134026D01*
X0342910Y0143391D01*
X0341856Y0144446D01*
X0335365Y0144446D01*
X0334310Y0143391D01*
X0334452Y0143533D02*
X0327068Y0143533D01*
X0327210Y0137139D02*
X0334310Y0137139D01*
X0334310Y0135541D02*
X0327210Y0135541D01*
X0327126Y0133942D02*
X0334394Y0133942D01*
X0342826Y0133942D02*
X0365938Y0133942D01*
X0365854Y0135541D02*
X0342910Y0135541D01*
X0342910Y0137139D02*
X0365854Y0137139D01*
X0365854Y0138738D02*
X0342910Y0138738D01*
X0342910Y0140336D02*
X0365854Y0140336D01*
X0365854Y0141935D02*
X0342910Y0141935D01*
X0342768Y0143533D02*
X0365687Y0143533D01*
X0364088Y0145132D02*
X0315073Y0145132D01*
X0313475Y0146730D02*
X0362490Y0146730D01*
X0361695Y0148329D02*
X0311876Y0148329D01*
X0310278Y0149927D02*
X0361695Y0149927D01*
X0361695Y0151526D02*
X0310195Y0151526D01*
X0310195Y0153124D02*
X0361695Y0153124D01*
X0361695Y0154723D02*
X0310195Y0154723D01*
X0310195Y0156321D02*
X0361695Y0156321D01*
X0361695Y0157920D02*
X0326055Y0157920D01*
X0320636Y0157920D02*
X0316055Y0157920D01*
X0317315Y0159518D02*
X0319376Y0159518D01*
X0318945Y0161117D02*
X0317745Y0161117D01*
X0317576Y0162715D02*
X0319114Y0162715D01*
X0320004Y0164314D02*
X0316687Y0164314D01*
X0313251Y0165912D02*
X0348680Y0165912D01*
X0347082Y0164314D02*
X0326687Y0164314D01*
X0324926Y0170708D02*
X0317609Y0170708D01*
X0317695Y0172307D02*
X0323328Y0172307D01*
X0321729Y0173905D02*
X0317695Y0173905D01*
X0317695Y0175504D02*
X0320131Y0175504D01*
X0318532Y0177102D02*
X0317695Y0177102D01*
X0317328Y0185095D02*
X0322409Y0185095D01*
X0320810Y0186693D02*
X0315729Y0186693D01*
X0314131Y0188292D02*
X0319495Y0188292D01*
X0319495Y0189890D02*
X0312532Y0189890D01*
X0310934Y0191489D02*
X0319495Y0191489D01*
X0316515Y0193087D02*
X0309335Y0193087D01*
X0309797Y0194686D02*
X0314443Y0194686D01*
X0313680Y0196284D02*
X0310108Y0196284D01*
X0309920Y0197883D02*
X0313495Y0197883D01*
X0313794Y0199481D02*
X0309136Y0199481D01*
X0306976Y0201080D02*
X0314717Y0201080D01*
X0317177Y0202678D02*
X0308429Y0202678D01*
X0292221Y0205875D02*
X0289330Y0205875D01*
X0287731Y0207474D02*
X0291517Y0207474D01*
X0290172Y0209072D02*
X0286133Y0209072D01*
X0285195Y0210671D02*
X0289641Y0210671D01*
X0289653Y0212269D02*
X0285195Y0212269D01*
X0285195Y0213868D02*
X0290210Y0213868D01*
X0291619Y0215466D02*
X0285195Y0215466D01*
X0285195Y0217065D02*
X0289993Y0217065D01*
X0289583Y0218663D02*
X0285195Y0218663D01*
X0285195Y0220262D02*
X0289583Y0220262D01*
X0289583Y0221860D02*
X0285195Y0221860D01*
X0285195Y0223459D02*
X0289583Y0223459D01*
X0289583Y0225057D02*
X0285195Y0225057D01*
X0304891Y0237845D02*
X0305299Y0237845D01*
X0305299Y0239444D02*
X0304891Y0239444D01*
X0304891Y0241043D02*
X0305299Y0241043D01*
X0309456Y0241043D02*
X0319809Y0241043D01*
X0321407Y0239444D02*
X0310108Y0239444D01*
X0330342Y0255429D02*
X0331093Y0255429D01*
X0331940Y0253831D02*
X0347095Y0253831D01*
X0347095Y0255429D02*
X0338097Y0255429D01*
X0338970Y0257028D02*
X0347095Y0257028D01*
X0347095Y0258626D02*
X0338970Y0258626D01*
X0338970Y0260225D02*
X0347095Y0260225D01*
X0347095Y0261823D02*
X0338970Y0261823D01*
X0338491Y0263422D02*
X0347095Y0263422D01*
X0347095Y0265020D02*
X0338305Y0265020D01*
X0338967Y0266619D02*
X0347095Y0266619D01*
X0347095Y0268217D02*
X0338970Y0268217D01*
X0338370Y0269816D02*
X0347095Y0269816D01*
X0347095Y0271414D02*
X0336568Y0271414D01*
X0338354Y0273013D02*
X0347095Y0273013D01*
X0347095Y0274611D02*
X0338970Y0274611D01*
X0338970Y0276210D02*
X0347095Y0276210D01*
X0347095Y0277808D02*
X0338320Y0277808D01*
X0336700Y0279407D02*
X0347095Y0279407D01*
X0347095Y0281005D02*
X0338364Y0281005D01*
X0338923Y0282604D02*
X0347095Y0282604D01*
X0345583Y0284202D02*
X0338873Y0284202D01*
X0338862Y0284269D02*
X0338649Y0284923D01*
X0338337Y0285537D01*
X0337932Y0286094D01*
X0337445Y0286581D01*
X0336888Y0286986D01*
X0336274Y0287298D01*
X0335620Y0287511D01*
X0334939Y0287619D01*
X0334595Y0287619D01*
X0334251Y0287619D01*
X0333571Y0287511D01*
X0332916Y0287298D01*
X0332302Y0286986D01*
X0331745Y0286581D01*
X0331258Y0286094D01*
X0330853Y0285537D01*
X0330541Y0284923D01*
X0330328Y0284269D01*
X0330220Y0283588D01*
X0330220Y0283244D01*
X0334595Y0283244D01*
X0334595Y0283244D01*
X0334595Y0287619D01*
X0334595Y0283244D01*
X0334595Y0283244D01*
X0334595Y0283244D01*
X0338970Y0283244D01*
X0338970Y0283588D01*
X0338862Y0284269D01*
X0338145Y0285801D02*
X0343985Y0285801D01*
X0342386Y0287399D02*
X0335964Y0287399D01*
X0334595Y0287399D02*
X0334595Y0287399D01*
X0333227Y0287399D02*
X0318057Y0287399D01*
X0318057Y0285801D02*
X0331045Y0285801D01*
X0330318Y0284202D02*
X0318057Y0284202D01*
X0318057Y0282604D02*
X0330267Y0282604D01*
X0330826Y0281005D02*
X0313344Y0281005D01*
X0311746Y0279407D02*
X0332490Y0279407D01*
X0330870Y0277808D02*
X0310147Y0277808D01*
X0318057Y0288998D02*
X0340788Y0288998D01*
X0339189Y0290596D02*
X0318057Y0290596D01*
X0334595Y0285801D02*
X0334595Y0285801D01*
X0334595Y0284202D02*
X0334595Y0284202D01*
X0330220Y0260225D02*
X0325546Y0260225D01*
X0327145Y0258626D02*
X0330220Y0258626D01*
X0330220Y0257028D02*
X0328743Y0257028D01*
X0333539Y0252232D02*
X0347095Y0252232D01*
X0347095Y0250634D02*
X0335137Y0250634D01*
X0336736Y0249035D02*
X0347095Y0249035D01*
X0345095Y0243933D02*
X0350095Y0243933D01*
X0339995Y0247437D02*
X0338334Y0247437D01*
X0368495Y0247437D02*
X0395945Y0247437D01*
X0395945Y0249035D02*
X0368495Y0249035D01*
X0368495Y0250634D02*
X0395945Y0250634D01*
X0395945Y0252232D02*
X0368495Y0252232D01*
X0369801Y0253831D02*
X0395945Y0253831D01*
X0395945Y0255429D02*
X0371399Y0255429D01*
X0373610Y0246993D02*
X0372757Y0246715D01*
X0371958Y0246308D01*
X0371232Y0245781D01*
X0370597Y0245146D01*
X0370070Y0244421D01*
X0369663Y0243621D01*
X0369385Y0242768D01*
X0369253Y0241933D01*
X0378345Y0241933D01*
X0378345Y0240933D01*
X0369253Y0240933D01*
X0369385Y0240098D01*
X0369663Y0239245D01*
X0370070Y0238446D01*
X0370597Y0237720D01*
X0371232Y0237085D01*
X0371958Y0236558D01*
X0372757Y0236151D01*
X0373610Y0235873D01*
X0374497Y0235733D01*
X0378345Y0235733D01*
X0378345Y0240933D01*
X0379345Y0240933D01*
X0379345Y0235733D01*
X0383194Y0235733D01*
X0384080Y0235873D01*
X0384933Y0236151D01*
X0385733Y0236558D01*
X0386458Y0237085D01*
X0387093Y0237720D01*
X0387620Y0238446D01*
X0388028Y0239245D01*
X0388305Y0240098D01*
X0388437Y0240933D01*
X0379345Y0240933D01*
X0379345Y0241933D01*
X0378345Y0241933D01*
X0378345Y0247133D01*
X0374497Y0247133D01*
X0373610Y0246993D01*
X0371311Y0245838D02*
X0368495Y0245838D01*
X0368495Y0244240D02*
X0369978Y0244240D01*
X0369365Y0242641D02*
X0368495Y0242641D01*
X0368495Y0241043D02*
X0378345Y0241043D01*
X0379345Y0241043D02*
X0395945Y0241043D01*
X0395945Y0242641D02*
X0388325Y0242641D01*
X0388305Y0242768D02*
X0388028Y0243621D01*
X0387620Y0244421D01*
X0387093Y0245146D01*
X0386458Y0245781D01*
X0385733Y0246308D01*
X0384933Y0246715D01*
X0384080Y0246993D01*
X0383194Y0247133D01*
X0379345Y0247133D01*
X0379345Y0241933D01*
X0388437Y0241933D01*
X0388305Y0242768D01*
X0387712Y0244240D02*
X0395945Y0244240D01*
X0395945Y0245838D02*
X0386380Y0245838D01*
X0379345Y0245838D02*
X0378345Y0245838D01*
X0378345Y0244240D02*
X0379345Y0244240D01*
X0379345Y0242641D02*
X0378345Y0242641D01*
X0378345Y0239444D02*
X0379345Y0239444D01*
X0379345Y0237845D02*
X0378345Y0237845D01*
X0378345Y0236247D02*
X0379345Y0236247D01*
X0385122Y0236247D02*
X0395945Y0236247D01*
X0395945Y0237845D02*
X0387184Y0237845D01*
X0388092Y0239444D02*
X0395945Y0239444D01*
X0395945Y0234648D02*
X0368495Y0234648D01*
X0368495Y0233050D02*
X0395945Y0233050D01*
X0395945Y0231451D02*
X0368495Y0231451D01*
X0368495Y0229853D02*
X0395945Y0229853D01*
X0395945Y0228254D02*
X0368495Y0228254D01*
X0368495Y0226656D02*
X0371935Y0226656D01*
X0371716Y0226565D02*
X0370113Y0224962D01*
X0369245Y0222867D01*
X0369245Y0220599D01*
X0370113Y0218504D01*
X0371716Y0216901D01*
X0373811Y0216033D01*
X0383879Y0216033D01*
X0385974Y0216901D01*
X0387577Y0218504D01*
X0388445Y0220599D01*
X0388445Y0222867D01*
X0387577Y0224962D01*
X0385974Y0226565D01*
X0383879Y0227433D01*
X0373811Y0227433D01*
X0371716Y0226565D01*
X0370208Y0225057D02*
X0368495Y0225057D01*
X0368495Y0223459D02*
X0369490Y0223459D01*
X0369245Y0221860D02*
X0368495Y0221860D01*
X0368495Y0220262D02*
X0369385Y0220262D01*
X0370047Y0218663D02*
X0368495Y0218663D01*
X0368495Y0217065D02*
X0371552Y0217065D01*
X0368495Y0215466D02*
X0395945Y0215466D01*
X0395945Y0213868D02*
X0368495Y0213868D01*
X0386138Y0217065D02*
X0395945Y0217065D01*
X0395945Y0218663D02*
X0387643Y0218663D01*
X0388305Y0220262D02*
X0395945Y0220262D01*
X0395945Y0221860D02*
X0388445Y0221860D01*
X0388200Y0223459D02*
X0395945Y0223459D01*
X0395945Y0225057D02*
X0387482Y0225057D01*
X0385755Y0226656D02*
X0395945Y0226656D01*
X0372568Y0236247D02*
X0368495Y0236247D01*
X0368495Y0237845D02*
X0370506Y0237845D01*
X0369598Y0239444D02*
X0368495Y0239444D01*
X0386701Y0257028D02*
X0395945Y0257028D01*
X0395945Y0258626D02*
X0387876Y0258626D01*
X0388445Y0260225D02*
X0395945Y0260225D01*
X0395945Y0261823D02*
X0388445Y0261823D01*
X0387967Y0263422D02*
X0395945Y0263422D01*
X0395945Y0265020D02*
X0386919Y0265020D01*
X0346983Y0213868D02*
X0345121Y0213868D01*
X0330658Y0197746D02*
X0330595Y0197746D01*
X0330642Y0191489D02*
X0329695Y0191489D01*
X0329695Y0189890D02*
X0330495Y0189890D01*
X0330832Y0188292D02*
X0329695Y0188292D01*
X0328380Y0186693D02*
X0331810Y0186693D01*
X0346050Y0169110D02*
X0316449Y0169110D01*
X0310636Y0157920D02*
X0310195Y0157920D01*
X0295095Y0156433D02*
X0313595Y0137933D01*
X0313595Y0112433D01*
X0316195Y0114760D02*
X0324247Y0114760D01*
X0324247Y0116359D02*
X0316195Y0116359D01*
X0316195Y0117957D02*
X0324247Y0117957D01*
X0323390Y0113162D02*
X0322430Y0113162D01*
X0329447Y0114760D02*
X0366754Y0114760D01*
X0366754Y0116359D02*
X0329447Y0116359D01*
X0329447Y0117957D02*
X0366754Y0117957D01*
X0366754Y0119556D02*
X0329447Y0119556D01*
X0329447Y0121154D02*
X0366754Y0121154D01*
X0366754Y0122753D02*
X0329425Y0122753D01*
X0328354Y0124351D02*
X0366754Y0124351D01*
X0366754Y0125950D02*
X0326755Y0125950D01*
X0325195Y0127548D02*
X0366754Y0127548D01*
X0366754Y0129147D02*
X0325195Y0129147D01*
X0325195Y0130745D02*
X0366754Y0130745D01*
X0366754Y0132344D02*
X0325195Y0132344D01*
X0318610Y0141935D02*
X0318270Y0141935D01*
X0318752Y0143533D02*
X0316672Y0143533D01*
X0310095Y0136433D02*
X0287595Y0158933D01*
X0287475Y0149927D02*
X0273083Y0149927D01*
X0272615Y0146453D02*
X0287095Y0146433D01*
X0290345Y0146433D01*
X0294431Y0148329D02*
X0294522Y0148329D01*
X0294845Y0146730D02*
X0296121Y0146730D01*
X0294677Y0145132D02*
X0297719Y0145132D01*
X0299318Y0143533D02*
X0293809Y0143533D01*
X0291244Y0141935D02*
X0300916Y0141935D01*
X0302515Y0140336D02*
X0255175Y0140336D01*
X0253577Y0138738D02*
X0259631Y0138738D01*
X0262059Y0138738D02*
X0269631Y0138738D01*
X0272059Y0138738D02*
X0279631Y0138738D01*
X0282059Y0138738D02*
X0289988Y0138738D01*
X0289446Y0141935D02*
X0256774Y0141935D01*
X0258372Y0143533D02*
X0261832Y0143533D01*
X0260920Y0145132D02*
X0259870Y0145132D01*
X0260195Y0146730D02*
X0260735Y0146730D01*
X0261150Y0148329D02*
X0260195Y0148329D01*
X0260435Y0149927D02*
X0262387Y0149927D01*
X0257595Y0151433D02*
X0257595Y0146433D01*
X0251595Y0140433D01*
X0254689Y0137139D02*
X0257002Y0137139D01*
X0255984Y0135541D02*
X0255706Y0135541D01*
X0264689Y0137139D02*
X0267002Y0137139D01*
X0265984Y0135541D02*
X0265706Y0135541D01*
X0274689Y0137139D02*
X0277002Y0137139D01*
X0275984Y0135541D02*
X0275706Y0135541D01*
X0273638Y0143533D02*
X0286881Y0143533D01*
X0287002Y0137139D02*
X0284689Y0137139D01*
X0285706Y0135541D02*
X0285969Y0135541D01*
X0294689Y0137139D02*
X0297002Y0137139D01*
X0295984Y0135541D02*
X0295721Y0135541D01*
X0310095Y0136433D02*
X0310095Y0098933D01*
X0318973Y0101433D02*
X0318973Y0095055D01*
X0338658Y0075370D01*
X0318464Y0078887D02*
X0318112Y0079033D01*
X0299579Y0079033D01*
X0300223Y0079677D01*
X0300695Y0080816D01*
X0300695Y0082050D01*
X0300223Y0083189D01*
X0299579Y0083833D01*
X0313518Y0083833D01*
X0318464Y0078887D01*
X0317758Y0079593D02*
X0300139Y0079593D01*
X0300695Y0081191D02*
X0316160Y0081191D01*
X0314561Y0082790D02*
X0300389Y0082790D01*
X0297088Y0119556D02*
X0294677Y0119556D01*
X0295840Y0121154D02*
X0295917Y0121154D01*
X0272615Y0146453D02*
X0267735Y0146453D01*
X0290195Y0188292D02*
X0290648Y0188292D01*
X0290246Y0198833D02*
X0290246Y0198833D01*
X0288370Y0199481D02*
X0282941Y0199481D01*
X0281343Y0201080D02*
X0286772Y0201080D01*
X0285173Y0202678D02*
X0279744Y0202678D01*
X0349075Y0159518D02*
X0361695Y0159518D01*
X0361695Y0161117D02*
X0350673Y0161117D01*
X0352272Y0162715D02*
X0361695Y0162715D01*
X0361695Y0164314D02*
X0353870Y0164314D01*
X0355469Y0165912D02*
X0361695Y0165912D01*
X0361695Y0167511D02*
X0357067Y0167511D01*
X0358666Y0169110D02*
X0361695Y0169110D01*
X0361695Y0170708D02*
X0360264Y0170708D01*
X0386008Y0164314D02*
X0395945Y0164314D01*
X0395945Y0162715D02*
X0387560Y0162715D01*
X0388223Y0161117D02*
X0395945Y0161117D01*
X0395945Y0159518D02*
X0388396Y0159518D01*
X0388184Y0157920D02*
X0395945Y0157920D01*
X0395945Y0156321D02*
X0387514Y0156321D01*
X0385902Y0154723D02*
X0395945Y0154723D01*
X0274430Y0263422D02*
X0273526Y0263422D01*
X0237735Y0277808D02*
X0237735Y0277808D01*
X0237735Y0279407D02*
X0237735Y0279407D01*
X0193716Y0281005D02*
X0191410Y0281005D01*
X0190595Y0279407D02*
X0192813Y0279407D01*
X0192793Y0277808D02*
X0190595Y0277808D01*
X0192525Y0058812D02*
X0199240Y0058812D01*
X0196779Y0057214D02*
X0194986Y0057214D01*
D34*
X0166985Y0100433D02*
X0104095Y0100433D01*
X0103745Y0100083D01*
X0092595Y0088933D01*
X0074050Y0088933D01*
X0076355Y0089128D01*
X0076355Y0069328D02*
X0103597Y0069328D01*
X0111079Y0076811D01*
X0103745Y0100083D02*
X0103745Y0112236D01*
X0110957Y0123933D02*
X0092595Y0123933D01*
X0077927Y0109265D01*
X0076394Y0109265D01*
X0110957Y0123933D02*
X0111079Y0124055D01*
X0111201Y0123933D01*
X0120095Y0123933D01*
X0123745Y0120283D01*
X0123745Y0112236D01*
X0142595Y0136433D02*
X0142727Y0136565D01*
X0159727Y0136565D01*
X0165595Y0142433D01*
X0165595Y0155205D01*
X0165095Y0155705D01*
X0165532Y0155705D01*
X0165532Y0175291D01*
X0165532Y0177260D01*
X0165138Y0176866D01*
X0165532Y0177260D02*
X0165532Y0195370D01*
X0165532Y0215843D01*
X0165532Y0236433D01*
X0164489Y0235390D01*
X0152099Y0235390D01*
X0152099Y0245390D02*
X0127135Y0245390D01*
X0128135Y0245433D01*
X0110056Y0245433D02*
X0080257Y0245433D01*
X0078964Y0245390D01*
X0076394Y0247959D01*
X0078764Y0265390D02*
X0080057Y0265433D01*
X0110056Y0265433D01*
X0127135Y0265390D02*
X0128135Y0265433D01*
X0127135Y0265390D02*
X0152099Y0265390D01*
X0152099Y0255390D02*
X0162953Y0255390D01*
X0165532Y0257969D02*
X0165532Y0236433D01*
X0152099Y0225390D02*
X0127135Y0225390D01*
X0128135Y0225433D01*
X0110056Y0225433D02*
X0079220Y0225433D01*
X0076394Y0228259D01*
X0079220Y0225433D02*
X0079264Y0225390D01*
X0076394Y0208559D02*
X0079564Y0205390D01*
X0080857Y0205433D01*
X0110056Y0205433D01*
X0127135Y0205390D02*
X0128135Y0205433D01*
X0127135Y0205390D02*
X0152099Y0205390D01*
X0152099Y0215390D02*
X0165079Y0215390D01*
X0165512Y0195390D02*
X0152099Y0195390D01*
X0152099Y0185390D02*
X0127135Y0185390D01*
X0128135Y0185433D01*
X0110056Y0185433D02*
X0079820Y0185433D01*
X0076394Y0188859D01*
X0079820Y0185433D02*
X0079864Y0185390D01*
X0076394Y0169159D02*
X0080120Y0165433D01*
X0110056Y0165433D01*
X0127135Y0165390D02*
X0128135Y0165433D01*
X0127135Y0165390D02*
X0152099Y0165390D01*
X0152099Y0155705D02*
X0165095Y0155705D01*
X0152099Y0145705D02*
X0127135Y0145705D01*
X0110056Y0145433D02*
X0080320Y0145433D01*
X0076394Y0149359D01*
X0080164Y0165390D02*
X0080120Y0165433D01*
X0152099Y0175390D02*
X0165434Y0175390D01*
X0165532Y0257969D02*
X0165532Y0273176D01*
X0163245Y0275463D01*
X0163172Y0275390D01*
X0152099Y0275390D01*
X0078764Y0265390D02*
X0076394Y0267759D01*
D35*
X0162953Y0255390D02*
X0165532Y0257969D01*
X0165532Y0215843D02*
X0165079Y0215390D01*
X0165512Y0195390D02*
X0165532Y0195370D01*
X0165434Y0175390D02*
X0165532Y0175291D01*
X0153363Y0155705D02*
X0152099Y0155705D01*
X0152099Y0145705D02*
X0152812Y0145705D01*
X0128135Y0145433D02*
X0127135Y0145705D01*
X0076394Y0188859D02*
X0074342Y0188913D01*
X0344095Y0233433D02*
X0356095Y0221433D01*
X0344095Y0233433D02*
X0344095Y0243933D01*
X0356095Y0243933D02*
X0362595Y0243933D01*
X0365095Y0246433D01*
X0365095Y0253933D01*
X0372295Y0261133D01*
X0378845Y0261133D01*
X0365095Y0246433D02*
X0365095Y0148933D01*
X0370154Y0143874D01*
X0370154Y0138709D01*
X0370154Y0111433D01*
X0375154Y0106433D01*
X0354595Y0055433D02*
X0354595Y0054933D01*
X0358343Y0051185D01*
X0358343Y0044937D01*
D36*
X0142595Y0136433D03*
D37*
X0180621Y0155183D02*
X0187565Y0155183D01*
X0187565Y0175183D01*
X0186138Y0175390D01*
X0180099Y0175390D01*
X0180306Y0195183D02*
X0187565Y0195183D01*
X0187565Y0215183D01*
X0187565Y0235183D01*
X0187565Y0255183D01*
X0187565Y0275183D01*
X0187595Y0275213D01*
X0187595Y0281433D01*
X0200095Y0293933D01*
X0340095Y0293933D01*
X0350095Y0283933D01*
X0350095Y0243933D01*
X0344095Y0243933D02*
X0337595Y0243933D01*
X0323095Y0258433D01*
X0292595Y0258433D01*
X0282595Y0268433D01*
X0282595Y0270433D01*
X0320095Y0226433D02*
X0326895Y0219633D01*
X0326895Y0218933D01*
X0333295Y0218933D02*
X0340095Y0218933D01*
X0342595Y0216433D01*
X0333345Y0218183D02*
X0333345Y0200433D01*
X0330658Y0197746D01*
X0187565Y0215183D02*
X0186138Y0215390D01*
X0180099Y0215390D01*
X0180306Y0235183D02*
X0187565Y0235183D01*
X0187565Y0255183D02*
X0186138Y0255390D01*
X0180099Y0255390D01*
X0180306Y0275183D02*
X0187565Y0275183D01*
X0174890Y0063853D02*
X0137465Y0063853D01*
D38*
X0342595Y0216433D03*
D39*
X0360345Y0229683D02*
X0350095Y0239933D01*
X0350095Y0243933D01*
X0345095Y0243933D01*
X0360345Y0229683D02*
X0360345Y0174183D01*
X0347595Y0161433D01*
X0323345Y0161433D01*
X0327095Y0171933D02*
X0307595Y0191433D01*
X0294595Y0191433D01*
X0305095Y0196433D02*
X0282595Y0196433D01*
X0277595Y0201433D01*
X0256595Y0201433D01*
X0251095Y0206933D01*
X0327095Y0171933D02*
X0347595Y0171933D01*
X0282595Y0270433D02*
X0282595Y0270958D01*
D40*
X0356095Y0221433D03*
X0375154Y0106433D03*
D41*
X0326595Y0096933D03*
X0318973Y0101433D03*
X0297595Y0081433D03*
X0286220Y0095433D03*
X0254720Y0092933D03*
X0235720Y0106433D03*
X0225220Y0106433D03*
X0215220Y0106433D03*
X0237220Y0070433D03*
X0217220Y0065433D03*
X0185970Y0063933D03*
X0175720Y0063933D03*
X0295095Y0062433D03*
X0181345Y0170183D03*
X0192595Y0173933D03*
X0192595Y0193933D03*
X0192595Y0213933D03*
X0192595Y0233933D03*
X0192595Y0253933D03*
X0192595Y0273933D03*
X0295095Y0286433D03*
D42*
X0320595Y0250183D03*
X0320095Y0244433D03*
X0319720Y0232058D03*
X0356595Y0205683D03*
X0352595Y0192183D03*
X0347595Y0171933D03*
X0391470Y0136558D03*
X0331220Y0117558D03*
X0322470Y0117308D03*
X0313595Y0112433D03*
X0314220Y0101933D03*
X0310095Y0098933D03*
X0306720Y0081933D03*
X0329845Y0077683D03*
X0377470Y0081308D03*
X0317595Y0126433D03*
X0257595Y0151433D03*
X0250470Y0147308D03*
X0250470Y0167308D03*
X0294970Y0179058D03*
X0251095Y0206933D03*
X0277970Y0218058D03*
X0227595Y0261433D03*
X0222595Y0246433D03*
X0187565Y0255183D03*
X0187565Y0235183D03*
X0187565Y0215183D03*
X0187565Y0195183D03*
X0187565Y0175183D03*
X0187565Y0155183D03*
X0185095Y0106433D03*
X0202595Y0106433D03*
X0227595Y0071433D03*
X0125095Y0048933D03*
X0345470Y0262683D03*
X0369720Y0284433D03*
X0187565Y0275183D03*
D43*
X0320095Y0226433D03*
X0354595Y0055433D03*
D44*
X0181345Y0190183D03*
X0181345Y0210183D03*
X0181345Y0230183D03*
X0181345Y0250183D03*
X0181345Y0270183D03*
X0218845Y0225183D03*
X0215345Y0216433D03*
X0214845Y0196433D03*
D45*
X0362280Y0061937D02*
X0362595Y0061622D01*
X0362595Y0056433D01*
X0366217Y0052811D01*
X0366217Y0050433D01*
X0367217Y0051433D01*
X0374595Y0051433D01*
X0382595Y0059433D01*
X0382595Y0061433D01*
X0366217Y0050433D02*
X0366217Y0044937D01*
D46*
X0187565Y0175183D02*
X0187565Y0195183D01*
M02*
