G75*
%MOIN*%
%OFA0B0*%
%FSLAX25Y25*%
%IPPOS*%
%LPD*%
%AMOC8*
5,1,8,0,0,1.08239X$1,22.5*
%
%ADD10C,0.01000*%
%ADD11C,0.00600*%
%ADD12C,0.00800*%
%ADD13C,0.00500*%
%ADD14C,0.00900*%
%ADD15C,0.00100*%
%ADD16C,0.00787*%
%ADD17C,0.02000*%
%ADD18C,0.01100*%
%ADD19C,0.00700*%
%ADD20C,0.00591*%
D10*
X0378145Y0067983D02*
X0378259Y0068094D01*
X0378375Y0068202D01*
X0378494Y0068307D01*
X0378615Y0068409D01*
X0378739Y0068508D01*
X0378866Y0068603D01*
X0378995Y0068696D01*
X0379126Y0068785D01*
X0379259Y0068872D01*
X0379395Y0068954D01*
X0379532Y0069034D01*
X0379671Y0069110D01*
X0379812Y0069182D01*
X0379955Y0069251D01*
X0380100Y0069316D01*
X0380246Y0069378D01*
X0380394Y0069436D01*
X0380543Y0069490D01*
X0380694Y0069540D01*
X0380845Y0069587D01*
X0380998Y0069630D01*
X0381152Y0069669D01*
X0381306Y0069705D01*
X0381462Y0069736D01*
X0381618Y0069764D01*
X0381775Y0069787D01*
X0381932Y0069807D01*
X0382090Y0069823D01*
X0382249Y0069835D01*
X0382407Y0069843D01*
X0382566Y0069847D01*
X0382724Y0069847D01*
X0382883Y0069843D01*
X0383041Y0069835D01*
X0383200Y0069823D01*
X0383358Y0069807D01*
X0383515Y0069787D01*
X0383672Y0069764D01*
X0383828Y0069736D01*
X0383984Y0069705D01*
X0384138Y0069669D01*
X0384292Y0069630D01*
X0384445Y0069587D01*
X0384596Y0069540D01*
X0384747Y0069490D01*
X0384896Y0069436D01*
X0385044Y0069378D01*
X0385190Y0069316D01*
X0385335Y0069251D01*
X0385478Y0069182D01*
X0385619Y0069110D01*
X0385758Y0069034D01*
X0385895Y0068954D01*
X0386031Y0068872D01*
X0386164Y0068785D01*
X0386295Y0068696D01*
X0386424Y0068603D01*
X0386551Y0068508D01*
X0386675Y0068409D01*
X0386796Y0068307D01*
X0386915Y0068202D01*
X0387031Y0068094D01*
X0387145Y0067983D01*
X0384145Y0065983D02*
X0384062Y0066038D01*
X0383977Y0066090D01*
X0383890Y0066139D01*
X0383801Y0066184D01*
X0383710Y0066226D01*
X0383619Y0066265D01*
X0383525Y0066300D01*
X0383431Y0066331D01*
X0383335Y0066359D01*
X0383238Y0066383D01*
X0383141Y0066404D01*
X0383042Y0066421D01*
X0382943Y0066434D01*
X0382844Y0066443D01*
X0382745Y0066449D01*
X0382645Y0066451D01*
X0382545Y0066449D01*
X0382446Y0066443D01*
X0382347Y0066434D01*
X0382248Y0066421D01*
X0382149Y0066404D01*
X0382052Y0066383D01*
X0381955Y0066359D01*
X0381859Y0066331D01*
X0381765Y0066300D01*
X0381671Y0066265D01*
X0381580Y0066226D01*
X0381489Y0066184D01*
X0381400Y0066139D01*
X0381313Y0066090D01*
X0381228Y0066038D01*
X0381145Y0065983D01*
X0379645Y0066983D02*
X0379743Y0067071D01*
X0379845Y0067155D01*
X0379948Y0067236D01*
X0380054Y0067315D01*
X0380162Y0067390D01*
X0380273Y0067462D01*
X0380385Y0067530D01*
X0380499Y0067595D01*
X0380616Y0067657D01*
X0380734Y0067716D01*
X0380853Y0067770D01*
X0380975Y0067822D01*
X0381098Y0067869D01*
X0381222Y0067913D01*
X0381347Y0067953D01*
X0381474Y0067990D01*
X0381601Y0068023D01*
X0381730Y0068052D01*
X0381859Y0068077D01*
X0381989Y0068098D01*
X0382119Y0068116D01*
X0382250Y0068129D01*
X0382382Y0068139D01*
X0382513Y0068145D01*
X0382645Y0068147D01*
X0382777Y0068145D01*
X0382908Y0068139D01*
X0383040Y0068129D01*
X0383171Y0068116D01*
X0383301Y0068098D01*
X0383431Y0068077D01*
X0383560Y0068052D01*
X0383689Y0068023D01*
X0383816Y0067990D01*
X0383943Y0067953D01*
X0384068Y0067913D01*
X0384192Y0067869D01*
X0384315Y0067822D01*
X0384437Y0067770D01*
X0384556Y0067716D01*
X0384674Y0067657D01*
X0384791Y0067595D01*
X0384905Y0067530D01*
X0385017Y0067462D01*
X0385128Y0067390D01*
X0385236Y0067315D01*
X0385342Y0067236D01*
X0385445Y0067155D01*
X0385547Y0067071D01*
X0385645Y0066983D01*
D11*
X0386645Y0065859D02*
X0387212Y0065292D01*
X0389481Y0065292D01*
X0388914Y0065859D02*
X0388914Y0064724D01*
X0388347Y0063310D02*
X0386645Y0063310D01*
X0388347Y0063310D02*
X0388914Y0062743D01*
X0388914Y0061041D01*
X0386645Y0061041D01*
X0386645Y0059627D02*
X0388914Y0059627D01*
X0390048Y0058492D01*
X0388914Y0057358D01*
X0386645Y0057358D01*
X0388347Y0057358D02*
X0388347Y0059627D01*
X0367297Y0057472D02*
X0367297Y0055871D01*
X0367297Y0056671D02*
X0364895Y0056671D01*
X0364895Y0054710D02*
X0367297Y0054710D01*
X0367297Y0053108D02*
X0364895Y0053108D01*
X0364895Y0051947D02*
X0366497Y0051947D01*
X0367297Y0051147D01*
X0366497Y0050346D01*
X0364895Y0050346D01*
X0366096Y0050346D02*
X0366096Y0051947D01*
X0367297Y0053108D02*
X0364895Y0054710D01*
X0334595Y0209983D02*
X0334595Y0213386D01*
X0332893Y0213386D01*
X0332326Y0212819D01*
X0332326Y0211685D01*
X0332893Y0211117D01*
X0334595Y0211117D01*
X0333460Y0211117D02*
X0332326Y0209983D01*
X0330911Y0210550D02*
X0330344Y0209983D01*
X0329210Y0209983D01*
X0328643Y0210550D01*
X0328643Y0211685D01*
X0329777Y0211685D01*
X0328643Y0212819D02*
X0329210Y0213386D01*
X0330344Y0213386D01*
X0330911Y0212819D01*
X0330911Y0210550D01*
X0327228Y0209983D02*
X0327228Y0213386D01*
X0325527Y0213386D01*
X0324960Y0212819D01*
X0324960Y0212252D01*
X0325527Y0211685D01*
X0327228Y0211685D01*
X0325527Y0211685D02*
X0324960Y0211117D01*
X0324960Y0210550D01*
X0325527Y0209983D01*
X0327228Y0209983D01*
X0325095Y0214933D02*
X0335095Y0214933D01*
X0335155Y0214935D01*
X0335216Y0214940D01*
X0335275Y0214949D01*
X0335334Y0214962D01*
X0335393Y0214978D01*
X0335450Y0214998D01*
X0335505Y0215021D01*
X0335560Y0215048D01*
X0335612Y0215077D01*
X0335663Y0215110D01*
X0335712Y0215146D01*
X0335758Y0215184D01*
X0335802Y0215226D01*
X0335844Y0215270D01*
X0335882Y0215316D01*
X0335918Y0215365D01*
X0335951Y0215416D01*
X0335980Y0215468D01*
X0336007Y0215523D01*
X0336030Y0215578D01*
X0336050Y0215635D01*
X0336066Y0215694D01*
X0336079Y0215753D01*
X0336088Y0215812D01*
X0336093Y0215873D01*
X0336095Y0215933D01*
X0336095Y0221933D01*
X0336093Y0221993D01*
X0336088Y0222054D01*
X0336079Y0222113D01*
X0336066Y0222172D01*
X0336050Y0222231D01*
X0336030Y0222288D01*
X0336007Y0222343D01*
X0335980Y0222398D01*
X0335951Y0222450D01*
X0335918Y0222501D01*
X0335882Y0222550D01*
X0335844Y0222596D01*
X0335802Y0222640D01*
X0335758Y0222682D01*
X0335712Y0222720D01*
X0335663Y0222756D01*
X0335612Y0222789D01*
X0335560Y0222818D01*
X0335505Y0222845D01*
X0335450Y0222868D01*
X0335393Y0222888D01*
X0335334Y0222904D01*
X0335275Y0222917D01*
X0335216Y0222926D01*
X0335155Y0222931D01*
X0335095Y0222933D01*
X0325095Y0222933D01*
X0325035Y0222931D01*
X0324974Y0222926D01*
X0324915Y0222917D01*
X0324856Y0222904D01*
X0324797Y0222888D01*
X0324740Y0222868D01*
X0324685Y0222845D01*
X0324630Y0222818D01*
X0324578Y0222789D01*
X0324527Y0222756D01*
X0324478Y0222720D01*
X0324432Y0222682D01*
X0324388Y0222640D01*
X0324346Y0222596D01*
X0324308Y0222550D01*
X0324272Y0222501D01*
X0324239Y0222450D01*
X0324210Y0222398D01*
X0324183Y0222343D01*
X0324160Y0222288D01*
X0324140Y0222231D01*
X0324124Y0222172D01*
X0324111Y0222113D01*
X0324102Y0222054D01*
X0324097Y0221993D01*
X0324095Y0221933D01*
X0324095Y0215933D01*
X0324097Y0215873D01*
X0324102Y0215812D01*
X0324111Y0215753D01*
X0324124Y0215694D01*
X0324140Y0215635D01*
X0324160Y0215578D01*
X0324183Y0215523D01*
X0324210Y0215468D01*
X0324239Y0215416D01*
X0324272Y0215365D01*
X0324308Y0215316D01*
X0324346Y0215270D01*
X0324388Y0215226D01*
X0324432Y0215184D01*
X0324478Y0215146D01*
X0324527Y0215110D01*
X0324578Y0215077D01*
X0324630Y0215048D01*
X0324685Y0215021D01*
X0324740Y0214998D01*
X0324797Y0214978D01*
X0324856Y0214962D01*
X0324915Y0214949D01*
X0324974Y0214940D01*
X0325035Y0214935D01*
X0325095Y0214933D01*
X0344294Y0233983D02*
X0343727Y0234550D01*
X0343727Y0236819D01*
X0344294Y0237386D01*
X0345429Y0237386D01*
X0345996Y0236819D01*
X0345996Y0234550D01*
X0345429Y0233983D01*
X0344294Y0233983D01*
X0348545Y0233983D02*
X0348545Y0237386D01*
X0349679Y0237386D02*
X0347410Y0237386D01*
X0351093Y0236819D02*
X0351093Y0235685D01*
X0351661Y0235117D01*
X0353362Y0235117D01*
X0353362Y0233983D02*
X0353362Y0237386D01*
X0351661Y0237386D01*
X0351093Y0236819D01*
X0354777Y0236819D02*
X0355344Y0237386D01*
X0356478Y0237386D01*
X0357045Y0236819D01*
X0357045Y0234550D01*
X0356478Y0233983D01*
X0355344Y0233983D01*
X0354777Y0234550D01*
X0354777Y0236819D01*
X0358595Y0239933D02*
X0341595Y0239933D01*
X0341535Y0239935D01*
X0341474Y0239940D01*
X0341415Y0239949D01*
X0341356Y0239962D01*
X0341297Y0239978D01*
X0341240Y0239998D01*
X0341185Y0240021D01*
X0341130Y0240048D01*
X0341078Y0240077D01*
X0341027Y0240110D01*
X0340978Y0240146D01*
X0340932Y0240184D01*
X0340888Y0240226D01*
X0340846Y0240270D01*
X0340808Y0240316D01*
X0340772Y0240365D01*
X0340739Y0240416D01*
X0340710Y0240468D01*
X0340683Y0240523D01*
X0340660Y0240578D01*
X0340640Y0240635D01*
X0340624Y0240694D01*
X0340611Y0240753D01*
X0340602Y0240812D01*
X0340597Y0240873D01*
X0340595Y0240933D01*
X0340595Y0246933D01*
X0340597Y0246993D01*
X0340602Y0247054D01*
X0340611Y0247113D01*
X0340624Y0247172D01*
X0340640Y0247231D01*
X0340660Y0247288D01*
X0340683Y0247343D01*
X0340710Y0247398D01*
X0340739Y0247450D01*
X0340772Y0247501D01*
X0340808Y0247550D01*
X0340846Y0247596D01*
X0340888Y0247640D01*
X0340932Y0247682D01*
X0340978Y0247720D01*
X0341027Y0247756D01*
X0341078Y0247789D01*
X0341130Y0247818D01*
X0341185Y0247845D01*
X0341240Y0247868D01*
X0341297Y0247888D01*
X0341356Y0247904D01*
X0341415Y0247917D01*
X0341474Y0247926D01*
X0341535Y0247931D01*
X0341595Y0247933D01*
X0358595Y0247933D01*
X0358655Y0247931D01*
X0358716Y0247926D01*
X0358775Y0247917D01*
X0358834Y0247904D01*
X0358893Y0247888D01*
X0358950Y0247868D01*
X0359005Y0247845D01*
X0359060Y0247818D01*
X0359112Y0247789D01*
X0359163Y0247756D01*
X0359212Y0247720D01*
X0359258Y0247682D01*
X0359302Y0247640D01*
X0359344Y0247596D01*
X0359382Y0247550D01*
X0359418Y0247501D01*
X0359451Y0247450D01*
X0359480Y0247398D01*
X0359507Y0247343D01*
X0359530Y0247288D01*
X0359550Y0247231D01*
X0359566Y0247172D01*
X0359579Y0247113D01*
X0359588Y0247054D01*
X0359593Y0246993D01*
X0359595Y0246933D01*
X0359595Y0240933D01*
X0359593Y0240873D01*
X0359588Y0240812D01*
X0359579Y0240753D01*
X0359566Y0240694D01*
X0359550Y0240635D01*
X0359530Y0240578D01*
X0359507Y0240523D01*
X0359480Y0240468D01*
X0359451Y0240416D01*
X0359418Y0240365D01*
X0359382Y0240316D01*
X0359344Y0240270D01*
X0359302Y0240226D01*
X0359258Y0240184D01*
X0359212Y0240146D01*
X0359163Y0240110D01*
X0359112Y0240077D01*
X0359060Y0240048D01*
X0359005Y0240021D01*
X0358950Y0239998D01*
X0358893Y0239978D01*
X0358834Y0239962D01*
X0358775Y0239949D01*
X0358716Y0239940D01*
X0358655Y0239935D01*
X0358595Y0239933D01*
X0257203Y0281212D02*
X0257203Y0284615D01*
X0254935Y0281212D01*
X0254935Y0284615D01*
X0253520Y0282914D02*
X0253520Y0281780D01*
X0252953Y0281212D01*
X0251819Y0281212D01*
X0251252Y0281780D01*
X0251252Y0282914D01*
X0251819Y0283481D01*
X0252953Y0283481D01*
X0253520Y0282914D01*
X0249837Y0282914D02*
X0249270Y0283481D01*
X0247569Y0283481D01*
X0247569Y0284615D02*
X0247569Y0281212D01*
X0249270Y0281212D01*
X0249837Y0281780D01*
X0249837Y0282914D01*
X0246154Y0282914D02*
X0245587Y0283481D01*
X0244453Y0283481D01*
X0243885Y0282914D01*
X0243885Y0282347D01*
X0246154Y0282347D01*
X0246154Y0281780D02*
X0246154Y0282914D01*
X0246154Y0281780D02*
X0245587Y0281212D01*
X0244453Y0281212D01*
X0242471Y0281212D02*
X0242471Y0284615D01*
X0241337Y0283481D01*
X0240202Y0284615D01*
X0240202Y0281212D01*
X0238788Y0281780D02*
X0238221Y0281212D01*
X0237086Y0281212D01*
X0236519Y0281780D01*
X0235105Y0281780D02*
X0234537Y0281212D01*
X0233403Y0281212D01*
X0232836Y0281780D01*
X0232836Y0284615D01*
X0235105Y0284615D02*
X0235105Y0281780D01*
X0236519Y0284048D02*
X0237086Y0284615D01*
X0238221Y0284615D01*
X0238788Y0284048D01*
X0238788Y0281780D01*
X0238174Y0287212D02*
X0237040Y0287212D01*
X0237607Y0287212D02*
X0237607Y0290615D01*
X0238174Y0290615D01*
X0239588Y0289481D02*
X0241290Y0289481D01*
X0241857Y0288914D01*
X0241857Y0287780D01*
X0241290Y0287212D01*
X0239588Y0287212D01*
X0243178Y0287212D02*
X0244312Y0287212D01*
X0243745Y0287212D02*
X0243745Y0289481D01*
X0244312Y0289481D01*
X0243745Y0290615D02*
X0243745Y0291182D01*
X0245634Y0289481D02*
X0246768Y0289481D01*
X0246201Y0290048D02*
X0246201Y0287780D01*
X0245634Y0287212D01*
X0248136Y0289481D02*
X0248703Y0289481D01*
X0249837Y0288347D01*
X0249837Y0289481D02*
X0249837Y0287212D01*
X0251252Y0287212D02*
X0252953Y0287212D01*
X0253520Y0287780D01*
X0252953Y0288347D01*
X0251252Y0288347D01*
X0251252Y0288914D02*
X0251252Y0287212D01*
X0251252Y0288914D02*
X0251819Y0289481D01*
X0252953Y0289481D01*
X0254935Y0288914D02*
X0255502Y0288347D01*
X0257203Y0288347D01*
X0257203Y0287212D02*
X0257203Y0290615D01*
X0255502Y0290615D01*
X0254935Y0290048D01*
X0254935Y0288914D01*
X0254935Y0293212D02*
X0256069Y0294347D01*
X0255502Y0294347D02*
X0257203Y0294347D01*
X0257203Y0293212D02*
X0257203Y0296615D01*
X0255502Y0296615D01*
X0254935Y0296048D01*
X0254935Y0294914D01*
X0255502Y0294347D01*
X0253520Y0293212D02*
X0251252Y0295481D01*
X0251252Y0296048D01*
X0251819Y0296615D01*
X0252953Y0296615D01*
X0253520Y0296048D01*
X0253520Y0293212D02*
X0251252Y0293212D01*
X0249837Y0293780D02*
X0249270Y0293212D01*
X0248136Y0293212D01*
X0247569Y0293780D01*
X0247569Y0294347D01*
X0248136Y0294914D01*
X0248703Y0294914D01*
X0248136Y0294914D02*
X0247569Y0295481D01*
X0247569Y0296048D01*
X0248136Y0296615D01*
X0249270Y0296615D01*
X0249837Y0296048D01*
X0242471Y0294914D02*
X0242471Y0293780D01*
X0241904Y0293212D01*
X0240769Y0293212D01*
X0240202Y0294347D02*
X0242471Y0294347D01*
X0242471Y0294914D02*
X0241904Y0295481D01*
X0240769Y0295481D01*
X0240202Y0294914D01*
X0240202Y0294347D01*
X0238788Y0295481D02*
X0237653Y0295481D01*
X0238221Y0296048D02*
X0238221Y0293780D01*
X0237653Y0293212D01*
X0235151Y0289481D02*
X0234017Y0289481D01*
X0233450Y0288914D01*
X0233450Y0288347D01*
X0235719Y0288347D01*
X0235719Y0288914D02*
X0235151Y0289481D01*
X0235719Y0288914D02*
X0235719Y0287780D01*
X0235151Y0287212D01*
X0234017Y0287212D01*
X0228352Y0287212D02*
X0228352Y0290615D01*
X0226651Y0290615D01*
X0226084Y0290048D01*
X0226084Y0288914D01*
X0226651Y0288347D01*
X0228352Y0288347D01*
X0227218Y0288347D02*
X0226084Y0287212D01*
X0224669Y0287212D02*
X0222400Y0289481D01*
X0222400Y0290048D01*
X0222968Y0290615D01*
X0224102Y0290615D01*
X0224669Y0290048D01*
X0224669Y0287212D02*
X0222400Y0287212D01*
X0220986Y0287780D02*
X0220419Y0287212D01*
X0219284Y0287212D01*
X0218717Y0287780D01*
X0218717Y0288347D01*
X0219284Y0288914D01*
X0219852Y0288914D01*
X0219284Y0288914D02*
X0218717Y0289481D01*
X0218717Y0290048D01*
X0219284Y0290615D01*
X0220419Y0290615D01*
X0220986Y0290048D01*
X0223581Y0293212D02*
X0223581Y0296615D01*
X0225283Y0294914D01*
X0223014Y0294914D01*
X0226697Y0295481D02*
X0226697Y0296048D01*
X0227265Y0296615D01*
X0228399Y0296615D01*
X0228966Y0296048D01*
X0230381Y0296048D02*
X0230381Y0294914D01*
X0230948Y0294347D01*
X0232649Y0294347D01*
X0231515Y0294347D02*
X0230381Y0293212D01*
X0228966Y0293212D02*
X0226697Y0295481D01*
X0226697Y0293212D02*
X0228966Y0293212D01*
X0230381Y0296048D02*
X0230948Y0296615D01*
X0232649Y0296615D01*
X0232649Y0293212D01*
X0227738Y0284615D02*
X0226037Y0284615D01*
X0225470Y0284048D01*
X0225470Y0282914D01*
X0226037Y0282347D01*
X0227738Y0282347D01*
X0226604Y0282347D02*
X0225470Y0281212D01*
X0224055Y0281212D02*
X0221787Y0283481D01*
X0221787Y0284048D01*
X0222354Y0284615D01*
X0223488Y0284615D01*
X0224055Y0284048D01*
X0224055Y0281212D02*
X0221787Y0281212D01*
X0220372Y0281780D02*
X0219805Y0281212D01*
X0218671Y0281212D01*
X0218103Y0281780D01*
X0218103Y0282347D01*
X0218671Y0282914D01*
X0219238Y0282914D01*
X0218671Y0282914D02*
X0218103Y0283481D01*
X0218103Y0284048D01*
X0218671Y0284615D01*
X0219805Y0284615D01*
X0220372Y0284048D01*
X0227738Y0284615D02*
X0227738Y0281212D01*
X0213006Y0281780D02*
X0212439Y0281212D01*
X0211304Y0281212D01*
X0210737Y0282347D02*
X0213006Y0282347D01*
X0213006Y0282914D02*
X0212439Y0283481D01*
X0211304Y0283481D01*
X0210737Y0282914D01*
X0210737Y0282347D01*
X0209323Y0283481D02*
X0208188Y0283481D01*
X0208755Y0284048D02*
X0208755Y0281780D01*
X0208188Y0281212D01*
X0213006Y0281780D02*
X0213006Y0282914D01*
X0213052Y0287212D02*
X0213620Y0287780D01*
X0213052Y0287212D02*
X0211918Y0287212D01*
X0211351Y0287780D01*
X0211351Y0288347D01*
X0211918Y0288914D01*
X0213052Y0288914D01*
X0213620Y0289481D01*
X0213620Y0290048D01*
X0213052Y0290615D01*
X0211918Y0290615D01*
X0211351Y0290048D01*
X0209936Y0288914D02*
X0209369Y0289481D01*
X0208235Y0289481D01*
X0207668Y0288914D01*
X0207668Y0288347D01*
X0209936Y0288347D01*
X0209936Y0287780D02*
X0209936Y0288914D01*
X0209936Y0287780D02*
X0209369Y0287212D01*
X0208235Y0287212D01*
X0206253Y0287780D02*
X0206253Y0289481D01*
X0206253Y0287780D02*
X0205686Y0287212D01*
X0203985Y0287212D01*
X0203985Y0289481D01*
X0202570Y0290615D02*
X0202003Y0290615D01*
X0202003Y0287212D01*
X0202570Y0287212D02*
X0201436Y0287212D01*
X0200115Y0287780D02*
X0200115Y0288914D01*
X0199548Y0289481D01*
X0198413Y0289481D01*
X0197846Y0288914D01*
X0197846Y0288347D01*
X0200115Y0288347D01*
X0200115Y0287780D02*
X0199548Y0287212D01*
X0198413Y0287212D01*
X0196432Y0287212D02*
X0196432Y0289481D01*
X0195864Y0289481D01*
X0195297Y0288914D01*
X0194730Y0289481D01*
X0194163Y0288914D01*
X0194163Y0287212D01*
X0195297Y0287212D02*
X0195297Y0288914D01*
X0192748Y0288914D02*
X0192181Y0289481D01*
X0191047Y0289481D01*
X0190480Y0288914D01*
X0190480Y0288347D01*
X0192748Y0288347D01*
X0192748Y0287780D02*
X0192748Y0288914D01*
X0192748Y0287780D02*
X0192181Y0287212D01*
X0191047Y0287212D01*
X0189065Y0287212D02*
X0189065Y0289481D01*
X0187364Y0289481D01*
X0186797Y0288914D01*
X0186797Y0287212D01*
X0184815Y0287780D02*
X0184248Y0287212D01*
X0184815Y0287780D02*
X0184815Y0290048D01*
X0185382Y0289481D02*
X0184248Y0289481D01*
X0183541Y0293212D02*
X0181839Y0293212D01*
X0181272Y0293780D01*
X0181839Y0294347D01*
X0182973Y0294347D01*
X0183541Y0294914D01*
X0182973Y0295481D01*
X0181272Y0295481D01*
X0179857Y0295481D02*
X0179290Y0295481D01*
X0179290Y0293212D01*
X0179857Y0293212D02*
X0178723Y0293212D01*
X0179290Y0296615D02*
X0179290Y0297182D01*
X0173719Y0295481D02*
X0173719Y0293212D01*
X0173719Y0294347D02*
X0172585Y0295481D01*
X0172017Y0295481D01*
X0170650Y0294914D02*
X0170650Y0293780D01*
X0170082Y0293212D01*
X0168948Y0293212D01*
X0168381Y0294347D02*
X0170650Y0294347D01*
X0170650Y0294914D02*
X0170082Y0295481D01*
X0168948Y0295481D01*
X0168381Y0294914D01*
X0168381Y0294347D01*
X0166966Y0294914D02*
X0166966Y0293780D01*
X0166399Y0293212D01*
X0164698Y0293212D01*
X0163283Y0293780D02*
X0163283Y0294914D01*
X0162716Y0295481D01*
X0161582Y0295481D01*
X0161015Y0294914D01*
X0161015Y0294347D01*
X0163283Y0294347D01*
X0163283Y0293780D02*
X0162716Y0293212D01*
X0161582Y0293212D01*
X0159600Y0293212D02*
X0157899Y0293212D01*
X0157332Y0293780D01*
X0157332Y0294914D01*
X0157899Y0295481D01*
X0159600Y0295481D01*
X0159600Y0292078D01*
X0155350Y0293780D02*
X0155350Y0296048D01*
X0155917Y0295481D02*
X0154783Y0295481D01*
X0153462Y0294914D02*
X0153462Y0293780D01*
X0152894Y0293212D01*
X0151760Y0293212D01*
X0151193Y0294347D02*
X0153462Y0294347D01*
X0153462Y0294914D02*
X0152894Y0295481D01*
X0151760Y0295481D01*
X0151193Y0294914D01*
X0151193Y0294347D01*
X0149778Y0293780D02*
X0149778Y0295481D01*
X0149778Y0293780D02*
X0149211Y0293212D01*
X0147510Y0293212D01*
X0147510Y0295481D01*
X0146095Y0295481D02*
X0146095Y0293212D01*
X0146095Y0294347D02*
X0144961Y0295481D01*
X0144394Y0295481D01*
X0139343Y0294347D02*
X0137641Y0294347D01*
X0137074Y0294914D01*
X0137074Y0296048D01*
X0137641Y0296615D01*
X0139343Y0296615D01*
X0139343Y0293212D01*
X0138209Y0294347D02*
X0137074Y0293212D01*
X0135660Y0293212D02*
X0133391Y0296615D01*
X0131977Y0294914D02*
X0129708Y0294914D01*
X0130275Y0293212D02*
X0130275Y0296615D01*
X0131977Y0294914D01*
X0133391Y0293212D02*
X0135660Y0296615D01*
X0128293Y0296048D02*
X0127726Y0296615D01*
X0126592Y0296615D01*
X0126025Y0296048D01*
X0126025Y0295481D01*
X0126592Y0294914D01*
X0126025Y0294347D01*
X0126025Y0293780D01*
X0126592Y0293212D01*
X0127726Y0293212D01*
X0128293Y0293780D01*
X0127159Y0294914D02*
X0126592Y0294914D01*
X0124610Y0296048D02*
X0124043Y0296615D01*
X0122909Y0296615D01*
X0122342Y0296048D01*
X0122342Y0295481D01*
X0122909Y0294914D01*
X0122342Y0294347D01*
X0122342Y0293780D01*
X0122909Y0293212D01*
X0124043Y0293212D01*
X0124610Y0293780D01*
X0123476Y0294914D02*
X0122909Y0294914D01*
X0154783Y0293212D02*
X0155350Y0293780D01*
X0164698Y0295481D02*
X0166399Y0295481D01*
X0166966Y0294914D01*
X0168948Y0297182D02*
X0170082Y0296615D01*
X0188545Y0295481D02*
X0189679Y0295481D01*
X0189112Y0296048D02*
X0189112Y0293780D01*
X0188545Y0293212D01*
X0191094Y0293212D02*
X0191094Y0294914D01*
X0191661Y0295481D01*
X0193362Y0295481D01*
X0193362Y0293212D01*
X0194777Y0294347D02*
X0197045Y0294347D01*
X0197045Y0293780D02*
X0197045Y0294914D01*
X0196478Y0295481D01*
X0195344Y0295481D01*
X0194777Y0294914D01*
X0194777Y0294347D01*
X0195344Y0293212D02*
X0196478Y0293212D01*
X0197045Y0293780D01*
X0198460Y0293212D02*
X0198460Y0294914D01*
X0199027Y0295481D01*
X0199594Y0294914D01*
X0199594Y0293212D01*
X0200729Y0293212D02*
X0200729Y0295481D01*
X0200161Y0295481D01*
X0199594Y0294914D01*
X0202143Y0294914D02*
X0202143Y0294347D01*
X0204412Y0294347D01*
X0204412Y0293780D02*
X0204412Y0294914D01*
X0203845Y0295481D01*
X0202710Y0295481D01*
X0202143Y0294914D01*
X0202710Y0293212D02*
X0203845Y0293212D01*
X0204412Y0293780D01*
X0205733Y0293212D02*
X0206867Y0293212D01*
X0206300Y0293212D02*
X0206300Y0296615D01*
X0206867Y0296615D01*
X0208282Y0295481D02*
X0208282Y0293212D01*
X0209983Y0293212D01*
X0210550Y0293780D01*
X0210550Y0295481D01*
X0211965Y0294914D02*
X0211965Y0294347D01*
X0214233Y0294347D01*
X0214233Y0293780D02*
X0214233Y0294914D01*
X0213666Y0295481D01*
X0212532Y0295481D01*
X0211965Y0294914D01*
X0212532Y0293212D02*
X0213666Y0293212D01*
X0214233Y0293780D01*
X0215648Y0293780D02*
X0216215Y0294347D01*
X0217349Y0294347D01*
X0217917Y0294914D01*
X0217349Y0295481D01*
X0215648Y0295481D01*
X0215648Y0293780D02*
X0216215Y0293212D01*
X0217917Y0293212D01*
X0203184Y0284615D02*
X0203184Y0281212D01*
X0203184Y0282347D02*
X0201483Y0282347D01*
X0200915Y0282914D01*
X0200915Y0284048D01*
X0201483Y0284615D01*
X0203184Y0284615D01*
X0202050Y0282347D02*
X0200915Y0281212D01*
X0199501Y0281212D02*
X0197232Y0283481D01*
X0197232Y0284048D01*
X0197799Y0284615D01*
X0198934Y0284615D01*
X0199501Y0284048D01*
X0199501Y0281212D02*
X0197232Y0281212D01*
X0195818Y0282914D02*
X0193549Y0282914D01*
X0194116Y0284615D02*
X0195818Y0282914D01*
X0194116Y0281212D02*
X0194116Y0284615D01*
D12*
X0189971Y0275950D02*
X0190671Y0275249D01*
X0190671Y0273848D01*
X0189971Y0273147D01*
X0189971Y0271346D02*
X0188569Y0271346D01*
X0187869Y0270645D01*
X0187869Y0268543D01*
X0186468Y0268543D02*
X0190671Y0268543D01*
X0190671Y0270645D01*
X0189971Y0271346D01*
X0186468Y0273147D02*
X0189270Y0275950D01*
X0189971Y0275950D01*
X0186468Y0275950D02*
X0186468Y0273147D01*
X0187168Y0266742D02*
X0189971Y0266742D01*
X0190671Y0266041D01*
X0190671Y0264640D01*
X0189971Y0263939D01*
X0187168Y0263939D01*
X0186468Y0264640D01*
X0186468Y0266041D01*
X0187168Y0266742D01*
X0188569Y0255950D02*
X0188569Y0253147D01*
X0190671Y0255249D01*
X0186468Y0255249D01*
X0188569Y0251346D02*
X0187869Y0250645D01*
X0187869Y0248543D01*
X0186468Y0248543D02*
X0190671Y0248543D01*
X0190671Y0250645D01*
X0189971Y0251346D01*
X0188569Y0251346D01*
X0187168Y0246742D02*
X0189971Y0246742D01*
X0190671Y0246041D01*
X0190671Y0244640D01*
X0189971Y0243939D01*
X0187168Y0243939D01*
X0186468Y0244640D01*
X0186468Y0246041D01*
X0187168Y0246742D01*
X0187168Y0235950D02*
X0187869Y0235950D01*
X0188569Y0235249D01*
X0188569Y0233147D01*
X0187168Y0233147D01*
X0186468Y0233848D01*
X0186468Y0235249D01*
X0187168Y0235950D01*
X0188569Y0233147D02*
X0189971Y0234548D01*
X0190671Y0235950D01*
X0189971Y0231346D02*
X0188569Y0231346D01*
X0187869Y0230645D01*
X0187869Y0228543D01*
X0186468Y0228543D02*
X0190671Y0228543D01*
X0190671Y0230645D01*
X0189971Y0231346D01*
X0189971Y0226742D02*
X0187168Y0226742D01*
X0186468Y0226041D01*
X0186468Y0224640D01*
X0187168Y0223939D01*
X0189971Y0223939D01*
X0190671Y0224640D01*
X0190671Y0226041D01*
X0189971Y0226742D01*
X0189577Y0216343D02*
X0188876Y0216343D01*
X0188176Y0215643D01*
X0188176Y0214242D01*
X0188876Y0213541D01*
X0189577Y0213541D01*
X0190277Y0214242D01*
X0190277Y0215643D01*
X0189577Y0216343D01*
X0188176Y0215643D02*
X0187475Y0216343D01*
X0186774Y0216343D01*
X0186074Y0215643D01*
X0186074Y0214242D01*
X0186774Y0213541D01*
X0187475Y0213541D01*
X0188176Y0214242D01*
X0188176Y0211739D02*
X0187475Y0211039D01*
X0187475Y0208937D01*
X0186074Y0208937D02*
X0190277Y0208937D01*
X0190277Y0211039D01*
X0189577Y0211739D01*
X0188176Y0211739D01*
X0186774Y0207135D02*
X0189577Y0207135D01*
X0190277Y0206435D01*
X0190277Y0205034D01*
X0189577Y0204333D01*
X0186774Y0204333D01*
X0186074Y0205034D01*
X0186074Y0206435D01*
X0186774Y0207135D01*
X0186381Y0199372D02*
X0185680Y0198672D01*
X0185680Y0197271D01*
X0186381Y0196570D01*
X0189183Y0199372D01*
X0186381Y0199372D01*
X0186381Y0196570D02*
X0189183Y0196570D01*
X0189884Y0197271D01*
X0189884Y0198672D01*
X0189183Y0199372D01*
X0185680Y0194769D02*
X0185680Y0191966D01*
X0185680Y0193367D02*
X0189884Y0193367D01*
X0188483Y0191966D01*
X0189183Y0190165D02*
X0187782Y0190165D01*
X0187081Y0189464D01*
X0187081Y0187362D01*
X0185680Y0187362D02*
X0189884Y0187362D01*
X0189884Y0189464D01*
X0189183Y0190165D01*
X0189183Y0185561D02*
X0186381Y0185561D01*
X0185680Y0184860D01*
X0185680Y0183459D01*
X0186381Y0182758D01*
X0189183Y0182758D01*
X0189884Y0183459D01*
X0189884Y0184860D01*
X0189183Y0185561D01*
X0188876Y0178585D02*
X0189577Y0178585D01*
X0190277Y0177884D01*
X0190277Y0176483D01*
X0189577Y0175783D01*
X0188876Y0178585D02*
X0186074Y0175783D01*
X0186074Y0178585D01*
X0186074Y0173981D02*
X0186074Y0171179D01*
X0186074Y0172580D02*
X0190277Y0172580D01*
X0188876Y0171179D01*
X0188176Y0169377D02*
X0187475Y0168677D01*
X0187475Y0166575D01*
X0186074Y0166575D02*
X0190277Y0166575D01*
X0190277Y0168677D01*
X0189577Y0169377D01*
X0188176Y0169377D01*
X0186774Y0164773D02*
X0189577Y0164773D01*
X0190277Y0164073D01*
X0190277Y0162671D01*
X0189577Y0161971D01*
X0186774Y0161971D01*
X0186074Y0162671D01*
X0186074Y0164073D01*
X0186774Y0164773D01*
X0188176Y0158900D02*
X0188176Y0156098D01*
X0190277Y0158199D01*
X0186074Y0158199D01*
X0186074Y0154296D02*
X0186074Y0151494D01*
X0186074Y0152895D02*
X0190277Y0152895D01*
X0188876Y0151494D01*
X0188176Y0149692D02*
X0187475Y0148992D01*
X0187475Y0146890D01*
X0186074Y0146890D02*
X0190277Y0146890D01*
X0190277Y0148992D01*
X0189577Y0149692D01*
X0188176Y0149692D01*
X0186774Y0145088D02*
X0189577Y0145088D01*
X0190277Y0144388D01*
X0190277Y0142986D01*
X0189577Y0142286D01*
X0186774Y0142286D01*
X0186074Y0142986D01*
X0186074Y0144388D01*
X0186774Y0145088D01*
X0217855Y0149669D02*
X0222059Y0149669D01*
X0222059Y0151771D01*
X0221358Y0152471D01*
X0219957Y0152471D01*
X0219257Y0151771D01*
X0219257Y0149669D01*
X0219257Y0151070D02*
X0217855Y0152471D01*
X0217855Y0154273D02*
X0217855Y0157075D01*
X0217855Y0155674D02*
X0222059Y0155674D01*
X0220658Y0154273D01*
X0219957Y0158877D02*
X0218556Y0158877D01*
X0217855Y0159577D01*
X0217855Y0160979D01*
X0218556Y0161679D01*
X0219257Y0161679D01*
X0219957Y0160979D01*
X0219957Y0158877D01*
X0221358Y0160278D01*
X0222059Y0161679D01*
X0222134Y0169240D02*
X0217930Y0169240D01*
X0219331Y0169240D02*
X0219331Y0171342D01*
X0220032Y0172042D01*
X0221433Y0172042D01*
X0222134Y0171342D01*
X0222134Y0169240D01*
X0219331Y0170641D02*
X0217930Y0172042D01*
X0217930Y0173844D02*
X0217930Y0176646D01*
X0217930Y0175245D02*
X0222134Y0175245D01*
X0220733Y0173844D01*
X0220032Y0178448D02*
X0220032Y0181250D01*
X0222134Y0180549D02*
X0220032Y0178448D01*
X0217930Y0180549D02*
X0222134Y0180549D01*
X0222022Y0189775D02*
X0217818Y0189775D01*
X0219219Y0189775D02*
X0219219Y0191877D01*
X0219920Y0192578D01*
X0221321Y0192578D01*
X0222022Y0191877D01*
X0222022Y0189775D01*
X0219219Y0191176D02*
X0217818Y0192578D01*
X0217818Y0194379D02*
X0217818Y0197182D01*
X0217818Y0195780D02*
X0222022Y0195780D01*
X0220620Y0194379D01*
X0221321Y0198983D02*
X0222022Y0199684D01*
X0222022Y0201085D01*
X0221321Y0201785D01*
X0220620Y0201785D01*
X0217818Y0198983D01*
X0217818Y0201785D01*
X0217924Y0209525D02*
X0222128Y0209525D01*
X0222128Y0211627D01*
X0221427Y0212328D01*
X0220026Y0212328D01*
X0219325Y0211627D01*
X0219325Y0209525D01*
X0219325Y0210926D02*
X0217924Y0212328D01*
X0217924Y0214129D02*
X0217924Y0216932D01*
X0217924Y0215530D02*
X0222128Y0215530D01*
X0220727Y0214129D01*
X0221427Y0218733D02*
X0218625Y0218733D01*
X0221427Y0221535D01*
X0218625Y0221535D01*
X0217924Y0220835D01*
X0217924Y0219434D01*
X0218625Y0218733D01*
X0221427Y0218733D02*
X0222128Y0219434D01*
X0222128Y0220835D01*
X0221427Y0221535D01*
X0222022Y0231804D02*
X0217818Y0231804D01*
X0219219Y0231804D02*
X0219219Y0233906D01*
X0219920Y0234607D01*
X0221321Y0234607D01*
X0222022Y0233906D01*
X0222022Y0231804D01*
X0219219Y0233206D02*
X0217818Y0234607D01*
X0218519Y0236408D02*
X0219219Y0236408D01*
X0219920Y0237109D01*
X0219920Y0238510D01*
X0219219Y0239211D01*
X0218519Y0239211D01*
X0217818Y0238510D01*
X0217818Y0237109D01*
X0218519Y0236408D01*
X0219920Y0237109D02*
X0220620Y0236408D01*
X0221321Y0236408D01*
X0222022Y0237109D01*
X0222022Y0238510D01*
X0221321Y0239211D01*
X0220620Y0239211D01*
X0219920Y0238510D01*
X0219363Y0251842D02*
X0219363Y0253944D01*
X0220063Y0254644D01*
X0221465Y0254644D01*
X0222165Y0253944D01*
X0222165Y0251842D01*
X0217962Y0251842D01*
X0219363Y0253243D02*
X0217962Y0254644D01*
X0218662Y0256446D02*
X0217962Y0257146D01*
X0217962Y0258547D01*
X0218662Y0259248D01*
X0219363Y0259248D01*
X0220063Y0258547D01*
X0220063Y0256446D01*
X0218662Y0256446D01*
X0220063Y0256446D02*
X0221465Y0257847D01*
X0222165Y0259248D01*
X0222242Y0271873D02*
X0218038Y0271873D01*
X0219440Y0271873D02*
X0219440Y0273975D01*
X0220140Y0274676D01*
X0221541Y0274676D01*
X0222242Y0273975D01*
X0222242Y0271873D01*
X0219440Y0273274D02*
X0218038Y0274676D01*
X0220140Y0276477D02*
X0220140Y0279280D01*
X0218038Y0278579D02*
X0222242Y0278579D01*
X0220140Y0276477D01*
X0276185Y0277333D02*
X0278287Y0279435D01*
X0278987Y0278734D02*
X0276185Y0281537D01*
X0278987Y0281537D02*
X0278987Y0277333D01*
X0280789Y0278034D02*
X0280789Y0280836D01*
X0283591Y0278034D01*
X0282891Y0277333D01*
X0281489Y0277333D01*
X0280789Y0278034D01*
X0280789Y0280836D02*
X0281489Y0281537D01*
X0282891Y0281537D01*
X0283591Y0280836D01*
X0283591Y0278034D01*
X0285393Y0277333D02*
X0288195Y0277333D01*
X0286794Y0277333D02*
X0286794Y0281537D01*
X0288195Y0280135D01*
X0288445Y0291833D02*
X0288445Y0296037D01*
X0286343Y0296037D01*
X0285643Y0295336D01*
X0285643Y0293935D01*
X0286343Y0293234D01*
X0288445Y0293234D01*
X0287044Y0293234D02*
X0285643Y0291833D01*
X0283841Y0291833D02*
X0281039Y0294635D01*
X0281039Y0295336D01*
X0281739Y0296037D01*
X0283141Y0296037D01*
X0283841Y0295336D01*
X0283841Y0291833D02*
X0281039Y0291833D01*
X0279237Y0293935D02*
X0277135Y0296037D01*
X0277135Y0291833D01*
X0276435Y0293935D02*
X0279237Y0293935D01*
X0301435Y0293234D02*
X0301435Y0292534D01*
X0302135Y0291833D01*
X0303537Y0291833D01*
X0304237Y0292534D01*
X0306039Y0291833D02*
X0308841Y0291833D01*
X0306039Y0294635D01*
X0306039Y0295336D01*
X0306739Y0296037D01*
X0308141Y0296037D01*
X0308841Y0295336D01*
X0310643Y0295336D02*
X0310643Y0293935D01*
X0311343Y0293234D01*
X0313445Y0293234D01*
X0313445Y0291833D02*
X0313445Y0296037D01*
X0311343Y0296037D01*
X0310643Y0295336D01*
X0312044Y0293234D02*
X0310643Y0291833D01*
X0304237Y0295336D02*
X0303537Y0296037D01*
X0302135Y0296037D01*
X0301435Y0295336D01*
X0301435Y0294635D01*
X0302135Y0293935D01*
X0301435Y0293234D01*
X0302135Y0293935D02*
X0302836Y0293935D01*
X0301747Y0281537D02*
X0304549Y0278734D01*
X0303849Y0279435D02*
X0301747Y0277333D01*
X0304549Y0277333D02*
X0304549Y0281537D01*
X0306351Y0281537D02*
X0306351Y0280836D01*
X0309153Y0278034D01*
X0309153Y0277333D01*
X0310754Y0277333D02*
X0311455Y0277333D01*
X0311455Y0278034D01*
X0310754Y0278034D01*
X0310754Y0277333D01*
X0313957Y0277333D02*
X0313957Y0281537D01*
X0316059Y0279435D01*
X0313257Y0279435D01*
X0309153Y0281537D02*
X0306351Y0281537D01*
X0341849Y0255748D02*
X0343251Y0257150D01*
X0346053Y0257150D01*
X0346053Y0254347D02*
X0343251Y0254347D01*
X0341849Y0255748D01*
X0342550Y0252546D02*
X0341849Y0251845D01*
X0341849Y0250444D01*
X0342550Y0249743D01*
X0343951Y0249743D02*
X0344652Y0251145D01*
X0344652Y0251845D01*
X0343951Y0252546D01*
X0342550Y0252546D01*
X0343951Y0249743D02*
X0346053Y0249743D01*
X0346053Y0252546D01*
X0354099Y0251741D02*
X0354099Y0250340D01*
X0354800Y0249639D01*
X0356201Y0251041D02*
X0356201Y0251741D01*
X0355501Y0252442D01*
X0354800Y0252442D01*
X0354099Y0251741D01*
X0356201Y0251741D02*
X0356902Y0252442D01*
X0357602Y0252442D01*
X0358303Y0251741D01*
X0358303Y0250340D01*
X0357602Y0249639D01*
X0358303Y0254243D02*
X0355501Y0254243D01*
X0354099Y0255645D01*
X0355501Y0257046D01*
X0358303Y0257046D01*
X0357602Y0258847D02*
X0358303Y0259548D01*
X0358303Y0260949D01*
X0357602Y0261650D01*
X0356902Y0261650D01*
X0356201Y0260949D01*
X0355501Y0261650D01*
X0354800Y0261650D01*
X0354099Y0260949D01*
X0354099Y0259548D01*
X0354800Y0258847D01*
X0356201Y0260248D02*
X0356201Y0260949D01*
X0328803Y0235449D02*
X0328102Y0236150D01*
X0327402Y0236150D01*
X0326701Y0235449D01*
X0326001Y0236150D01*
X0325300Y0236150D01*
X0324599Y0235449D01*
X0324599Y0234048D01*
X0325300Y0233347D01*
X0326001Y0231546D02*
X0324599Y0230145D01*
X0326001Y0228743D01*
X0328803Y0228743D01*
X0328102Y0226942D02*
X0327402Y0226942D01*
X0326701Y0226241D01*
X0326001Y0226942D01*
X0325300Y0226942D01*
X0324599Y0226241D01*
X0324599Y0224840D01*
X0325300Y0224139D01*
X0326701Y0225541D02*
X0326701Y0226241D01*
X0328102Y0226942D02*
X0328803Y0226241D01*
X0328803Y0224840D01*
X0328102Y0224139D01*
X0331849Y0225444D02*
X0332550Y0224743D01*
X0331849Y0225444D02*
X0331849Y0226845D01*
X0332550Y0227546D01*
X0333951Y0227546D01*
X0334652Y0226845D01*
X0334652Y0226145D01*
X0333951Y0224743D01*
X0336053Y0224743D01*
X0336053Y0227546D01*
X0336053Y0229347D02*
X0333251Y0229347D01*
X0331849Y0230748D01*
X0333251Y0232150D01*
X0336053Y0232150D01*
X0328803Y0231546D02*
X0326001Y0231546D01*
X0328102Y0233347D02*
X0328803Y0234048D01*
X0328803Y0235449D01*
X0326701Y0235449D02*
X0326701Y0234748D01*
X0361879Y0206740D02*
X0361879Y0203937D01*
X0361879Y0206039D02*
X0364681Y0206039D01*
X0364681Y0206740D02*
X0363280Y0208141D01*
X0361879Y0206740D01*
X0364681Y0206740D02*
X0364681Y0203937D01*
X0366483Y0204638D02*
X0366483Y0207440D01*
X0367183Y0208141D01*
X0369285Y0208141D01*
X0369285Y0203937D01*
X0367183Y0203937D01*
X0366483Y0204638D01*
X0371086Y0204638D02*
X0371086Y0205339D01*
X0371787Y0206039D01*
X0373188Y0206039D01*
X0373889Y0206740D01*
X0373889Y0207440D01*
X0373188Y0208141D01*
X0371787Y0208141D01*
X0371086Y0207440D01*
X0371086Y0204638D02*
X0371787Y0203937D01*
X0373188Y0203937D01*
X0373889Y0204638D01*
X0373688Y0197891D02*
X0374389Y0197190D01*
X0374389Y0196490D01*
X0373688Y0195789D01*
X0372287Y0195789D01*
X0371586Y0195089D01*
X0371586Y0194388D01*
X0372287Y0193687D01*
X0373688Y0193687D01*
X0374389Y0194388D01*
X0373688Y0197891D02*
X0372287Y0197891D01*
X0371586Y0197190D01*
X0369785Y0197190D02*
X0369785Y0194388D01*
X0369084Y0193687D01*
X0367683Y0193687D01*
X0366983Y0194388D01*
X0365181Y0193687D02*
X0365181Y0197891D01*
X0366983Y0197190D02*
X0367683Y0197891D01*
X0369084Y0197891D01*
X0369785Y0197190D01*
X0365181Y0193687D02*
X0362379Y0193687D01*
X0365178Y0184531D02*
X0368380Y0184531D01*
X0369181Y0183730D01*
X0369181Y0182129D01*
X0368380Y0181328D01*
X0365178Y0181328D01*
X0364377Y0182129D01*
X0364377Y0183730D01*
X0365178Y0184531D01*
X0364377Y0179375D02*
X0369181Y0179375D01*
X0369181Y0176172D02*
X0364377Y0176172D01*
X0364377Y0174336D02*
X0364377Y0172734D01*
X0364377Y0173535D02*
X0369181Y0173535D01*
X0369181Y0172734D02*
X0369181Y0174336D01*
X0369181Y0176172D02*
X0364377Y0179375D01*
X0364377Y0170781D02*
X0364377Y0167578D01*
X0369181Y0167578D01*
X0369181Y0170781D01*
X0366779Y0169179D02*
X0366779Y0167578D01*
X0364377Y0165624D02*
X0364377Y0162421D01*
X0369181Y0162421D01*
X0369181Y0160468D02*
X0369181Y0157265D01*
X0364377Y0157265D01*
X0364377Y0160468D01*
X0366779Y0158866D02*
X0366779Y0157265D01*
X0369181Y0155311D02*
X0369181Y0152109D01*
X0369181Y0153710D02*
X0364377Y0153710D01*
X0391599Y0156278D02*
X0391599Y0157679D01*
X0391599Y0156979D02*
X0395803Y0156979D01*
X0395803Y0157679D02*
X0395803Y0156278D01*
X0394402Y0159347D02*
X0395803Y0160748D01*
X0391599Y0160748D01*
X0391599Y0159347D02*
X0391599Y0162150D01*
X0391599Y0176278D02*
X0391599Y0177679D01*
X0391599Y0176979D02*
X0395803Y0176979D01*
X0395803Y0177679D02*
X0395803Y0176278D01*
X0395102Y0179347D02*
X0395803Y0180048D01*
X0395803Y0181449D01*
X0395102Y0182150D01*
X0394402Y0182150D01*
X0391599Y0179347D01*
X0391599Y0182150D01*
X0393701Y0213639D02*
X0393701Y0216442D01*
X0393701Y0218243D02*
X0394402Y0219645D01*
X0394402Y0220345D01*
X0393701Y0221046D01*
X0392300Y0221046D01*
X0391599Y0220345D01*
X0391599Y0218944D01*
X0392300Y0218243D01*
X0393701Y0218243D02*
X0395803Y0218243D01*
X0395803Y0221046D01*
X0395803Y0222847D02*
X0393001Y0222847D01*
X0391599Y0224248D01*
X0393001Y0225650D01*
X0395803Y0225650D01*
X0395102Y0235139D02*
X0392300Y0235139D01*
X0391599Y0235840D01*
X0391599Y0237241D01*
X0392300Y0237942D01*
X0393701Y0237942D01*
X0393701Y0236541D01*
X0395102Y0237942D02*
X0395803Y0237241D01*
X0395803Y0235840D01*
X0395102Y0235139D01*
X0395803Y0239743D02*
X0391599Y0239743D01*
X0391599Y0242546D02*
X0395803Y0242546D01*
X0395803Y0244347D02*
X0391599Y0244347D01*
X0391599Y0246449D01*
X0392300Y0247150D01*
X0395102Y0247150D01*
X0395803Y0246449D01*
X0395803Y0244347D01*
X0391599Y0242546D02*
X0395803Y0239743D01*
X0395102Y0254639D02*
X0395803Y0255340D01*
X0395803Y0256741D01*
X0395102Y0257442D01*
X0394402Y0257442D01*
X0393701Y0256741D01*
X0393001Y0257442D01*
X0392300Y0257442D01*
X0391599Y0256741D01*
X0391599Y0255340D01*
X0392300Y0254639D01*
X0393701Y0256041D02*
X0393701Y0256741D01*
X0393001Y0259243D02*
X0391599Y0260645D01*
X0393001Y0262046D01*
X0395803Y0262046D01*
X0395102Y0263847D02*
X0395803Y0264548D01*
X0395803Y0265949D01*
X0395102Y0266650D01*
X0394402Y0266650D01*
X0393701Y0265949D01*
X0393001Y0266650D01*
X0392300Y0266650D01*
X0391599Y0265949D01*
X0391599Y0264548D01*
X0392300Y0263847D01*
X0393701Y0265248D02*
X0393701Y0265949D01*
X0393001Y0259243D02*
X0395803Y0259243D01*
X0395102Y0215041D02*
X0392300Y0215041D01*
X0345287Y0131482D02*
X0343185Y0131482D01*
X0342485Y0130781D01*
X0342485Y0129380D01*
X0343185Y0128679D01*
X0345287Y0128679D01*
X0343886Y0128679D02*
X0342485Y0127278D01*
X0340683Y0127278D02*
X0340683Y0131482D01*
X0337881Y0131482D01*
X0336079Y0131482D02*
X0334678Y0130080D01*
X0333277Y0131482D01*
X0333277Y0127278D01*
X0331475Y0127979D02*
X0330775Y0127278D01*
X0329374Y0127278D01*
X0328673Y0127979D01*
X0328673Y0128679D01*
X0329374Y0129380D01*
X0331475Y0129380D01*
X0331475Y0127979D01*
X0331475Y0129380D02*
X0330074Y0130781D01*
X0328673Y0131482D01*
X0326872Y0130781D02*
X0326171Y0131482D01*
X0324770Y0131482D01*
X0324069Y0130781D01*
X0324069Y0127979D01*
X0324770Y0127278D01*
X0326171Y0127278D01*
X0326872Y0127979D01*
X0326171Y0129380D02*
X0324069Y0129380D01*
X0326171Y0129380D02*
X0326872Y0130080D01*
X0326872Y0130781D01*
X0322268Y0131482D02*
X0322268Y0127278D01*
X0320866Y0128679D01*
X0319465Y0127278D01*
X0319465Y0131482D01*
X0336079Y0131482D02*
X0336079Y0127278D01*
X0339282Y0129380D02*
X0340683Y0129380D01*
X0345287Y0127278D02*
X0345287Y0131482D01*
X0346611Y0093037D02*
X0345210Y0091635D01*
X0343809Y0093037D01*
X0343809Y0088833D01*
X0342007Y0088833D02*
X0339205Y0088833D01*
X0340606Y0088833D02*
X0340606Y0093037D01*
X0342007Y0091635D01*
X0346611Y0093037D02*
X0346611Y0088833D01*
X0349814Y0090935D02*
X0351215Y0090935D01*
X0353016Y0090935D02*
X0353717Y0090234D01*
X0355819Y0090234D01*
X0355819Y0088833D02*
X0355819Y0093037D01*
X0353717Y0093037D01*
X0353016Y0092336D01*
X0353016Y0090935D01*
X0354418Y0090234D02*
X0353016Y0088833D01*
X0351215Y0088833D02*
X0351215Y0093037D01*
X0348412Y0093037D01*
X0337403Y0092336D02*
X0336702Y0093037D01*
X0335301Y0093037D01*
X0334601Y0092336D01*
X0334601Y0091635D01*
X0337403Y0088833D01*
X0334601Y0088833D01*
X0332799Y0088833D02*
X0330697Y0088833D01*
X0329997Y0089534D01*
X0329997Y0090234D01*
X0330697Y0090935D01*
X0332799Y0090935D01*
X0332799Y0088833D02*
X0332799Y0093037D01*
X0330697Y0093037D01*
X0329997Y0092336D01*
X0329997Y0091635D01*
X0330697Y0090935D01*
X0139699Y0138521D02*
X0139699Y0140623D01*
X0138998Y0141324D01*
X0136196Y0141324D01*
X0135495Y0140623D01*
X0135495Y0138521D01*
X0139699Y0138521D01*
X0138298Y0143125D02*
X0139699Y0144526D01*
X0135495Y0144526D01*
X0135495Y0143125D02*
X0135495Y0145928D01*
X0137597Y0147729D02*
X0137597Y0150532D01*
X0139699Y0149831D02*
X0137597Y0147729D01*
X0135495Y0149831D02*
X0139699Y0149831D01*
X0140199Y0158021D02*
X0135995Y0158021D01*
X0135995Y0160123D01*
X0136696Y0160824D01*
X0139498Y0160824D01*
X0140199Y0160123D01*
X0140199Y0158021D01*
X0138798Y0162625D02*
X0140199Y0164026D01*
X0135995Y0164026D01*
X0135995Y0162625D02*
X0135995Y0165428D01*
X0135995Y0167229D02*
X0138798Y0170032D01*
X0139498Y0170032D01*
X0140199Y0169331D01*
X0140199Y0167930D01*
X0139498Y0167229D01*
X0135995Y0167229D02*
X0135995Y0170032D01*
X0135995Y0178521D02*
X0135995Y0180623D01*
X0136696Y0181324D01*
X0139498Y0181324D01*
X0140199Y0180623D01*
X0140199Y0178521D01*
X0135995Y0178521D01*
X0135995Y0183125D02*
X0135995Y0185928D01*
X0135995Y0184526D02*
X0140199Y0184526D01*
X0138798Y0183125D01*
X0139498Y0187729D02*
X0136696Y0187729D01*
X0139498Y0190532D01*
X0136696Y0190532D01*
X0135995Y0189831D01*
X0135995Y0188430D01*
X0136696Y0187729D01*
X0139498Y0187729D02*
X0140199Y0188430D01*
X0140199Y0189831D01*
X0139498Y0190532D01*
X0140199Y0201625D02*
X0135995Y0201625D01*
X0135995Y0203727D01*
X0136696Y0204428D01*
X0139498Y0204428D01*
X0140199Y0203727D01*
X0140199Y0201625D01*
X0139498Y0206229D02*
X0138798Y0206229D01*
X0138097Y0206930D01*
X0138097Y0208331D01*
X0137396Y0209032D01*
X0136696Y0209032D01*
X0135995Y0208331D01*
X0135995Y0206930D01*
X0136696Y0206229D01*
X0137396Y0206229D01*
X0138097Y0206930D01*
X0138097Y0208331D02*
X0138798Y0209032D01*
X0139498Y0209032D01*
X0140199Y0208331D01*
X0140199Y0206930D01*
X0139498Y0206229D01*
X0140199Y0221625D02*
X0135995Y0221625D01*
X0135995Y0223727D01*
X0136696Y0224428D01*
X0139498Y0224428D01*
X0140199Y0223727D01*
X0140199Y0221625D01*
X0138097Y0226229D02*
X0138097Y0228331D01*
X0137396Y0229032D01*
X0136696Y0229032D01*
X0135995Y0228331D01*
X0135995Y0226930D01*
X0136696Y0226229D01*
X0138097Y0226229D01*
X0139498Y0227630D01*
X0140199Y0229032D01*
X0140199Y0241625D02*
X0135995Y0241625D01*
X0135995Y0243727D01*
X0136696Y0244428D01*
X0139498Y0244428D01*
X0140199Y0243727D01*
X0140199Y0241625D01*
X0138097Y0246229D02*
X0138097Y0249032D01*
X0135995Y0248331D02*
X0140199Y0248331D01*
X0138097Y0246229D01*
X0140199Y0261125D02*
X0135995Y0261125D01*
X0135995Y0263227D01*
X0136696Y0263928D01*
X0139498Y0263928D01*
X0140199Y0263227D01*
X0140199Y0261125D01*
X0139498Y0265729D02*
X0140199Y0266430D01*
X0140199Y0267831D01*
X0139498Y0268532D01*
X0138798Y0268532D01*
X0135995Y0265729D01*
X0135995Y0268532D01*
D13*
X0127540Y0270748D02*
X0127540Y0260118D01*
X0110650Y0260118D01*
X0110650Y0270748D01*
X0127540Y0270748D01*
X0120595Y0268433D02*
X0120595Y0262433D01*
X0117095Y0265433D01*
X0120595Y0268433D01*
X0120595Y0268241D02*
X0120371Y0268241D01*
X0120595Y0267742D02*
X0119789Y0267742D01*
X0119208Y0267244D02*
X0120595Y0267244D01*
X0120595Y0266745D02*
X0118626Y0266745D01*
X0118044Y0266247D02*
X0120595Y0266247D01*
X0120595Y0265748D02*
X0117463Y0265748D01*
X0117309Y0265250D02*
X0120595Y0265250D01*
X0120595Y0264751D02*
X0117891Y0264751D01*
X0118472Y0264253D02*
X0120595Y0264253D01*
X0120595Y0263754D02*
X0119054Y0263754D01*
X0119635Y0263256D02*
X0120595Y0263256D01*
X0120595Y0262757D02*
X0120217Y0262757D01*
X0127540Y0250748D02*
X0110650Y0250748D01*
X0110650Y0240118D01*
X0127540Y0240118D01*
X0127540Y0250748D01*
X0120595Y0248433D02*
X0120595Y0242433D01*
X0117095Y0245433D01*
X0120595Y0248433D01*
X0120595Y0248300D02*
X0120440Y0248300D01*
X0120595Y0247802D02*
X0119859Y0247802D01*
X0119277Y0247303D02*
X0120595Y0247303D01*
X0120595Y0246805D02*
X0118696Y0246805D01*
X0118114Y0246306D02*
X0120595Y0246306D01*
X0120595Y0245808D02*
X0117532Y0245808D01*
X0117240Y0245309D02*
X0120595Y0245309D01*
X0120595Y0244811D02*
X0117821Y0244811D01*
X0118403Y0244312D02*
X0120595Y0244312D01*
X0120595Y0243814D02*
X0118984Y0243814D01*
X0119566Y0243315D02*
X0120595Y0243315D01*
X0120595Y0242817D02*
X0120148Y0242817D01*
X0127540Y0230748D02*
X0110650Y0230748D01*
X0110650Y0220118D01*
X0127540Y0220118D01*
X0127540Y0230748D01*
X0120595Y0228433D02*
X0120595Y0222433D01*
X0117095Y0225433D01*
X0120595Y0228433D01*
X0120595Y0228360D02*
X0120510Y0228360D01*
X0120595Y0227861D02*
X0119928Y0227861D01*
X0119347Y0227363D02*
X0120595Y0227363D01*
X0120595Y0226864D02*
X0118765Y0226864D01*
X0118183Y0226366D02*
X0120595Y0226366D01*
X0120595Y0225867D02*
X0117602Y0225867D01*
X0117170Y0225369D02*
X0120595Y0225369D01*
X0120595Y0224870D02*
X0117752Y0224870D01*
X0118333Y0224372D02*
X0120595Y0224372D01*
X0120595Y0223873D02*
X0118915Y0223873D01*
X0119496Y0223375D02*
X0120595Y0223375D01*
X0120595Y0222876D02*
X0120078Y0222876D01*
X0127540Y0210748D02*
X0110650Y0210748D01*
X0110650Y0200118D01*
X0127540Y0200118D01*
X0127540Y0210748D01*
X0120595Y0208433D02*
X0120595Y0202433D01*
X0117095Y0205433D01*
X0120595Y0208433D01*
X0120595Y0208419D02*
X0120579Y0208419D01*
X0120595Y0207921D02*
X0119998Y0207921D01*
X0119416Y0207422D02*
X0120595Y0207422D01*
X0120595Y0206924D02*
X0118834Y0206924D01*
X0118253Y0206425D02*
X0120595Y0206425D01*
X0120595Y0205927D02*
X0117671Y0205927D01*
X0117101Y0205428D02*
X0120595Y0205428D01*
X0120595Y0204930D02*
X0117682Y0204930D01*
X0118264Y0204431D02*
X0120595Y0204431D01*
X0120595Y0203933D02*
X0118845Y0203933D01*
X0119427Y0203434D02*
X0120595Y0203434D01*
X0120595Y0202936D02*
X0120009Y0202936D01*
X0120590Y0202437D02*
X0120595Y0202437D01*
X0127540Y0190748D02*
X0110650Y0190748D01*
X0110650Y0180118D01*
X0127540Y0180118D01*
X0127540Y0190748D01*
X0120595Y0188433D02*
X0120595Y0182433D01*
X0117095Y0185433D01*
X0120595Y0188433D01*
X0120595Y0187981D02*
X0120067Y0187981D01*
X0120595Y0187482D02*
X0119486Y0187482D01*
X0118904Y0186983D02*
X0120595Y0186983D01*
X0120595Y0186485D02*
X0118322Y0186485D01*
X0117741Y0185986D02*
X0120595Y0185986D01*
X0120595Y0185488D02*
X0117159Y0185488D01*
X0117613Y0184989D02*
X0120595Y0184989D01*
X0120595Y0184491D02*
X0118194Y0184491D01*
X0118776Y0183992D02*
X0120595Y0183992D01*
X0120595Y0183494D02*
X0119357Y0183494D01*
X0119939Y0182995D02*
X0120595Y0182995D01*
X0120595Y0182497D02*
X0120521Y0182497D01*
X0127540Y0170748D02*
X0110650Y0170748D01*
X0110650Y0160118D01*
X0127540Y0160118D01*
X0127540Y0170748D01*
X0120595Y0168433D02*
X0120595Y0162433D01*
X0117095Y0165433D01*
X0120595Y0168433D01*
X0120595Y0168040D02*
X0120137Y0168040D01*
X0120595Y0167542D02*
X0119555Y0167542D01*
X0118973Y0167043D02*
X0120595Y0167043D01*
X0120595Y0166545D02*
X0118392Y0166545D01*
X0117810Y0166046D02*
X0120595Y0166046D01*
X0120595Y0165548D02*
X0117229Y0165548D01*
X0117543Y0165049D02*
X0120595Y0165049D01*
X0120595Y0164550D02*
X0118125Y0164550D01*
X0118706Y0164052D02*
X0120595Y0164052D01*
X0120595Y0163553D02*
X0119288Y0163553D01*
X0119870Y0163055D02*
X0120595Y0163055D01*
X0120595Y0162556D02*
X0120451Y0162556D01*
X0127540Y0150748D02*
X0110650Y0150748D01*
X0110650Y0140118D01*
X0127540Y0140118D01*
X0127540Y0150748D01*
X0120595Y0148433D02*
X0120595Y0142433D01*
X0117095Y0145433D01*
X0120595Y0148433D01*
X0120595Y0148100D02*
X0120206Y0148100D01*
X0120595Y0147601D02*
X0119625Y0147601D01*
X0119043Y0147103D02*
X0120595Y0147103D01*
X0120595Y0146604D02*
X0118461Y0146604D01*
X0117880Y0146106D02*
X0120595Y0146106D01*
X0120595Y0145607D02*
X0117298Y0145607D01*
X0117474Y0145109D02*
X0120595Y0145109D01*
X0120595Y0144610D02*
X0118055Y0144610D01*
X0118637Y0144112D02*
X0120595Y0144112D01*
X0120595Y0143613D02*
X0119219Y0143613D01*
X0119800Y0143114D02*
X0120595Y0143114D01*
X0120595Y0142616D02*
X0120382Y0142616D01*
X0155599Y0143705D02*
X0155599Y0157705D01*
X0176599Y0157705D01*
X0176599Y0143705D01*
X0155599Y0143705D01*
X0155599Y0163390D02*
X0155599Y0177390D01*
X0176599Y0177390D01*
X0176599Y0163390D01*
X0155599Y0163390D01*
X0155599Y0183390D02*
X0155599Y0197390D01*
X0176599Y0197390D01*
X0176599Y0183390D01*
X0155599Y0183390D01*
X0155599Y0203390D02*
X0155599Y0217390D01*
X0176599Y0217390D01*
X0176599Y0203390D01*
X0155599Y0203390D01*
X0155599Y0223390D02*
X0155599Y0237390D01*
X0176599Y0237390D01*
X0176599Y0223390D01*
X0155599Y0223390D01*
X0155599Y0243390D02*
X0155599Y0257390D01*
X0176599Y0257390D01*
X0176599Y0243390D01*
X0155599Y0243390D01*
X0155599Y0263390D02*
X0155599Y0277390D01*
X0176599Y0277390D01*
X0176599Y0263390D01*
X0155599Y0263390D01*
X0279698Y0264163D02*
X0279698Y0266165D01*
X0279698Y0264163D02*
X0280699Y0263162D01*
X0281700Y0264163D01*
X0281700Y0266165D01*
X0282921Y0266165D02*
X0284923Y0266165D01*
X0284923Y0264664D01*
X0283922Y0265164D01*
X0283421Y0265164D01*
X0282921Y0264664D01*
X0282921Y0263663D01*
X0283421Y0263162D01*
X0284422Y0263162D01*
X0284923Y0263663D01*
X0289198Y0264664D02*
X0291200Y0264664D01*
X0289698Y0266165D01*
X0289698Y0263162D01*
X0292421Y0263663D02*
X0292421Y0265665D01*
X0292921Y0266165D01*
X0294423Y0266165D01*
X0294423Y0263162D01*
X0292921Y0263162D01*
X0292421Y0263663D01*
X0299698Y0264664D02*
X0301700Y0264664D01*
X0300198Y0266165D01*
X0300198Y0263162D01*
X0302921Y0263663D02*
X0302921Y0265665D01*
X0303421Y0266165D01*
X0304923Y0266165D01*
X0304923Y0263162D01*
X0303421Y0263162D01*
X0302921Y0263663D01*
X0308448Y0263663D02*
X0308448Y0265665D01*
X0308949Y0266165D01*
X0310450Y0266165D01*
X0310450Y0263162D01*
X0308949Y0263162D01*
X0308448Y0263663D01*
X0311671Y0263162D02*
X0311671Y0266165D01*
X0313673Y0266165D02*
X0311671Y0263162D01*
X0313673Y0263162D02*
X0313673Y0266165D01*
X0314894Y0265665D02*
X0315394Y0266165D01*
X0316395Y0266165D01*
X0316895Y0265665D01*
X0316895Y0263663D01*
X0316395Y0263162D01*
X0315394Y0263162D01*
X0314894Y0263663D01*
X0314894Y0264664D01*
X0315894Y0264664D01*
X0327866Y0264094D02*
X0327866Y0262092D01*
X0330868Y0262092D01*
X0330368Y0260871D02*
X0330868Y0260371D01*
X0330868Y0259370D01*
X0330368Y0258869D01*
X0328366Y0258869D01*
X0327866Y0259370D01*
X0327866Y0260371D01*
X0328366Y0260871D01*
X0328366Y0257648D02*
X0327866Y0257148D01*
X0327866Y0256147D01*
X0328366Y0255647D01*
X0329367Y0256147D02*
X0329367Y0257148D01*
X0328867Y0257648D01*
X0328366Y0257648D01*
X0329367Y0256147D02*
X0329868Y0255647D01*
X0330368Y0255647D01*
X0330868Y0256147D01*
X0330868Y0257148D01*
X0330368Y0257648D01*
X0338366Y0263647D02*
X0338866Y0263147D01*
X0338366Y0263647D02*
X0338366Y0264648D01*
X0338866Y0265148D01*
X0339367Y0265148D01*
X0339867Y0264648D01*
X0339867Y0263647D01*
X0340368Y0263147D01*
X0340868Y0263147D01*
X0341368Y0263647D01*
X0341368Y0264648D01*
X0340868Y0265148D01*
X0341368Y0266369D02*
X0341368Y0267871D01*
X0340868Y0268371D01*
X0338866Y0268371D01*
X0338366Y0267871D01*
X0338366Y0266369D01*
X0341368Y0266369D01*
X0340368Y0269592D02*
X0341368Y0270593D01*
X0340368Y0271594D01*
X0338366Y0271594D01*
X0339867Y0271594D02*
X0339867Y0269592D01*
X0340368Y0269592D02*
X0338366Y0269592D01*
X0330368Y0271815D02*
X0330368Y0272816D01*
X0329868Y0273317D01*
X0329368Y0273317D01*
X0328867Y0272816D01*
X0328367Y0273317D01*
X0327866Y0273317D01*
X0327366Y0272816D01*
X0327366Y0271815D01*
X0327866Y0271315D01*
X0328867Y0272316D02*
X0328867Y0272816D01*
X0328367Y0274538D02*
X0327366Y0275539D01*
X0328367Y0276539D01*
X0330368Y0276539D01*
X0329868Y0277760D02*
X0330368Y0278261D01*
X0330368Y0279262D01*
X0329868Y0279762D01*
X0329368Y0279762D01*
X0328867Y0279262D01*
X0328367Y0279762D01*
X0327866Y0279762D01*
X0327366Y0279262D01*
X0327366Y0278261D01*
X0327866Y0277760D01*
X0328867Y0278761D02*
X0328867Y0279262D01*
X0328367Y0274538D02*
X0330368Y0274538D01*
X0330368Y0271815D02*
X0329868Y0271315D01*
X0338366Y0279565D02*
X0338366Y0280566D01*
X0338866Y0281067D01*
X0339867Y0281067D01*
X0339867Y0280066D01*
X0340868Y0281067D02*
X0341368Y0280566D01*
X0341368Y0279565D01*
X0340868Y0279065D01*
X0338866Y0279065D01*
X0338366Y0279565D01*
X0338366Y0282288D02*
X0341368Y0282288D01*
X0338366Y0284289D01*
X0341368Y0284289D01*
X0341368Y0285510D02*
X0341368Y0287012D01*
X0340868Y0287512D01*
X0338866Y0287512D01*
X0338366Y0287012D01*
X0338366Y0285510D01*
X0341368Y0285510D01*
X0313827Y0240580D02*
X0311825Y0240580D01*
X0311324Y0240080D01*
X0311324Y0238578D01*
X0314327Y0238578D01*
X0314327Y0240080D01*
X0313827Y0240580D01*
X0314327Y0237357D02*
X0311324Y0237357D01*
X0314327Y0235356D01*
X0311324Y0235356D01*
X0311825Y0234135D02*
X0312826Y0234135D01*
X0312826Y0233134D01*
X0313827Y0234135D02*
X0314327Y0233634D01*
X0314327Y0232633D01*
X0313827Y0232133D01*
X0311825Y0232133D01*
X0311324Y0232633D01*
X0311324Y0233634D01*
X0311825Y0234135D01*
X0311950Y0230455D02*
X0311449Y0229955D01*
X0311449Y0228954D01*
X0311950Y0228453D01*
X0312450Y0227232D02*
X0314452Y0227232D01*
X0313952Y0228453D02*
X0314452Y0228954D01*
X0314452Y0229955D01*
X0313952Y0230455D01*
X0313451Y0230455D01*
X0312951Y0229955D01*
X0312450Y0230455D01*
X0311950Y0230455D01*
X0312951Y0229955D02*
X0312951Y0229454D01*
X0312450Y0227232D02*
X0311449Y0226232D01*
X0312450Y0225231D01*
X0314452Y0225231D01*
X0313952Y0224010D02*
X0313451Y0224010D01*
X0312951Y0223509D01*
X0312450Y0224010D01*
X0311950Y0224010D01*
X0311449Y0223509D01*
X0311449Y0222508D01*
X0311950Y0222008D01*
X0312951Y0223009D02*
X0312951Y0223509D01*
X0313952Y0224010D02*
X0314452Y0223509D01*
X0314452Y0222508D01*
X0313952Y0222008D01*
X0314452Y0220455D02*
X0312450Y0218453D01*
X0312951Y0218954D02*
X0311449Y0220455D01*
X0311449Y0218453D02*
X0314452Y0218453D01*
X0313952Y0217232D02*
X0314452Y0216732D01*
X0314452Y0215731D01*
X0313952Y0215231D01*
X0311950Y0215231D01*
X0311449Y0215731D01*
X0311449Y0216732D01*
X0311950Y0217232D01*
X0311950Y0214010D02*
X0311449Y0213509D01*
X0311449Y0212508D01*
X0311950Y0212008D01*
X0312951Y0212508D02*
X0312951Y0213509D01*
X0312450Y0214010D01*
X0311950Y0214010D01*
X0312951Y0212508D02*
X0313451Y0212008D01*
X0313952Y0212008D01*
X0314452Y0212508D01*
X0314452Y0213509D01*
X0313952Y0214010D01*
X0313952Y0210455D02*
X0314452Y0209955D01*
X0314452Y0208954D01*
X0313952Y0208453D01*
X0313451Y0208453D01*
X0312951Y0208954D01*
X0312951Y0209955D01*
X0312450Y0210455D01*
X0311950Y0210455D01*
X0311449Y0209955D01*
X0311449Y0208954D01*
X0311950Y0208453D01*
X0311950Y0207232D02*
X0313952Y0207232D01*
X0314452Y0206732D01*
X0314452Y0205731D01*
X0313952Y0205231D01*
X0311950Y0205231D01*
X0311449Y0205731D01*
X0311449Y0206732D01*
X0311950Y0207232D01*
X0311449Y0204010D02*
X0314452Y0204010D01*
X0313451Y0203009D01*
X0314452Y0202008D01*
X0311449Y0202008D01*
X0311449Y0199454D02*
X0314452Y0199454D01*
X0314452Y0198453D02*
X0314452Y0200455D01*
X0313952Y0197232D02*
X0314452Y0196732D01*
X0314452Y0195731D01*
X0313952Y0195231D01*
X0313451Y0195231D01*
X0312951Y0195731D01*
X0312951Y0196732D01*
X0312450Y0197232D01*
X0311950Y0197232D01*
X0311449Y0196732D01*
X0311449Y0195731D01*
X0311950Y0195231D01*
X0311449Y0194010D02*
X0312450Y0193009D01*
X0312450Y0193509D02*
X0312450Y0192008D01*
X0311449Y0192008D02*
X0314452Y0192008D01*
X0314452Y0193509D01*
X0313952Y0194010D01*
X0312951Y0194010D01*
X0312450Y0193509D01*
X0313952Y0188955D02*
X0311950Y0186953D01*
X0311449Y0186953D01*
X0311950Y0185732D02*
X0313952Y0185732D01*
X0314452Y0185232D01*
X0314452Y0183731D01*
X0311449Y0183731D01*
X0311449Y0185232D01*
X0311950Y0185732D01*
X0314452Y0186953D02*
X0314452Y0188955D01*
X0313952Y0188955D01*
X0314452Y0178955D02*
X0313952Y0177954D01*
X0312951Y0176953D01*
X0312951Y0178455D01*
X0312450Y0178955D01*
X0311950Y0178955D01*
X0311449Y0178455D01*
X0311449Y0177454D01*
X0311950Y0176953D01*
X0312951Y0176953D01*
X0311950Y0175732D02*
X0313952Y0175732D01*
X0314452Y0175232D01*
X0314452Y0173731D01*
X0311449Y0173731D01*
X0311449Y0175232D01*
X0311950Y0175732D01*
X0308588Y0169581D02*
X0309088Y0169081D01*
X0309088Y0168580D01*
X0308588Y0168080D01*
X0307587Y0168080D01*
X0307087Y0167580D01*
X0307087Y0167079D01*
X0307587Y0166579D01*
X0308588Y0166579D01*
X0309088Y0167079D01*
X0308588Y0169581D02*
X0307587Y0169581D01*
X0307087Y0169081D01*
X0305866Y0169581D02*
X0304364Y0169581D01*
X0303864Y0169081D01*
X0303864Y0168080D01*
X0304364Y0167580D01*
X0305866Y0167580D01*
X0305866Y0166579D02*
X0305866Y0169581D01*
X0302643Y0169581D02*
X0301642Y0169581D01*
X0302142Y0169581D02*
X0302142Y0166579D01*
X0301642Y0166579D02*
X0302643Y0166579D01*
X0297338Y0181454D02*
X0296337Y0181454D01*
X0296838Y0181454D02*
X0296838Y0184456D01*
X0297338Y0184456D02*
X0296337Y0184456D01*
X0295190Y0183956D02*
X0294689Y0184456D01*
X0293688Y0184456D01*
X0293188Y0183956D01*
X0293188Y0183455D01*
X0295190Y0181454D01*
X0293188Y0181454D01*
X0291967Y0181954D02*
X0291967Y0183956D01*
X0291467Y0184456D01*
X0290466Y0184456D01*
X0289965Y0183956D01*
X0289965Y0181954D02*
X0290466Y0181454D01*
X0291467Y0181454D01*
X0291967Y0181954D01*
X0286952Y0187258D02*
X0286451Y0187258D01*
X0285951Y0187758D01*
X0285951Y0188759D01*
X0285450Y0189260D01*
X0284950Y0189260D01*
X0284449Y0188759D01*
X0284449Y0187758D01*
X0284950Y0187258D01*
X0286952Y0187258D02*
X0287452Y0187758D01*
X0287452Y0188759D01*
X0286952Y0189260D01*
X0287452Y0190481D02*
X0287452Y0191982D01*
X0286952Y0192482D01*
X0284950Y0192482D01*
X0284449Y0191982D01*
X0284449Y0190481D01*
X0287452Y0190481D01*
X0286451Y0193703D02*
X0284449Y0193703D01*
X0285951Y0193703D02*
X0285951Y0195705D01*
X0286451Y0195705D02*
X0284449Y0195705D01*
X0284950Y0197258D02*
X0284449Y0197758D01*
X0284449Y0198759D01*
X0284950Y0199260D01*
X0285450Y0199260D01*
X0285951Y0198759D01*
X0285951Y0197758D01*
X0286451Y0197258D01*
X0286952Y0197258D01*
X0287452Y0197758D01*
X0287452Y0198759D01*
X0286952Y0199260D01*
X0286952Y0200481D02*
X0284950Y0200481D01*
X0284449Y0200981D01*
X0284449Y0201982D01*
X0284950Y0202482D01*
X0284449Y0203703D02*
X0287452Y0203703D01*
X0286952Y0202482D02*
X0287452Y0201982D01*
X0287452Y0200981D01*
X0286952Y0200481D01*
X0284449Y0203703D02*
X0284449Y0205705D01*
X0284950Y0207258D02*
X0284449Y0207758D01*
X0284449Y0208759D01*
X0284950Y0209260D01*
X0285951Y0209260D01*
X0285951Y0208259D01*
X0286952Y0209260D02*
X0287452Y0208759D01*
X0287452Y0207758D01*
X0286952Y0207258D01*
X0284950Y0207258D01*
X0284449Y0210481D02*
X0287452Y0210481D01*
X0284449Y0212482D01*
X0287452Y0212482D01*
X0287452Y0213703D02*
X0287452Y0215205D01*
X0286952Y0215705D01*
X0284950Y0215705D01*
X0284449Y0215205D01*
X0284449Y0213703D01*
X0287452Y0213703D01*
X0286868Y0217190D02*
X0287368Y0217690D01*
X0287368Y0218691D01*
X0286868Y0219192D01*
X0286368Y0219192D01*
X0285867Y0218691D01*
X0285367Y0219192D01*
X0284866Y0219192D01*
X0284366Y0218691D01*
X0284366Y0217690D01*
X0284866Y0217190D01*
X0285867Y0218191D02*
X0285867Y0218691D01*
X0285367Y0220413D02*
X0284366Y0221414D01*
X0285367Y0222414D01*
X0287368Y0222414D01*
X0286868Y0223635D02*
X0287368Y0224136D01*
X0287368Y0225137D01*
X0286868Y0225637D01*
X0286368Y0225637D01*
X0285867Y0225137D01*
X0285367Y0225637D01*
X0284866Y0225637D01*
X0284366Y0225137D01*
X0284366Y0224136D01*
X0284866Y0223635D01*
X0285867Y0224636D02*
X0285867Y0225137D01*
X0285367Y0220413D02*
X0287368Y0220413D01*
X0286451Y0195705D02*
X0287452Y0194704D01*
X0286451Y0193703D01*
X0285743Y0152110D02*
X0283741Y0152110D01*
X0283241Y0151609D01*
X0283241Y0150609D01*
X0283741Y0150108D01*
X0285743Y0152110D01*
X0286243Y0151609D01*
X0286243Y0150609D01*
X0285743Y0150108D01*
X0283741Y0150108D01*
X0283741Y0148887D02*
X0283241Y0148387D01*
X0283241Y0146885D01*
X0286243Y0146885D01*
X0286243Y0148387D01*
X0285743Y0148887D01*
X0285243Y0148887D01*
X0284742Y0148387D01*
X0284742Y0146885D01*
X0284742Y0145664D02*
X0284242Y0145164D01*
X0284242Y0143663D01*
X0283241Y0143663D02*
X0286243Y0143663D01*
X0286243Y0145164D01*
X0285743Y0145664D01*
X0284742Y0145664D01*
X0284742Y0148387D02*
X0284242Y0148887D01*
X0283741Y0148887D01*
X0283741Y0142442D02*
X0284742Y0142442D01*
X0284742Y0141441D01*
X0283741Y0142442D02*
X0283241Y0141941D01*
X0283241Y0140940D01*
X0283741Y0140440D01*
X0285743Y0140440D01*
X0286243Y0140940D01*
X0286243Y0141941D01*
X0285743Y0142442D01*
X0311099Y0138709D02*
X0311099Y0061937D01*
X0301243Y0061398D02*
X0301243Y0060397D01*
X0300743Y0059897D01*
X0299742Y0060898D02*
X0299742Y0061398D01*
X0299242Y0061898D01*
X0298741Y0061898D01*
X0298241Y0061398D01*
X0298241Y0060397D01*
X0298741Y0059897D01*
X0299742Y0061398D02*
X0300243Y0061898D01*
X0300743Y0061898D01*
X0301243Y0061398D01*
X0301243Y0063119D02*
X0299242Y0063119D01*
X0298241Y0064120D01*
X0299242Y0065121D01*
X0301243Y0065121D01*
X0300743Y0066342D02*
X0301243Y0066843D01*
X0301243Y0067843D01*
X0300743Y0068344D01*
X0300243Y0068344D01*
X0299742Y0067843D01*
X0299242Y0068344D01*
X0298741Y0068344D01*
X0298241Y0067843D01*
X0298241Y0066843D01*
X0298741Y0066342D01*
X0299742Y0067343D02*
X0299742Y0067843D01*
X0312595Y0078433D02*
X0312595Y0123433D01*
X0327595Y0123433D01*
X0327595Y0078433D01*
X0312595Y0078433D01*
X0327595Y0081433D02*
X0347595Y0081433D01*
X0347809Y0081405D01*
X0348024Y0081382D01*
X0348240Y0081365D01*
X0348456Y0081353D01*
X0348672Y0081346D01*
X0348888Y0081344D01*
X0349105Y0081348D01*
X0349321Y0081357D01*
X0349536Y0081371D01*
X0349752Y0081391D01*
X0349967Y0081415D01*
X0350181Y0081446D01*
X0350394Y0081481D01*
X0350607Y0081521D01*
X0350818Y0081567D01*
X0351028Y0081618D01*
X0351237Y0081674D01*
X0351445Y0081735D01*
X0351650Y0081801D01*
X0351855Y0081872D01*
X0352057Y0081948D01*
X0352258Y0082029D01*
X0352456Y0082115D01*
X0352652Y0082206D01*
X0352846Y0082302D01*
X0353038Y0082402D01*
X0353227Y0082507D01*
X0353414Y0082616D01*
X0353597Y0082730D01*
X0353778Y0082849D01*
X0353956Y0082972D01*
X0354131Y0083099D01*
X0354303Y0083230D01*
X0354471Y0083366D01*
X0354636Y0083506D01*
X0354798Y0083649D01*
X0354956Y0083797D01*
X0355110Y0083948D01*
X0355261Y0084103D01*
X0355408Y0084262D01*
X0355551Y0084424D01*
X0355690Y0084590D01*
X0355824Y0084759D01*
X0355955Y0084932D01*
X0356081Y0085107D01*
X0356203Y0085286D01*
X0356321Y0085467D01*
X0356434Y0085652D01*
X0356543Y0085839D01*
X0356647Y0086028D01*
X0356746Y0086220D01*
X0356841Y0086415D01*
X0356930Y0086612D01*
X0357015Y0086810D01*
X0357095Y0087011D01*
X0357170Y0087214D01*
X0357241Y0087419D01*
X0357306Y0087625D01*
X0357366Y0087833D01*
X0357421Y0088042D01*
X0357471Y0088252D01*
X0357515Y0088464D01*
X0357555Y0088677D01*
X0357589Y0088890D01*
X0357618Y0089104D01*
X0357642Y0089319D01*
X0357660Y0089535D01*
X0357673Y0089751D01*
X0357681Y0089967D01*
X0357684Y0090183D01*
X0357681Y0090399D01*
X0357673Y0090615D01*
X0357660Y0090831D01*
X0357642Y0091047D01*
X0357618Y0091262D01*
X0357589Y0091476D01*
X0357555Y0091689D01*
X0357515Y0091902D01*
X0357471Y0092114D01*
X0357421Y0092324D01*
X0357366Y0092533D01*
X0357306Y0092741D01*
X0357241Y0092947D01*
X0357170Y0093152D01*
X0357095Y0093355D01*
X0357015Y0093556D01*
X0356930Y0093754D01*
X0356841Y0093951D01*
X0356746Y0094146D01*
X0356647Y0094338D01*
X0356543Y0094527D01*
X0356434Y0094714D01*
X0356321Y0094899D01*
X0356203Y0095080D01*
X0356081Y0095259D01*
X0355955Y0095434D01*
X0355824Y0095607D01*
X0355690Y0095776D01*
X0355551Y0095942D01*
X0355408Y0096104D01*
X0355261Y0096263D01*
X0355110Y0096418D01*
X0354956Y0096569D01*
X0354798Y0096717D01*
X0354636Y0096860D01*
X0354471Y0097000D01*
X0354303Y0097136D01*
X0354131Y0097267D01*
X0353956Y0097394D01*
X0353778Y0097517D01*
X0353597Y0097636D01*
X0353414Y0097750D01*
X0353227Y0097859D01*
X0353038Y0097964D01*
X0352846Y0098064D01*
X0352652Y0098160D01*
X0352456Y0098251D01*
X0352258Y0098337D01*
X0352057Y0098418D01*
X0351855Y0098494D01*
X0351650Y0098565D01*
X0351445Y0098631D01*
X0351237Y0098692D01*
X0351028Y0098748D01*
X0350818Y0098799D01*
X0350607Y0098845D01*
X0350394Y0098885D01*
X0350181Y0098920D01*
X0349967Y0098951D01*
X0349752Y0098975D01*
X0349536Y0098995D01*
X0349321Y0099009D01*
X0349105Y0099018D01*
X0348888Y0099022D01*
X0348672Y0099020D01*
X0348456Y0099013D01*
X0348240Y0099001D01*
X0348024Y0098984D01*
X0347809Y0098961D01*
X0347595Y0098933D01*
X0327595Y0098933D01*
X0327382Y0098930D01*
X0327169Y0098923D01*
X0326956Y0098910D01*
X0326744Y0098892D01*
X0326532Y0098868D01*
X0326321Y0098840D01*
X0326111Y0098806D01*
X0325901Y0098767D01*
X0325692Y0098724D01*
X0325485Y0098675D01*
X0325279Y0098621D01*
X0325074Y0098562D01*
X0324871Y0098498D01*
X0324669Y0098429D01*
X0324469Y0098356D01*
X0324271Y0098277D01*
X0324075Y0098194D01*
X0323881Y0098106D01*
X0323689Y0098013D01*
X0323500Y0097915D01*
X0323313Y0097813D01*
X0323128Y0097707D01*
X0322946Y0097596D01*
X0322767Y0097480D01*
X0322591Y0097361D01*
X0322417Y0097237D01*
X0322247Y0097109D01*
X0322080Y0096976D01*
X0321916Y0096840D01*
X0321756Y0096700D01*
X0321599Y0096556D01*
X0321446Y0096408D01*
X0321296Y0096256D01*
X0321150Y0096101D01*
X0321008Y0095942D01*
X0320869Y0095780D01*
X0320735Y0095615D01*
X0320605Y0095446D01*
X0320479Y0095274D01*
X0320357Y0095099D01*
X0320239Y0094922D01*
X0320126Y0094741D01*
X0320017Y0094558D01*
X0319913Y0094372D01*
X0319813Y0094184D01*
X0319718Y0093993D01*
X0319628Y0093800D01*
X0319542Y0093605D01*
X0319461Y0093408D01*
X0319385Y0093209D01*
X0319314Y0093008D01*
X0319247Y0092806D01*
X0319186Y0092602D01*
X0319130Y0092396D01*
X0319078Y0092189D01*
X0319032Y0091981D01*
X0318991Y0091772D01*
X0318954Y0091562D01*
X0318923Y0091352D01*
X0318897Y0091140D01*
X0318877Y0090928D01*
X0318861Y0090715D01*
X0318851Y0090503D01*
X0318846Y0090290D01*
X0318846Y0090076D01*
X0318851Y0089863D01*
X0318861Y0089651D01*
X0318877Y0089438D01*
X0318897Y0089226D01*
X0318923Y0089014D01*
X0318954Y0088804D01*
X0318991Y0088594D01*
X0319032Y0088385D01*
X0319078Y0088177D01*
X0319130Y0087970D01*
X0319186Y0087764D01*
X0319247Y0087560D01*
X0319314Y0087358D01*
X0319385Y0087157D01*
X0319461Y0086958D01*
X0319542Y0086761D01*
X0319628Y0086566D01*
X0319718Y0086373D01*
X0319813Y0086182D01*
X0319913Y0085994D01*
X0320017Y0085808D01*
X0320126Y0085625D01*
X0320239Y0085444D01*
X0320357Y0085267D01*
X0320479Y0085092D01*
X0320605Y0084920D01*
X0320735Y0084751D01*
X0320869Y0084586D01*
X0321008Y0084424D01*
X0321150Y0084265D01*
X0321296Y0084110D01*
X0321446Y0083958D01*
X0321599Y0083810D01*
X0321756Y0083666D01*
X0321916Y0083526D01*
X0322080Y0083390D01*
X0322247Y0083257D01*
X0322417Y0083129D01*
X0322591Y0083005D01*
X0322767Y0082886D01*
X0322946Y0082770D01*
X0323128Y0082659D01*
X0323313Y0082553D01*
X0323500Y0082451D01*
X0323689Y0082353D01*
X0323881Y0082260D01*
X0324075Y0082172D01*
X0324271Y0082089D01*
X0324469Y0082010D01*
X0324669Y0081937D01*
X0324871Y0081868D01*
X0325074Y0081804D01*
X0325279Y0081745D01*
X0325485Y0081691D01*
X0325692Y0081642D01*
X0325901Y0081599D01*
X0326111Y0081560D01*
X0326321Y0081526D01*
X0326532Y0081498D01*
X0326744Y0081474D01*
X0326956Y0081456D01*
X0327169Y0081443D01*
X0327382Y0081436D01*
X0327595Y0081433D01*
X0323415Y0063433D02*
X0323418Y0063707D01*
X0323428Y0063982D01*
X0323445Y0064255D01*
X0323469Y0064529D01*
X0323499Y0064802D01*
X0323536Y0065073D01*
X0323580Y0065344D01*
X0323630Y0065614D01*
X0323687Y0065883D01*
X0323750Y0066150D01*
X0323820Y0066415D01*
X0323896Y0066678D01*
X0323979Y0066940D01*
X0324069Y0067199D01*
X0324164Y0067457D01*
X0324266Y0067711D01*
X0324374Y0067964D01*
X0324488Y0068213D01*
X0324609Y0068460D01*
X0324735Y0068703D01*
X0324867Y0068944D01*
X0325006Y0069181D01*
X0325150Y0069414D01*
X0325299Y0069644D01*
X0325454Y0069871D01*
X0325615Y0070093D01*
X0325781Y0070311D01*
X0325953Y0070526D01*
X0326129Y0070735D01*
X0326311Y0070941D01*
X0326498Y0071142D01*
X0326690Y0071338D01*
X0326886Y0071530D01*
X0327087Y0071717D01*
X0327293Y0071899D01*
X0327502Y0072075D01*
X0327717Y0072247D01*
X0327935Y0072413D01*
X0328157Y0072574D01*
X0328384Y0072729D01*
X0328614Y0072878D01*
X0328847Y0073022D01*
X0329084Y0073161D01*
X0329325Y0073293D01*
X0329568Y0073419D01*
X0329815Y0073540D01*
X0330064Y0073654D01*
X0330317Y0073762D01*
X0330571Y0073864D01*
X0330829Y0073959D01*
X0331088Y0074049D01*
X0331350Y0074132D01*
X0331613Y0074208D01*
X0331878Y0074278D01*
X0332145Y0074341D01*
X0332414Y0074398D01*
X0332684Y0074448D01*
X0332955Y0074492D01*
X0333226Y0074529D01*
X0333499Y0074559D01*
X0333773Y0074583D01*
X0334046Y0074600D01*
X0334321Y0074610D01*
X0334595Y0074613D01*
X0334869Y0074610D01*
X0335144Y0074600D01*
X0335417Y0074583D01*
X0335691Y0074559D01*
X0335964Y0074529D01*
X0336235Y0074492D01*
X0336506Y0074448D01*
X0336776Y0074398D01*
X0337045Y0074341D01*
X0337312Y0074278D01*
X0337577Y0074208D01*
X0337840Y0074132D01*
X0338102Y0074049D01*
X0338361Y0073959D01*
X0338619Y0073864D01*
X0338873Y0073762D01*
X0339126Y0073654D01*
X0339375Y0073540D01*
X0339622Y0073419D01*
X0339865Y0073293D01*
X0340106Y0073161D01*
X0340343Y0073022D01*
X0340576Y0072878D01*
X0340806Y0072729D01*
X0341033Y0072574D01*
X0341255Y0072413D01*
X0341473Y0072247D01*
X0341688Y0072075D01*
X0341897Y0071899D01*
X0342103Y0071717D01*
X0342304Y0071530D01*
X0342500Y0071338D01*
X0342692Y0071142D01*
X0342879Y0070941D01*
X0343061Y0070735D01*
X0343237Y0070526D01*
X0343409Y0070311D01*
X0343575Y0070093D01*
X0343736Y0069871D01*
X0343891Y0069644D01*
X0344040Y0069414D01*
X0344184Y0069181D01*
X0344323Y0068944D01*
X0344455Y0068703D01*
X0344581Y0068460D01*
X0344702Y0068213D01*
X0344816Y0067964D01*
X0344924Y0067711D01*
X0345026Y0067457D01*
X0345121Y0067199D01*
X0345211Y0066940D01*
X0345294Y0066678D01*
X0345370Y0066415D01*
X0345440Y0066150D01*
X0345503Y0065883D01*
X0345560Y0065614D01*
X0345610Y0065344D01*
X0345654Y0065073D01*
X0345691Y0064802D01*
X0345721Y0064529D01*
X0345745Y0064255D01*
X0345762Y0063982D01*
X0345772Y0063707D01*
X0345775Y0063433D01*
X0345772Y0063159D01*
X0345762Y0062884D01*
X0345745Y0062611D01*
X0345721Y0062337D01*
X0345691Y0062064D01*
X0345654Y0061793D01*
X0345610Y0061522D01*
X0345560Y0061252D01*
X0345503Y0060983D01*
X0345440Y0060716D01*
X0345370Y0060451D01*
X0345294Y0060188D01*
X0345211Y0059926D01*
X0345121Y0059667D01*
X0345026Y0059409D01*
X0344924Y0059155D01*
X0344816Y0058902D01*
X0344702Y0058653D01*
X0344581Y0058406D01*
X0344455Y0058163D01*
X0344323Y0057922D01*
X0344184Y0057685D01*
X0344040Y0057452D01*
X0343891Y0057222D01*
X0343736Y0056995D01*
X0343575Y0056773D01*
X0343409Y0056555D01*
X0343237Y0056340D01*
X0343061Y0056131D01*
X0342879Y0055925D01*
X0342692Y0055724D01*
X0342500Y0055528D01*
X0342304Y0055336D01*
X0342103Y0055149D01*
X0341897Y0054967D01*
X0341688Y0054791D01*
X0341473Y0054619D01*
X0341255Y0054453D01*
X0341033Y0054292D01*
X0340806Y0054137D01*
X0340576Y0053988D01*
X0340343Y0053844D01*
X0340106Y0053705D01*
X0339865Y0053573D01*
X0339622Y0053447D01*
X0339375Y0053326D01*
X0339126Y0053212D01*
X0338873Y0053104D01*
X0338619Y0053002D01*
X0338361Y0052907D01*
X0338102Y0052817D01*
X0337840Y0052734D01*
X0337577Y0052658D01*
X0337312Y0052588D01*
X0337045Y0052525D01*
X0336776Y0052468D01*
X0336506Y0052418D01*
X0336235Y0052374D01*
X0335964Y0052337D01*
X0335691Y0052307D01*
X0335417Y0052283D01*
X0335144Y0052266D01*
X0334869Y0052256D01*
X0334595Y0052253D01*
X0334321Y0052256D01*
X0334046Y0052266D01*
X0333773Y0052283D01*
X0333499Y0052307D01*
X0333226Y0052337D01*
X0332955Y0052374D01*
X0332684Y0052418D01*
X0332414Y0052468D01*
X0332145Y0052525D01*
X0331878Y0052588D01*
X0331613Y0052658D01*
X0331350Y0052734D01*
X0331088Y0052817D01*
X0330829Y0052907D01*
X0330571Y0053002D01*
X0330317Y0053104D01*
X0330064Y0053212D01*
X0329815Y0053326D01*
X0329568Y0053447D01*
X0329325Y0053573D01*
X0329084Y0053705D01*
X0328847Y0053844D01*
X0328614Y0053988D01*
X0328384Y0054137D01*
X0328157Y0054292D01*
X0327935Y0054453D01*
X0327717Y0054619D01*
X0327502Y0054791D01*
X0327293Y0054967D01*
X0327087Y0055149D01*
X0326886Y0055336D01*
X0326690Y0055528D01*
X0326498Y0055724D01*
X0326311Y0055925D01*
X0326129Y0056131D01*
X0325953Y0056340D01*
X0325781Y0056555D01*
X0325615Y0056773D01*
X0325454Y0056995D01*
X0325299Y0057222D01*
X0325150Y0057452D01*
X0325006Y0057685D01*
X0324867Y0057922D01*
X0324735Y0058163D01*
X0324609Y0058406D01*
X0324488Y0058653D01*
X0324374Y0058902D01*
X0324266Y0059155D01*
X0324164Y0059409D01*
X0324069Y0059667D01*
X0323979Y0059926D01*
X0323896Y0060188D01*
X0323820Y0060451D01*
X0323750Y0060716D01*
X0323687Y0060983D01*
X0323630Y0061252D01*
X0323580Y0061522D01*
X0323536Y0061793D01*
X0323499Y0062064D01*
X0323469Y0062337D01*
X0323445Y0062611D01*
X0323428Y0062884D01*
X0323418Y0063159D01*
X0323415Y0063433D01*
X0312099Y0044937D02*
X0312099Y0107929D01*
X0301743Y0107971D02*
X0299742Y0107971D01*
X0298741Y0108972D01*
X0299742Y0109973D01*
X0301743Y0109973D01*
X0301743Y0111194D02*
X0301743Y0112195D01*
X0301743Y0111694D02*
X0298741Y0111694D01*
X0298741Y0111194D02*
X0298741Y0112195D01*
X0298741Y0113342D02*
X0301743Y0113342D01*
X0298741Y0115344D01*
X0301743Y0115344D01*
X0291743Y0114843D02*
X0291743Y0113342D01*
X0288741Y0113342D01*
X0288741Y0114843D01*
X0289241Y0115344D01*
X0291243Y0115344D01*
X0291743Y0114843D01*
X0291743Y0112121D02*
X0288741Y0112121D01*
X0291743Y0110119D01*
X0288741Y0110119D01*
X0289241Y0108898D02*
X0288741Y0108398D01*
X0288741Y0107397D01*
X0289241Y0106897D01*
X0291243Y0106897D01*
X0291743Y0107397D01*
X0291743Y0108398D01*
X0291243Y0108898D01*
X0290242Y0108898D02*
X0290242Y0107898D01*
X0290242Y0108898D02*
X0289241Y0108898D01*
X0273243Y0068344D02*
X0271241Y0068344D01*
X0270741Y0067843D01*
X0270741Y0066342D01*
X0273743Y0066342D01*
X0273743Y0067843D01*
X0273243Y0068344D01*
X0273743Y0065121D02*
X0270741Y0065121D01*
X0273743Y0063119D01*
X0270741Y0063119D01*
X0271241Y0061898D02*
X0272242Y0061898D01*
X0272242Y0060898D01*
X0271241Y0061898D02*
X0270741Y0061398D01*
X0270741Y0060397D01*
X0271241Y0059897D01*
X0273243Y0059897D01*
X0273743Y0060397D01*
X0273743Y0061398D01*
X0273243Y0061898D01*
X0347595Y0108433D02*
X0347595Y0123433D01*
X0362595Y0123433D01*
X0362595Y0108433D01*
X0347595Y0108433D01*
X0373091Y0107929D02*
X0373091Y0044937D01*
X0374091Y0061937D02*
X0374091Y0138709D01*
D14*
X0370345Y0132143D02*
X0370345Y0128804D01*
X0372015Y0130474D02*
X0368675Y0130474D01*
X0369345Y0070643D02*
X0369345Y0067304D01*
X0063253Y0066793D02*
X0059149Y0069529D01*
X0063253Y0069529D01*
X0063253Y0071397D02*
X0059149Y0071397D01*
X0061201Y0071397D02*
X0061201Y0072765D01*
X0063253Y0071397D02*
X0063253Y0074133D01*
X0062569Y0082189D02*
X0059833Y0082189D01*
X0059149Y0082873D01*
X0059149Y0084241D01*
X0059833Y0084925D01*
X0059833Y0086793D02*
X0059149Y0087477D01*
X0059149Y0088845D01*
X0059833Y0089529D01*
X0062569Y0089529D01*
X0063253Y0088845D01*
X0063253Y0087477D01*
X0062569Y0086793D01*
X0059833Y0086793D01*
X0062569Y0084925D02*
X0063253Y0084241D01*
X0063253Y0082873D01*
X0062569Y0082189D01*
X0063253Y0091397D02*
X0059149Y0091397D01*
X0059149Y0094133D02*
X0063253Y0094133D01*
X0061885Y0092765D01*
X0063253Y0091397D01*
X0063253Y0106793D02*
X0059149Y0106793D01*
X0059149Y0109529D02*
X0063253Y0109529D01*
X0062569Y0111397D02*
X0059833Y0111397D01*
X0059149Y0112081D01*
X0059149Y0113449D01*
X0059833Y0114133D01*
X0062569Y0114133D01*
X0063253Y0113449D01*
X0063253Y0112081D01*
X0062569Y0111397D01*
X0059149Y0109529D02*
X0063253Y0106793D01*
X0063253Y0118482D02*
X0059149Y0118482D01*
X0060517Y0118482D02*
X0060517Y0120533D01*
X0061201Y0121217D01*
X0062569Y0121217D01*
X0063253Y0120533D01*
X0063253Y0118482D01*
X0063253Y0123085D02*
X0059149Y0123085D01*
X0061201Y0123085D02*
X0061885Y0123769D01*
X0061885Y0125137D01*
X0061201Y0125821D01*
X0059149Y0125821D01*
X0059833Y0127689D02*
X0060517Y0128373D01*
X0060517Y0130425D01*
X0061201Y0130425D02*
X0059149Y0130425D01*
X0059149Y0128373D01*
X0059833Y0127689D01*
X0061885Y0128373D02*
X0061885Y0129741D01*
X0061201Y0130425D01*
X0061201Y0132293D02*
X0060517Y0132977D01*
X0060517Y0134345D01*
X0059833Y0135029D01*
X0059149Y0134345D01*
X0059149Y0132293D01*
X0061201Y0132293D02*
X0061885Y0132977D01*
X0061885Y0135029D01*
X0061201Y0136897D02*
X0061885Y0137581D01*
X0061885Y0138949D01*
X0061201Y0139633D01*
X0060517Y0139633D01*
X0060517Y0136897D01*
X0059833Y0136897D02*
X0061201Y0136897D01*
X0059833Y0136897D02*
X0059149Y0137581D01*
X0059149Y0138949D01*
X0058649Y0142689D02*
X0062753Y0142689D01*
X0062753Y0145425D01*
X0062753Y0147293D02*
X0058649Y0147293D01*
X0060017Y0147293D02*
X0060017Y0149345D01*
X0060701Y0150029D01*
X0062069Y0150029D01*
X0062753Y0149345D01*
X0062753Y0147293D01*
X0062753Y0151897D02*
X0062753Y0154633D01*
X0062069Y0154633D01*
X0059333Y0151897D01*
X0058649Y0151897D01*
X0060701Y0144057D02*
X0060701Y0142689D01*
X0060701Y0162689D02*
X0060701Y0164057D01*
X0058649Y0162689D02*
X0062753Y0162689D01*
X0062753Y0165425D01*
X0062753Y0167293D02*
X0058649Y0167293D01*
X0060017Y0167293D02*
X0060017Y0169345D01*
X0060701Y0170029D01*
X0062069Y0170029D01*
X0062753Y0169345D01*
X0062753Y0167293D01*
X0060701Y0171897D02*
X0060701Y0173949D01*
X0060017Y0174633D01*
X0059333Y0174633D01*
X0058649Y0173949D01*
X0058649Y0172581D01*
X0059333Y0171897D01*
X0060701Y0171897D01*
X0062069Y0173265D01*
X0062753Y0174633D01*
X0062753Y0182689D02*
X0058649Y0182689D01*
X0060701Y0182689D02*
X0060701Y0184057D01*
X0062753Y0182689D02*
X0062753Y0185425D01*
X0062753Y0187293D02*
X0058649Y0187293D01*
X0060017Y0187293D02*
X0060017Y0189345D01*
X0060701Y0190029D01*
X0062069Y0190029D01*
X0062753Y0189345D01*
X0062753Y0187293D01*
X0062753Y0191897D02*
X0060701Y0191897D01*
X0061385Y0193265D01*
X0061385Y0193949D01*
X0060701Y0194633D01*
X0059333Y0194633D01*
X0058649Y0193949D01*
X0058649Y0192581D01*
X0059333Y0191897D01*
X0062753Y0191897D02*
X0062753Y0194633D01*
X0062753Y0202689D02*
X0058649Y0202689D01*
X0060701Y0202689D02*
X0060701Y0204057D01*
X0062753Y0202689D02*
X0062753Y0205425D01*
X0062753Y0207293D02*
X0062753Y0209345D01*
X0062069Y0210029D01*
X0060701Y0210029D01*
X0060017Y0209345D01*
X0060017Y0207293D01*
X0058649Y0207293D02*
X0062753Y0207293D01*
X0060701Y0211897D02*
X0060701Y0214633D01*
X0058649Y0213949D02*
X0062753Y0213949D01*
X0060701Y0211897D01*
X0060701Y0222689D02*
X0060701Y0224057D01*
X0058649Y0222689D02*
X0062753Y0222689D01*
X0062753Y0225425D01*
X0062753Y0227293D02*
X0062753Y0229345D01*
X0062069Y0230029D01*
X0060701Y0230029D01*
X0060017Y0229345D01*
X0060017Y0227293D01*
X0058649Y0227293D02*
X0062753Y0227293D01*
X0062069Y0231897D02*
X0062753Y0232581D01*
X0062753Y0233949D01*
X0062069Y0234633D01*
X0061385Y0234633D01*
X0060701Y0233949D01*
X0060017Y0234633D01*
X0059333Y0234633D01*
X0058649Y0233949D01*
X0058649Y0232581D01*
X0059333Y0231897D01*
X0060701Y0233265D02*
X0060701Y0233949D01*
X0060701Y0242689D02*
X0060701Y0244057D01*
X0058649Y0242689D02*
X0062753Y0242689D01*
X0062753Y0245425D01*
X0062753Y0247293D02*
X0058649Y0247293D01*
X0060017Y0247293D02*
X0060017Y0249345D01*
X0060701Y0250029D01*
X0062069Y0250029D01*
X0062753Y0249345D01*
X0062753Y0247293D01*
X0062069Y0251897D02*
X0062753Y0252581D01*
X0062753Y0253949D01*
X0062069Y0254633D01*
X0061385Y0254633D01*
X0058649Y0251897D01*
X0058649Y0254633D01*
X0058649Y0262689D02*
X0062753Y0262689D01*
X0062753Y0265425D01*
X0062753Y0267293D02*
X0058649Y0267293D01*
X0060017Y0267293D02*
X0060017Y0269345D01*
X0060701Y0270029D01*
X0062069Y0270029D01*
X0062753Y0269345D01*
X0062753Y0267293D01*
X0060701Y0264057D02*
X0060701Y0262689D01*
X0061385Y0271897D02*
X0062753Y0273265D01*
X0058649Y0273265D01*
X0058649Y0271897D02*
X0058649Y0274633D01*
X0059149Y0066793D02*
X0063253Y0066793D01*
D15*
X0057595Y0046433D02*
X0057595Y0288933D01*
X0057598Y0289175D01*
X0057607Y0289416D01*
X0057621Y0289657D01*
X0057642Y0289898D01*
X0057668Y0290138D01*
X0057700Y0290378D01*
X0057738Y0290617D01*
X0057781Y0290854D01*
X0057831Y0291091D01*
X0057886Y0291326D01*
X0057946Y0291560D01*
X0058013Y0291792D01*
X0058084Y0292023D01*
X0058162Y0292252D01*
X0058245Y0292479D01*
X0058333Y0292704D01*
X0058427Y0292927D01*
X0058526Y0293147D01*
X0058631Y0293365D01*
X0058740Y0293580D01*
X0058855Y0293793D01*
X0058975Y0294003D01*
X0059100Y0294209D01*
X0059230Y0294413D01*
X0059365Y0294614D01*
X0059505Y0294811D01*
X0059649Y0295005D01*
X0059798Y0295195D01*
X0059952Y0295381D01*
X0060110Y0295564D01*
X0060272Y0295743D01*
X0060439Y0295918D01*
X0060610Y0296089D01*
X0060785Y0296256D01*
X0060964Y0296418D01*
X0061147Y0296576D01*
X0061333Y0296730D01*
X0061523Y0296879D01*
X0061717Y0297023D01*
X0061914Y0297163D01*
X0062115Y0297298D01*
X0062319Y0297428D01*
X0062525Y0297553D01*
X0062735Y0297673D01*
X0062948Y0297788D01*
X0063163Y0297897D01*
X0063381Y0298002D01*
X0063601Y0298101D01*
X0063824Y0298195D01*
X0064049Y0298283D01*
X0064276Y0298366D01*
X0064505Y0298444D01*
X0064736Y0298515D01*
X0064968Y0298582D01*
X0065202Y0298642D01*
X0065437Y0298697D01*
X0065674Y0298747D01*
X0065911Y0298790D01*
X0066150Y0298828D01*
X0066390Y0298860D01*
X0066630Y0298886D01*
X0066871Y0298907D01*
X0067112Y0298921D01*
X0067353Y0298930D01*
X0067595Y0298933D01*
X0375095Y0298933D01*
X0397595Y0276433D01*
X0397595Y0058933D01*
X0375095Y0036433D01*
X0067595Y0036433D01*
X0067353Y0036436D01*
X0067112Y0036445D01*
X0066871Y0036459D01*
X0066630Y0036480D01*
X0066390Y0036506D01*
X0066150Y0036538D01*
X0065911Y0036576D01*
X0065674Y0036619D01*
X0065437Y0036669D01*
X0065202Y0036724D01*
X0064968Y0036784D01*
X0064736Y0036851D01*
X0064505Y0036922D01*
X0064276Y0037000D01*
X0064049Y0037083D01*
X0063824Y0037171D01*
X0063601Y0037265D01*
X0063381Y0037364D01*
X0063163Y0037469D01*
X0062948Y0037578D01*
X0062735Y0037693D01*
X0062525Y0037813D01*
X0062319Y0037938D01*
X0062115Y0038068D01*
X0061914Y0038203D01*
X0061717Y0038343D01*
X0061523Y0038487D01*
X0061333Y0038636D01*
X0061147Y0038790D01*
X0060964Y0038948D01*
X0060785Y0039110D01*
X0060610Y0039277D01*
X0060439Y0039448D01*
X0060272Y0039623D01*
X0060110Y0039802D01*
X0059952Y0039985D01*
X0059798Y0040171D01*
X0059649Y0040361D01*
X0059505Y0040555D01*
X0059365Y0040752D01*
X0059230Y0040953D01*
X0059100Y0041157D01*
X0058975Y0041363D01*
X0058855Y0041573D01*
X0058740Y0041786D01*
X0058631Y0042001D01*
X0058526Y0042219D01*
X0058427Y0042439D01*
X0058333Y0042662D01*
X0058245Y0042887D01*
X0058162Y0043114D01*
X0058084Y0043343D01*
X0058013Y0043574D01*
X0057946Y0043806D01*
X0057886Y0044040D01*
X0057831Y0044275D01*
X0057781Y0044512D01*
X0057738Y0044749D01*
X0057700Y0044988D01*
X0057668Y0045228D01*
X0057642Y0045468D01*
X0057621Y0045709D01*
X0057607Y0045950D01*
X0057598Y0046191D01*
X0057595Y0046433D01*
D16*
X0203205Y0152634D02*
X0203205Y0153421D01*
X0204780Y0154602D01*
X0202418Y0155390D01*
X0204780Y0156571D01*
X0203205Y0157358D01*
X0203205Y0158146D01*
X0203383Y0172772D02*
X0203383Y0173559D01*
X0204957Y0174740D01*
X0202595Y0175528D01*
X0204957Y0176709D01*
X0203383Y0177496D01*
X0203383Y0178283D01*
X0203205Y0192634D02*
X0203205Y0193421D01*
X0204780Y0194602D01*
X0202418Y0195390D01*
X0204780Y0196571D01*
X0203205Y0197358D01*
X0203205Y0198146D01*
X0203205Y0212634D02*
X0203205Y0213421D01*
X0204780Y0214602D01*
X0202418Y0215390D01*
X0204780Y0216571D01*
X0203205Y0217358D01*
X0203205Y0218146D01*
X0203205Y0232634D02*
X0203205Y0233421D01*
X0204780Y0234602D01*
X0202418Y0235390D01*
X0204780Y0236571D01*
X0203205Y0237358D01*
X0203205Y0238146D01*
X0203205Y0252634D02*
X0203205Y0253421D01*
X0204780Y0254602D01*
X0202418Y0255390D01*
X0204780Y0256571D01*
X0203205Y0257358D01*
X0203205Y0258146D01*
X0202881Y0273057D02*
X0202881Y0273844D01*
X0204455Y0275026D01*
X0202093Y0275813D01*
X0204455Y0276994D01*
X0202881Y0277781D01*
X0202881Y0278569D01*
X0281414Y0286433D02*
X0283776Y0287614D01*
X0282201Y0288402D01*
X0282201Y0289189D01*
X0281414Y0286433D02*
X0283776Y0285646D01*
X0282201Y0284465D01*
X0282201Y0283677D01*
X0306414Y0286433D02*
X0308776Y0287614D01*
X0307201Y0288402D01*
X0307201Y0289189D01*
X0306414Y0286433D02*
X0308776Y0285646D01*
X0307201Y0284465D01*
X0307201Y0283677D01*
D17*
X0173099Y0274390D02*
X0173101Y0274434D01*
X0173107Y0274478D01*
X0173117Y0274521D01*
X0173130Y0274563D01*
X0173147Y0274604D01*
X0173168Y0274643D01*
X0173192Y0274680D01*
X0173219Y0274715D01*
X0173249Y0274747D01*
X0173282Y0274777D01*
X0173318Y0274803D01*
X0173355Y0274827D01*
X0173395Y0274846D01*
X0173436Y0274863D01*
X0173479Y0274875D01*
X0173522Y0274884D01*
X0173566Y0274889D01*
X0173610Y0274890D01*
X0173654Y0274887D01*
X0173698Y0274880D01*
X0173741Y0274869D01*
X0173783Y0274855D01*
X0173823Y0274837D01*
X0173862Y0274815D01*
X0173898Y0274791D01*
X0173932Y0274763D01*
X0173964Y0274732D01*
X0173993Y0274698D01*
X0174019Y0274662D01*
X0174041Y0274624D01*
X0174060Y0274584D01*
X0174075Y0274542D01*
X0174087Y0274500D01*
X0174095Y0274456D01*
X0174099Y0274412D01*
X0174099Y0274368D01*
X0174095Y0274324D01*
X0174087Y0274280D01*
X0174075Y0274238D01*
X0174060Y0274196D01*
X0174041Y0274156D01*
X0174019Y0274118D01*
X0173993Y0274082D01*
X0173964Y0274048D01*
X0173932Y0274017D01*
X0173898Y0273989D01*
X0173862Y0273965D01*
X0173823Y0273943D01*
X0173783Y0273925D01*
X0173741Y0273911D01*
X0173698Y0273900D01*
X0173654Y0273893D01*
X0173610Y0273890D01*
X0173566Y0273891D01*
X0173522Y0273896D01*
X0173479Y0273905D01*
X0173436Y0273917D01*
X0173395Y0273934D01*
X0173355Y0273953D01*
X0173318Y0273977D01*
X0173282Y0274003D01*
X0173249Y0274033D01*
X0173219Y0274065D01*
X0173192Y0274100D01*
X0173168Y0274137D01*
X0173147Y0274176D01*
X0173130Y0274217D01*
X0173117Y0274259D01*
X0173107Y0274302D01*
X0173101Y0274346D01*
X0173099Y0274390D01*
X0173099Y0254390D02*
X0173101Y0254434D01*
X0173107Y0254478D01*
X0173117Y0254521D01*
X0173130Y0254563D01*
X0173147Y0254604D01*
X0173168Y0254643D01*
X0173192Y0254680D01*
X0173219Y0254715D01*
X0173249Y0254747D01*
X0173282Y0254777D01*
X0173318Y0254803D01*
X0173355Y0254827D01*
X0173395Y0254846D01*
X0173436Y0254863D01*
X0173479Y0254875D01*
X0173522Y0254884D01*
X0173566Y0254889D01*
X0173610Y0254890D01*
X0173654Y0254887D01*
X0173698Y0254880D01*
X0173741Y0254869D01*
X0173783Y0254855D01*
X0173823Y0254837D01*
X0173862Y0254815D01*
X0173898Y0254791D01*
X0173932Y0254763D01*
X0173964Y0254732D01*
X0173993Y0254698D01*
X0174019Y0254662D01*
X0174041Y0254624D01*
X0174060Y0254584D01*
X0174075Y0254542D01*
X0174087Y0254500D01*
X0174095Y0254456D01*
X0174099Y0254412D01*
X0174099Y0254368D01*
X0174095Y0254324D01*
X0174087Y0254280D01*
X0174075Y0254238D01*
X0174060Y0254196D01*
X0174041Y0254156D01*
X0174019Y0254118D01*
X0173993Y0254082D01*
X0173964Y0254048D01*
X0173932Y0254017D01*
X0173898Y0253989D01*
X0173862Y0253965D01*
X0173823Y0253943D01*
X0173783Y0253925D01*
X0173741Y0253911D01*
X0173698Y0253900D01*
X0173654Y0253893D01*
X0173610Y0253890D01*
X0173566Y0253891D01*
X0173522Y0253896D01*
X0173479Y0253905D01*
X0173436Y0253917D01*
X0173395Y0253934D01*
X0173355Y0253953D01*
X0173318Y0253977D01*
X0173282Y0254003D01*
X0173249Y0254033D01*
X0173219Y0254065D01*
X0173192Y0254100D01*
X0173168Y0254137D01*
X0173147Y0254176D01*
X0173130Y0254217D01*
X0173117Y0254259D01*
X0173107Y0254302D01*
X0173101Y0254346D01*
X0173099Y0254390D01*
X0173099Y0234390D02*
X0173101Y0234434D01*
X0173107Y0234478D01*
X0173117Y0234521D01*
X0173130Y0234563D01*
X0173147Y0234604D01*
X0173168Y0234643D01*
X0173192Y0234680D01*
X0173219Y0234715D01*
X0173249Y0234747D01*
X0173282Y0234777D01*
X0173318Y0234803D01*
X0173355Y0234827D01*
X0173395Y0234846D01*
X0173436Y0234863D01*
X0173479Y0234875D01*
X0173522Y0234884D01*
X0173566Y0234889D01*
X0173610Y0234890D01*
X0173654Y0234887D01*
X0173698Y0234880D01*
X0173741Y0234869D01*
X0173783Y0234855D01*
X0173823Y0234837D01*
X0173862Y0234815D01*
X0173898Y0234791D01*
X0173932Y0234763D01*
X0173964Y0234732D01*
X0173993Y0234698D01*
X0174019Y0234662D01*
X0174041Y0234624D01*
X0174060Y0234584D01*
X0174075Y0234542D01*
X0174087Y0234500D01*
X0174095Y0234456D01*
X0174099Y0234412D01*
X0174099Y0234368D01*
X0174095Y0234324D01*
X0174087Y0234280D01*
X0174075Y0234238D01*
X0174060Y0234196D01*
X0174041Y0234156D01*
X0174019Y0234118D01*
X0173993Y0234082D01*
X0173964Y0234048D01*
X0173932Y0234017D01*
X0173898Y0233989D01*
X0173862Y0233965D01*
X0173823Y0233943D01*
X0173783Y0233925D01*
X0173741Y0233911D01*
X0173698Y0233900D01*
X0173654Y0233893D01*
X0173610Y0233890D01*
X0173566Y0233891D01*
X0173522Y0233896D01*
X0173479Y0233905D01*
X0173436Y0233917D01*
X0173395Y0233934D01*
X0173355Y0233953D01*
X0173318Y0233977D01*
X0173282Y0234003D01*
X0173249Y0234033D01*
X0173219Y0234065D01*
X0173192Y0234100D01*
X0173168Y0234137D01*
X0173147Y0234176D01*
X0173130Y0234217D01*
X0173117Y0234259D01*
X0173107Y0234302D01*
X0173101Y0234346D01*
X0173099Y0234390D01*
X0173099Y0214390D02*
X0173101Y0214434D01*
X0173107Y0214478D01*
X0173117Y0214521D01*
X0173130Y0214563D01*
X0173147Y0214604D01*
X0173168Y0214643D01*
X0173192Y0214680D01*
X0173219Y0214715D01*
X0173249Y0214747D01*
X0173282Y0214777D01*
X0173318Y0214803D01*
X0173355Y0214827D01*
X0173395Y0214846D01*
X0173436Y0214863D01*
X0173479Y0214875D01*
X0173522Y0214884D01*
X0173566Y0214889D01*
X0173610Y0214890D01*
X0173654Y0214887D01*
X0173698Y0214880D01*
X0173741Y0214869D01*
X0173783Y0214855D01*
X0173823Y0214837D01*
X0173862Y0214815D01*
X0173898Y0214791D01*
X0173932Y0214763D01*
X0173964Y0214732D01*
X0173993Y0214698D01*
X0174019Y0214662D01*
X0174041Y0214624D01*
X0174060Y0214584D01*
X0174075Y0214542D01*
X0174087Y0214500D01*
X0174095Y0214456D01*
X0174099Y0214412D01*
X0174099Y0214368D01*
X0174095Y0214324D01*
X0174087Y0214280D01*
X0174075Y0214238D01*
X0174060Y0214196D01*
X0174041Y0214156D01*
X0174019Y0214118D01*
X0173993Y0214082D01*
X0173964Y0214048D01*
X0173932Y0214017D01*
X0173898Y0213989D01*
X0173862Y0213965D01*
X0173823Y0213943D01*
X0173783Y0213925D01*
X0173741Y0213911D01*
X0173698Y0213900D01*
X0173654Y0213893D01*
X0173610Y0213890D01*
X0173566Y0213891D01*
X0173522Y0213896D01*
X0173479Y0213905D01*
X0173436Y0213917D01*
X0173395Y0213934D01*
X0173355Y0213953D01*
X0173318Y0213977D01*
X0173282Y0214003D01*
X0173249Y0214033D01*
X0173219Y0214065D01*
X0173192Y0214100D01*
X0173168Y0214137D01*
X0173147Y0214176D01*
X0173130Y0214217D01*
X0173117Y0214259D01*
X0173107Y0214302D01*
X0173101Y0214346D01*
X0173099Y0214390D01*
X0173099Y0194390D02*
X0173101Y0194434D01*
X0173107Y0194478D01*
X0173117Y0194521D01*
X0173130Y0194563D01*
X0173147Y0194604D01*
X0173168Y0194643D01*
X0173192Y0194680D01*
X0173219Y0194715D01*
X0173249Y0194747D01*
X0173282Y0194777D01*
X0173318Y0194803D01*
X0173355Y0194827D01*
X0173395Y0194846D01*
X0173436Y0194863D01*
X0173479Y0194875D01*
X0173522Y0194884D01*
X0173566Y0194889D01*
X0173610Y0194890D01*
X0173654Y0194887D01*
X0173698Y0194880D01*
X0173741Y0194869D01*
X0173783Y0194855D01*
X0173823Y0194837D01*
X0173862Y0194815D01*
X0173898Y0194791D01*
X0173932Y0194763D01*
X0173964Y0194732D01*
X0173993Y0194698D01*
X0174019Y0194662D01*
X0174041Y0194624D01*
X0174060Y0194584D01*
X0174075Y0194542D01*
X0174087Y0194500D01*
X0174095Y0194456D01*
X0174099Y0194412D01*
X0174099Y0194368D01*
X0174095Y0194324D01*
X0174087Y0194280D01*
X0174075Y0194238D01*
X0174060Y0194196D01*
X0174041Y0194156D01*
X0174019Y0194118D01*
X0173993Y0194082D01*
X0173964Y0194048D01*
X0173932Y0194017D01*
X0173898Y0193989D01*
X0173862Y0193965D01*
X0173823Y0193943D01*
X0173783Y0193925D01*
X0173741Y0193911D01*
X0173698Y0193900D01*
X0173654Y0193893D01*
X0173610Y0193890D01*
X0173566Y0193891D01*
X0173522Y0193896D01*
X0173479Y0193905D01*
X0173436Y0193917D01*
X0173395Y0193934D01*
X0173355Y0193953D01*
X0173318Y0193977D01*
X0173282Y0194003D01*
X0173249Y0194033D01*
X0173219Y0194065D01*
X0173192Y0194100D01*
X0173168Y0194137D01*
X0173147Y0194176D01*
X0173130Y0194217D01*
X0173117Y0194259D01*
X0173107Y0194302D01*
X0173101Y0194346D01*
X0173099Y0194390D01*
X0173099Y0174390D02*
X0173101Y0174434D01*
X0173107Y0174478D01*
X0173117Y0174521D01*
X0173130Y0174563D01*
X0173147Y0174604D01*
X0173168Y0174643D01*
X0173192Y0174680D01*
X0173219Y0174715D01*
X0173249Y0174747D01*
X0173282Y0174777D01*
X0173318Y0174803D01*
X0173355Y0174827D01*
X0173395Y0174846D01*
X0173436Y0174863D01*
X0173479Y0174875D01*
X0173522Y0174884D01*
X0173566Y0174889D01*
X0173610Y0174890D01*
X0173654Y0174887D01*
X0173698Y0174880D01*
X0173741Y0174869D01*
X0173783Y0174855D01*
X0173823Y0174837D01*
X0173862Y0174815D01*
X0173898Y0174791D01*
X0173932Y0174763D01*
X0173964Y0174732D01*
X0173993Y0174698D01*
X0174019Y0174662D01*
X0174041Y0174624D01*
X0174060Y0174584D01*
X0174075Y0174542D01*
X0174087Y0174500D01*
X0174095Y0174456D01*
X0174099Y0174412D01*
X0174099Y0174368D01*
X0174095Y0174324D01*
X0174087Y0174280D01*
X0174075Y0174238D01*
X0174060Y0174196D01*
X0174041Y0174156D01*
X0174019Y0174118D01*
X0173993Y0174082D01*
X0173964Y0174048D01*
X0173932Y0174017D01*
X0173898Y0173989D01*
X0173862Y0173965D01*
X0173823Y0173943D01*
X0173783Y0173925D01*
X0173741Y0173911D01*
X0173698Y0173900D01*
X0173654Y0173893D01*
X0173610Y0173890D01*
X0173566Y0173891D01*
X0173522Y0173896D01*
X0173479Y0173905D01*
X0173436Y0173917D01*
X0173395Y0173934D01*
X0173355Y0173953D01*
X0173318Y0173977D01*
X0173282Y0174003D01*
X0173249Y0174033D01*
X0173219Y0174065D01*
X0173192Y0174100D01*
X0173168Y0174137D01*
X0173147Y0174176D01*
X0173130Y0174217D01*
X0173117Y0174259D01*
X0173107Y0174302D01*
X0173101Y0174346D01*
X0173099Y0174390D01*
X0173099Y0154705D02*
X0173101Y0154749D01*
X0173107Y0154793D01*
X0173117Y0154836D01*
X0173130Y0154878D01*
X0173147Y0154919D01*
X0173168Y0154958D01*
X0173192Y0154995D01*
X0173219Y0155030D01*
X0173249Y0155062D01*
X0173282Y0155092D01*
X0173318Y0155118D01*
X0173355Y0155142D01*
X0173395Y0155161D01*
X0173436Y0155178D01*
X0173479Y0155190D01*
X0173522Y0155199D01*
X0173566Y0155204D01*
X0173610Y0155205D01*
X0173654Y0155202D01*
X0173698Y0155195D01*
X0173741Y0155184D01*
X0173783Y0155170D01*
X0173823Y0155152D01*
X0173862Y0155130D01*
X0173898Y0155106D01*
X0173932Y0155078D01*
X0173964Y0155047D01*
X0173993Y0155013D01*
X0174019Y0154977D01*
X0174041Y0154939D01*
X0174060Y0154899D01*
X0174075Y0154857D01*
X0174087Y0154815D01*
X0174095Y0154771D01*
X0174099Y0154727D01*
X0174099Y0154683D01*
X0174095Y0154639D01*
X0174087Y0154595D01*
X0174075Y0154553D01*
X0174060Y0154511D01*
X0174041Y0154471D01*
X0174019Y0154433D01*
X0173993Y0154397D01*
X0173964Y0154363D01*
X0173932Y0154332D01*
X0173898Y0154304D01*
X0173862Y0154280D01*
X0173823Y0154258D01*
X0173783Y0154240D01*
X0173741Y0154226D01*
X0173698Y0154215D01*
X0173654Y0154208D01*
X0173610Y0154205D01*
X0173566Y0154206D01*
X0173522Y0154211D01*
X0173479Y0154220D01*
X0173436Y0154232D01*
X0173395Y0154249D01*
X0173355Y0154268D01*
X0173318Y0154292D01*
X0173282Y0154318D01*
X0173249Y0154348D01*
X0173219Y0154380D01*
X0173192Y0154415D01*
X0173168Y0154452D01*
X0173147Y0154491D01*
X0173130Y0154532D01*
X0173117Y0154574D01*
X0173107Y0154617D01*
X0173101Y0154661D01*
X0173099Y0154705D01*
D18*
X0350598Y0054574D02*
X0350598Y0050638D01*
X0356629Y0054106D02*
X0360566Y0054106D01*
X0358598Y0052138D02*
X0358598Y0056074D01*
D19*
X0361485Y0068174D02*
X0363353Y0068174D01*
X0364287Y0069108D01*
X0363353Y0070042D01*
X0361485Y0070042D01*
X0361485Y0071397D02*
X0364287Y0071397D01*
X0361485Y0073265D01*
X0364287Y0073265D01*
X0364287Y0074619D02*
X0364287Y0076488D01*
X0364287Y0075553D02*
X0361485Y0075553D01*
X0362886Y0070042D02*
X0362886Y0068174D01*
D20*
X0256772Y0086254D02*
X0252326Y0085802D01*
X0252034Y0084797D01*
X0251634Y0083830D01*
X0251129Y0082913D01*
X0253953Y0079450D01*
X0251579Y0077075D01*
X0248115Y0079899D01*
X0247433Y0079511D01*
X0246721Y0079181D01*
X0244743Y0083955D01*
X0245386Y0084287D01*
X0245965Y0084722D01*
X0246462Y0085248D01*
X0246864Y0085850D01*
X0247160Y0086511D01*
X0247341Y0087212D01*
X0247401Y0087933D01*
X0247326Y0088737D01*
X0247101Y0089513D01*
X0246736Y0090233D01*
X0246242Y0090872D01*
X0245638Y0091408D01*
X0244945Y0091822D01*
X0244186Y0092099D01*
X0243389Y0092229D01*
X0242582Y0092209D01*
X0241793Y0092038D01*
X0241049Y0091722D01*
X0240378Y0091274D01*
X0239802Y0090707D01*
X0239342Y0090044D01*
X0239014Y0089306D01*
X0238829Y0088520D01*
X0238795Y0087713D01*
X0238911Y0086914D01*
X0239175Y0086150D01*
X0239577Y0085450D01*
X0240103Y0084837D01*
X0240733Y0084332D01*
X0241447Y0083955D01*
X0239470Y0079181D01*
X0238757Y0079511D01*
X0238075Y0079899D01*
X0234612Y0077075D01*
X0232237Y0079450D01*
X0235061Y0082913D01*
X0234556Y0083830D01*
X0234156Y0084797D01*
X0233864Y0085802D01*
X0229418Y0086254D01*
X0229418Y0089612D01*
X0233864Y0090064D01*
X0234156Y0091069D01*
X0234556Y0092036D01*
X0235061Y0092953D01*
X0232237Y0096417D01*
X0234612Y0098791D01*
X0238075Y0095967D01*
X0238992Y0096472D01*
X0239959Y0096872D01*
X0240964Y0097164D01*
X0241416Y0101610D01*
X0244774Y0101610D01*
X0245226Y0097164D01*
X0246231Y0096872D01*
X0247198Y0096472D01*
X0248115Y0095967D01*
X0251579Y0098791D01*
X0253953Y0096417D01*
X0251129Y0092953D01*
X0251634Y0092036D01*
X0252034Y0091069D01*
X0252326Y0090064D01*
X0256772Y0089612D01*
X0256772Y0086254D01*
X0256772Y0086503D02*
X0247156Y0086503D01*
X0247310Y0087092D02*
X0256772Y0087092D01*
X0256772Y0087682D02*
X0247380Y0087682D01*
X0247370Y0088271D02*
X0256772Y0088271D01*
X0256772Y0088860D02*
X0247290Y0088860D01*
X0247120Y0089449D02*
X0256772Y0089449D01*
X0252586Y0090038D02*
X0246835Y0090038D01*
X0246432Y0090627D02*
X0252163Y0090627D01*
X0251974Y0091216D02*
X0245855Y0091216D01*
X0244973Y0091805D02*
X0251730Y0091805D01*
X0251437Y0092394D02*
X0234753Y0092394D01*
X0235036Y0092983D02*
X0251154Y0092983D01*
X0251634Y0093572D02*
X0234556Y0093572D01*
X0234076Y0094161D02*
X0252114Y0094161D01*
X0252595Y0094750D02*
X0233596Y0094750D01*
X0233115Y0095339D02*
X0253075Y0095339D01*
X0253555Y0095928D02*
X0232635Y0095928D01*
X0232338Y0096517D02*
X0237400Y0096517D01*
X0236678Y0097107D02*
X0232927Y0097107D01*
X0233516Y0097696D02*
X0235956Y0097696D01*
X0235233Y0098285D02*
X0234105Y0098285D01*
X0239102Y0096517D02*
X0247089Y0096517D01*
X0248790Y0096517D02*
X0253852Y0096517D01*
X0253263Y0097107D02*
X0249512Y0097107D01*
X0250235Y0097696D02*
X0252674Y0097696D01*
X0252085Y0098285D02*
X0250957Y0098285D01*
X0245424Y0097107D02*
X0240766Y0097107D01*
X0241018Y0097696D02*
X0245172Y0097696D01*
X0245112Y0098285D02*
X0241078Y0098285D01*
X0241138Y0098874D02*
X0245052Y0098874D01*
X0244993Y0099463D02*
X0241198Y0099463D01*
X0241258Y0100052D02*
X0244933Y0100052D01*
X0244873Y0100641D02*
X0241317Y0100641D01*
X0241377Y0101230D02*
X0244813Y0101230D01*
X0241244Y0091805D02*
X0234460Y0091805D01*
X0234216Y0091216D02*
X0240319Y0091216D01*
X0239746Y0090627D02*
X0234028Y0090627D01*
X0233605Y0090038D02*
X0239339Y0090038D01*
X0239077Y0089449D02*
X0229418Y0089449D01*
X0229418Y0088860D02*
X0238909Y0088860D01*
X0238818Y0088271D02*
X0229418Y0088271D01*
X0229418Y0087682D02*
X0238799Y0087682D01*
X0238885Y0087092D02*
X0229418Y0087092D01*
X0229418Y0086503D02*
X0239053Y0086503D01*
X0239311Y0085914D02*
X0232759Y0085914D01*
X0234003Y0085325D02*
X0239684Y0085325D01*
X0240228Y0084736D02*
X0234181Y0084736D01*
X0234425Y0084147D02*
X0241083Y0084147D01*
X0241283Y0083558D02*
X0234706Y0083558D01*
X0235030Y0082969D02*
X0241039Y0082969D01*
X0240795Y0082380D02*
X0234626Y0082380D01*
X0234146Y0081791D02*
X0240551Y0081791D01*
X0240307Y0081202D02*
X0233666Y0081202D01*
X0233185Y0080613D02*
X0240063Y0080613D01*
X0239819Y0080024D02*
X0232705Y0080024D01*
X0232252Y0079435D02*
X0237506Y0079435D01*
X0236783Y0078846D02*
X0232841Y0078846D01*
X0233430Y0078257D02*
X0236061Y0078257D01*
X0235338Y0077667D02*
X0234019Y0077667D01*
X0234608Y0077078D02*
X0234616Y0077078D01*
X0238922Y0079435D02*
X0239575Y0079435D01*
X0245640Y0081791D02*
X0252044Y0081791D01*
X0251564Y0082380D02*
X0245396Y0082380D01*
X0245152Y0082969D02*
X0251160Y0082969D01*
X0251484Y0083558D02*
X0244907Y0083558D01*
X0245116Y0084147D02*
X0251765Y0084147D01*
X0252009Y0084736D02*
X0245978Y0084736D01*
X0246513Y0085325D02*
X0252188Y0085325D01*
X0253431Y0085914D02*
X0246893Y0085914D01*
X0245884Y0081202D02*
X0252525Y0081202D01*
X0253005Y0080613D02*
X0246128Y0080613D01*
X0246372Y0080024D02*
X0253485Y0080024D01*
X0253938Y0079435D02*
X0248685Y0079435D01*
X0249407Y0078846D02*
X0253349Y0078846D01*
X0252760Y0078257D02*
X0250129Y0078257D01*
X0250852Y0077667D02*
X0252171Y0077667D01*
X0251582Y0077078D02*
X0251574Y0077078D01*
X0247268Y0079435D02*
X0246616Y0079435D01*
M02*
