G75*
%MOIN*%
%OFA0B0*%
%FSLAX25Y25*%
%IPPOS*%
%LPD*%
%AMOC8*
5,1,8,0,0,1.08239X$1,22.5*
%
%ADD10C,0.00100*%
%ADD11R,0.07887X0.07099*%
%ADD12C,0.08200*%
%ADD13R,0.07099X0.07887*%
%ADD14R,0.08800X0.05800*%
%ADD15C,0.08600*%
%ADD16C,0.07400*%
%ADD17C,0.06000*%
%ADD18R,0.07099X0.08674*%
%ADD19C,0.06200*%
%ADD20R,0.09461X0.04934*%
%ADD21R,0.04934X0.04737*%
%ADD22R,0.07225X0.07225*%
%ADD23C,0.07225*%
%ADD24C,0.06000*%
%ADD25C,0.09068*%
%ADD26R,0.09800X0.07769*%
%ADD27R,0.05950X0.05950*%
%ADD28C,0.05950*%
%ADD29R,0.04800X0.05300*%
%ADD30C,0.07700*%
%ADD31R,0.07769X0.09800*%
%ADD32OC8,0.07400*%
%ADD33R,0.08200X0.08200*%
D10*
X0057595Y0046433D02*
X0057595Y0288933D01*
X0057598Y0289175D01*
X0057607Y0289416D01*
X0057621Y0289657D01*
X0057642Y0289898D01*
X0057668Y0290138D01*
X0057700Y0290378D01*
X0057738Y0290617D01*
X0057781Y0290854D01*
X0057831Y0291091D01*
X0057886Y0291326D01*
X0057946Y0291560D01*
X0058013Y0291792D01*
X0058084Y0292023D01*
X0058162Y0292252D01*
X0058245Y0292479D01*
X0058333Y0292704D01*
X0058427Y0292927D01*
X0058526Y0293147D01*
X0058631Y0293365D01*
X0058740Y0293580D01*
X0058855Y0293793D01*
X0058975Y0294003D01*
X0059100Y0294209D01*
X0059230Y0294413D01*
X0059365Y0294614D01*
X0059505Y0294811D01*
X0059649Y0295005D01*
X0059798Y0295195D01*
X0059952Y0295381D01*
X0060110Y0295564D01*
X0060272Y0295743D01*
X0060439Y0295918D01*
X0060610Y0296089D01*
X0060785Y0296256D01*
X0060964Y0296418D01*
X0061147Y0296576D01*
X0061333Y0296730D01*
X0061523Y0296879D01*
X0061717Y0297023D01*
X0061914Y0297163D01*
X0062115Y0297298D01*
X0062319Y0297428D01*
X0062525Y0297553D01*
X0062735Y0297673D01*
X0062948Y0297788D01*
X0063163Y0297897D01*
X0063381Y0298002D01*
X0063601Y0298101D01*
X0063824Y0298195D01*
X0064049Y0298283D01*
X0064276Y0298366D01*
X0064505Y0298444D01*
X0064736Y0298515D01*
X0064968Y0298582D01*
X0065202Y0298642D01*
X0065437Y0298697D01*
X0065674Y0298747D01*
X0065911Y0298790D01*
X0066150Y0298828D01*
X0066390Y0298860D01*
X0066630Y0298886D01*
X0066871Y0298907D01*
X0067112Y0298921D01*
X0067353Y0298930D01*
X0067595Y0298933D01*
X0375095Y0298933D01*
X0397595Y0276433D01*
X0397595Y0058933D01*
X0375095Y0036433D01*
X0067595Y0036433D01*
X0067353Y0036436D01*
X0067112Y0036445D01*
X0066871Y0036459D01*
X0066630Y0036480D01*
X0066390Y0036506D01*
X0066150Y0036538D01*
X0065911Y0036576D01*
X0065674Y0036619D01*
X0065437Y0036669D01*
X0065202Y0036724D01*
X0064968Y0036784D01*
X0064736Y0036851D01*
X0064505Y0036922D01*
X0064276Y0037000D01*
X0064049Y0037083D01*
X0063824Y0037171D01*
X0063601Y0037265D01*
X0063381Y0037364D01*
X0063163Y0037469D01*
X0062948Y0037578D01*
X0062735Y0037693D01*
X0062525Y0037813D01*
X0062319Y0037938D01*
X0062115Y0038068D01*
X0061914Y0038203D01*
X0061717Y0038343D01*
X0061523Y0038487D01*
X0061333Y0038636D01*
X0061147Y0038790D01*
X0060964Y0038948D01*
X0060785Y0039110D01*
X0060610Y0039277D01*
X0060439Y0039448D01*
X0060272Y0039623D01*
X0060110Y0039802D01*
X0059952Y0039985D01*
X0059798Y0040171D01*
X0059649Y0040361D01*
X0059505Y0040555D01*
X0059365Y0040752D01*
X0059230Y0040953D01*
X0059100Y0041157D01*
X0058975Y0041363D01*
X0058855Y0041573D01*
X0058740Y0041786D01*
X0058631Y0042001D01*
X0058526Y0042219D01*
X0058427Y0042439D01*
X0058333Y0042662D01*
X0058245Y0042887D01*
X0058162Y0043114D01*
X0058084Y0043343D01*
X0058013Y0043574D01*
X0057946Y0043806D01*
X0057886Y0044040D01*
X0057831Y0044275D01*
X0057781Y0044512D01*
X0057738Y0044749D01*
X0057700Y0044988D01*
X0057668Y0045228D01*
X0057642Y0045468D01*
X0057621Y0045709D01*
X0057607Y0045950D01*
X0057598Y0046191D01*
X0057595Y0046433D01*
D11*
X0282345Y0230921D03*
X0282345Y0241945D03*
X0338461Y0141919D03*
X0338461Y0130896D03*
X0334934Y0108803D03*
X0334934Y0097780D03*
X0337595Y0054945D03*
X0337595Y0043921D03*
D12*
X0300883Y0053539D03*
X0290883Y0053539D03*
X0280883Y0053539D03*
X0270883Y0053539D03*
X0260883Y0053539D03*
X0250883Y0053539D03*
X0240883Y0053539D03*
X0230883Y0053539D03*
X0220883Y0053539D03*
X0210883Y0053539D03*
X0200883Y0053539D03*
X0190883Y0053539D03*
X0190883Y0123539D03*
X0200883Y0123539D03*
X0210883Y0123539D03*
X0220883Y0123539D03*
X0230883Y0123539D03*
X0240883Y0123539D03*
X0250883Y0123539D03*
X0260883Y0123539D03*
X0270883Y0123539D03*
X0280883Y0123539D03*
X0290883Y0123539D03*
X0300883Y0123539D03*
X0378595Y0195683D03*
X0378595Y0205683D03*
X0302595Y0270958D03*
X0292595Y0270908D03*
X0282595Y0270958D03*
D13*
X0303833Y0255183D03*
X0314857Y0255183D03*
X0326833Y0239183D03*
X0337857Y0239183D03*
X0333107Y0211433D03*
X0322083Y0211433D03*
X0300107Y0161433D03*
X0289083Y0161433D03*
X0208717Y0165705D03*
X0197694Y0165705D03*
X0198087Y0185390D03*
X0209111Y0185390D03*
X0209111Y0205390D03*
X0198087Y0205390D03*
X0198087Y0225390D03*
X0209111Y0225390D03*
X0209111Y0245390D03*
X0198087Y0245390D03*
X0198087Y0265390D03*
X0209111Y0265390D03*
X0209111Y0285390D03*
X0198087Y0285390D03*
X0118457Y0059783D03*
X0107433Y0059783D03*
X0107173Y0043743D03*
X0118197Y0043743D03*
D14*
X0152099Y0155311D03*
X0152099Y0165311D03*
X0152099Y0175390D03*
X0152099Y0185390D03*
X0152099Y0195390D03*
X0152099Y0205390D03*
X0152099Y0215390D03*
X0152099Y0225390D03*
X0152099Y0235390D03*
X0152099Y0245390D03*
X0152099Y0255390D03*
X0152099Y0265390D03*
X0152099Y0275390D03*
X0152099Y0285390D03*
X0180099Y0285390D03*
X0180099Y0275390D03*
X0180099Y0265390D03*
X0180099Y0255390D03*
X0180099Y0245390D03*
X0180099Y0235390D03*
X0180099Y0225390D03*
X0180099Y0215390D03*
X0180099Y0205390D03*
X0180099Y0195390D03*
X0180099Y0185390D03*
X0180099Y0175390D03*
X0180099Y0165311D03*
X0180099Y0155311D03*
D15*
X0080294Y0149359D02*
X0072494Y0149359D01*
X0072494Y0169159D02*
X0080294Y0169159D01*
X0080294Y0188859D02*
X0072494Y0188859D01*
X0072494Y0208559D02*
X0080294Y0208559D01*
X0080294Y0228259D02*
X0072494Y0228259D01*
X0072494Y0247959D02*
X0080294Y0247959D01*
X0080294Y0267759D02*
X0072494Y0267759D01*
X0072494Y0129065D02*
X0080294Y0129065D01*
X0080294Y0109265D02*
X0072494Y0109265D01*
X0072455Y0089128D02*
X0080255Y0089128D01*
X0080255Y0069328D02*
X0072455Y0069328D01*
X0374896Y0159565D02*
X0382696Y0159565D01*
X0382696Y0179365D02*
X0374896Y0179365D01*
X0374945Y0221733D02*
X0382745Y0221733D01*
X0382745Y0241433D02*
X0374945Y0241433D01*
X0374945Y0261133D02*
X0382745Y0261133D01*
D16*
X0330595Y0197746D03*
X0335595Y0190120D03*
X0318595Y0197746D03*
X0163745Y0112236D03*
X0153745Y0092236D03*
X0123745Y0112236D03*
X0103745Y0112236D03*
D17*
X0134865Y0063853D02*
X0140065Y0063853D01*
X0140065Y0053853D02*
X0134865Y0053853D01*
X0134865Y0043853D02*
X0140065Y0043853D01*
X0235135Y0146453D02*
X0240335Y0146453D01*
X0240335Y0156453D02*
X0235135Y0156453D01*
X0235135Y0166453D02*
X0240335Y0166453D01*
X0240335Y0176453D02*
X0235135Y0176453D01*
X0235135Y0186453D02*
X0240335Y0186453D01*
X0240335Y0196453D02*
X0235135Y0196453D01*
X0235135Y0206453D02*
X0240335Y0206453D01*
X0240335Y0216453D02*
X0235135Y0216453D01*
X0235135Y0226453D02*
X0240335Y0226453D01*
X0240335Y0236453D02*
X0235135Y0236453D01*
X0235135Y0246453D02*
X0240335Y0246453D01*
X0240335Y0256453D02*
X0235135Y0256453D01*
X0235135Y0266453D02*
X0240335Y0266453D01*
X0240335Y0276453D02*
X0235135Y0276453D01*
X0265135Y0276453D02*
X0270335Y0276453D01*
X0270335Y0266453D02*
X0265135Y0266453D01*
X0265135Y0256453D02*
X0270335Y0256453D01*
X0270335Y0246453D02*
X0265135Y0246453D01*
X0265135Y0236453D02*
X0270335Y0236453D01*
X0270335Y0226453D02*
X0265135Y0226453D01*
X0265135Y0216453D02*
X0270335Y0216453D01*
X0270335Y0206453D02*
X0265135Y0206453D01*
X0265135Y0196453D02*
X0270335Y0196453D01*
X0270335Y0186453D02*
X0265135Y0186453D01*
X0265135Y0176453D02*
X0270335Y0176453D01*
X0270335Y0166453D02*
X0265135Y0166453D01*
X0265135Y0156453D02*
X0270335Y0156453D01*
X0270335Y0146453D02*
X0265135Y0146453D01*
D18*
X0365470Y0131338D03*
X0375470Y0131338D03*
X0375470Y0093779D03*
X0365470Y0093779D03*
D19*
X0382595Y0061433D03*
X0290345Y0146433D03*
D20*
X0367595Y0066846D03*
X0367595Y0056020D03*
D21*
X0373599Y0061433D03*
D22*
X0294595Y0221433D03*
X0305095Y0236433D03*
D23*
X0305095Y0226433D03*
X0305095Y0216433D03*
X0294595Y0211433D03*
X0305095Y0206433D03*
X0294595Y0201433D03*
X0305095Y0196433D03*
X0294595Y0191433D03*
X0305095Y0186433D03*
X0305095Y0176433D03*
D24*
X0313345Y0161433D03*
X0323345Y0161433D03*
D25*
X0166985Y0100433D03*
X0159111Y0124055D03*
X0111079Y0124055D03*
X0111079Y0076811D03*
X0159111Y0076811D03*
D26*
X0128135Y0155433D03*
X0110056Y0155433D03*
X0110056Y0175433D03*
X0128135Y0175433D03*
X0128135Y0195433D03*
X0110056Y0195433D03*
X0110056Y0215433D03*
X0128135Y0215433D03*
X0128135Y0235433D03*
X0110056Y0235433D03*
X0110056Y0255433D03*
X0128135Y0255433D03*
X0128135Y0275433D03*
X0110056Y0275433D03*
D27*
X0334595Y0259622D03*
D28*
X0334595Y0267496D03*
X0334595Y0275370D03*
X0334595Y0283244D03*
D29*
X0335595Y0078433D03*
X0342595Y0078433D03*
X0339095Y0070433D03*
D30*
X0300845Y0043433D03*
X0290845Y0043433D03*
X0280845Y0043433D03*
X0270845Y0043433D03*
X0260845Y0043433D03*
X0250845Y0043433D03*
X0240845Y0043433D03*
X0230845Y0043433D03*
X0220845Y0043433D03*
X0210845Y0043433D03*
X0200845Y0043433D03*
X0190845Y0043433D03*
X0190845Y0133558D03*
X0200845Y0133558D03*
X0210845Y0133558D03*
X0220845Y0133558D03*
X0230845Y0133558D03*
X0240845Y0133558D03*
X0250845Y0133558D03*
X0260845Y0133558D03*
X0270845Y0133558D03*
X0280845Y0133558D03*
X0290845Y0133558D03*
X0300845Y0133558D03*
D31*
X0166095Y0061972D03*
X0166095Y0043894D03*
D32*
X0324595Y0190120D03*
D33*
X0312620Y0270908D03*
M02*
