G75*
%MOIN*%
%OFA0B0*%
%FSLAX25Y25*%
%IPPOS*%
%LPD*%
%AMOC8*
5,1,8,0,0,1.08239X$1,22.5*
%
%ADD10C,0.00100*%
D10*
X0057595Y0046433D02*
X0057595Y0288933D01*
X0057598Y0289175D01*
X0057607Y0289416D01*
X0057621Y0289657D01*
X0057642Y0289898D01*
X0057668Y0290138D01*
X0057700Y0290378D01*
X0057738Y0290617D01*
X0057781Y0290854D01*
X0057831Y0291091D01*
X0057886Y0291326D01*
X0057946Y0291560D01*
X0058013Y0291792D01*
X0058084Y0292023D01*
X0058162Y0292252D01*
X0058245Y0292479D01*
X0058333Y0292704D01*
X0058427Y0292927D01*
X0058526Y0293147D01*
X0058631Y0293365D01*
X0058740Y0293580D01*
X0058855Y0293793D01*
X0058975Y0294003D01*
X0059100Y0294209D01*
X0059230Y0294413D01*
X0059365Y0294614D01*
X0059505Y0294811D01*
X0059649Y0295005D01*
X0059798Y0295195D01*
X0059952Y0295381D01*
X0060110Y0295564D01*
X0060272Y0295743D01*
X0060439Y0295918D01*
X0060610Y0296089D01*
X0060785Y0296256D01*
X0060964Y0296418D01*
X0061147Y0296576D01*
X0061333Y0296730D01*
X0061523Y0296879D01*
X0061717Y0297023D01*
X0061914Y0297163D01*
X0062115Y0297298D01*
X0062319Y0297428D01*
X0062525Y0297553D01*
X0062735Y0297673D01*
X0062948Y0297788D01*
X0063163Y0297897D01*
X0063381Y0298002D01*
X0063601Y0298101D01*
X0063824Y0298195D01*
X0064049Y0298283D01*
X0064276Y0298366D01*
X0064505Y0298444D01*
X0064736Y0298515D01*
X0064968Y0298582D01*
X0065202Y0298642D01*
X0065437Y0298697D01*
X0065674Y0298747D01*
X0065911Y0298790D01*
X0066150Y0298828D01*
X0066390Y0298860D01*
X0066630Y0298886D01*
X0066871Y0298907D01*
X0067112Y0298921D01*
X0067353Y0298930D01*
X0067595Y0298933D01*
X0375095Y0298933D01*
X0397595Y0276433D01*
X0397595Y0058933D01*
X0375095Y0036433D01*
X0067595Y0036433D01*
X0067353Y0036436D01*
X0067112Y0036445D01*
X0066871Y0036459D01*
X0066630Y0036480D01*
X0066390Y0036506D01*
X0066150Y0036538D01*
X0065911Y0036576D01*
X0065674Y0036619D01*
X0065437Y0036669D01*
X0065202Y0036724D01*
X0064968Y0036784D01*
X0064736Y0036851D01*
X0064505Y0036922D01*
X0064276Y0037000D01*
X0064049Y0037083D01*
X0063824Y0037171D01*
X0063601Y0037265D01*
X0063381Y0037364D01*
X0063163Y0037469D01*
X0062948Y0037578D01*
X0062735Y0037693D01*
X0062525Y0037813D01*
X0062319Y0037938D01*
X0062115Y0038068D01*
X0061914Y0038203D01*
X0061717Y0038343D01*
X0061523Y0038487D01*
X0061333Y0038636D01*
X0061147Y0038790D01*
X0060964Y0038948D01*
X0060785Y0039110D01*
X0060610Y0039277D01*
X0060439Y0039448D01*
X0060272Y0039623D01*
X0060110Y0039802D01*
X0059952Y0039985D01*
X0059798Y0040171D01*
X0059649Y0040361D01*
X0059505Y0040555D01*
X0059365Y0040752D01*
X0059230Y0040953D01*
X0059100Y0041157D01*
X0058975Y0041363D01*
X0058855Y0041573D01*
X0058740Y0041786D01*
X0058631Y0042001D01*
X0058526Y0042219D01*
X0058427Y0042439D01*
X0058333Y0042662D01*
X0058245Y0042887D01*
X0058162Y0043114D01*
X0058084Y0043343D01*
X0058013Y0043574D01*
X0057946Y0043806D01*
X0057886Y0044040D01*
X0057831Y0044275D01*
X0057781Y0044512D01*
X0057738Y0044749D01*
X0057700Y0044988D01*
X0057668Y0045228D01*
X0057642Y0045468D01*
X0057621Y0045709D01*
X0057607Y0045950D01*
X0057598Y0046191D01*
X0057595Y0046433D01*
M02*
