G75*
%MOIN*%
%OFA0B0*%
%FSLAX25Y25*%
%IPPOS*%
%LPD*%
%AMOC8*
5,1,8,0,0,1.08239X$1,22.5*
%
%ADD10C,0.00100*%
%ADD11R,0.07087X0.06299*%
%ADD12C,0.07400*%
%ADD13R,0.06299X0.07087*%
%ADD14R,0.08000X0.05000*%
%ADD15C,0.07800*%
%ADD16C,0.06600*%
%ADD17C,0.05200*%
%ADD18R,0.06299X0.07874*%
%ADD19C,0.05400*%
%ADD20R,0.08661X0.04134*%
%ADD21R,0.04134X0.03937*%
%ADD22R,0.06425X0.06425*%
%ADD23C,0.06425*%
%ADD24C,0.05200*%
%ADD25C,0.08268*%
%ADD26R,0.09000X0.06969*%
%ADD27R,0.05150X0.05150*%
%ADD28C,0.05150*%
%ADD29R,0.04000X0.04500*%
%ADD30C,0.06900*%
%ADD31R,0.06969X0.09000*%
%ADD32OC8,0.06600*%
%ADD33R,0.07400X0.07400*%
%ADD34C,0.05000*%
%ADD35C,0.05000*%
%ADD36C,0.03200*%
%ADD37C,0.03600*%
%ADD38C,0.04000*%
%ADD39C,0.01600*%
%ADD40C,0.02600*%
%ADD41C,0.02800*%
%ADD42C,0.02400*%
%ADD43C,0.03200*%
%ADD44C,0.02500*%
%ADD45C,0.01200*%
%ADD46C,0.04000*%
D10*
X0057595Y0046433D02*
X0057595Y0288933D01*
X0057598Y0289175D01*
X0057607Y0289416D01*
X0057621Y0289657D01*
X0057642Y0289898D01*
X0057668Y0290138D01*
X0057700Y0290378D01*
X0057738Y0290617D01*
X0057781Y0290854D01*
X0057831Y0291091D01*
X0057886Y0291326D01*
X0057946Y0291560D01*
X0058013Y0291792D01*
X0058084Y0292023D01*
X0058162Y0292252D01*
X0058245Y0292479D01*
X0058333Y0292704D01*
X0058427Y0292927D01*
X0058526Y0293147D01*
X0058631Y0293365D01*
X0058740Y0293580D01*
X0058855Y0293793D01*
X0058975Y0294003D01*
X0059100Y0294209D01*
X0059230Y0294413D01*
X0059365Y0294614D01*
X0059505Y0294811D01*
X0059649Y0295005D01*
X0059798Y0295195D01*
X0059952Y0295381D01*
X0060110Y0295564D01*
X0060272Y0295743D01*
X0060439Y0295918D01*
X0060610Y0296089D01*
X0060785Y0296256D01*
X0060964Y0296418D01*
X0061147Y0296576D01*
X0061333Y0296730D01*
X0061523Y0296879D01*
X0061717Y0297023D01*
X0061914Y0297163D01*
X0062115Y0297298D01*
X0062319Y0297428D01*
X0062525Y0297553D01*
X0062735Y0297673D01*
X0062948Y0297788D01*
X0063163Y0297897D01*
X0063381Y0298002D01*
X0063601Y0298101D01*
X0063824Y0298195D01*
X0064049Y0298283D01*
X0064276Y0298366D01*
X0064505Y0298444D01*
X0064736Y0298515D01*
X0064968Y0298582D01*
X0065202Y0298642D01*
X0065437Y0298697D01*
X0065674Y0298747D01*
X0065911Y0298790D01*
X0066150Y0298828D01*
X0066390Y0298860D01*
X0066630Y0298886D01*
X0066871Y0298907D01*
X0067112Y0298921D01*
X0067353Y0298930D01*
X0067595Y0298933D01*
X0375095Y0298933D01*
X0397595Y0276433D01*
X0397595Y0058933D01*
X0375095Y0036433D01*
X0067595Y0036433D01*
X0067353Y0036436D01*
X0067112Y0036445D01*
X0066871Y0036459D01*
X0066630Y0036480D01*
X0066390Y0036506D01*
X0066150Y0036538D01*
X0065911Y0036576D01*
X0065674Y0036619D01*
X0065437Y0036669D01*
X0065202Y0036724D01*
X0064968Y0036784D01*
X0064736Y0036851D01*
X0064505Y0036922D01*
X0064276Y0037000D01*
X0064049Y0037083D01*
X0063824Y0037171D01*
X0063601Y0037265D01*
X0063381Y0037364D01*
X0063163Y0037469D01*
X0062948Y0037578D01*
X0062735Y0037693D01*
X0062525Y0037813D01*
X0062319Y0037938D01*
X0062115Y0038068D01*
X0061914Y0038203D01*
X0061717Y0038343D01*
X0061523Y0038487D01*
X0061333Y0038636D01*
X0061147Y0038790D01*
X0060964Y0038948D01*
X0060785Y0039110D01*
X0060610Y0039277D01*
X0060439Y0039448D01*
X0060272Y0039623D01*
X0060110Y0039802D01*
X0059952Y0039985D01*
X0059798Y0040171D01*
X0059649Y0040361D01*
X0059505Y0040555D01*
X0059365Y0040752D01*
X0059230Y0040953D01*
X0059100Y0041157D01*
X0058975Y0041363D01*
X0058855Y0041573D01*
X0058740Y0041786D01*
X0058631Y0042001D01*
X0058526Y0042219D01*
X0058427Y0042439D01*
X0058333Y0042662D01*
X0058245Y0042887D01*
X0058162Y0043114D01*
X0058084Y0043343D01*
X0058013Y0043574D01*
X0057946Y0043806D01*
X0057886Y0044040D01*
X0057831Y0044275D01*
X0057781Y0044512D01*
X0057738Y0044749D01*
X0057700Y0044988D01*
X0057668Y0045228D01*
X0057642Y0045468D01*
X0057621Y0045709D01*
X0057607Y0045950D01*
X0057598Y0046191D01*
X0057595Y0046433D01*
D11*
X0282345Y0230921D03*
X0282345Y0241945D03*
X0338461Y0141919D03*
X0338461Y0130896D03*
X0334934Y0108803D03*
X0334934Y0097780D03*
X0337595Y0054945D03*
X0337595Y0043921D03*
D12*
X0300883Y0053539D03*
X0290883Y0053539D03*
X0280883Y0053539D03*
X0270883Y0053539D03*
X0260883Y0053539D03*
X0250883Y0053539D03*
X0240883Y0053539D03*
X0230883Y0053539D03*
X0220883Y0053539D03*
X0210883Y0053539D03*
X0200883Y0053539D03*
X0190883Y0053539D03*
X0190883Y0123539D03*
X0200883Y0123539D03*
X0210883Y0123539D03*
X0220883Y0123539D03*
X0230883Y0123539D03*
X0240883Y0123539D03*
X0250883Y0123539D03*
X0260883Y0123539D03*
X0270883Y0123539D03*
X0280883Y0123539D03*
X0290883Y0123539D03*
X0300883Y0123539D03*
X0378595Y0195683D03*
X0378595Y0205683D03*
X0302595Y0270958D03*
X0292595Y0270908D03*
X0282595Y0270958D03*
D13*
X0303833Y0255183D03*
X0314857Y0255183D03*
X0326833Y0239183D03*
X0337857Y0239183D03*
X0333107Y0211433D03*
X0322083Y0211433D03*
X0300107Y0161433D03*
X0289083Y0161433D03*
X0208717Y0165705D03*
X0197694Y0165705D03*
X0198087Y0185390D03*
X0209111Y0185390D03*
X0209111Y0205390D03*
X0198087Y0205390D03*
X0198087Y0225390D03*
X0209111Y0225390D03*
X0209111Y0245390D03*
X0198087Y0245390D03*
X0198087Y0265390D03*
X0209111Y0265390D03*
X0209111Y0285390D03*
X0198087Y0285390D03*
X0118457Y0059783D03*
X0107433Y0059783D03*
X0107173Y0043743D03*
X0118197Y0043743D03*
D14*
X0152099Y0155311D03*
X0152099Y0165311D03*
X0152099Y0175390D03*
X0152099Y0185390D03*
X0152099Y0195390D03*
X0152099Y0205390D03*
X0152099Y0215390D03*
X0152099Y0225390D03*
X0152099Y0235390D03*
X0152099Y0245390D03*
X0152099Y0255390D03*
X0152099Y0265390D03*
X0152099Y0275390D03*
X0152099Y0285390D03*
X0180099Y0285390D03*
X0180099Y0275390D03*
X0180099Y0265390D03*
X0180099Y0255390D03*
X0180099Y0245390D03*
X0180099Y0235390D03*
X0180099Y0225390D03*
X0180099Y0215390D03*
X0180099Y0205390D03*
X0180099Y0195390D03*
X0180099Y0185390D03*
X0180099Y0175390D03*
X0180099Y0165311D03*
X0180099Y0155311D03*
D15*
X0080294Y0149359D02*
X0072494Y0149359D01*
X0072494Y0169159D02*
X0080294Y0169159D01*
X0080294Y0188859D02*
X0072494Y0188859D01*
X0072494Y0208559D02*
X0080294Y0208559D01*
X0080294Y0228259D02*
X0072494Y0228259D01*
X0072494Y0247959D02*
X0080294Y0247959D01*
X0080294Y0267759D02*
X0072494Y0267759D01*
X0072494Y0129065D02*
X0080294Y0129065D01*
X0080294Y0109265D02*
X0072494Y0109265D01*
X0072455Y0089128D02*
X0080255Y0089128D01*
X0080255Y0069328D02*
X0072455Y0069328D01*
X0374896Y0159565D02*
X0382696Y0159565D01*
X0382696Y0179365D02*
X0374896Y0179365D01*
X0374945Y0221733D02*
X0382745Y0221733D01*
X0382745Y0241433D02*
X0374945Y0241433D01*
X0374945Y0261133D02*
X0382745Y0261133D01*
D16*
X0330595Y0197746D03*
X0335595Y0190120D03*
X0318595Y0197746D03*
X0163745Y0112236D03*
X0153745Y0092236D03*
X0123745Y0112236D03*
X0103745Y0112236D03*
D17*
X0134865Y0063853D02*
X0140065Y0063853D01*
X0140065Y0053853D02*
X0134865Y0053853D01*
X0134865Y0043853D02*
X0140065Y0043853D01*
X0235135Y0146453D02*
X0240335Y0146453D01*
X0240335Y0156453D02*
X0235135Y0156453D01*
X0235135Y0166453D02*
X0240335Y0166453D01*
X0240335Y0176453D02*
X0235135Y0176453D01*
X0235135Y0186453D02*
X0240335Y0186453D01*
X0240335Y0196453D02*
X0235135Y0196453D01*
X0235135Y0206453D02*
X0240335Y0206453D01*
X0240335Y0216453D02*
X0235135Y0216453D01*
X0235135Y0226453D02*
X0240335Y0226453D01*
X0240335Y0236453D02*
X0235135Y0236453D01*
X0235135Y0246453D02*
X0240335Y0246453D01*
X0240335Y0256453D02*
X0235135Y0256453D01*
X0235135Y0266453D02*
X0240335Y0266453D01*
X0240335Y0276453D02*
X0235135Y0276453D01*
X0265135Y0276453D02*
X0270335Y0276453D01*
X0270335Y0266453D02*
X0265135Y0266453D01*
X0265135Y0256453D02*
X0270335Y0256453D01*
X0270335Y0246453D02*
X0265135Y0246453D01*
X0265135Y0236453D02*
X0270335Y0236453D01*
X0270335Y0226453D02*
X0265135Y0226453D01*
X0265135Y0216453D02*
X0270335Y0216453D01*
X0270335Y0206453D02*
X0265135Y0206453D01*
X0265135Y0196453D02*
X0270335Y0196453D01*
X0270335Y0186453D02*
X0265135Y0186453D01*
X0265135Y0176453D02*
X0270335Y0176453D01*
X0270335Y0166453D02*
X0265135Y0166453D01*
X0265135Y0156453D02*
X0270335Y0156453D01*
X0270335Y0146453D02*
X0265135Y0146453D01*
D18*
X0365470Y0131338D03*
X0375470Y0131338D03*
X0375470Y0093779D03*
X0365470Y0093779D03*
D19*
X0382595Y0061433D03*
X0290345Y0146433D03*
D20*
X0367595Y0066846D03*
X0367595Y0056020D03*
D21*
X0373599Y0061433D03*
D22*
X0294595Y0221433D03*
X0305095Y0236433D03*
D23*
X0305095Y0226433D03*
X0305095Y0216433D03*
X0294595Y0211433D03*
X0305095Y0206433D03*
X0294595Y0201433D03*
X0305095Y0196433D03*
X0294595Y0191433D03*
X0305095Y0186433D03*
X0305095Y0176433D03*
D24*
X0313345Y0161433D03*
X0323345Y0161433D03*
D25*
X0166985Y0100433D03*
X0159111Y0124055D03*
X0111079Y0124055D03*
X0111079Y0076811D03*
X0159111Y0076811D03*
D26*
X0128135Y0155433D03*
X0110056Y0155433D03*
X0110056Y0175433D03*
X0128135Y0175433D03*
X0128135Y0195433D03*
X0110056Y0195433D03*
X0110056Y0215433D03*
X0128135Y0215433D03*
X0128135Y0235433D03*
X0110056Y0235433D03*
X0110056Y0255433D03*
X0128135Y0255433D03*
X0128135Y0275433D03*
X0110056Y0275433D03*
D27*
X0334595Y0259622D03*
D28*
X0334595Y0267496D03*
X0334595Y0275370D03*
X0334595Y0283244D03*
D29*
X0335595Y0078433D03*
X0342595Y0078433D03*
X0339095Y0070433D03*
D30*
X0300845Y0043433D03*
X0290845Y0043433D03*
X0280845Y0043433D03*
X0270845Y0043433D03*
X0260845Y0043433D03*
X0250845Y0043433D03*
X0240845Y0043433D03*
X0230845Y0043433D03*
X0220845Y0043433D03*
X0210845Y0043433D03*
X0200845Y0043433D03*
X0190845Y0043433D03*
X0190845Y0133558D03*
X0200845Y0133558D03*
X0210845Y0133558D03*
X0220845Y0133558D03*
X0230845Y0133558D03*
X0240845Y0133558D03*
X0250845Y0133558D03*
X0260845Y0133558D03*
X0270845Y0133558D03*
X0280845Y0133558D03*
X0290845Y0133558D03*
X0300845Y0133558D03*
D31*
X0166095Y0061972D03*
X0166095Y0043894D03*
D32*
X0324595Y0190120D03*
D33*
X0312620Y0270908D03*
D34*
X0165345Y0273433D02*
X0165345Y0253933D01*
X0163888Y0255390D01*
X0152099Y0255390D01*
X0152099Y0265390D02*
X0138091Y0265390D01*
X0128135Y0255433D01*
X0138091Y0245390D02*
X0128135Y0235433D01*
X0138091Y0245390D02*
X0152099Y0245390D01*
X0152099Y0235390D02*
X0162638Y0235390D01*
X0165345Y0232683D01*
X0165345Y0212683D01*
X0162638Y0215390D01*
X0152099Y0215390D01*
X0152099Y0225390D02*
X0138091Y0225390D01*
X0128135Y0215433D01*
X0138091Y0205390D02*
X0128135Y0195433D01*
X0138091Y0205390D02*
X0152099Y0205390D01*
X0152099Y0195390D02*
X0162638Y0195390D01*
X0165345Y0192683D01*
X0165345Y0172683D01*
X0162638Y0175390D01*
X0152099Y0175390D01*
X0152099Y0185390D02*
X0138091Y0185390D01*
X0128135Y0175433D01*
X0138012Y0165311D02*
X0128135Y0155433D01*
X0127135Y0155311D01*
X0138012Y0165311D02*
X0152099Y0165311D01*
X0152099Y0155311D02*
X0161467Y0155311D01*
X0165345Y0151433D01*
X0165345Y0141683D01*
X0160095Y0136433D01*
X0142595Y0136433D01*
X0083762Y0136433D01*
X0076394Y0129065D01*
X0076394Y0149359D02*
X0082740Y0155705D01*
X0082740Y0155433D01*
X0110056Y0155433D01*
X0110056Y0175433D02*
X0082625Y0175433D01*
X0082625Y0175390D01*
X0076394Y0169159D01*
X0076394Y0188859D02*
X0082925Y0195390D01*
X0084175Y0195433D01*
X0110056Y0195433D01*
X0110056Y0215433D02*
X0083225Y0215433D01*
X0083225Y0215390D01*
X0076394Y0208559D01*
X0076394Y0228259D02*
X0083525Y0235390D01*
X0083525Y0235433D01*
X0110056Y0235433D01*
X0110056Y0255433D02*
X0083825Y0255433D01*
X0083825Y0255390D01*
X0076394Y0247959D01*
X0076394Y0267759D02*
X0084025Y0275390D01*
X0111056Y0275390D01*
X0110056Y0275433D01*
X0128135Y0275433D02*
X0138091Y0285390D01*
X0152099Y0285390D01*
X0152099Y0275390D02*
X0163388Y0275390D01*
X0165345Y0273433D01*
X0165345Y0253933D02*
X0165345Y0232683D01*
X0165345Y0212683D02*
X0165345Y0192683D01*
X0165345Y0172683D02*
X0165345Y0151433D01*
D35*
X0142595Y0136433D03*
D36*
X0159111Y0124055D02*
X0159233Y0123933D01*
X0170095Y0123933D01*
X0180154Y0113874D01*
X0200095Y0113874D01*
X0195095Y0108874D01*
X0195095Y0093933D01*
X0190095Y0088933D01*
X0166095Y0064933D01*
X0166095Y0061972D01*
X0152595Y0071433D02*
X0152595Y0048853D01*
X0157595Y0043853D01*
X0166055Y0043853D01*
X0166095Y0043894D01*
X0157595Y0043853D02*
X0137465Y0043853D01*
X0152595Y0071433D02*
X0157595Y0076433D01*
X0158733Y0076433D01*
X0159111Y0076811D01*
X0157595Y0076433D02*
X0147595Y0076433D01*
X0145095Y0078933D01*
X0145095Y0108933D01*
X0148398Y0112236D01*
X0163745Y0112236D01*
X0154292Y0092236D02*
X0157595Y0088933D01*
X0190095Y0088933D01*
X0200095Y0113874D02*
X0291847Y0113874D01*
X0301296Y0123126D01*
X0300883Y0123539D01*
X0300883Y0133558D01*
X0300845Y0133558D01*
X0301220Y0133933D01*
X0306845Y0133933D01*
X0342595Y0169683D01*
X0342595Y0216433D01*
X0347595Y0221433D01*
X0356095Y0221433D01*
X0378545Y0221433D01*
X0378845Y0221733D01*
X0352595Y0251433D02*
X0362595Y0261433D01*
X0377295Y0261433D01*
X0378845Y0261133D01*
X0352595Y0266433D02*
X0352595Y0251433D01*
X0338845Y0237683D01*
X0327595Y0226433D01*
X0320095Y0226433D01*
X0305095Y0226433D01*
X0299595Y0226433D01*
X0294595Y0221433D01*
X0291833Y0221433D01*
X0282345Y0230921D01*
X0277877Y0226453D01*
X0267735Y0226453D01*
X0294595Y0221433D02*
X0294595Y0248433D01*
X0301345Y0255183D01*
X0303833Y0255183D01*
X0334595Y0275370D02*
X0343658Y0275370D01*
X0352595Y0266433D01*
X0290883Y0133558D02*
X0290883Y0123539D01*
X0300845Y0123577D02*
X0300883Y0123539D01*
X0290883Y0133558D02*
X0290845Y0133558D01*
X0354595Y0068433D02*
X0354595Y0055433D01*
X0342720Y0043558D01*
X0337595Y0043558D01*
X0300845Y0043558D01*
X0300845Y0043433D01*
X0300883Y0043433D01*
X0300883Y0053539D01*
X0300989Y0053646D01*
X0300883Y0053539D02*
X0300970Y0053452D01*
X0354595Y0068433D02*
X0375154Y0088992D01*
X0375154Y0091433D01*
X0375154Y0106433D01*
X0154292Y0092236D02*
X0153745Y0092236D01*
D37*
X0342595Y0216433D03*
D38*
X0356095Y0221433D03*
X0375154Y0106433D03*
D39*
X0373750Y0109965D02*
X0340277Y0109965D01*
X0340277Y0109578D02*
X0340277Y0112190D01*
X0340154Y0112648D01*
X0339917Y0113058D01*
X0339582Y0113393D01*
X0339172Y0113630D01*
X0338714Y0113753D01*
X0335709Y0113753D01*
X0335709Y0109578D01*
X0340277Y0109578D01*
X0340277Y0108028D02*
X0335709Y0108028D01*
X0335709Y0109578D01*
X0334159Y0109578D01*
X0334159Y0113753D01*
X0331153Y0113753D01*
X0330696Y0113630D01*
X0330285Y0113393D01*
X0329950Y0113058D01*
X0329713Y0112648D01*
X0329590Y0112190D01*
X0329590Y0109578D01*
X0334159Y0109578D01*
X0334159Y0108028D01*
X0335709Y0108028D01*
X0335709Y0103854D01*
X0338714Y0103854D01*
X0339172Y0103976D01*
X0339582Y0104213D01*
X0339917Y0104548D01*
X0340154Y0104959D01*
X0340277Y0105417D01*
X0340277Y0108028D01*
X0340277Y0106768D02*
X0371354Y0106768D01*
X0371354Y0107189D02*
X0371354Y0105677D01*
X0371754Y0104712D01*
X0371754Y0099516D01*
X0371575Y0099516D01*
X0370521Y0098461D01*
X0370521Y0089167D01*
X0352669Y0071315D01*
X0351713Y0070359D01*
X0351195Y0069109D01*
X0351195Y0056841D01*
X0342554Y0048201D01*
X0341884Y0048871D01*
X0333306Y0048871D01*
X0332252Y0047816D01*
X0332252Y0046958D01*
X0304745Y0046958D01*
X0304283Y0047420D01*
X0304283Y0049161D01*
X0305545Y0050424D01*
X0306383Y0052445D01*
X0306383Y0054633D01*
X0305545Y0056655D01*
X0303998Y0058202D01*
X0301977Y0059039D01*
X0299789Y0059039D01*
X0297767Y0058202D01*
X0296220Y0056655D01*
X0295883Y0055840D01*
X0295545Y0056655D01*
X0293998Y0058202D01*
X0293570Y0058379D01*
X0293570Y0059709D01*
X0294479Y0059333D01*
X0295712Y0059333D01*
X0296851Y0059805D01*
X0296879Y0059833D01*
X0299362Y0059833D01*
X0300318Y0060229D01*
X0301049Y0060960D01*
X0328799Y0088710D01*
X0329195Y0089666D01*
X0329195Y0095149D01*
X0329223Y0095177D01*
X0329590Y0096064D01*
X0329590Y0093884D01*
X0330645Y0092830D01*
X0336206Y0092830D01*
X0339995Y0089041D01*
X0339995Y0082483D01*
X0339850Y0082483D01*
X0339079Y0081713D01*
X0339035Y0081788D01*
X0338700Y0082123D01*
X0338290Y0082360D01*
X0337832Y0082483D01*
X0335795Y0082483D01*
X0335795Y0078633D01*
X0335395Y0078633D01*
X0335395Y0082483D01*
X0333358Y0082483D01*
X0332900Y0082360D01*
X0332490Y0082123D01*
X0332155Y0081788D01*
X0331918Y0081378D01*
X0331795Y0080920D01*
X0331795Y0080259D01*
X0331658Y0080396D01*
X0330482Y0080883D01*
X0329209Y0080883D01*
X0328032Y0080396D01*
X0327132Y0079496D01*
X0326645Y0078320D01*
X0326645Y0077047D01*
X0327132Y0075870D01*
X0327245Y0075758D01*
X0327245Y0073666D01*
X0327641Y0072710D01*
X0331391Y0068960D01*
X0332122Y0068229D01*
X0333078Y0067833D01*
X0335295Y0067833D01*
X0335295Y0067437D01*
X0336350Y0066383D01*
X0336495Y0066383D01*
X0336495Y0064010D01*
X0336122Y0063637D01*
X0335391Y0062906D01*
X0334995Y0061950D01*
X0334995Y0059894D01*
X0333306Y0059894D01*
X0332252Y0058840D01*
X0332252Y0051050D01*
X0333306Y0049995D01*
X0341884Y0049995D01*
X0342938Y0051050D01*
X0342938Y0058840D01*
X0341884Y0059894D01*
X0340195Y0059894D01*
X0340195Y0060356D01*
X0341299Y0061460D01*
X0341695Y0062416D01*
X0341695Y0066383D01*
X0341841Y0066383D01*
X0342895Y0067437D01*
X0342895Y0073429D01*
X0341941Y0074383D01*
X0345341Y0074383D01*
X0346395Y0075437D01*
X0346395Y0081429D01*
X0345341Y0082483D01*
X0345195Y0082483D01*
X0345195Y0090635D01*
X0344799Y0091591D01*
X0341211Y0095180D01*
X0360392Y0095180D01*
X0360521Y0095051D01*
X0360521Y0089096D01*
X0361575Y0088042D01*
X0369365Y0088042D01*
X0370420Y0089096D01*
X0370420Y0098461D01*
X0369365Y0099516D01*
X0363410Y0099516D01*
X0362942Y0099984D01*
X0361986Y0100380D01*
X0340277Y0100380D01*
X0340277Y0101675D01*
X0339223Y0102729D01*
X0330645Y0102729D01*
X0329590Y0101675D01*
X0329590Y0097802D01*
X0329223Y0098689D01*
X0328351Y0099561D01*
X0327212Y0100033D01*
X0325979Y0100033D01*
X0324839Y0099561D01*
X0323967Y0098689D01*
X0323495Y0097550D01*
X0323495Y0096316D01*
X0323967Y0095177D01*
X0323995Y0095149D01*
X0323995Y0091260D01*
X0297768Y0065033D01*
X0296879Y0065033D01*
X0296851Y0065061D01*
X0295712Y0065533D01*
X0294479Y0065533D01*
X0293570Y0065157D01*
X0293570Y0078731D01*
X0294835Y0079996D01*
X0294967Y0079677D01*
X0295839Y0078805D01*
X0296979Y0078333D01*
X0298212Y0078333D01*
X0299351Y0078805D01*
X0299379Y0078833D01*
X0299490Y0078833D01*
X0300446Y0079229D01*
X0319550Y0098333D01*
X0319590Y0098333D01*
X0320729Y0098805D01*
X0321601Y0099677D01*
X0322073Y0100816D01*
X0322073Y0102050D01*
X0321601Y0103189D01*
X0320729Y0104061D01*
X0319590Y0104533D01*
X0318356Y0104533D01*
X0317217Y0104061D01*
X0316345Y0103189D01*
X0315873Y0102050D01*
X0315873Y0102010D01*
X0313295Y0099432D01*
X0313295Y0099570D01*
X0312808Y0100746D01*
X0311908Y0101646D01*
X0311609Y0101770D01*
X0319068Y0109229D01*
X0319799Y0109960D01*
X0320195Y0110916D01*
X0320195Y0124508D01*
X0320308Y0124620D01*
X0320795Y0125797D01*
X0320795Y0127070D01*
X0320308Y0128246D01*
X0319408Y0129146D01*
X0318232Y0129633D01*
X0316972Y0129633D01*
X0333118Y0145779D01*
X0333118Y0144519D01*
X0332564Y0144519D01*
X0331609Y0144123D01*
X0326122Y0138637D01*
X0325391Y0137906D01*
X0324995Y0136950D01*
X0324995Y0128416D01*
X0325391Y0127460D01*
X0336641Y0116210D01*
X0337372Y0115479D01*
X0338328Y0115083D01*
X0379362Y0115083D01*
X0380318Y0115479D01*
X0387299Y0122460D01*
X0387695Y0123416D01*
X0387695Y0156739D01*
X0388396Y0158431D01*
X0388396Y0160698D01*
X0387528Y0162793D01*
X0385925Y0164397D01*
X0383830Y0165265D01*
X0373762Y0165265D01*
X0371667Y0164397D01*
X0370064Y0162793D01*
X0369196Y0160698D01*
X0369196Y0158431D01*
X0370064Y0156336D01*
X0371667Y0154732D01*
X0373762Y0153865D01*
X0382495Y0153865D01*
X0382495Y0125010D01*
X0377768Y0120283D01*
X0372622Y0120283D01*
X0376943Y0124604D01*
X0377674Y0125335D01*
X0377784Y0125601D01*
X0379365Y0125601D01*
X0380420Y0126655D01*
X0380420Y0136020D01*
X0379365Y0137075D01*
X0371575Y0137075D01*
X0370521Y0136020D01*
X0370521Y0126655D01*
X0371080Y0126095D01*
X0369018Y0124033D01*
X0343672Y0124033D01*
X0341759Y0125946D01*
X0342750Y0125946D01*
X0343805Y0127000D01*
X0343805Y0134791D01*
X0342750Y0135845D01*
X0334172Y0135845D01*
X0333118Y0134791D01*
X0333118Y0127087D01*
X0330195Y0130010D01*
X0330195Y0135356D01*
X0333118Y0138279D01*
X0333118Y0138024D01*
X0334172Y0136970D01*
X0342750Y0136970D01*
X0343805Y0138024D01*
X0343805Y0145814D01*
X0342750Y0146869D01*
X0334208Y0146869D01*
X0354068Y0166729D01*
X0354799Y0167460D01*
X0355195Y0168416D01*
X0355195Y0190258D01*
X0355308Y0190370D01*
X0355795Y0191547D01*
X0355795Y0191706D01*
X0357172Y0193083D01*
X0373719Y0193083D01*
X0373932Y0192568D01*
X0375480Y0191020D01*
X0377501Y0190183D01*
X0379689Y0190183D01*
X0381711Y0191020D01*
X0383258Y0192568D01*
X0384095Y0194589D01*
X0384095Y0196777D01*
X0383258Y0198799D01*
X0381711Y0200346D01*
X0380896Y0200683D01*
X0381711Y0201020D01*
X0383258Y0202568D01*
X0384095Y0204589D01*
X0384095Y0206777D01*
X0383258Y0208799D01*
X0381711Y0210346D01*
X0379689Y0211183D01*
X0377501Y0211183D01*
X0375480Y0210346D01*
X0373932Y0208799D01*
X0373719Y0208283D01*
X0358521Y0208283D01*
X0358408Y0208396D01*
X0357232Y0208883D01*
X0355959Y0208883D01*
X0354782Y0208396D01*
X0354670Y0208283D01*
X0353828Y0208283D01*
X0352872Y0207887D01*
X0352141Y0207156D01*
X0346122Y0201137D01*
X0345995Y0201010D01*
X0345995Y0215025D01*
X0349003Y0218033D01*
X0354374Y0218033D01*
X0355339Y0217633D01*
X0356851Y0217633D01*
X0357817Y0218033D01*
X0370584Y0218033D01*
X0371716Y0216901D01*
X0373811Y0216033D01*
X0383879Y0216033D01*
X0385974Y0216901D01*
X0387577Y0218504D01*
X0388445Y0220599D01*
X0388445Y0222867D01*
X0387577Y0224962D01*
X0385974Y0226565D01*
X0383879Y0227433D01*
X0373811Y0227433D01*
X0371716Y0226565D01*
X0370113Y0224962D01*
X0370060Y0224833D01*
X0357817Y0224833D01*
X0356851Y0225233D01*
X0355339Y0225233D01*
X0354374Y0224833D01*
X0346919Y0224833D01*
X0345669Y0224315D01*
X0341039Y0219685D01*
X0340556Y0219485D01*
X0339543Y0218472D01*
X0338995Y0217149D01*
X0338995Y0215717D01*
X0339195Y0215234D01*
X0339195Y0193733D01*
X0338484Y0194444D01*
X0336610Y0195220D01*
X0335069Y0195220D01*
X0335695Y0196731D01*
X0335695Y0198667D01*
X0336107Y0199661D01*
X0336107Y0206090D01*
X0337002Y0206090D01*
X0338057Y0207144D01*
X0338057Y0215722D01*
X0337002Y0216776D01*
X0329212Y0216776D01*
X0328157Y0215722D01*
X0328157Y0207144D01*
X0329212Y0206090D01*
X0330107Y0206090D01*
X0330107Y0202846D01*
X0329581Y0202846D01*
X0327706Y0202069D01*
X0326272Y0200635D01*
X0325495Y0198760D01*
X0325495Y0196731D01*
X0326121Y0195220D01*
X0324595Y0195220D01*
X0323069Y0195220D01*
X0323695Y0196731D01*
X0323695Y0198760D01*
X0322919Y0200635D01*
X0321484Y0202069D01*
X0319610Y0202846D01*
X0317581Y0202846D01*
X0315706Y0202069D01*
X0314272Y0200635D01*
X0313495Y0198760D01*
X0313495Y0196731D01*
X0314272Y0194857D01*
X0315706Y0193422D01*
X0317581Y0192646D01*
X0319610Y0192646D01*
X0320119Y0192857D01*
X0319495Y0192233D01*
X0319495Y0190121D01*
X0324595Y0190121D01*
X0324595Y0195220D01*
X0324595Y0190121D01*
X0324595Y0190121D01*
X0324595Y0190120D01*
X0324595Y0190120D01*
X0324595Y0185020D01*
X0322483Y0185020D01*
X0319495Y0188008D01*
X0319495Y0190120D01*
X0324595Y0190120D01*
X0324595Y0185020D01*
X0326708Y0185020D01*
X0329695Y0188008D01*
X0329695Y0190120D01*
X0324595Y0190120D01*
X0324595Y0190121D01*
X0329695Y0190121D01*
X0329695Y0192233D01*
X0329071Y0192857D01*
X0329581Y0192646D01*
X0331121Y0192646D01*
X0330495Y0191135D01*
X0330495Y0189106D01*
X0330615Y0188817D01*
X0320831Y0179033D01*
X0309444Y0179033D01*
X0309345Y0179272D01*
X0307935Y0180683D01*
X0306123Y0181433D01*
X0307935Y0182184D01*
X0309345Y0183594D01*
X0310108Y0185436D01*
X0310108Y0187430D01*
X0309345Y0189272D01*
X0307935Y0190683D01*
X0306123Y0191433D01*
X0307935Y0192184D01*
X0309345Y0193594D01*
X0310108Y0195436D01*
X0310108Y0197430D01*
X0309345Y0199272D01*
X0307935Y0200683D01*
X0306123Y0201433D01*
X0307935Y0202184D01*
X0309345Y0203594D01*
X0310108Y0205436D01*
X0310108Y0207430D01*
X0309345Y0209272D01*
X0307935Y0210683D01*
X0306123Y0211433D01*
X0307935Y0212184D01*
X0309345Y0213594D01*
X0310108Y0215436D01*
X0310108Y0217430D01*
X0309345Y0219272D01*
X0307935Y0220683D01*
X0306123Y0221433D01*
X0307935Y0222184D01*
X0308784Y0223033D01*
X0328271Y0223033D01*
X0329521Y0223551D01*
X0330478Y0224507D01*
X0339810Y0233840D01*
X0341752Y0233840D01*
X0342807Y0234894D01*
X0342807Y0236836D01*
X0354521Y0248551D01*
X0364003Y0258033D01*
X0370060Y0258033D01*
X0370113Y0257904D01*
X0371716Y0256301D01*
X0373811Y0255433D01*
X0383879Y0255433D01*
X0385974Y0256301D01*
X0387577Y0257904D01*
X0388445Y0259999D01*
X0388445Y0262267D01*
X0387577Y0264362D01*
X0385974Y0265965D01*
X0383879Y0266833D01*
X0373811Y0266833D01*
X0371716Y0265965D01*
X0370584Y0264833D01*
X0361919Y0264833D01*
X0360669Y0264315D01*
X0359713Y0263359D01*
X0355995Y0259641D01*
X0355995Y0267109D01*
X0355478Y0268359D01*
X0345584Y0278252D01*
X0344334Y0278770D01*
X0337382Y0278770D01*
X0337073Y0279079D01*
X0336513Y0279311D01*
X0336888Y0279502D01*
X0337445Y0279907D01*
X0337932Y0280394D01*
X0338337Y0280951D01*
X0338649Y0281565D01*
X0338862Y0282220D01*
X0338970Y0282900D01*
X0338970Y0283244D01*
X0334595Y0283244D01*
X0330220Y0283244D01*
X0330220Y0282900D01*
X0330328Y0282220D01*
X0330541Y0281565D01*
X0330853Y0280951D01*
X0331258Y0280394D01*
X0331745Y0279907D01*
X0332302Y0279502D01*
X0332678Y0279311D01*
X0332117Y0279079D01*
X0330886Y0277848D01*
X0330220Y0276240D01*
X0330220Y0274500D01*
X0330886Y0272892D01*
X0332117Y0271661D01*
X0332668Y0271433D01*
X0332117Y0271205D01*
X0331008Y0270096D01*
X0326653Y0270096D01*
X0325697Y0269700D01*
X0316523Y0260526D01*
X0310962Y0260526D01*
X0309907Y0259472D01*
X0309907Y0250894D01*
X0310962Y0249840D01*
X0317265Y0249840D01*
X0317395Y0249709D01*
X0317395Y0249547D01*
X0317882Y0248370D01*
X0318782Y0247470D01*
X0318924Y0247412D01*
X0318282Y0247146D01*
X0317382Y0246246D01*
X0316895Y0245070D01*
X0316895Y0243797D01*
X0317382Y0242620D01*
X0318282Y0241720D01*
X0319459Y0241233D01*
X0320732Y0241233D01*
X0321553Y0241573D01*
X0321884Y0241165D01*
X0321884Y0234894D01*
X0322938Y0233840D01*
X0330194Y0233840D01*
X0326187Y0229833D01*
X0308784Y0229833D01*
X0307935Y0230683D01*
X0306153Y0231420D01*
X0308545Y0231420D01*
X0309003Y0231543D01*
X0309413Y0231780D01*
X0309748Y0232115D01*
X0309985Y0232526D01*
X0310108Y0232983D01*
X0310108Y0236229D01*
X0305299Y0236229D01*
X0305299Y0236637D01*
X0304891Y0236637D01*
X0304891Y0236229D01*
X0300083Y0236229D01*
X0300083Y0232983D01*
X0300205Y0232526D01*
X0300442Y0232115D01*
X0300777Y0231780D01*
X0301188Y0231543D01*
X0301646Y0231420D01*
X0304037Y0231420D01*
X0302256Y0230683D01*
X0301406Y0229833D01*
X0298919Y0229833D01*
X0297995Y0229450D01*
X0297995Y0247025D01*
X0300810Y0249840D01*
X0307729Y0249840D01*
X0308783Y0250894D01*
X0308783Y0259472D01*
X0307729Y0260526D01*
X0299938Y0260526D01*
X0298884Y0259472D01*
X0298884Y0257530D01*
X0298463Y0257109D01*
X0291713Y0250359D01*
X0291195Y0249109D01*
X0291195Y0226880D01*
X0287688Y0230386D01*
X0287688Y0234816D01*
X0286634Y0235871D01*
X0278056Y0235871D01*
X0277002Y0234816D01*
X0277002Y0230386D01*
X0276469Y0229853D01*
X0273158Y0229853D01*
X0272828Y0230183D01*
X0271210Y0230853D01*
X0264260Y0230853D01*
X0262643Y0230183D01*
X0261405Y0228945D01*
X0260735Y0227328D01*
X0260735Y0225578D01*
X0261405Y0223961D01*
X0262643Y0222723D01*
X0264260Y0222053D01*
X0271210Y0222053D01*
X0272828Y0222723D01*
X0273158Y0223053D01*
X0278553Y0223053D01*
X0279803Y0223571D01*
X0282204Y0225972D01*
X0282486Y0225972D01*
X0289583Y0218876D01*
X0289583Y0218833D01*
X0287118Y0218833D01*
X0286236Y0218468D01*
X0276236Y0208468D01*
X0275561Y0207793D01*
X0275195Y0206910D01*
X0275195Y0144302D01*
X0274726Y0143833D01*
X0273938Y0143833D01*
X0274065Y0143961D01*
X0274735Y0145578D01*
X0274735Y0147328D01*
X0274065Y0148945D01*
X0272828Y0150183D01*
X0271210Y0150853D01*
X0264260Y0150853D01*
X0262643Y0150183D01*
X0261405Y0148945D01*
X0260735Y0147328D01*
X0260735Y0145578D01*
X0261405Y0143961D01*
X0261533Y0143833D01*
X0243938Y0143833D01*
X0244065Y0143961D01*
X0244735Y0145578D01*
X0244735Y0147328D01*
X0244065Y0148945D01*
X0242828Y0150183D01*
X0241210Y0150853D01*
X0234260Y0150853D01*
X0232643Y0150183D01*
X0231513Y0149053D01*
X0230472Y0149053D01*
X0229775Y0149750D01*
X0229775Y0160170D01*
X0229379Y0161126D01*
X0226385Y0164120D01*
X0227078Y0163833D01*
X0231533Y0163833D01*
X0232643Y0162723D01*
X0234260Y0162053D01*
X0241210Y0162053D01*
X0242828Y0162723D01*
X0244065Y0163961D01*
X0244735Y0165578D01*
X0244735Y0167328D01*
X0244065Y0168945D01*
X0242828Y0170183D01*
X0241210Y0170853D01*
X0234260Y0170853D01*
X0232643Y0170183D01*
X0231493Y0169033D01*
X0228672Y0169033D01*
X0214060Y0183645D01*
X0214060Y0189333D01*
X0217018Y0189333D01*
X0221391Y0184960D01*
X0222122Y0184229D01*
X0223078Y0183833D01*
X0231533Y0183833D01*
X0232643Y0182723D01*
X0234260Y0182053D01*
X0241210Y0182053D01*
X0242828Y0182723D01*
X0244065Y0183961D01*
X0244735Y0185578D01*
X0244735Y0187328D01*
X0244065Y0188945D01*
X0242828Y0190183D01*
X0241210Y0190853D01*
X0234260Y0190853D01*
X0232643Y0190183D01*
X0231493Y0189033D01*
X0224672Y0189033D01*
X0219872Y0193833D01*
X0231533Y0193833D01*
X0232643Y0192723D01*
X0234260Y0192053D01*
X0241210Y0192053D01*
X0242828Y0192723D01*
X0244065Y0193961D01*
X0244735Y0195578D01*
X0244735Y0197328D01*
X0244065Y0198945D01*
X0242828Y0200183D01*
X0241210Y0200853D01*
X0234260Y0200853D01*
X0232643Y0200183D01*
X0231493Y0199033D01*
X0216538Y0199033D01*
X0215452Y0199483D01*
X0214238Y0199483D01*
X0213117Y0199019D01*
X0212259Y0198161D01*
X0211795Y0197040D01*
X0211795Y0195826D01*
X0212090Y0195116D01*
X0211711Y0195494D01*
X0211711Y0200046D01*
X0213006Y0200046D01*
X0214060Y0201101D01*
X0214060Y0209083D01*
X0216268Y0209083D01*
X0220391Y0204960D01*
X0221122Y0204229D01*
X0222078Y0203833D01*
X0231533Y0203833D01*
X0232643Y0202723D01*
X0234260Y0202053D01*
X0241210Y0202053D01*
X0242828Y0202723D01*
X0244065Y0203961D01*
X0244735Y0205578D01*
X0244735Y0207328D01*
X0244065Y0208945D01*
X0242828Y0210183D01*
X0241210Y0210853D01*
X0234260Y0210853D01*
X0232643Y0210183D01*
X0231493Y0209033D01*
X0223672Y0209033D01*
X0218852Y0213853D01*
X0231513Y0213853D01*
X0232643Y0212723D01*
X0234260Y0212053D01*
X0241210Y0212053D01*
X0242828Y0212723D01*
X0244065Y0213961D01*
X0244735Y0215578D01*
X0244735Y0217328D01*
X0244065Y0218945D01*
X0242828Y0220183D01*
X0241210Y0220853D01*
X0234260Y0220853D01*
X0232643Y0220183D01*
X0231513Y0219053D01*
X0216990Y0219053D01*
X0215952Y0219483D01*
X0214738Y0219483D01*
X0213617Y0219019D01*
X0212759Y0218161D01*
X0212295Y0217040D01*
X0212295Y0215826D01*
X0212759Y0214705D01*
X0213182Y0214283D01*
X0212672Y0214283D01*
X0211711Y0215244D01*
X0211711Y0220046D01*
X0213006Y0220046D01*
X0214060Y0221101D01*
X0214060Y0229679D01*
X0213006Y0230733D01*
X0205216Y0230733D01*
X0204161Y0229679D01*
X0204161Y0221101D01*
X0205216Y0220046D01*
X0206511Y0220046D01*
X0206511Y0213650D01*
X0206907Y0212695D01*
X0208868Y0210733D01*
X0205216Y0210733D01*
X0204161Y0209679D01*
X0204161Y0201101D01*
X0205216Y0200046D01*
X0206511Y0200046D01*
X0206511Y0193900D01*
X0206907Y0192945D01*
X0209118Y0190733D01*
X0205216Y0190733D01*
X0204161Y0189679D01*
X0204161Y0181101D01*
X0205216Y0180046D01*
X0210305Y0180046D01*
X0222285Y0168066D01*
X0221592Y0168353D01*
X0213667Y0168353D01*
X0213667Y0169994D01*
X0212612Y0171048D01*
X0204822Y0171048D01*
X0203768Y0169994D01*
X0203768Y0161416D01*
X0204822Y0160361D01*
X0212612Y0160361D01*
X0213667Y0161416D01*
X0213667Y0163153D01*
X0219998Y0163153D01*
X0224575Y0158576D01*
X0224575Y0148156D01*
X0224971Y0147200D01*
X0225702Y0146469D01*
X0227922Y0144249D01*
X0228878Y0143853D01*
X0231513Y0143853D01*
X0231533Y0143833D01*
X0227118Y0143833D01*
X0226236Y0143468D01*
X0225561Y0142793D01*
X0221576Y0138808D01*
X0219801Y0138808D01*
X0217871Y0138009D01*
X0216394Y0136532D01*
X0215845Y0135206D01*
X0215296Y0136532D01*
X0213819Y0138009D01*
X0211889Y0138808D01*
X0209801Y0138808D01*
X0207871Y0138009D01*
X0206394Y0136532D01*
X0205845Y0135206D01*
X0205296Y0136532D01*
X0203819Y0138009D01*
X0201889Y0138808D01*
X0199801Y0138808D01*
X0197871Y0138009D01*
X0196394Y0136532D01*
X0195845Y0135206D01*
X0195296Y0136532D01*
X0193819Y0138009D01*
X0191889Y0138808D01*
X0189801Y0138808D01*
X0187871Y0138009D01*
X0186394Y0136532D01*
X0185595Y0134602D01*
X0185595Y0132514D01*
X0186394Y0130584D01*
X0187845Y0129133D01*
X0187845Y0128234D01*
X0187767Y0128202D01*
X0186220Y0126655D01*
X0185383Y0124633D01*
X0185383Y0122445D01*
X0186220Y0120424D01*
X0187767Y0118877D01*
X0189789Y0118039D01*
X0191977Y0118039D01*
X0193998Y0118877D01*
X0195545Y0120424D01*
X0195883Y0121238D01*
X0196220Y0120424D01*
X0197767Y0118877D01*
X0199789Y0118039D01*
X0201977Y0118039D01*
X0203998Y0118877D01*
X0205545Y0120424D01*
X0205883Y0121238D01*
X0206220Y0120424D01*
X0207767Y0118877D01*
X0209789Y0118039D01*
X0211977Y0118039D01*
X0213998Y0118877D01*
X0215545Y0120424D01*
X0215883Y0121238D01*
X0216220Y0120424D01*
X0217767Y0118877D01*
X0219789Y0118039D01*
X0221977Y0118039D01*
X0223998Y0118877D01*
X0225545Y0120424D01*
X0225883Y0121238D01*
X0226220Y0120424D01*
X0227767Y0118877D01*
X0229789Y0118039D01*
X0231977Y0118039D01*
X0233998Y0118877D01*
X0235545Y0120424D01*
X0235883Y0121238D01*
X0236220Y0120424D01*
X0237767Y0118877D01*
X0239789Y0118039D01*
X0241977Y0118039D01*
X0243998Y0118877D01*
X0245545Y0120424D01*
X0245883Y0121238D01*
X0246220Y0120424D01*
X0247767Y0118877D01*
X0249789Y0118039D01*
X0251977Y0118039D01*
X0253998Y0118877D01*
X0255545Y0120424D01*
X0255883Y0121238D01*
X0256220Y0120424D01*
X0257767Y0118877D01*
X0259789Y0118039D01*
X0261977Y0118039D01*
X0263998Y0118877D01*
X0265545Y0120424D01*
X0265883Y0121238D01*
X0266220Y0120424D01*
X0267767Y0118877D01*
X0269789Y0118039D01*
X0271977Y0118039D01*
X0273998Y0118877D01*
X0275545Y0120424D01*
X0275883Y0121238D01*
X0276220Y0120424D01*
X0277767Y0118877D01*
X0279789Y0118039D01*
X0281977Y0118039D01*
X0283998Y0118877D01*
X0285545Y0120424D01*
X0285882Y0121238D01*
X0286179Y0120657D01*
X0286687Y0119956D01*
X0287300Y0119344D01*
X0288000Y0118835D01*
X0288771Y0118442D01*
X0289595Y0118175D01*
X0290450Y0118039D01*
X0290683Y0118039D01*
X0290683Y0123339D01*
X0291083Y0123339D01*
X0291083Y0118039D01*
X0291241Y0118039D01*
X0290460Y0117274D01*
X0181563Y0117274D01*
X0179095Y0119741D01*
X0179095Y0151011D01*
X0184845Y0151011D01*
X0185899Y0152065D01*
X0185899Y0152311D01*
X0186075Y0152311D01*
X0186155Y0152303D01*
X0186929Y0151983D01*
X0188202Y0151983D01*
X0189378Y0152470D01*
X0190278Y0153370D01*
X0190765Y0154547D01*
X0190765Y0155820D01*
X0190278Y0156996D01*
X0189378Y0157896D01*
X0188202Y0158383D01*
X0186929Y0158383D01*
X0186755Y0158311D01*
X0186359Y0158311D01*
X0185907Y0158354D01*
X0185899Y0158352D01*
X0185899Y0158557D01*
X0184845Y0159611D01*
X0179095Y0159611D01*
X0179095Y0161011D01*
X0184845Y0161011D01*
X0185899Y0162065D01*
X0185899Y0163105D01*
X0192744Y0163105D01*
X0192744Y0161416D01*
X0193798Y0160361D01*
X0201589Y0160361D01*
X0202643Y0161416D01*
X0202643Y0169994D01*
X0201589Y0171048D01*
X0193798Y0171048D01*
X0192744Y0169994D01*
X0192744Y0168305D01*
X0190644Y0168305D01*
X0191049Y0168710D01*
X0193172Y0170833D01*
X0193212Y0170833D01*
X0194351Y0171305D01*
X0195223Y0172177D01*
X0195695Y0173316D01*
X0195695Y0174550D01*
X0195223Y0175689D01*
X0194351Y0176561D01*
X0193212Y0177033D01*
X0191979Y0177033D01*
X0190839Y0176561D01*
X0190570Y0176292D01*
X0190278Y0176996D01*
X0189378Y0177896D01*
X0188202Y0178383D01*
X0186929Y0178383D01*
X0186446Y0178183D01*
X0185899Y0178183D01*
X0185899Y0178635D01*
X0184845Y0179690D01*
X0179095Y0179690D01*
X0179095Y0181090D01*
X0184845Y0181090D01*
X0185899Y0182144D01*
X0185899Y0182790D01*
X0193138Y0182790D01*
X0193138Y0181101D01*
X0194192Y0180046D01*
X0201982Y0180046D01*
X0203037Y0181101D01*
X0203037Y0189679D01*
X0201982Y0190733D01*
X0194192Y0190733D01*
X0193138Y0189679D01*
X0193138Y0187990D01*
X0190329Y0187990D01*
X0191049Y0188710D01*
X0193172Y0190833D01*
X0193212Y0190833D01*
X0194351Y0191305D01*
X0195223Y0192177D01*
X0195695Y0193316D01*
X0195695Y0194550D01*
X0195223Y0195689D01*
X0194351Y0196561D01*
X0193212Y0197033D01*
X0191979Y0197033D01*
X0190839Y0196561D01*
X0190570Y0196292D01*
X0190278Y0196996D01*
X0189378Y0197896D01*
X0188202Y0198383D01*
X0186929Y0198383D01*
X0186840Y0198346D01*
X0186735Y0198390D01*
X0186355Y0198390D01*
X0185978Y0198444D01*
X0185899Y0198424D01*
X0185899Y0198635D01*
X0184845Y0199690D01*
X0179095Y0199690D01*
X0179095Y0201090D01*
X0184845Y0201090D01*
X0185899Y0202144D01*
X0185899Y0202790D01*
X0193138Y0202790D01*
X0193138Y0201101D01*
X0194192Y0200046D01*
X0201982Y0200046D01*
X0203037Y0201101D01*
X0203037Y0209679D01*
X0201982Y0210733D01*
X0194192Y0210733D01*
X0193138Y0209679D01*
X0193138Y0207990D01*
X0190329Y0207990D01*
X0191049Y0208710D01*
X0193172Y0210833D01*
X0193212Y0210833D01*
X0194351Y0211305D01*
X0195223Y0212177D01*
X0195695Y0213316D01*
X0195695Y0214550D01*
X0195223Y0215689D01*
X0194351Y0216561D01*
X0193212Y0217033D01*
X0191979Y0217033D01*
X0190839Y0216561D01*
X0190570Y0216292D01*
X0190278Y0216996D01*
X0189378Y0217896D01*
X0188202Y0218383D01*
X0186929Y0218383D01*
X0186446Y0218183D01*
X0185899Y0218183D01*
X0185899Y0218635D01*
X0184845Y0219690D01*
X0179095Y0219690D01*
X0179095Y0221090D01*
X0184845Y0221090D01*
X0185899Y0222144D01*
X0185899Y0222790D01*
X0193138Y0222790D01*
X0193138Y0221101D01*
X0194192Y0220046D01*
X0201982Y0220046D01*
X0203037Y0221101D01*
X0203037Y0229679D01*
X0201982Y0230733D01*
X0194192Y0230733D01*
X0193138Y0229679D01*
X0193138Y0227990D01*
X0190329Y0227990D01*
X0191049Y0228710D01*
X0193172Y0230833D01*
X0193212Y0230833D01*
X0194351Y0231305D01*
X0195223Y0232177D01*
X0195695Y0233316D01*
X0195695Y0234550D01*
X0195223Y0235689D01*
X0194351Y0236561D01*
X0193212Y0237033D01*
X0191979Y0237033D01*
X0190839Y0236561D01*
X0190570Y0236292D01*
X0190278Y0236996D01*
X0189378Y0237896D01*
X0188202Y0238383D01*
X0186929Y0238383D01*
X0186840Y0238346D01*
X0186735Y0238390D01*
X0186355Y0238390D01*
X0185978Y0238444D01*
X0185899Y0238424D01*
X0185899Y0238635D01*
X0184845Y0239690D01*
X0179095Y0239690D01*
X0179095Y0241090D01*
X0184845Y0241090D01*
X0185899Y0242144D01*
X0185899Y0242790D01*
X0193138Y0242790D01*
X0193138Y0241101D01*
X0194192Y0240046D01*
X0201982Y0240046D01*
X0203037Y0241101D01*
X0203037Y0249679D01*
X0201982Y0250733D01*
X0194192Y0250733D01*
X0193138Y0249679D01*
X0193138Y0247990D01*
X0190329Y0247990D01*
X0191049Y0248710D01*
X0193172Y0250833D01*
X0193212Y0250833D01*
X0194351Y0251305D01*
X0195223Y0252177D01*
X0195695Y0253316D01*
X0195695Y0254550D01*
X0195223Y0255689D01*
X0194351Y0256561D01*
X0193212Y0257033D01*
X0191979Y0257033D01*
X0190839Y0256561D01*
X0190570Y0256292D01*
X0190278Y0256996D01*
X0189378Y0257896D01*
X0188202Y0258383D01*
X0186929Y0258383D01*
X0186446Y0258183D01*
X0185899Y0258183D01*
X0185899Y0258635D01*
X0184845Y0259690D01*
X0179095Y0259690D01*
X0179095Y0261090D01*
X0184845Y0261090D01*
X0185899Y0262144D01*
X0185899Y0262790D01*
X0193138Y0262790D01*
X0193138Y0261101D01*
X0194192Y0260046D01*
X0201982Y0260046D01*
X0203037Y0261101D01*
X0203037Y0269679D01*
X0201982Y0270733D01*
X0194192Y0270733D01*
X0193138Y0269679D01*
X0193138Y0267990D01*
X0190329Y0267990D01*
X0191049Y0268710D01*
X0193172Y0270833D01*
X0193212Y0270833D01*
X0194351Y0271305D01*
X0195223Y0272177D01*
X0195695Y0273316D01*
X0195695Y0274550D01*
X0195223Y0275689D01*
X0194351Y0276561D01*
X0193212Y0277033D01*
X0191979Y0277033D01*
X0190839Y0276561D01*
X0190570Y0276292D01*
X0190278Y0276996D01*
X0189378Y0277896D01*
X0188202Y0278383D01*
X0186929Y0278383D01*
X0186840Y0278346D01*
X0186735Y0278390D01*
X0186355Y0278390D01*
X0185978Y0278444D01*
X0185899Y0278424D01*
X0185899Y0278635D01*
X0184845Y0279690D01*
X0179095Y0279690D01*
X0179095Y0281090D01*
X0184845Y0281090D01*
X0185899Y0282144D01*
X0185899Y0282790D01*
X0193138Y0282790D01*
X0193138Y0281101D01*
X0194192Y0280046D01*
X0201982Y0280046D01*
X0203037Y0281101D01*
X0203037Y0289679D01*
X0201982Y0290733D01*
X0194192Y0290733D01*
X0193138Y0289679D01*
X0193138Y0287990D01*
X0185899Y0287990D01*
X0185899Y0288635D01*
X0184845Y0289690D01*
X0179095Y0289690D01*
X0179095Y0297283D01*
X0374412Y0297283D01*
X0395945Y0275750D01*
X0395945Y0059617D01*
X0374412Y0038083D01*
X0179095Y0038083D01*
X0179095Y0073125D01*
X0192978Y0087007D01*
X0197021Y0091051D01*
X0197978Y0092007D01*
X0198495Y0093257D01*
X0198495Y0107466D01*
X0201503Y0110474D01*
X0291829Y0110474D01*
X0292488Y0110467D01*
X0292505Y0110474D01*
X0292523Y0110474D01*
X0293131Y0110726D01*
X0293743Y0110972D01*
X0293756Y0110985D01*
X0293773Y0110992D01*
X0294238Y0111456D01*
X0300961Y0118039D01*
X0301977Y0118039D01*
X0303998Y0118877D01*
X0304995Y0119874D01*
X0304995Y0119260D01*
X0291518Y0105783D01*
X0240328Y0105783D01*
X0239372Y0105387D01*
X0238641Y0104656D01*
X0238641Y0104656D01*
X0236533Y0102548D01*
X0236482Y0102426D01*
X0192512Y0058817D01*
X0191977Y0059039D01*
X0189789Y0059039D01*
X0187767Y0058202D01*
X0186220Y0056655D01*
X0185383Y0054633D01*
X0185383Y0052445D01*
X0186220Y0050424D01*
X0187767Y0048877D01*
X0187883Y0048829D01*
X0187883Y0047888D01*
X0187871Y0047884D01*
X0186394Y0046407D01*
X0185595Y0044477D01*
X0185595Y0042389D01*
X0186394Y0040459D01*
X0187871Y0038982D01*
X0189801Y0038183D01*
X0191889Y0038183D01*
X0193819Y0038982D01*
X0195296Y0040459D01*
X0195845Y0041785D01*
X0196394Y0040459D01*
X0197871Y0038982D01*
X0199801Y0038183D01*
X0201889Y0038183D01*
X0203819Y0038982D01*
X0205296Y0040459D01*
X0205845Y0041785D01*
X0206394Y0040459D01*
X0207871Y0038982D01*
X0209801Y0038183D01*
X0211889Y0038183D01*
X0213819Y0038982D01*
X0215296Y0040459D01*
X0215845Y0041785D01*
X0216394Y0040459D01*
X0217871Y0038982D01*
X0219801Y0038183D01*
X0221889Y0038183D01*
X0223819Y0038982D01*
X0225296Y0040459D01*
X0225845Y0041785D01*
X0226394Y0040459D01*
X0227871Y0038982D01*
X0229801Y0038183D01*
X0231889Y0038183D01*
X0233819Y0038982D01*
X0235296Y0040459D01*
X0235845Y0041785D01*
X0236394Y0040459D01*
X0237871Y0038982D01*
X0239801Y0038183D01*
X0241889Y0038183D01*
X0243819Y0038982D01*
X0245296Y0040459D01*
X0245845Y0041785D01*
X0246394Y0040459D01*
X0247871Y0038982D01*
X0249801Y0038183D01*
X0251889Y0038183D01*
X0253819Y0038982D01*
X0255296Y0040459D01*
X0255845Y0041785D01*
X0256394Y0040459D01*
X0257871Y0038982D01*
X0259801Y0038183D01*
X0261889Y0038183D01*
X0263819Y0038982D01*
X0265296Y0040459D01*
X0265854Y0041806D01*
X0265980Y0041418D01*
X0266355Y0040681D01*
X0266841Y0040013D01*
X0267425Y0039429D01*
X0268094Y0038943D01*
X0268830Y0038568D01*
X0269616Y0038312D01*
X0270432Y0038183D01*
X0270770Y0038183D01*
X0270770Y0043358D01*
X0270920Y0043358D01*
X0270920Y0038183D01*
X0271258Y0038183D01*
X0272075Y0038312D01*
X0272860Y0038568D01*
X0273597Y0038943D01*
X0274265Y0039429D01*
X0274850Y0040013D01*
X0275335Y0040681D01*
X0275710Y0041418D01*
X0275837Y0041806D01*
X0276394Y0040459D01*
X0277871Y0038982D01*
X0279801Y0038183D01*
X0281889Y0038183D01*
X0283819Y0038982D01*
X0285296Y0040459D01*
X0285845Y0041785D01*
X0286394Y0040459D01*
X0287871Y0038982D01*
X0289801Y0038183D01*
X0291889Y0038183D01*
X0293819Y0038982D01*
X0295296Y0040459D01*
X0295845Y0041785D01*
X0296394Y0040459D01*
X0297871Y0038982D01*
X0299801Y0038183D01*
X0301889Y0038183D01*
X0303819Y0038982D01*
X0304995Y0040158D01*
X0332252Y0040158D01*
X0332252Y0040026D01*
X0333306Y0038972D01*
X0341884Y0038972D01*
X0342938Y0040026D01*
X0342938Y0040158D01*
X0343396Y0040158D01*
X0344646Y0040676D01*
X0357478Y0053507D01*
X0357995Y0054757D01*
X0357995Y0067025D01*
X0377080Y0086110D01*
X0378037Y0087066D01*
X0378441Y0088042D01*
X0379365Y0088042D01*
X0380420Y0089096D01*
X0380420Y0098461D01*
X0379365Y0099516D01*
X0378554Y0099516D01*
X0378554Y0104712D01*
X0378954Y0105677D01*
X0378954Y0107189D01*
X0378376Y0108586D01*
X0377307Y0109655D01*
X0375910Y0110233D01*
X0374398Y0110233D01*
X0373002Y0109655D01*
X0371933Y0108586D01*
X0371354Y0107189D01*
X0371842Y0108366D02*
X0335709Y0108366D01*
X0334159Y0108366D02*
X0318205Y0108366D01*
X0319801Y0109965D02*
X0329590Y0109965D01*
X0329590Y0111563D02*
X0320195Y0111563D01*
X0320195Y0113162D02*
X0330054Y0113162D01*
X0334159Y0113162D02*
X0335709Y0113162D01*
X0335709Y0111563D02*
X0334159Y0111563D01*
X0334159Y0109965D02*
X0335709Y0109965D01*
X0334159Y0108028D02*
X0329590Y0108028D01*
X0329590Y0105417D01*
X0329713Y0104959D01*
X0329950Y0104548D01*
X0330285Y0104213D01*
X0330696Y0103976D01*
X0331153Y0103854D01*
X0334159Y0103854D01*
X0334159Y0108028D01*
X0334159Y0106768D02*
X0335709Y0106768D01*
X0335709Y0105169D02*
X0334159Y0105169D01*
X0329657Y0105169D02*
X0315008Y0105169D01*
X0313410Y0103571D02*
X0316727Y0103571D01*
X0315835Y0101972D02*
X0311811Y0101972D01*
X0312962Y0100374D02*
X0314237Y0100374D01*
X0310095Y0098933D02*
X0290970Y0079808D01*
X0290970Y0053452D01*
X0294986Y0057214D02*
X0296779Y0057214D01*
X0299240Y0058812D02*
X0293570Y0058812D01*
X0295095Y0062433D02*
X0298845Y0062433D01*
X0326595Y0090183D01*
X0326595Y0096933D01*
X0323801Y0095578D02*
X0316795Y0095578D01*
X0318393Y0097177D02*
X0323495Y0097177D01*
X0324053Y0098775D02*
X0320657Y0098775D01*
X0321890Y0100374D02*
X0329590Y0100374D01*
X0329590Y0098775D02*
X0329137Y0098775D01*
X0329389Y0095578D02*
X0329590Y0095578D01*
X0329590Y0093979D02*
X0329195Y0093979D01*
X0329195Y0092381D02*
X0336655Y0092381D01*
X0338254Y0090782D02*
X0329195Y0090782D01*
X0328995Y0089184D02*
X0339852Y0089184D01*
X0339995Y0087585D02*
X0327674Y0087585D01*
X0326076Y0085987D02*
X0339995Y0085987D01*
X0339995Y0084388D02*
X0324477Y0084388D01*
X0322879Y0082790D02*
X0339995Y0082790D01*
X0335795Y0081191D02*
X0335395Y0081191D01*
X0335395Y0079593D02*
X0335795Y0079593D01*
X0335795Y0078233D02*
X0335795Y0074383D01*
X0336250Y0074383D01*
X0335295Y0073429D01*
X0335295Y0073033D01*
X0334672Y0073033D01*
X0333309Y0074396D01*
X0333358Y0074383D01*
X0335395Y0074383D01*
X0335395Y0078233D01*
X0335795Y0078233D01*
X0335795Y0077994D02*
X0335395Y0077994D01*
X0335395Y0076396D02*
X0335795Y0076396D01*
X0335795Y0074797D02*
X0335395Y0074797D01*
X0335295Y0073199D02*
X0334506Y0073199D01*
X0333595Y0070433D02*
X0339095Y0070433D01*
X0339095Y0062933D01*
X0337595Y0061433D01*
X0337595Y0054945D01*
X0332252Y0055615D02*
X0305976Y0055615D01*
X0306383Y0054017D02*
X0332252Y0054017D01*
X0332252Y0052418D02*
X0306371Y0052418D01*
X0305709Y0050820D02*
X0332482Y0050820D01*
X0332252Y0047623D02*
X0304283Y0047623D01*
X0304342Y0049221D02*
X0343575Y0049221D01*
X0342708Y0050820D02*
X0345173Y0050820D01*
X0346772Y0052418D02*
X0342938Y0052418D01*
X0342938Y0054017D02*
X0348370Y0054017D01*
X0349969Y0055615D02*
X0342938Y0055615D01*
X0342938Y0057214D02*
X0351195Y0057214D01*
X0351195Y0058812D02*
X0342938Y0058812D01*
X0340250Y0060411D02*
X0351195Y0060411D01*
X0351195Y0062009D02*
X0341527Y0062009D01*
X0341695Y0063608D02*
X0351195Y0063608D01*
X0351195Y0065206D02*
X0341695Y0065206D01*
X0342262Y0066805D02*
X0351195Y0066805D01*
X0351195Y0068403D02*
X0342895Y0068403D01*
X0342895Y0070002D02*
X0351565Y0070002D01*
X0352954Y0071600D02*
X0342895Y0071600D01*
X0342895Y0073199D02*
X0354553Y0073199D01*
X0356151Y0074797D02*
X0345755Y0074797D01*
X0346395Y0076396D02*
X0357750Y0076396D01*
X0359348Y0077994D02*
X0346395Y0077994D01*
X0346395Y0079593D02*
X0360947Y0079593D01*
X0362545Y0081191D02*
X0346395Y0081191D01*
X0345195Y0082790D02*
X0364144Y0082790D01*
X0365742Y0084388D02*
X0345195Y0084388D01*
X0345195Y0085987D02*
X0367341Y0085987D01*
X0368939Y0087585D02*
X0345195Y0087585D01*
X0345195Y0089184D02*
X0360521Y0089184D01*
X0360521Y0090782D02*
X0345134Y0090782D01*
X0344009Y0092381D02*
X0360521Y0092381D01*
X0360521Y0093979D02*
X0342411Y0093979D01*
X0342595Y0090118D02*
X0334934Y0097780D01*
X0361469Y0097780D01*
X0365470Y0093779D01*
X0370106Y0098775D02*
X0370834Y0098775D01*
X0370521Y0097177D02*
X0370420Y0097177D01*
X0370420Y0095578D02*
X0370521Y0095578D01*
X0370521Y0093979D02*
X0370420Y0093979D01*
X0370420Y0092381D02*
X0370521Y0092381D01*
X0370521Y0090782D02*
X0370420Y0090782D01*
X0370420Y0089184D02*
X0370521Y0089184D01*
X0375154Y0091433D02*
X0375470Y0091749D01*
X0375470Y0093779D01*
X0380420Y0093979D02*
X0395945Y0093979D01*
X0395945Y0092381D02*
X0380420Y0092381D01*
X0380420Y0090782D02*
X0395945Y0090782D01*
X0395945Y0089184D02*
X0380420Y0089184D01*
X0378252Y0087585D02*
X0395945Y0087585D01*
X0395945Y0085987D02*
X0376957Y0085987D01*
X0375359Y0084388D02*
X0395945Y0084388D01*
X0395945Y0082790D02*
X0373760Y0082790D01*
X0372162Y0081191D02*
X0395945Y0081191D01*
X0395945Y0079593D02*
X0370563Y0079593D01*
X0368965Y0077994D02*
X0395945Y0077994D01*
X0395945Y0076396D02*
X0367366Y0076396D01*
X0365768Y0074797D02*
X0395945Y0074797D01*
X0395945Y0073199D02*
X0364169Y0073199D01*
X0362571Y0071600D02*
X0395945Y0071600D01*
X0395945Y0070002D02*
X0373376Y0070002D01*
X0373366Y0070019D02*
X0373031Y0070354D01*
X0372621Y0070591D01*
X0372163Y0070713D01*
X0367829Y0070713D01*
X0367829Y0067080D01*
X0373726Y0067080D01*
X0373726Y0069150D01*
X0373603Y0069608D01*
X0373366Y0070019D01*
X0373726Y0068403D02*
X0395945Y0068403D01*
X0395945Y0066805D02*
X0367829Y0066805D01*
X0367829Y0066613D02*
X0367829Y0067080D01*
X0367362Y0067080D01*
X0367362Y0070713D01*
X0363027Y0070713D01*
X0362570Y0070591D01*
X0362159Y0070354D01*
X0361824Y0070019D01*
X0361587Y0069608D01*
X0361464Y0069150D01*
X0361464Y0067080D01*
X0367362Y0067080D01*
X0367362Y0066613D01*
X0361464Y0066613D01*
X0361464Y0064543D01*
X0361587Y0064085D01*
X0361824Y0063674D01*
X0362159Y0063339D01*
X0362570Y0063102D01*
X0363027Y0062980D01*
X0363295Y0062980D01*
X0363295Y0059887D01*
X0363027Y0059887D01*
X0362570Y0059764D01*
X0362159Y0059527D01*
X0361824Y0059192D01*
X0361587Y0058781D01*
X0361464Y0058324D01*
X0361464Y0056253D01*
X0367362Y0056253D01*
X0367362Y0055786D01*
X0367829Y0055786D01*
X0367829Y0056253D01*
X0373726Y0056253D01*
X0373726Y0057633D01*
X0380031Y0057633D01*
X0380046Y0057618D01*
X0381700Y0056933D01*
X0383490Y0056933D01*
X0385144Y0057618D01*
X0386410Y0058884D01*
X0387095Y0060538D01*
X0387095Y0062328D01*
X0386410Y0063982D01*
X0385144Y0065248D01*
X0383490Y0065933D01*
X0381700Y0065933D01*
X0380046Y0065248D01*
X0380031Y0065233D01*
X0373726Y0065233D01*
X0373726Y0066613D01*
X0367829Y0066613D01*
X0367362Y0066805D02*
X0357995Y0066805D01*
X0357995Y0065206D02*
X0361464Y0065206D01*
X0361891Y0063608D02*
X0357995Y0063608D01*
X0357995Y0062009D02*
X0363295Y0062009D01*
X0363295Y0060411D02*
X0357995Y0060411D01*
X0357995Y0058812D02*
X0361605Y0058812D01*
X0361464Y0057214D02*
X0357995Y0057214D01*
X0357995Y0055615D02*
X0361464Y0055615D01*
X0361464Y0055786D02*
X0361464Y0053716D01*
X0361587Y0053258D01*
X0361824Y0052848D01*
X0362159Y0052512D01*
X0362570Y0052275D01*
X0363027Y0052153D01*
X0367362Y0052153D01*
X0367362Y0055786D01*
X0361464Y0055786D01*
X0361464Y0054017D02*
X0357689Y0054017D01*
X0356389Y0052418D02*
X0362322Y0052418D01*
X0367362Y0052418D02*
X0367829Y0052418D01*
X0367829Y0052153D02*
X0372163Y0052153D01*
X0372621Y0052275D01*
X0373031Y0052512D01*
X0373366Y0052848D01*
X0373603Y0053258D01*
X0373726Y0053716D01*
X0373726Y0055786D01*
X0367829Y0055786D01*
X0367829Y0052153D01*
X0367829Y0054017D02*
X0367362Y0054017D01*
X0367362Y0055615D02*
X0367829Y0055615D01*
X0373726Y0055615D02*
X0391944Y0055615D01*
X0390345Y0054017D02*
X0373726Y0054017D01*
X0372868Y0052418D02*
X0388747Y0052418D01*
X0387148Y0050820D02*
X0354790Y0050820D01*
X0353192Y0049221D02*
X0385550Y0049221D01*
X0383951Y0047623D02*
X0351593Y0047623D01*
X0349995Y0046024D02*
X0382353Y0046024D01*
X0380754Y0044426D02*
X0348396Y0044426D01*
X0346798Y0042827D02*
X0379156Y0042827D01*
X0377557Y0041229D02*
X0345199Y0041229D01*
X0342542Y0039630D02*
X0375959Y0039630D01*
X0373726Y0057214D02*
X0381022Y0057214D01*
X0384168Y0057214D02*
X0393542Y0057214D01*
X0395141Y0058812D02*
X0386338Y0058812D01*
X0387042Y0060411D02*
X0395945Y0060411D01*
X0395945Y0062009D02*
X0387095Y0062009D01*
X0386565Y0063608D02*
X0395945Y0063608D01*
X0395945Y0065206D02*
X0385186Y0065206D01*
X0367829Y0068403D02*
X0367362Y0068403D01*
X0367362Y0070002D02*
X0367829Y0070002D01*
X0361814Y0070002D02*
X0360972Y0070002D01*
X0361464Y0068403D02*
X0359374Y0068403D01*
X0342595Y0078433D02*
X0342595Y0090118D01*
X0339980Y0101972D02*
X0371754Y0101972D01*
X0371754Y0100374D02*
X0362001Y0100374D01*
X0371754Y0103571D02*
X0321220Y0103571D01*
X0322073Y0101972D02*
X0329888Y0101972D01*
X0329590Y0106768D02*
X0316607Y0106768D01*
X0317595Y0111433D02*
X0317595Y0126433D01*
X0320597Y0127548D02*
X0325355Y0127548D01*
X0324995Y0129147D02*
X0319406Y0129147D01*
X0318084Y0130745D02*
X0324995Y0130745D01*
X0324995Y0132344D02*
X0319683Y0132344D01*
X0321281Y0133942D02*
X0324995Y0133942D01*
X0324995Y0135541D02*
X0322880Y0135541D01*
X0324478Y0137139D02*
X0325073Y0137139D01*
X0326122Y0138637D02*
X0326122Y0138637D01*
X0326077Y0138738D02*
X0326223Y0138738D01*
X0327675Y0140336D02*
X0327821Y0140336D01*
X0329274Y0141935D02*
X0329420Y0141935D01*
X0330872Y0143533D02*
X0331018Y0143533D01*
X0332471Y0145132D02*
X0333118Y0145132D01*
X0333081Y0141919D02*
X0327595Y0136433D01*
X0327595Y0128933D01*
X0338845Y0117683D01*
X0378845Y0117683D01*
X0385095Y0123933D01*
X0385095Y0156433D01*
X0381964Y0159565D01*
X0378796Y0159565D01*
X0382495Y0153124D02*
X0362695Y0153124D01*
X0362695Y0151526D02*
X0382495Y0151526D01*
X0382495Y0149927D02*
X0362695Y0149927D01*
X0362695Y0148329D02*
X0382495Y0148329D01*
X0382495Y0146730D02*
X0362695Y0146730D01*
X0362695Y0145132D02*
X0382495Y0145132D01*
X0382495Y0143533D02*
X0362695Y0143533D01*
X0362695Y0141935D02*
X0382495Y0141935D01*
X0382495Y0140336D02*
X0362695Y0140336D01*
X0362695Y0138738D02*
X0382495Y0138738D01*
X0382495Y0137139D02*
X0362695Y0137139D01*
X0362695Y0137075D02*
X0362695Y0170356D01*
X0369104Y0176765D01*
X0369803Y0176765D01*
X0370064Y0176136D01*
X0371667Y0174532D01*
X0373762Y0173665D01*
X0383830Y0173665D01*
X0385925Y0174532D01*
X0387528Y0176136D01*
X0388396Y0178231D01*
X0388396Y0180498D01*
X0387528Y0182593D01*
X0385925Y0184197D01*
X0383830Y0185065D01*
X0373762Y0185065D01*
X0371667Y0184197D01*
X0370064Y0182593D01*
X0369803Y0181965D01*
X0367509Y0181965D01*
X0366554Y0181569D01*
X0358622Y0173637D01*
X0357891Y0172906D01*
X0357495Y0171950D01*
X0357495Y0133416D01*
X0357891Y0132460D01*
X0360391Y0129960D01*
X0360521Y0129831D01*
X0360521Y0126655D01*
X0361575Y0125601D01*
X0369365Y0125601D01*
X0370420Y0126655D01*
X0370420Y0136020D01*
X0369365Y0137075D01*
X0362695Y0137075D01*
X0360095Y0133933D02*
X0362595Y0131433D01*
X0362595Y0131808D01*
X0362970Y0131433D01*
X0365470Y0131338D01*
X0360521Y0129147D02*
X0343805Y0129147D01*
X0343805Y0130745D02*
X0359606Y0130745D01*
X0358008Y0132344D02*
X0343805Y0132344D01*
X0343805Y0133942D02*
X0357495Y0133942D01*
X0357495Y0135541D02*
X0343055Y0135541D01*
X0342920Y0137139D02*
X0357495Y0137139D01*
X0357495Y0138738D02*
X0343805Y0138738D01*
X0343805Y0140336D02*
X0357495Y0140336D01*
X0357495Y0141935D02*
X0343805Y0141935D01*
X0343805Y0143533D02*
X0357495Y0143533D01*
X0357495Y0145132D02*
X0343805Y0145132D01*
X0342889Y0146730D02*
X0357495Y0146730D01*
X0357495Y0148329D02*
X0335668Y0148329D01*
X0337266Y0149927D02*
X0357495Y0149927D01*
X0357495Y0151526D02*
X0338865Y0151526D01*
X0340463Y0153124D02*
X0357495Y0153124D01*
X0357495Y0154723D02*
X0342062Y0154723D01*
X0343660Y0156321D02*
X0357495Y0156321D01*
X0357495Y0157920D02*
X0345259Y0157920D01*
X0346857Y0159518D02*
X0357495Y0159518D01*
X0357495Y0161117D02*
X0348456Y0161117D01*
X0350054Y0162715D02*
X0357495Y0162715D01*
X0357495Y0164314D02*
X0351653Y0164314D01*
X0353251Y0165912D02*
X0357495Y0165912D01*
X0357495Y0167511D02*
X0354820Y0167511D01*
X0355195Y0169110D02*
X0357495Y0169110D01*
X0357495Y0170708D02*
X0355195Y0170708D01*
X0355195Y0172307D02*
X0357643Y0172307D01*
X0358890Y0173905D02*
X0355195Y0173905D01*
X0355195Y0175504D02*
X0360489Y0175504D01*
X0362087Y0177102D02*
X0355195Y0177102D01*
X0355195Y0178701D02*
X0363686Y0178701D01*
X0365284Y0180299D02*
X0355195Y0180299D01*
X0355195Y0181898D02*
X0367348Y0181898D01*
X0368027Y0179365D02*
X0360095Y0171433D01*
X0360095Y0133933D01*
X0360521Y0127548D02*
X0343805Y0127548D01*
X0342754Y0125950D02*
X0361226Y0125950D01*
X0369336Y0124351D02*
X0343354Y0124351D01*
X0342595Y0121433D02*
X0338461Y0125567D01*
X0338461Y0130896D01*
X0333118Y0130745D02*
X0330195Y0130745D01*
X0330195Y0132344D02*
X0333118Y0132344D01*
X0333118Y0133942D02*
X0330195Y0133942D01*
X0330380Y0135541D02*
X0333868Y0135541D01*
X0334003Y0137139D02*
X0331978Y0137139D01*
X0333081Y0141919D02*
X0338461Y0141919D01*
X0333118Y0129147D02*
X0331058Y0129147D01*
X0332657Y0127548D02*
X0333118Y0127548D01*
X0328500Y0124351D02*
X0320195Y0124351D01*
X0320195Y0122753D02*
X0330099Y0122753D01*
X0331697Y0121154D02*
X0320195Y0121154D01*
X0320195Y0119556D02*
X0333296Y0119556D01*
X0334894Y0117957D02*
X0320195Y0117957D01*
X0320195Y0116359D02*
X0336493Y0116359D01*
X0339814Y0113162D02*
X0395945Y0113162D01*
X0395945Y0114760D02*
X0320195Y0114760D01*
X0317595Y0111433D02*
X0260883Y0054720D01*
X0260883Y0053539D01*
X0260970Y0053452D01*
X0268168Y0058329D02*
X0288370Y0078531D01*
X0288370Y0058452D01*
X0287767Y0058202D01*
X0286220Y0056655D01*
X0285883Y0055840D01*
X0285545Y0056655D01*
X0283998Y0058202D01*
X0281977Y0059039D01*
X0279789Y0059039D01*
X0277767Y0058202D01*
X0276220Y0056655D01*
X0275883Y0055841D01*
X0275587Y0056422D01*
X0275078Y0057122D01*
X0274466Y0057735D01*
X0273765Y0058243D01*
X0272994Y0058636D01*
X0272170Y0058904D01*
X0271315Y0059039D01*
X0271083Y0059039D01*
X0271083Y0053739D01*
X0270683Y0053739D01*
X0270683Y0059039D01*
X0270450Y0059039D01*
X0269595Y0058904D01*
X0268771Y0058636D01*
X0268168Y0058329D01*
X0268651Y0058812D02*
X0269312Y0058812D01*
X0270683Y0058812D02*
X0271083Y0058812D01*
X0272453Y0058812D02*
X0279240Y0058812D01*
X0276779Y0057214D02*
X0274986Y0057214D01*
X0271083Y0057214D02*
X0270683Y0057214D01*
X0270683Y0055615D02*
X0271083Y0055615D01*
X0271083Y0054017D02*
X0270683Y0054017D01*
X0270683Y0053339D02*
X0271083Y0053339D01*
X0271083Y0048683D01*
X0270920Y0048683D01*
X0270920Y0043508D01*
X0270770Y0043508D01*
X0270770Y0048683D01*
X0270683Y0048683D01*
X0270683Y0053339D01*
X0270683Y0052418D02*
X0271083Y0052418D01*
X0271083Y0050820D02*
X0270683Y0050820D01*
X0270683Y0049221D02*
X0271083Y0049221D01*
X0270920Y0047623D02*
X0270770Y0047623D01*
X0270770Y0046024D02*
X0270920Y0046024D01*
X0270920Y0044426D02*
X0270770Y0044426D01*
X0270770Y0042827D02*
X0270920Y0042827D01*
X0270920Y0041229D02*
X0270770Y0041229D01*
X0270770Y0039630D02*
X0270920Y0039630D01*
X0274467Y0039630D02*
X0277223Y0039630D01*
X0276076Y0041229D02*
X0275614Y0041229D01*
X0267223Y0039630D02*
X0264467Y0039630D01*
X0265615Y0041229D02*
X0266076Y0041229D01*
X0257223Y0039630D02*
X0254467Y0039630D01*
X0255615Y0041229D02*
X0256076Y0041229D01*
X0247223Y0039630D02*
X0244467Y0039630D01*
X0245615Y0041229D02*
X0246076Y0041229D01*
X0237223Y0039630D02*
X0234467Y0039630D01*
X0235615Y0041229D02*
X0236076Y0041229D01*
X0227223Y0039630D02*
X0224467Y0039630D01*
X0225615Y0041229D02*
X0226076Y0041229D01*
X0217223Y0039630D02*
X0214467Y0039630D01*
X0215615Y0041229D02*
X0216076Y0041229D01*
X0207223Y0039630D02*
X0204467Y0039630D01*
X0205615Y0041229D02*
X0206076Y0041229D01*
X0197223Y0039630D02*
X0194467Y0039630D01*
X0195615Y0041229D02*
X0196076Y0041229D01*
X0187223Y0039630D02*
X0179095Y0039630D01*
X0179095Y0041229D02*
X0186076Y0041229D01*
X0185595Y0042827D02*
X0179095Y0042827D01*
X0179095Y0044426D02*
X0185595Y0044426D01*
X0186236Y0046024D02*
X0179095Y0046024D01*
X0179095Y0047623D02*
X0187610Y0047623D01*
X0187423Y0049221D02*
X0179095Y0049221D01*
X0179095Y0050820D02*
X0186056Y0050820D01*
X0185394Y0052418D02*
X0179095Y0052418D01*
X0179095Y0054017D02*
X0185383Y0054017D01*
X0185789Y0055615D02*
X0179095Y0055615D01*
X0179095Y0057214D02*
X0186779Y0057214D01*
X0189240Y0058812D02*
X0179095Y0058812D01*
X0179095Y0060411D02*
X0194119Y0060411D01*
X0195730Y0062009D02*
X0179095Y0062009D01*
X0179095Y0063608D02*
X0197342Y0063608D01*
X0198954Y0065206D02*
X0179095Y0065206D01*
X0179095Y0066805D02*
X0200566Y0066805D01*
X0202178Y0068403D02*
X0179095Y0068403D01*
X0179095Y0070002D02*
X0203789Y0070002D01*
X0205401Y0071600D02*
X0179095Y0071600D01*
X0179169Y0073199D02*
X0207013Y0073199D01*
X0208625Y0074797D02*
X0180768Y0074797D01*
X0182366Y0076396D02*
X0210236Y0076396D01*
X0211848Y0077994D02*
X0183965Y0077994D01*
X0185563Y0079593D02*
X0213460Y0079593D01*
X0215072Y0081191D02*
X0187162Y0081191D01*
X0188760Y0082790D02*
X0216684Y0082790D01*
X0218295Y0084388D02*
X0190359Y0084388D01*
X0191957Y0085987D02*
X0219907Y0085987D01*
X0221519Y0087585D02*
X0193556Y0087585D01*
X0195154Y0089184D02*
X0223131Y0089184D01*
X0224742Y0090782D02*
X0196753Y0090782D01*
X0198132Y0092381D02*
X0226354Y0092381D01*
X0227966Y0093979D02*
X0198495Y0093979D01*
X0198495Y0095578D02*
X0229578Y0095578D01*
X0231189Y0097177D02*
X0198495Y0097177D01*
X0198495Y0098775D02*
X0232801Y0098775D01*
X0234413Y0100374D02*
X0198495Y0100374D01*
X0198495Y0101972D02*
X0236025Y0101972D01*
X0237556Y0103571D02*
X0198495Y0103571D01*
X0198495Y0105169D02*
X0239154Y0105169D01*
X0240845Y0103183D02*
X0238737Y0101075D01*
X0238737Y0101000D01*
X0190883Y0053539D01*
X0191095Y0053327D01*
X0190970Y0053452D02*
X0190883Y0053539D01*
X0200883Y0053539D02*
X0200970Y0053452D01*
X0200883Y0053539D02*
X0200883Y0058470D01*
X0235863Y0093451D01*
X0235863Y0093520D01*
X0240863Y0098576D01*
X0241720Y0099433D01*
X0295595Y0099433D01*
X0312595Y0116433D01*
X0312595Y0128933D01*
X0352595Y0168933D01*
X0352595Y0192183D01*
X0356095Y0195683D01*
X0378595Y0195683D01*
X0383637Y0197883D02*
X0395945Y0197883D01*
X0395945Y0199481D02*
X0382575Y0199481D01*
X0381770Y0201080D02*
X0395945Y0201080D01*
X0395945Y0202678D02*
X0383304Y0202678D01*
X0383966Y0204277D02*
X0395945Y0204277D01*
X0395945Y0205875D02*
X0384095Y0205875D01*
X0383807Y0207474D02*
X0395945Y0207474D01*
X0395945Y0209072D02*
X0382984Y0209072D01*
X0380926Y0210671D02*
X0395945Y0210671D01*
X0395945Y0212269D02*
X0345995Y0212269D01*
X0345995Y0210671D02*
X0376264Y0210671D01*
X0374206Y0209072D02*
X0345995Y0209072D01*
X0345995Y0207474D02*
X0352459Y0207474D01*
X0350860Y0205875D02*
X0345995Y0205875D01*
X0345995Y0204277D02*
X0349262Y0204277D01*
X0347663Y0202678D02*
X0345995Y0202678D01*
X0345995Y0201080D02*
X0346065Y0201080D01*
X0347595Y0198933D02*
X0347595Y0171933D01*
X0347595Y0168933D01*
X0307595Y0128933D01*
X0307595Y0118183D01*
X0292595Y0103183D01*
X0240845Y0103183D01*
X0242797Y0096833D02*
X0294318Y0096833D01*
X0266518Y0069033D01*
X0257078Y0069033D01*
X0256122Y0068637D01*
X0255391Y0067906D01*
X0248678Y0061193D01*
X0248283Y0060238D01*
X0248283Y0058416D01*
X0247767Y0058202D01*
X0246220Y0056655D01*
X0245883Y0055840D01*
X0245545Y0056655D01*
X0243998Y0058202D01*
X0241977Y0059039D01*
X0239789Y0059039D01*
X0237767Y0058202D01*
X0236220Y0056655D01*
X0235883Y0055840D01*
X0235545Y0056655D01*
X0233998Y0058202D01*
X0233483Y0058416D01*
X0233483Y0068663D01*
X0233087Y0069618D01*
X0230795Y0071910D01*
X0230795Y0072070D01*
X0230308Y0073246D01*
X0229408Y0074146D01*
X0228232Y0074633D01*
X0226959Y0074633D01*
X0225782Y0074146D01*
X0224882Y0073246D01*
X0224395Y0072070D01*
X0224395Y0070797D01*
X0224882Y0069620D01*
X0225782Y0068720D01*
X0226959Y0068233D01*
X0227118Y0068233D01*
X0228283Y0067069D01*
X0228283Y0058416D01*
X0227767Y0058202D01*
X0226220Y0056655D01*
X0225883Y0055840D01*
X0225545Y0056655D01*
X0223998Y0058202D01*
X0221977Y0059039D01*
X0219789Y0059039D01*
X0217767Y0058202D01*
X0216220Y0056655D01*
X0215883Y0055840D01*
X0215545Y0056655D01*
X0213998Y0058202D01*
X0211977Y0059039D01*
X0209789Y0059039D01*
X0207767Y0058202D01*
X0206220Y0056655D01*
X0205883Y0055840D01*
X0205545Y0056655D01*
X0204145Y0058056D01*
X0238067Y0091978D01*
X0238119Y0092104D01*
X0242707Y0096743D01*
X0242797Y0096833D01*
X0241555Y0095578D02*
X0293063Y0095578D01*
X0291465Y0093979D02*
X0239974Y0093979D01*
X0238393Y0092381D02*
X0289866Y0092381D01*
X0288268Y0090782D02*
X0236871Y0090782D01*
X0235273Y0089184D02*
X0286669Y0089184D01*
X0285071Y0087585D02*
X0233674Y0087585D01*
X0232076Y0085987D02*
X0283472Y0085987D01*
X0281874Y0084388D02*
X0230477Y0084388D01*
X0228879Y0082790D02*
X0280275Y0082790D01*
X0278677Y0081191D02*
X0227280Y0081191D01*
X0225682Y0079593D02*
X0277078Y0079593D01*
X0275480Y0077994D02*
X0224083Y0077994D01*
X0222485Y0076396D02*
X0273881Y0076396D01*
X0272282Y0074797D02*
X0220886Y0074797D01*
X0219288Y0073199D02*
X0224863Y0073199D01*
X0224395Y0071600D02*
X0217689Y0071600D01*
X0216091Y0070002D02*
X0224724Y0070002D01*
X0226548Y0068403D02*
X0214492Y0068403D01*
X0212894Y0066805D02*
X0228283Y0066805D01*
X0228283Y0065206D02*
X0211295Y0065206D01*
X0209697Y0063608D02*
X0228283Y0063608D01*
X0228283Y0062009D02*
X0208098Y0062009D01*
X0206500Y0060411D02*
X0228283Y0060411D01*
X0228283Y0058812D02*
X0222525Y0058812D01*
X0224986Y0057214D02*
X0226779Y0057214D01*
X0230883Y0053539D02*
X0230883Y0068146D01*
X0227595Y0071433D01*
X0230327Y0073199D02*
X0270684Y0073199D01*
X0269085Y0071600D02*
X0231105Y0071600D01*
X0232703Y0070002D02*
X0267487Y0070002D01*
X0267595Y0066433D02*
X0313595Y0112433D01*
X0304995Y0119556D02*
X0304677Y0119556D01*
X0303692Y0117957D02*
X0300877Y0117957D01*
X0302094Y0116359D02*
X0299244Y0116359D01*
X0300495Y0114760D02*
X0297612Y0114760D01*
X0298897Y0113162D02*
X0295979Y0113162D01*
X0297298Y0111563D02*
X0294347Y0111563D01*
X0295700Y0109965D02*
X0200994Y0109965D01*
X0199396Y0108366D02*
X0294101Y0108366D01*
X0292503Y0106768D02*
X0198495Y0106768D01*
X0191695Y0106768D02*
X0179095Y0106768D01*
X0179095Y0108366D02*
X0191695Y0108366D01*
X0191695Y0109550D02*
X0191695Y0095341D01*
X0188687Y0092333D01*
X0179095Y0092333D01*
X0179095Y0110633D01*
X0179478Y0110474D01*
X0192078Y0110474D01*
X0191695Y0109550D01*
X0191867Y0109965D02*
X0179095Y0109965D01*
X0179095Y0105169D02*
X0191695Y0105169D01*
X0191695Y0103571D02*
X0179095Y0103571D01*
X0179095Y0101972D02*
X0191695Y0101972D01*
X0191695Y0100374D02*
X0179095Y0100374D01*
X0179095Y0098775D02*
X0191695Y0098775D01*
X0191695Y0097177D02*
X0179095Y0097177D01*
X0179095Y0095578D02*
X0191695Y0095578D01*
X0190333Y0093979D02*
X0179095Y0093979D01*
X0179095Y0092381D02*
X0188735Y0092381D01*
X0180879Y0117957D02*
X0291157Y0117957D01*
X0291083Y0119556D02*
X0290683Y0119556D01*
X0290683Y0121154D02*
X0291083Y0121154D01*
X0291083Y0122753D02*
X0290683Y0122753D01*
X0290683Y0123739D02*
X0290683Y0128308D01*
X0290770Y0128308D01*
X0290770Y0133483D01*
X0290920Y0133483D01*
X0290920Y0128308D01*
X0291083Y0128308D01*
X0291083Y0123739D01*
X0290683Y0123739D01*
X0290683Y0124351D02*
X0291083Y0124351D01*
X0291083Y0125950D02*
X0290683Y0125950D01*
X0290683Y0127548D02*
X0291083Y0127548D01*
X0290920Y0129147D02*
X0290770Y0129147D01*
X0290770Y0130745D02*
X0290920Y0130745D01*
X0290920Y0132344D02*
X0290770Y0132344D01*
X0290770Y0133633D02*
X0290770Y0138808D01*
X0290432Y0138808D01*
X0289616Y0138679D01*
X0288830Y0138423D01*
X0288094Y0138048D01*
X0287425Y0137563D01*
X0286841Y0136978D01*
X0286355Y0136310D01*
X0285980Y0135573D01*
X0285854Y0135185D01*
X0285296Y0136532D01*
X0283819Y0138009D01*
X0282314Y0138632D01*
X0283955Y0140273D01*
X0284630Y0140949D01*
X0284995Y0141831D01*
X0284995Y0156283D01*
X0285188Y0156090D01*
X0287945Y0156090D01*
X0287945Y0150310D01*
X0287796Y0150248D01*
X0286530Y0148982D01*
X0285845Y0147328D01*
X0285845Y0145538D01*
X0286530Y0143884D01*
X0287796Y0142618D01*
X0289450Y0141933D01*
X0291240Y0141933D01*
X0292894Y0142618D01*
X0294160Y0143884D01*
X0294845Y0145538D01*
X0294845Y0147328D01*
X0294160Y0148982D01*
X0292894Y0150248D01*
X0292745Y0150310D01*
X0292745Y0156090D01*
X0292979Y0156090D01*
X0294033Y0157144D01*
X0294033Y0165722D01*
X0292979Y0166776D01*
X0285188Y0166776D01*
X0284995Y0166583D01*
X0284995Y0200439D01*
X0288589Y0204033D01*
X0290247Y0204033D01*
X0289583Y0202430D01*
X0289583Y0200436D01*
X0290346Y0198594D01*
X0291756Y0197184D01*
X0293568Y0196433D01*
X0291756Y0195683D01*
X0290346Y0194272D01*
X0289583Y0192430D01*
X0289583Y0190436D01*
X0290346Y0188594D01*
X0291756Y0187184D01*
X0293598Y0186420D01*
X0295592Y0186420D01*
X0297435Y0187184D01*
X0298845Y0188594D01*
X0299608Y0190436D01*
X0299608Y0192430D01*
X0298845Y0194272D01*
X0297435Y0195683D01*
X0295623Y0196433D01*
X0297435Y0197184D01*
X0298845Y0198594D01*
X0299608Y0200436D01*
X0299608Y0202430D01*
X0298944Y0204033D01*
X0300664Y0204033D01*
X0300846Y0203594D01*
X0302256Y0202184D01*
X0304068Y0201433D01*
X0302256Y0200683D01*
X0300846Y0199272D01*
X0300083Y0197430D01*
X0300083Y0195436D01*
X0300846Y0193594D01*
X0302256Y0192184D01*
X0304068Y0191433D01*
X0302256Y0190683D01*
X0300846Y0189272D01*
X0300083Y0187430D01*
X0300083Y0185436D01*
X0300846Y0183594D01*
X0302256Y0182184D01*
X0304068Y0181433D01*
X0302256Y0180683D01*
X0300846Y0179272D01*
X0300083Y0177430D01*
X0300083Y0175436D01*
X0300846Y0173594D01*
X0302256Y0172184D01*
X0304098Y0171420D01*
X0306092Y0171420D01*
X0307935Y0172184D01*
X0309345Y0173594D01*
X0309444Y0173833D01*
X0322425Y0173833D01*
X0323381Y0174229D01*
X0334292Y0185140D01*
X0334581Y0185020D01*
X0336610Y0185020D01*
X0338484Y0185797D01*
X0339195Y0186508D01*
X0339195Y0171091D01*
X0327097Y0158993D01*
X0327745Y0160558D01*
X0327745Y0162308D01*
X0327075Y0163925D01*
X0325838Y0165163D01*
X0324220Y0165833D01*
X0322470Y0165833D01*
X0320853Y0165163D01*
X0319615Y0163925D01*
X0318945Y0162308D01*
X0318945Y0160558D01*
X0319615Y0158941D01*
X0320853Y0157703D01*
X0322470Y0157033D01*
X0324220Y0157033D01*
X0325785Y0157681D01*
X0305437Y0137333D01*
X0304495Y0137333D01*
X0303819Y0138009D01*
X0301889Y0138808D01*
X0299801Y0138808D01*
X0297871Y0138009D01*
X0296394Y0136532D01*
X0295837Y0135185D01*
X0295710Y0135573D01*
X0295335Y0136310D01*
X0294850Y0136978D01*
X0294265Y0137563D01*
X0293597Y0138048D01*
X0292860Y0138423D01*
X0292075Y0138679D01*
X0291258Y0138808D01*
X0290920Y0138808D01*
X0290920Y0133633D01*
X0290770Y0133633D01*
X0290770Y0133942D02*
X0290920Y0133942D01*
X0290920Y0135541D02*
X0290770Y0135541D01*
X0290770Y0137139D02*
X0290920Y0137139D01*
X0290920Y0138738D02*
X0290770Y0138738D01*
X0289988Y0138738D02*
X0282419Y0138738D01*
X0284017Y0140336D02*
X0308440Y0140336D01*
X0306842Y0138738D02*
X0302059Y0138738D01*
X0299631Y0138738D02*
X0291702Y0138738D01*
X0291244Y0141935D02*
X0310039Y0141935D01*
X0311637Y0143533D02*
X0293809Y0143533D01*
X0294677Y0145132D02*
X0313236Y0145132D01*
X0314834Y0146730D02*
X0294845Y0146730D01*
X0294431Y0148329D02*
X0316433Y0148329D01*
X0318031Y0149927D02*
X0293215Y0149927D01*
X0292745Y0151526D02*
X0319630Y0151526D01*
X0321228Y0153124D02*
X0292745Y0153124D01*
X0292745Y0154723D02*
X0322827Y0154723D01*
X0324425Y0156321D02*
X0304234Y0156321D01*
X0304002Y0156090D02*
X0305057Y0157144D01*
X0305057Y0159033D01*
X0309577Y0159033D01*
X0309615Y0158941D01*
X0310853Y0157703D01*
X0312470Y0157033D01*
X0314220Y0157033D01*
X0315838Y0157703D01*
X0317075Y0158941D01*
X0317745Y0160558D01*
X0317745Y0162308D01*
X0317075Y0163925D01*
X0315838Y0165163D01*
X0314220Y0165833D01*
X0312470Y0165833D01*
X0310853Y0165163D01*
X0309615Y0163925D01*
X0309577Y0163833D01*
X0305057Y0163833D01*
X0305057Y0165722D01*
X0304002Y0166776D01*
X0296212Y0166776D01*
X0295157Y0165722D01*
X0295157Y0157144D01*
X0296212Y0156090D01*
X0304002Y0156090D01*
X0305057Y0157920D02*
X0310636Y0157920D01*
X0316055Y0157920D02*
X0320636Y0157920D01*
X0319376Y0159518D02*
X0317315Y0159518D01*
X0317745Y0161117D02*
X0318945Y0161117D01*
X0319114Y0162715D02*
X0317576Y0162715D01*
X0316687Y0164314D02*
X0320004Y0164314D01*
X0326687Y0164314D02*
X0332418Y0164314D01*
X0334016Y0165912D02*
X0304866Y0165912D01*
X0305057Y0164314D02*
X0310004Y0164314D01*
X0308057Y0172307D02*
X0339195Y0172307D01*
X0339195Y0173905D02*
X0322599Y0173905D01*
X0324655Y0175504D02*
X0339195Y0175504D01*
X0339195Y0177102D02*
X0326254Y0177102D01*
X0327852Y0178701D02*
X0339195Y0178701D01*
X0339195Y0180299D02*
X0329451Y0180299D01*
X0331049Y0181898D02*
X0339195Y0181898D01*
X0339195Y0183496D02*
X0332648Y0183496D01*
X0334246Y0185095D02*
X0334402Y0185095D01*
X0336789Y0185095D02*
X0339195Y0185095D01*
X0335595Y0190120D02*
X0321908Y0176433D01*
X0305095Y0176433D01*
X0300609Y0178701D02*
X0284995Y0178701D01*
X0284995Y0180299D02*
X0301872Y0180299D01*
X0302946Y0181898D02*
X0284995Y0181898D01*
X0284995Y0183496D02*
X0300943Y0183496D01*
X0300224Y0185095D02*
X0284995Y0185095D01*
X0284995Y0186693D02*
X0292940Y0186693D01*
X0290648Y0188292D02*
X0284995Y0188292D01*
X0284995Y0189890D02*
X0289809Y0189890D01*
X0289583Y0191489D02*
X0284995Y0191489D01*
X0284995Y0193087D02*
X0289855Y0193087D01*
X0290759Y0194686D02*
X0284995Y0194686D01*
X0284995Y0196284D02*
X0293208Y0196284D01*
X0291057Y0197883D02*
X0284995Y0197883D01*
X0284995Y0199481D02*
X0289978Y0199481D01*
X0289583Y0201080D02*
X0285636Y0201080D01*
X0287234Y0202678D02*
X0289685Y0202678D01*
X0285242Y0207474D02*
X0282030Y0207474D01*
X0283628Y0209072D02*
X0290172Y0209072D01*
X0290294Y0208833D02*
X0287118Y0208833D01*
X0286236Y0208468D01*
X0285561Y0207793D01*
X0280561Y0202793D01*
X0280195Y0201910D01*
X0280195Y0143302D01*
X0279995Y0143102D01*
X0279995Y0205439D01*
X0288589Y0214033D01*
X0290294Y0214033D01*
X0289950Y0213357D01*
X0289706Y0212607D01*
X0289583Y0211828D01*
X0289583Y0211637D01*
X0294391Y0211637D01*
X0294391Y0211229D01*
X0289583Y0211229D01*
X0289583Y0211039D01*
X0289706Y0210259D01*
X0289950Y0209509D01*
X0290294Y0208833D01*
X0289641Y0210671D02*
X0285227Y0210671D01*
X0286825Y0212269D02*
X0289653Y0212269D01*
X0290210Y0213868D02*
X0288424Y0213868D01*
X0284833Y0217065D02*
X0274735Y0217065D01*
X0274735Y0217328D02*
X0274065Y0218945D01*
X0272828Y0220183D01*
X0271210Y0220853D01*
X0264260Y0220853D01*
X0262643Y0220183D01*
X0261405Y0218945D01*
X0260735Y0217328D01*
X0260735Y0215578D01*
X0261405Y0213961D01*
X0262643Y0212723D01*
X0264260Y0212053D01*
X0271210Y0212053D01*
X0272828Y0212723D01*
X0274065Y0213961D01*
X0274735Y0215578D01*
X0274735Y0217328D01*
X0274182Y0218663D02*
X0286708Y0218663D01*
X0288196Y0220262D02*
X0272638Y0220262D01*
X0274689Y0215466D02*
X0283234Y0215466D01*
X0281636Y0213868D02*
X0273972Y0213868D01*
X0271732Y0212269D02*
X0280037Y0212269D01*
X0278439Y0210671D02*
X0271650Y0210671D01*
X0271210Y0210853D02*
X0264260Y0210853D01*
X0262643Y0210183D01*
X0261405Y0208945D01*
X0260735Y0207328D01*
X0260735Y0205578D01*
X0261405Y0203961D01*
X0262643Y0202723D01*
X0264260Y0202053D01*
X0271210Y0202053D01*
X0272828Y0202723D01*
X0274065Y0203961D01*
X0274735Y0205578D01*
X0274735Y0207328D01*
X0274065Y0208945D01*
X0272828Y0210183D01*
X0271210Y0210853D01*
X0273938Y0209072D02*
X0276840Y0209072D01*
X0275428Y0207474D02*
X0274675Y0207474D01*
X0274735Y0205875D02*
X0275195Y0205875D01*
X0275195Y0204277D02*
X0274196Y0204277D01*
X0275195Y0202678D02*
X0272720Y0202678D01*
X0271210Y0200853D02*
X0264260Y0200853D01*
X0262643Y0200183D01*
X0261405Y0198945D01*
X0260735Y0197328D01*
X0260735Y0195578D01*
X0261405Y0193961D01*
X0262643Y0192723D01*
X0264260Y0192053D01*
X0271210Y0192053D01*
X0272828Y0192723D01*
X0274065Y0193961D01*
X0274735Y0195578D01*
X0274735Y0197328D01*
X0274065Y0198945D01*
X0272828Y0200183D01*
X0271210Y0200853D01*
X0273530Y0199481D02*
X0275195Y0199481D01*
X0275195Y0197883D02*
X0274505Y0197883D01*
X0274735Y0196284D02*
X0275195Y0196284D01*
X0275195Y0194686D02*
X0274366Y0194686D01*
X0275195Y0193087D02*
X0273192Y0193087D01*
X0275195Y0191489D02*
X0260195Y0191489D01*
X0260195Y0193087D02*
X0262278Y0193087D01*
X0261105Y0194686D02*
X0260195Y0194686D01*
X0260195Y0196284D02*
X0260735Y0196284D01*
X0260965Y0197883D02*
X0260195Y0197883D01*
X0260195Y0199481D02*
X0261941Y0199481D01*
X0260195Y0201080D02*
X0275195Y0201080D01*
X0279995Y0201080D02*
X0280195Y0201080D01*
X0280195Y0199481D02*
X0279995Y0199481D01*
X0279995Y0197883D02*
X0280195Y0197883D01*
X0280195Y0196284D02*
X0279995Y0196284D01*
X0279995Y0194686D02*
X0280195Y0194686D01*
X0280195Y0193087D02*
X0279995Y0193087D01*
X0279995Y0191489D02*
X0280195Y0191489D01*
X0280195Y0189890D02*
X0279995Y0189890D01*
X0279995Y0188292D02*
X0280195Y0188292D01*
X0280195Y0186693D02*
X0279995Y0186693D01*
X0279995Y0185095D02*
X0280195Y0185095D01*
X0280195Y0183496D02*
X0279995Y0183496D01*
X0279995Y0181898D02*
X0280195Y0181898D01*
X0280195Y0180299D02*
X0279995Y0180299D01*
X0279995Y0178701D02*
X0280195Y0178701D01*
X0280195Y0177102D02*
X0279995Y0177102D01*
X0279995Y0175504D02*
X0280195Y0175504D01*
X0280195Y0173905D02*
X0279995Y0173905D01*
X0279995Y0172307D02*
X0280195Y0172307D01*
X0280195Y0170708D02*
X0279995Y0170708D01*
X0279995Y0169110D02*
X0280195Y0169110D01*
X0280195Y0167511D02*
X0279995Y0167511D01*
X0279995Y0165912D02*
X0280195Y0165912D01*
X0280195Y0164314D02*
X0279995Y0164314D01*
X0279995Y0162715D02*
X0280195Y0162715D01*
X0280195Y0161117D02*
X0279995Y0161117D01*
X0279995Y0159518D02*
X0280195Y0159518D01*
X0280195Y0157920D02*
X0279995Y0157920D01*
X0279995Y0156321D02*
X0280195Y0156321D01*
X0280195Y0154723D02*
X0279995Y0154723D01*
X0279995Y0153124D02*
X0280195Y0153124D01*
X0280195Y0151526D02*
X0279995Y0151526D01*
X0279995Y0149927D02*
X0280195Y0149927D01*
X0280195Y0148329D02*
X0279995Y0148329D01*
X0279995Y0146730D02*
X0280195Y0146730D01*
X0280195Y0145132D02*
X0279995Y0145132D01*
X0279995Y0143533D02*
X0280195Y0143533D01*
X0275195Y0145132D02*
X0274550Y0145132D01*
X0274735Y0146730D02*
X0275195Y0146730D01*
X0275195Y0148329D02*
X0274321Y0148329D01*
X0275195Y0149927D02*
X0273083Y0149927D01*
X0275195Y0151526D02*
X0260795Y0151526D01*
X0260795Y0152070D02*
X0260308Y0153246D01*
X0260195Y0153359D01*
X0260195Y0277856D01*
X0266172Y0283833D01*
X0293311Y0283833D01*
X0293339Y0283805D01*
X0294479Y0283333D01*
X0295712Y0283333D01*
X0296851Y0283805D01*
X0297723Y0284677D01*
X0298195Y0285816D01*
X0298195Y0287050D01*
X0297723Y0288189D01*
X0296851Y0289061D01*
X0295712Y0289533D01*
X0294479Y0289533D01*
X0293339Y0289061D01*
X0293311Y0289033D01*
X0264578Y0289033D01*
X0263622Y0288637D01*
X0255391Y0280406D01*
X0254995Y0279450D01*
X0254995Y0153359D01*
X0254882Y0153246D01*
X0254395Y0152070D01*
X0254395Y0150797D01*
X0254882Y0149620D01*
X0255782Y0148720D01*
X0256959Y0148233D01*
X0258232Y0148233D01*
X0259408Y0148720D01*
X0260308Y0149620D01*
X0260795Y0150797D01*
X0260795Y0152070D01*
X0260358Y0153124D02*
X0262241Y0153124D01*
X0262643Y0152723D02*
X0264260Y0152053D01*
X0271210Y0152053D01*
X0272828Y0152723D01*
X0274065Y0153961D01*
X0274735Y0155578D01*
X0274735Y0157328D01*
X0274065Y0158945D01*
X0272828Y0160183D01*
X0271210Y0160853D01*
X0264260Y0160853D01*
X0262643Y0160183D01*
X0261405Y0158945D01*
X0260735Y0157328D01*
X0260735Y0155578D01*
X0261405Y0153961D01*
X0262643Y0152723D01*
X0261089Y0154723D02*
X0260195Y0154723D01*
X0260195Y0156321D02*
X0260735Y0156321D01*
X0260980Y0157920D02*
X0260195Y0157920D01*
X0260195Y0159518D02*
X0261978Y0159518D01*
X0260195Y0161117D02*
X0275195Y0161117D01*
X0275195Y0162715D02*
X0272810Y0162715D01*
X0272828Y0162723D02*
X0274065Y0163961D01*
X0274735Y0165578D01*
X0274735Y0167328D01*
X0274065Y0168945D01*
X0272828Y0170183D01*
X0271210Y0170853D01*
X0264260Y0170853D01*
X0262643Y0170183D01*
X0261405Y0168945D01*
X0260735Y0167328D01*
X0260735Y0165578D01*
X0261405Y0163961D01*
X0262643Y0162723D01*
X0264260Y0162053D01*
X0271210Y0162053D01*
X0272828Y0162723D01*
X0274212Y0164314D02*
X0275195Y0164314D01*
X0275195Y0165912D02*
X0274735Y0165912D01*
X0274659Y0167511D02*
X0275195Y0167511D01*
X0275195Y0169110D02*
X0273901Y0169110D01*
X0275195Y0170708D02*
X0271560Y0170708D01*
X0271210Y0172053D02*
X0272828Y0172723D01*
X0274065Y0173961D01*
X0274735Y0175578D01*
X0274735Y0177328D01*
X0274065Y0178945D01*
X0272828Y0180183D01*
X0271210Y0180853D01*
X0264260Y0180853D01*
X0262643Y0180183D01*
X0261405Y0178945D01*
X0260735Y0177328D01*
X0260735Y0175578D01*
X0261405Y0173961D01*
X0262643Y0172723D01*
X0264260Y0172053D01*
X0271210Y0172053D01*
X0271822Y0172307D02*
X0275195Y0172307D01*
X0275195Y0173905D02*
X0274010Y0173905D01*
X0274704Y0175504D02*
X0275195Y0175504D01*
X0275195Y0177102D02*
X0274735Y0177102D01*
X0275195Y0178701D02*
X0274167Y0178701D01*
X0275195Y0180299D02*
X0272548Y0180299D01*
X0271210Y0182053D02*
X0272828Y0182723D01*
X0274065Y0183961D01*
X0274735Y0185578D01*
X0274735Y0187328D01*
X0274065Y0188945D01*
X0272828Y0190183D01*
X0271210Y0190853D01*
X0264260Y0190853D01*
X0262643Y0190183D01*
X0261405Y0188945D01*
X0260735Y0187328D01*
X0260735Y0185578D01*
X0261405Y0183961D01*
X0262643Y0182723D01*
X0264260Y0182053D01*
X0271210Y0182053D01*
X0273601Y0183496D02*
X0275195Y0183496D01*
X0275195Y0181898D02*
X0260195Y0181898D01*
X0260195Y0183496D02*
X0261870Y0183496D01*
X0260935Y0185095D02*
X0260195Y0185095D01*
X0260195Y0186693D02*
X0260735Y0186693D01*
X0261134Y0188292D02*
X0260195Y0188292D01*
X0260195Y0189890D02*
X0262350Y0189890D01*
X0254995Y0189890D02*
X0243121Y0189890D01*
X0244336Y0188292D02*
X0254995Y0188292D01*
X0254995Y0186693D02*
X0244735Y0186693D01*
X0244535Y0185095D02*
X0254995Y0185095D01*
X0254995Y0183496D02*
X0243601Y0183496D01*
X0242548Y0180299D02*
X0254995Y0180299D01*
X0254995Y0178701D02*
X0244167Y0178701D01*
X0244065Y0178945D02*
X0244735Y0177328D01*
X0244735Y0175578D01*
X0244065Y0173961D01*
X0242828Y0172723D01*
X0241210Y0172053D01*
X0234260Y0172053D01*
X0232643Y0172723D01*
X0231405Y0173961D01*
X0230735Y0175578D01*
X0230735Y0177328D01*
X0231405Y0178945D01*
X0232643Y0180183D01*
X0234260Y0180853D01*
X0241210Y0180853D01*
X0242828Y0180183D01*
X0244065Y0178945D01*
X0244735Y0177102D02*
X0254995Y0177102D01*
X0254995Y0175504D02*
X0244704Y0175504D01*
X0244010Y0173905D02*
X0254995Y0173905D01*
X0254995Y0172307D02*
X0241822Y0172307D01*
X0241560Y0170708D02*
X0254995Y0170708D01*
X0254995Y0169110D02*
X0243901Y0169110D01*
X0244659Y0167511D02*
X0254995Y0167511D01*
X0254995Y0165912D02*
X0244735Y0165912D01*
X0244212Y0164314D02*
X0254995Y0164314D01*
X0254995Y0162715D02*
X0242810Y0162715D01*
X0241210Y0160853D02*
X0234260Y0160853D01*
X0232643Y0160183D01*
X0231405Y0158945D01*
X0230735Y0157328D01*
X0230735Y0155578D01*
X0231405Y0153961D01*
X0232643Y0152723D01*
X0234260Y0152053D01*
X0241210Y0152053D01*
X0242828Y0152723D01*
X0244065Y0153961D01*
X0244735Y0155578D01*
X0244735Y0157328D01*
X0244065Y0158945D01*
X0242828Y0160183D01*
X0241210Y0160853D01*
X0243492Y0159518D02*
X0254995Y0159518D01*
X0254995Y0157920D02*
X0244490Y0157920D01*
X0244735Y0156321D02*
X0254995Y0156321D01*
X0254995Y0154723D02*
X0244381Y0154723D01*
X0243229Y0153124D02*
X0254832Y0153124D01*
X0254395Y0151526D02*
X0229775Y0151526D01*
X0229775Y0153124D02*
X0232241Y0153124D01*
X0231089Y0154723D02*
X0229775Y0154723D01*
X0229775Y0156321D02*
X0230735Y0156321D01*
X0230980Y0157920D02*
X0229775Y0157920D01*
X0229775Y0159518D02*
X0231978Y0159518D01*
X0229383Y0161117D02*
X0254995Y0161117D01*
X0260195Y0162715D02*
X0262661Y0162715D01*
X0261259Y0164314D02*
X0260195Y0164314D01*
X0260195Y0165912D02*
X0260735Y0165912D01*
X0260811Y0167511D02*
X0260195Y0167511D01*
X0260195Y0169110D02*
X0261569Y0169110D01*
X0260195Y0170708D02*
X0263910Y0170708D01*
X0263648Y0172307D02*
X0260195Y0172307D01*
X0260195Y0173905D02*
X0261461Y0173905D01*
X0260766Y0175504D02*
X0260195Y0175504D01*
X0260195Y0177102D02*
X0260735Y0177102D01*
X0260195Y0178701D02*
X0261304Y0178701D01*
X0260195Y0180299D02*
X0262923Y0180299D01*
X0254995Y0181898D02*
X0215808Y0181898D01*
X0217406Y0180299D02*
X0232923Y0180299D01*
X0231304Y0178701D02*
X0219005Y0178701D01*
X0220603Y0177102D02*
X0230735Y0177102D01*
X0230766Y0175504D02*
X0222202Y0175504D01*
X0223800Y0173905D02*
X0231461Y0173905D01*
X0233648Y0172307D02*
X0225399Y0172307D01*
X0226997Y0170708D02*
X0233910Y0170708D01*
X0231569Y0169110D02*
X0228596Y0169110D01*
X0227595Y0166433D02*
X0237715Y0166433D01*
X0237735Y0166453D01*
X0232661Y0162715D02*
X0227790Y0162715D01*
X0227175Y0159653D02*
X0221075Y0165753D01*
X0208766Y0165753D01*
X0208717Y0165705D01*
X0203768Y0165912D02*
X0202643Y0165912D01*
X0202643Y0164314D02*
X0203768Y0164314D01*
X0203768Y0162715D02*
X0202643Y0162715D01*
X0202344Y0161117D02*
X0204066Y0161117D01*
X0203768Y0167511D02*
X0202643Y0167511D01*
X0202643Y0169110D02*
X0203768Y0169110D01*
X0204482Y0170708D02*
X0201929Y0170708D01*
X0195695Y0173905D02*
X0216446Y0173905D01*
X0214848Y0175504D02*
X0195300Y0175504D01*
X0192595Y0173933D02*
X0188845Y0170183D01*
X0181345Y0170183D01*
X0180306Y0175183D02*
X0180099Y0175390D01*
X0185834Y0178701D02*
X0211651Y0178701D01*
X0213249Y0177102D02*
X0190172Y0177102D01*
X0193939Y0180299D02*
X0179095Y0180299D01*
X0180099Y0185390D02*
X0198087Y0185390D01*
X0203037Y0185095D02*
X0204161Y0185095D01*
X0204161Y0186693D02*
X0203037Y0186693D01*
X0203037Y0188292D02*
X0204161Y0188292D01*
X0204373Y0189890D02*
X0202825Y0189890D01*
X0206848Y0193087D02*
X0195600Y0193087D01*
X0195639Y0194686D02*
X0206511Y0194686D01*
X0206511Y0196284D02*
X0194628Y0196284D01*
X0192595Y0193933D02*
X0188845Y0190183D01*
X0181345Y0190183D01*
X0190631Y0188292D02*
X0193138Y0188292D01*
X0193349Y0189890D02*
X0192229Y0189890D01*
X0194535Y0191489D02*
X0208363Y0191489D01*
X0209111Y0194417D02*
X0211595Y0191933D01*
X0218095Y0191933D01*
X0223595Y0186433D01*
X0237715Y0186433D01*
X0237735Y0186453D01*
X0232350Y0189890D02*
X0223815Y0189890D01*
X0222216Y0191489D02*
X0254995Y0191489D01*
X0254995Y0193087D02*
X0243192Y0193087D01*
X0244366Y0194686D02*
X0254995Y0194686D01*
X0254995Y0196284D02*
X0244735Y0196284D01*
X0244505Y0197883D02*
X0254995Y0197883D01*
X0254995Y0199481D02*
X0243530Y0199481D01*
X0242720Y0202678D02*
X0254995Y0202678D01*
X0254995Y0201080D02*
X0214039Y0201080D01*
X0214060Y0202678D02*
X0232751Y0202678D01*
X0231941Y0199481D02*
X0215456Y0199481D01*
X0214234Y0199481D02*
X0211711Y0199481D01*
X0211711Y0197883D02*
X0212144Y0197883D01*
X0211795Y0196284D02*
X0211711Y0196284D01*
X0214845Y0196433D02*
X0237715Y0196433D01*
X0237735Y0196453D01*
X0232278Y0193087D02*
X0220618Y0193087D01*
X0218060Y0188292D02*
X0214060Y0188292D01*
X0214060Y0186693D02*
X0219658Y0186693D01*
X0221257Y0185095D02*
X0214060Y0185095D01*
X0214209Y0183496D02*
X0231870Y0183496D01*
X0219643Y0170708D02*
X0212952Y0170708D01*
X0213667Y0169110D02*
X0221242Y0169110D01*
X0218045Y0172307D02*
X0195277Y0172307D01*
X0193458Y0170708D02*
X0193047Y0170708D01*
X0192744Y0169110D02*
X0191449Y0169110D01*
X0191049Y0168710D02*
X0191049Y0168710D01*
X0192744Y0162715D02*
X0185899Y0162715D01*
X0184951Y0161117D02*
X0193043Y0161117D01*
X0189320Y0157920D02*
X0224575Y0157920D01*
X0224575Y0156321D02*
X0190557Y0156321D01*
X0190765Y0154723D02*
X0224575Y0154723D01*
X0224575Y0153124D02*
X0190032Y0153124D01*
X0185360Y0151526D02*
X0224575Y0151526D01*
X0224575Y0149927D02*
X0179095Y0149927D01*
X0179095Y0148329D02*
X0224575Y0148329D01*
X0225441Y0146730D02*
X0179095Y0146730D01*
X0179095Y0145132D02*
X0227039Y0145132D01*
X0226394Y0143533D02*
X0179095Y0143533D01*
X0179095Y0141935D02*
X0224703Y0141935D01*
X0223104Y0140336D02*
X0179095Y0140336D01*
X0179095Y0138738D02*
X0189631Y0138738D01*
X0192059Y0138738D02*
X0199631Y0138738D01*
X0202059Y0138738D02*
X0209631Y0138738D01*
X0212059Y0138738D02*
X0219631Y0138738D01*
X0217002Y0137139D02*
X0214689Y0137139D01*
X0215706Y0135541D02*
X0215984Y0135541D01*
X0220720Y0134558D02*
X0220720Y0133683D01*
X0220845Y0133558D01*
X0215917Y0121154D02*
X0215848Y0121154D01*
X0214677Y0119556D02*
X0217088Y0119556D01*
X0224677Y0119556D02*
X0227088Y0119556D01*
X0225917Y0121154D02*
X0225848Y0121154D01*
X0234677Y0119556D02*
X0237088Y0119556D01*
X0235917Y0121154D02*
X0235848Y0121154D01*
X0244677Y0119556D02*
X0247088Y0119556D01*
X0245917Y0121154D02*
X0245848Y0121154D01*
X0254677Y0119556D02*
X0257088Y0119556D01*
X0255917Y0121154D02*
X0255848Y0121154D01*
X0264677Y0119556D02*
X0267088Y0119556D01*
X0265917Y0121154D02*
X0265848Y0121154D01*
X0274677Y0119556D02*
X0277088Y0119556D01*
X0275917Y0121154D02*
X0275848Y0121154D01*
X0284677Y0119556D02*
X0287088Y0119556D01*
X0285925Y0121154D02*
X0285848Y0121154D01*
X0285706Y0135541D02*
X0285969Y0135541D01*
X0287002Y0137139D02*
X0284689Y0137139D01*
X0284995Y0141935D02*
X0289446Y0141935D01*
X0286881Y0143533D02*
X0284995Y0143533D01*
X0284995Y0145132D02*
X0286013Y0145132D01*
X0285845Y0146730D02*
X0284995Y0146730D01*
X0284995Y0148329D02*
X0286260Y0148329D01*
X0287475Y0149927D02*
X0284995Y0149927D01*
X0284995Y0151526D02*
X0287945Y0151526D01*
X0287945Y0153124D02*
X0284995Y0153124D01*
X0284995Y0154723D02*
X0287945Y0154723D01*
X0293210Y0156321D02*
X0295980Y0156321D01*
X0295157Y0157920D02*
X0294033Y0157920D01*
X0294033Y0159518D02*
X0295157Y0159518D01*
X0295157Y0161117D02*
X0294033Y0161117D01*
X0294033Y0162715D02*
X0295157Y0162715D01*
X0295157Y0164314D02*
X0294033Y0164314D01*
X0293842Y0165912D02*
X0295348Y0165912D01*
X0302133Y0172307D02*
X0284995Y0172307D01*
X0284995Y0173905D02*
X0300717Y0173905D01*
X0300083Y0175504D02*
X0284995Y0175504D01*
X0284995Y0177102D02*
X0300083Y0177102D01*
X0307244Y0181898D02*
X0323695Y0181898D01*
X0325294Y0183496D02*
X0309247Y0183496D01*
X0309966Y0185095D02*
X0322409Y0185095D01*
X0324595Y0185095D02*
X0324595Y0185095D01*
X0324595Y0186693D02*
X0324595Y0186693D01*
X0324595Y0188292D02*
X0324595Y0188292D01*
X0324595Y0189890D02*
X0324595Y0189890D01*
X0324595Y0191489D02*
X0324595Y0191489D01*
X0324595Y0193087D02*
X0324595Y0193087D01*
X0324595Y0194686D02*
X0324595Y0194686D01*
X0323510Y0196284D02*
X0325680Y0196284D01*
X0325495Y0197883D02*
X0323695Y0197883D01*
X0323396Y0199481D02*
X0325794Y0199481D01*
X0326717Y0201080D02*
X0322474Y0201080D01*
X0320014Y0202678D02*
X0329177Y0202678D01*
X0330107Y0204277D02*
X0309628Y0204277D01*
X0310108Y0205875D02*
X0330107Y0205875D01*
X0328157Y0207474D02*
X0326985Y0207474D01*
X0327033Y0207653D02*
X0327033Y0210658D01*
X0322858Y0210658D01*
X0322858Y0206090D01*
X0325470Y0206090D01*
X0325928Y0206212D01*
X0326338Y0206449D01*
X0326673Y0206785D01*
X0326910Y0207195D01*
X0327033Y0207653D01*
X0327033Y0209072D02*
X0328157Y0209072D01*
X0328157Y0210671D02*
X0322858Y0210671D01*
X0322858Y0210658D02*
X0322858Y0212208D01*
X0321309Y0212208D01*
X0321309Y0216776D01*
X0318697Y0216776D01*
X0318239Y0216654D01*
X0317828Y0216417D01*
X0317493Y0216082D01*
X0317256Y0215671D01*
X0317134Y0215213D01*
X0317134Y0212208D01*
X0321308Y0212208D01*
X0321308Y0210658D01*
X0317134Y0210658D01*
X0317134Y0207653D01*
X0317256Y0207195D01*
X0317493Y0206785D01*
X0317828Y0206449D01*
X0318239Y0206212D01*
X0318697Y0206090D01*
X0321309Y0206090D01*
X0321309Y0210658D01*
X0322858Y0210658D01*
X0321308Y0210671D02*
X0307946Y0210671D01*
X0308020Y0212269D02*
X0317134Y0212269D01*
X0317134Y0213868D02*
X0309458Y0213868D01*
X0310108Y0215466D02*
X0317202Y0215466D01*
X0321309Y0215466D02*
X0322858Y0215466D01*
X0322858Y0216776D02*
X0322858Y0212208D01*
X0327033Y0212208D01*
X0327033Y0215213D01*
X0326910Y0215671D01*
X0326673Y0216082D01*
X0326338Y0216417D01*
X0325928Y0216654D01*
X0325470Y0216776D01*
X0322858Y0216776D01*
X0322858Y0213868D02*
X0321309Y0213868D01*
X0321309Y0212269D02*
X0322858Y0212269D01*
X0322858Y0209072D02*
X0321309Y0209072D01*
X0321309Y0207474D02*
X0322858Y0207474D01*
X0317182Y0207474D02*
X0310090Y0207474D01*
X0309428Y0209072D02*
X0317134Y0209072D01*
X0317177Y0202678D02*
X0308429Y0202678D01*
X0306976Y0201080D02*
X0314717Y0201080D01*
X0313794Y0199481D02*
X0309136Y0199481D01*
X0309920Y0197883D02*
X0313495Y0197883D01*
X0313680Y0196284D02*
X0310108Y0196284D01*
X0309797Y0194686D02*
X0314443Y0194686D01*
X0316515Y0193087D02*
X0308838Y0193087D01*
X0306257Y0191489D02*
X0319495Y0191489D01*
X0319495Y0189890D02*
X0308727Y0189890D01*
X0309751Y0188292D02*
X0319495Y0188292D01*
X0320810Y0186693D02*
X0310108Y0186693D01*
X0308318Y0180299D02*
X0322097Y0180299D01*
X0326782Y0185095D02*
X0326892Y0185095D01*
X0328380Y0186693D02*
X0328491Y0186693D01*
X0329695Y0188292D02*
X0330089Y0188292D01*
X0329695Y0189890D02*
X0330495Y0189890D01*
X0330642Y0191489D02*
X0329695Y0191489D01*
X0335510Y0196284D02*
X0339195Y0196284D01*
X0339195Y0194686D02*
X0337901Y0194686D01*
X0339195Y0197883D02*
X0335695Y0197883D01*
X0336033Y0199481D02*
X0339195Y0199481D01*
X0339195Y0201080D02*
X0336107Y0201080D01*
X0336107Y0202678D02*
X0339195Y0202678D01*
X0339195Y0204277D02*
X0336107Y0204277D01*
X0336107Y0205875D02*
X0339195Y0205875D01*
X0339195Y0207474D02*
X0338057Y0207474D01*
X0338057Y0209072D02*
X0339195Y0209072D01*
X0339195Y0210671D02*
X0338057Y0210671D01*
X0338057Y0212269D02*
X0339195Y0212269D01*
X0339195Y0213868D02*
X0338057Y0213868D01*
X0338057Y0215466D02*
X0339099Y0215466D01*
X0338995Y0217065D02*
X0310108Y0217065D01*
X0309597Y0218663D02*
X0339734Y0218663D01*
X0341616Y0220262D02*
X0308355Y0220262D01*
X0307154Y0221860D02*
X0343214Y0221860D01*
X0344813Y0223459D02*
X0329299Y0223459D01*
X0330478Y0224507D02*
X0330478Y0224507D01*
X0331028Y0225057D02*
X0354915Y0225057D01*
X0357275Y0225057D02*
X0370208Y0225057D01*
X0371935Y0226656D02*
X0332626Y0226656D01*
X0334225Y0228254D02*
X0395945Y0228254D01*
X0395945Y0226656D02*
X0385755Y0226656D01*
X0387482Y0225057D02*
X0395945Y0225057D01*
X0395945Y0223459D02*
X0388200Y0223459D01*
X0388445Y0221860D02*
X0395945Y0221860D01*
X0395945Y0220262D02*
X0388305Y0220262D01*
X0387643Y0218663D02*
X0395945Y0218663D01*
X0395945Y0217065D02*
X0386138Y0217065D01*
X0395945Y0215466D02*
X0346437Y0215466D01*
X0345995Y0213868D02*
X0395945Y0213868D01*
X0378595Y0205683D02*
X0356595Y0205683D01*
X0354345Y0205683D01*
X0347595Y0198933D01*
X0355771Y0191489D02*
X0375011Y0191489D01*
X0382179Y0191489D02*
X0395945Y0191489D01*
X0395945Y0193087D02*
X0383473Y0193087D01*
X0384095Y0194686D02*
X0395945Y0194686D01*
X0395945Y0196284D02*
X0384095Y0196284D01*
X0395945Y0189890D02*
X0355195Y0189890D01*
X0355195Y0188292D02*
X0395945Y0188292D01*
X0395945Y0186693D02*
X0355195Y0186693D01*
X0355195Y0185095D02*
X0395945Y0185095D01*
X0395945Y0183496D02*
X0386625Y0183496D01*
X0387816Y0181898D02*
X0395945Y0181898D01*
X0395945Y0180299D02*
X0388396Y0180299D01*
X0388396Y0178701D02*
X0395945Y0178701D01*
X0395945Y0177102D02*
X0387928Y0177102D01*
X0386896Y0175504D02*
X0395945Y0175504D01*
X0395945Y0173905D02*
X0384410Y0173905D01*
X0378796Y0179365D02*
X0368027Y0179365D01*
X0370966Y0183496D02*
X0355195Y0183496D01*
X0366244Y0173905D02*
X0373182Y0173905D01*
X0370696Y0175504D02*
X0367843Y0175504D01*
X0364646Y0172307D02*
X0395945Y0172307D01*
X0395945Y0170708D02*
X0363047Y0170708D01*
X0362695Y0169110D02*
X0395945Y0169110D01*
X0395945Y0167511D02*
X0362695Y0167511D01*
X0362695Y0165912D02*
X0395945Y0165912D01*
X0395945Y0164314D02*
X0386008Y0164314D01*
X0387560Y0162715D02*
X0395945Y0162715D01*
X0395945Y0161117D02*
X0388223Y0161117D01*
X0388396Y0159518D02*
X0395945Y0159518D01*
X0395945Y0157920D02*
X0388184Y0157920D01*
X0387695Y0156321D02*
X0395945Y0156321D01*
X0395945Y0154723D02*
X0387695Y0154723D01*
X0387695Y0153124D02*
X0395945Y0153124D01*
X0395945Y0151526D02*
X0387695Y0151526D01*
X0387695Y0149927D02*
X0395945Y0149927D01*
X0395945Y0148329D02*
X0387695Y0148329D01*
X0387695Y0146730D02*
X0395945Y0146730D01*
X0395945Y0145132D02*
X0387695Y0145132D01*
X0387695Y0143533D02*
X0395945Y0143533D01*
X0395945Y0141935D02*
X0387695Y0141935D01*
X0387695Y0140336D02*
X0395945Y0140336D01*
X0395945Y0138738D02*
X0387695Y0138738D01*
X0387695Y0137139D02*
X0395945Y0137139D01*
X0395945Y0135541D02*
X0387695Y0135541D01*
X0387695Y0133942D02*
X0395945Y0133942D01*
X0395945Y0132344D02*
X0387695Y0132344D01*
X0387695Y0130745D02*
X0395945Y0130745D01*
X0395945Y0129147D02*
X0387695Y0129147D01*
X0387695Y0127548D02*
X0395945Y0127548D01*
X0395945Y0125950D02*
X0387695Y0125950D01*
X0387695Y0124351D02*
X0395945Y0124351D01*
X0395945Y0122753D02*
X0387420Y0122753D01*
X0385993Y0121154D02*
X0395945Y0121154D01*
X0395945Y0119556D02*
X0384395Y0119556D01*
X0382796Y0117957D02*
X0395945Y0117957D01*
X0395945Y0116359D02*
X0381198Y0116359D01*
X0378639Y0121154D02*
X0373493Y0121154D01*
X0375092Y0122753D02*
X0380238Y0122753D01*
X0381836Y0124351D02*
X0376690Y0124351D01*
X0376943Y0124604D02*
X0376943Y0124604D01*
X0375470Y0126808D02*
X0370095Y0121433D01*
X0342595Y0121433D01*
X0340277Y0111563D02*
X0395945Y0111563D01*
X0395945Y0109965D02*
X0376558Y0109965D01*
X0378467Y0108366D02*
X0395945Y0108366D01*
X0395945Y0106768D02*
X0378954Y0106768D01*
X0378744Y0105169D02*
X0395945Y0105169D01*
X0395945Y0103571D02*
X0378554Y0103571D01*
X0378554Y0101972D02*
X0395945Y0101972D01*
X0395945Y0100374D02*
X0378554Y0100374D01*
X0380106Y0098775D02*
X0395945Y0098775D01*
X0395945Y0097177D02*
X0380420Y0097177D01*
X0380420Y0095578D02*
X0395945Y0095578D01*
X0371565Y0105169D02*
X0340211Y0105169D01*
X0323995Y0093979D02*
X0315196Y0093979D01*
X0313598Y0092381D02*
X0323995Y0092381D01*
X0323518Y0090782D02*
X0311999Y0090782D01*
X0310401Y0089184D02*
X0321919Y0089184D01*
X0320321Y0087585D02*
X0308802Y0087585D01*
X0307204Y0085987D02*
X0318722Y0085987D01*
X0317124Y0084388D02*
X0305605Y0084388D01*
X0304007Y0082790D02*
X0315525Y0082790D01*
X0313927Y0081191D02*
X0302408Y0081191D01*
X0300810Y0079593D02*
X0312328Y0079593D01*
X0310729Y0077994D02*
X0293570Y0077994D01*
X0293570Y0076396D02*
X0309131Y0076396D01*
X0307532Y0074797D02*
X0293570Y0074797D01*
X0293570Y0073199D02*
X0305934Y0073199D01*
X0304335Y0071600D02*
X0293570Y0071600D01*
X0293570Y0070002D02*
X0302737Y0070002D01*
X0301138Y0068403D02*
X0293570Y0068403D01*
X0293570Y0066805D02*
X0299540Y0066805D01*
X0297941Y0065206D02*
X0296501Y0065206D01*
X0293690Y0065206D02*
X0293570Y0065206D01*
X0288370Y0065206D02*
X0275045Y0065206D01*
X0273447Y0063608D02*
X0288370Y0063608D01*
X0288370Y0062009D02*
X0271848Y0062009D01*
X0270250Y0060411D02*
X0288370Y0060411D01*
X0288370Y0058812D02*
X0282525Y0058812D01*
X0284986Y0057214D02*
X0286779Y0057214D01*
X0288370Y0066805D02*
X0276644Y0066805D01*
X0278242Y0068403D02*
X0288370Y0068403D01*
X0288370Y0070002D02*
X0279841Y0070002D01*
X0281439Y0071600D02*
X0288370Y0071600D01*
X0288370Y0073199D02*
X0283038Y0073199D01*
X0284636Y0074797D02*
X0288370Y0074797D01*
X0288370Y0076396D02*
X0286235Y0076396D01*
X0287833Y0077994D02*
X0288370Y0077994D01*
X0294432Y0079593D02*
X0295051Y0079593D01*
X0297595Y0081433D02*
X0298973Y0081433D01*
X0318973Y0101433D01*
X0321280Y0081191D02*
X0331868Y0081191D01*
X0329845Y0077683D02*
X0329845Y0074183D01*
X0333595Y0070433D01*
X0331948Y0068403D02*
X0308492Y0068403D01*
X0306894Y0066805D02*
X0335928Y0066805D01*
X0336495Y0065206D02*
X0305295Y0065206D01*
X0303697Y0063608D02*
X0336093Y0063608D01*
X0336122Y0063637D02*
X0336122Y0063637D01*
X0335020Y0062009D02*
X0302098Y0062009D01*
X0300500Y0060411D02*
X0334995Y0060411D01*
X0332252Y0058812D02*
X0302525Y0058812D01*
X0304986Y0057214D02*
X0332252Y0057214D01*
X0330349Y0070002D02*
X0310091Y0070002D01*
X0311689Y0071600D02*
X0328751Y0071600D01*
X0327439Y0073199D02*
X0313288Y0073199D01*
X0314886Y0074797D02*
X0327245Y0074797D01*
X0326915Y0076396D02*
X0316485Y0076396D01*
X0318083Y0077994D02*
X0326645Y0077994D01*
X0327229Y0079593D02*
X0319682Y0079593D01*
X0337595Y0043921D02*
X0337595Y0043558D01*
X0332648Y0039630D02*
X0304467Y0039630D01*
X0297223Y0039630D02*
X0294467Y0039630D01*
X0295615Y0041229D02*
X0296076Y0041229D01*
X0287223Y0039630D02*
X0284467Y0039630D01*
X0285615Y0041229D02*
X0286076Y0041229D01*
X0267595Y0066433D02*
X0257595Y0066433D01*
X0250883Y0059720D01*
X0250883Y0053539D01*
X0250970Y0053452D01*
X0246779Y0057214D02*
X0244986Y0057214D01*
X0242525Y0058812D02*
X0248283Y0058812D01*
X0248354Y0060411D02*
X0233483Y0060411D01*
X0233483Y0062009D02*
X0249494Y0062009D01*
X0251093Y0063608D02*
X0233483Y0063608D01*
X0233483Y0065206D02*
X0252691Y0065206D01*
X0254290Y0066805D02*
X0233483Y0066805D01*
X0233483Y0068403D02*
X0255888Y0068403D01*
X0239240Y0058812D02*
X0233483Y0058812D01*
X0234986Y0057214D02*
X0236779Y0057214D01*
X0230970Y0053452D02*
X0230883Y0053539D01*
X0219240Y0058812D02*
X0212525Y0058812D01*
X0214986Y0057214D02*
X0216779Y0057214D01*
X0209240Y0058812D02*
X0204901Y0058812D01*
X0204986Y0057214D02*
X0206779Y0057214D01*
X0137465Y0053853D02*
X0127595Y0053853D01*
X0127515Y0053933D01*
X0115095Y0053933D01*
X0118457Y0057295D01*
X0118457Y0059783D01*
X0115095Y0053933D02*
X0105095Y0043933D01*
X0106983Y0043933D01*
X0107173Y0043743D01*
X0118197Y0043743D02*
X0119905Y0043743D01*
X0125095Y0048933D01*
X0124387Y0053853D02*
X0127595Y0053853D01*
X0137465Y0063853D02*
X0134885Y0066433D01*
X0112595Y0066433D01*
X0107433Y0061271D01*
X0107433Y0059783D01*
X0179281Y0119556D02*
X0187088Y0119556D01*
X0185917Y0121154D02*
X0179095Y0121154D01*
X0179095Y0122753D02*
X0185383Y0122753D01*
X0185383Y0124351D02*
X0179095Y0124351D01*
X0179095Y0125950D02*
X0185928Y0125950D01*
X0187113Y0127548D02*
X0179095Y0127548D01*
X0179095Y0129147D02*
X0187832Y0129147D01*
X0186328Y0130745D02*
X0179095Y0130745D01*
X0179095Y0132344D02*
X0185666Y0132344D01*
X0185595Y0133942D02*
X0179095Y0133942D01*
X0179095Y0135541D02*
X0185984Y0135541D01*
X0187002Y0137139D02*
X0179095Y0137139D01*
X0194689Y0137139D02*
X0197002Y0137139D01*
X0195984Y0135541D02*
X0195706Y0135541D01*
X0204689Y0137139D02*
X0207002Y0137139D01*
X0205984Y0135541D02*
X0205706Y0135541D01*
X0205848Y0121154D02*
X0205917Y0121154D01*
X0207088Y0119556D02*
X0204677Y0119556D01*
X0197088Y0119556D02*
X0194677Y0119556D01*
X0195848Y0121154D02*
X0195917Y0121154D01*
X0227175Y0148673D02*
X0229395Y0146453D01*
X0237735Y0146453D01*
X0232387Y0149927D02*
X0229775Y0149927D01*
X0227175Y0148673D02*
X0227175Y0159653D01*
X0223633Y0159518D02*
X0184937Y0159518D01*
X0180099Y0165311D02*
X0180493Y0165705D01*
X0197694Y0165705D01*
X0213667Y0162715D02*
X0220436Y0162715D01*
X0222034Y0161117D02*
X0213368Y0161117D01*
X0227595Y0166433D02*
X0209111Y0184917D01*
X0209111Y0185390D01*
X0204161Y0183496D02*
X0203037Y0183496D01*
X0203037Y0181898D02*
X0204161Y0181898D01*
X0204963Y0180299D02*
X0202235Y0180299D01*
X0193138Y0181898D02*
X0185652Y0181898D01*
X0189391Y0197883D02*
X0206511Y0197883D01*
X0206511Y0199481D02*
X0185053Y0199481D01*
X0185899Y0202678D02*
X0193138Y0202678D01*
X0193159Y0201080D02*
X0179095Y0201080D01*
X0180099Y0205390D02*
X0198087Y0205390D01*
X0203037Y0205875D02*
X0204161Y0205875D01*
X0204161Y0204277D02*
X0203037Y0204277D01*
X0203037Y0202678D02*
X0204161Y0202678D01*
X0204182Y0201080D02*
X0203016Y0201080D01*
X0203037Y0207474D02*
X0204161Y0207474D01*
X0204161Y0209072D02*
X0203037Y0209072D01*
X0202045Y0210671D02*
X0205153Y0210671D01*
X0207332Y0212269D02*
X0195261Y0212269D01*
X0195695Y0213868D02*
X0206511Y0213868D01*
X0206511Y0215466D02*
X0195315Y0215466D01*
X0192595Y0213933D02*
X0188845Y0210183D01*
X0181345Y0210183D01*
X0180306Y0215183D02*
X0180099Y0215390D01*
X0179095Y0220262D02*
X0193977Y0220262D01*
X0193138Y0221860D02*
X0185615Y0221860D01*
X0185871Y0218663D02*
X0206511Y0218663D01*
X0206511Y0217065D02*
X0190209Y0217065D01*
X0193010Y0210671D02*
X0194130Y0210671D01*
X0193138Y0209072D02*
X0191411Y0209072D01*
X0191049Y0208710D02*
X0191049Y0208710D01*
X0202198Y0220262D02*
X0205000Y0220262D01*
X0204161Y0221860D02*
X0203037Y0221860D01*
X0203037Y0223459D02*
X0204161Y0223459D01*
X0204161Y0225057D02*
X0203037Y0225057D01*
X0203037Y0226656D02*
X0204161Y0226656D01*
X0204161Y0228254D02*
X0203037Y0228254D01*
X0202863Y0229853D02*
X0204336Y0229853D01*
X0209111Y0225390D02*
X0209111Y0214167D01*
X0211595Y0211683D01*
X0217345Y0211683D01*
X0222595Y0206433D01*
X0237715Y0206433D01*
X0237735Y0206453D01*
X0233820Y0210671D02*
X0222034Y0210671D01*
X0220436Y0212269D02*
X0233738Y0212269D01*
X0231532Y0209072D02*
X0223633Y0209072D01*
X0219476Y0205875D02*
X0214060Y0205875D01*
X0214060Y0204277D02*
X0221074Y0204277D01*
X0217877Y0207474D02*
X0214060Y0207474D01*
X0214060Y0209072D02*
X0216279Y0209072D01*
X0215345Y0216433D02*
X0215365Y0216453D01*
X0237735Y0216453D01*
X0241732Y0212269D02*
X0248495Y0212269D01*
X0248495Y0210671D02*
X0241650Y0210671D01*
X0243938Y0209072D02*
X0248495Y0209072D01*
X0248495Y0208859D02*
X0248382Y0208746D01*
X0247895Y0207570D01*
X0247895Y0206297D01*
X0248382Y0205120D01*
X0249282Y0204220D01*
X0250459Y0203733D01*
X0251732Y0203733D01*
X0252908Y0204220D01*
X0253808Y0205120D01*
X0254295Y0206297D01*
X0254295Y0207570D01*
X0253808Y0208746D01*
X0253695Y0208859D01*
X0253695Y0238450D01*
X0253299Y0239406D01*
X0244281Y0248424D01*
X0244065Y0248945D01*
X0242828Y0250183D01*
X0241210Y0250853D01*
X0234260Y0250853D01*
X0232643Y0250183D01*
X0231405Y0248945D01*
X0230735Y0247328D01*
X0230735Y0245578D01*
X0231405Y0243961D01*
X0232643Y0242723D01*
X0234260Y0242053D01*
X0241210Y0242053D01*
X0242687Y0242665D01*
X0248495Y0236856D01*
X0248495Y0208859D01*
X0247895Y0207474D02*
X0244675Y0207474D01*
X0244735Y0205875D02*
X0248070Y0205875D01*
X0249226Y0204277D02*
X0244196Y0204277D01*
X0251095Y0206933D02*
X0251095Y0237933D01*
X0242575Y0246453D01*
X0237735Y0246453D01*
X0232840Y0242641D02*
X0218814Y0242641D01*
X0220263Y0244240D02*
X0217216Y0244240D01*
X0215617Y0245838D02*
X0219395Y0245838D01*
X0219395Y0245797D02*
X0219882Y0244620D01*
X0220782Y0243720D01*
X0221959Y0243233D01*
X0223232Y0243233D01*
X0224408Y0243720D01*
X0225308Y0244620D01*
X0225795Y0245797D01*
X0225795Y0247070D01*
X0225308Y0248246D01*
X0224408Y0249146D01*
X0223232Y0249633D01*
X0223072Y0249633D01*
X0212659Y0260046D01*
X0213006Y0260046D01*
X0214060Y0261101D01*
X0214060Y0269679D01*
X0213006Y0270733D01*
X0205216Y0270733D01*
X0204161Y0269679D01*
X0204161Y0261101D01*
X0205216Y0260046D01*
X0206511Y0260046D01*
X0206511Y0259400D01*
X0206907Y0258445D01*
X0219395Y0245956D01*
X0219395Y0245797D01*
X0217915Y0247437D02*
X0214060Y0247437D01*
X0214060Y0247395D02*
X0214060Y0249679D01*
X0213006Y0250733D01*
X0205216Y0250733D01*
X0204161Y0249679D01*
X0204161Y0241101D01*
X0205216Y0240046D01*
X0213006Y0240046D01*
X0213530Y0240571D01*
X0216245Y0237856D01*
X0216245Y0226876D01*
X0215795Y0225790D01*
X0215795Y0224576D01*
X0216259Y0223455D01*
X0217117Y0222597D01*
X0218238Y0222133D01*
X0219452Y0222133D01*
X0220573Y0222597D01*
X0221431Y0223455D01*
X0221895Y0224576D01*
X0221895Y0225790D01*
X0221445Y0226876D01*
X0221445Y0239450D01*
X0221049Y0240406D01*
X0214060Y0247395D01*
X0214060Y0249035D02*
X0216316Y0249035D01*
X0214718Y0250634D02*
X0213106Y0250634D01*
X0213119Y0252232D02*
X0195246Y0252232D01*
X0195695Y0253831D02*
X0211521Y0253831D01*
X0209922Y0255429D02*
X0195331Y0255429D01*
X0193225Y0257028D02*
X0208324Y0257028D01*
X0206831Y0258626D02*
X0185899Y0258626D01*
X0185578Y0261823D02*
X0193138Y0261823D01*
X0194014Y0260225D02*
X0179095Y0260225D01*
X0180099Y0265390D02*
X0198087Y0265390D01*
X0203037Y0265020D02*
X0204161Y0265020D01*
X0204161Y0263422D02*
X0203037Y0263422D01*
X0203037Y0261823D02*
X0204161Y0261823D01*
X0205037Y0260225D02*
X0202161Y0260225D01*
X0203037Y0266619D02*
X0204161Y0266619D01*
X0204161Y0268217D02*
X0203037Y0268217D01*
X0202900Y0269816D02*
X0204298Y0269816D01*
X0210740Y0274611D02*
X0195670Y0274611D01*
X0195569Y0273013D02*
X0212339Y0273013D01*
X0213937Y0271414D02*
X0194460Y0271414D01*
X0193275Y0269816D02*
X0192155Y0269816D01*
X0193138Y0268217D02*
X0190556Y0268217D01*
X0188845Y0270183D02*
X0181345Y0270183D01*
X0188845Y0270183D02*
X0192595Y0273933D01*
X0194702Y0276210D02*
X0209141Y0276210D01*
X0207543Y0277808D02*
X0189465Y0277808D01*
X0185128Y0279407D02*
X0206511Y0279407D01*
X0206511Y0279400D02*
X0206907Y0278445D01*
X0224395Y0260956D01*
X0224395Y0260797D01*
X0224882Y0259620D01*
X0225782Y0258720D01*
X0226959Y0258233D01*
X0228232Y0258233D01*
X0229408Y0258720D01*
X0230308Y0259620D01*
X0230795Y0260797D01*
X0230795Y0262070D01*
X0230308Y0263246D01*
X0229408Y0264146D01*
X0228232Y0264633D01*
X0228072Y0264633D01*
X0212659Y0280046D01*
X0213006Y0280046D01*
X0214060Y0281101D01*
X0214060Y0289679D01*
X0213006Y0290733D01*
X0205216Y0290733D01*
X0204161Y0289679D01*
X0204161Y0281101D01*
X0205216Y0280046D01*
X0206511Y0280046D01*
X0206511Y0279400D01*
X0209111Y0279917D02*
X0227595Y0261433D01*
X0224632Y0260225D02*
X0213184Y0260225D01*
X0214060Y0261823D02*
X0223528Y0261823D01*
X0221930Y0263422D02*
X0214060Y0263422D01*
X0214060Y0265020D02*
X0220331Y0265020D01*
X0218733Y0266619D02*
X0214060Y0266619D01*
X0214060Y0268217D02*
X0217134Y0268217D01*
X0215536Y0269816D02*
X0213923Y0269816D01*
X0218094Y0274611D02*
X0231135Y0274611D01*
X0231058Y0274764D02*
X0231372Y0274147D01*
X0231779Y0273587D01*
X0232269Y0273097D01*
X0232829Y0272690D01*
X0233446Y0272375D01*
X0234105Y0272161D01*
X0234789Y0272053D01*
X0237735Y0272053D01*
X0237735Y0276453D01*
X0230735Y0276453D01*
X0230735Y0276107D01*
X0230843Y0275423D01*
X0231058Y0274764D01*
X0230735Y0276210D02*
X0216495Y0276210D01*
X0214897Y0277808D02*
X0230949Y0277808D01*
X0230843Y0277483D02*
X0230735Y0276799D01*
X0230735Y0276453D01*
X0237735Y0276453D01*
X0237735Y0276453D01*
X0237735Y0276453D01*
X0237735Y0280853D01*
X0234789Y0280853D01*
X0234105Y0280745D01*
X0233446Y0280531D01*
X0232829Y0280216D01*
X0232269Y0279809D01*
X0231779Y0279319D01*
X0231372Y0278759D01*
X0231058Y0278142D01*
X0230843Y0277483D01*
X0231866Y0279407D02*
X0213298Y0279407D01*
X0213965Y0281005D02*
X0255990Y0281005D01*
X0254995Y0279407D02*
X0243604Y0279407D01*
X0243691Y0279319D02*
X0243202Y0279809D01*
X0242641Y0280216D01*
X0242024Y0280531D01*
X0241365Y0280745D01*
X0240681Y0280853D01*
X0237735Y0280853D01*
X0237735Y0276453D01*
X0237735Y0276453D01*
X0237735Y0272053D01*
X0240681Y0272053D01*
X0241365Y0272161D01*
X0242024Y0272375D01*
X0242641Y0272690D01*
X0243202Y0273097D01*
X0243691Y0273587D01*
X0244098Y0274147D01*
X0244413Y0274764D01*
X0244627Y0275423D01*
X0244735Y0276107D01*
X0244735Y0276453D01*
X0237735Y0276453D01*
X0237735Y0276453D01*
X0244735Y0276453D01*
X0244735Y0276799D01*
X0244627Y0277483D01*
X0244413Y0278142D01*
X0244098Y0278759D01*
X0243691Y0279319D01*
X0244521Y0277808D02*
X0254995Y0277808D01*
X0254995Y0276210D02*
X0244735Y0276210D01*
X0244335Y0274611D02*
X0254995Y0274611D01*
X0254995Y0273013D02*
X0243086Y0273013D01*
X0242024Y0270531D02*
X0241365Y0270745D01*
X0240681Y0270853D01*
X0237735Y0270853D01*
X0234789Y0270853D01*
X0234105Y0270745D01*
X0233446Y0270531D01*
X0232829Y0270216D01*
X0232269Y0269809D01*
X0231779Y0269319D01*
X0231372Y0268759D01*
X0231058Y0268142D01*
X0230843Y0267483D01*
X0230735Y0266799D01*
X0230735Y0266453D01*
X0230735Y0266107D01*
X0230843Y0265423D01*
X0231058Y0264764D01*
X0231372Y0264147D01*
X0231779Y0263587D01*
X0232269Y0263097D01*
X0232829Y0262690D01*
X0233446Y0262375D01*
X0234105Y0262161D01*
X0234789Y0262053D01*
X0237735Y0262053D01*
X0237735Y0266453D01*
X0230735Y0266453D01*
X0237735Y0266453D01*
X0237735Y0266453D01*
X0237735Y0266453D01*
X0237735Y0270853D01*
X0237735Y0266453D01*
X0237735Y0266453D01*
X0237735Y0262053D01*
X0240681Y0262053D01*
X0241365Y0262161D01*
X0242024Y0262375D01*
X0242641Y0262690D01*
X0243202Y0263097D01*
X0243691Y0263587D01*
X0244098Y0264147D01*
X0244413Y0264764D01*
X0244627Y0265423D01*
X0244735Y0266107D01*
X0244735Y0266453D01*
X0237735Y0266453D01*
X0237735Y0266453D01*
X0244735Y0266453D01*
X0244735Y0266799D01*
X0244627Y0267483D01*
X0244413Y0268142D01*
X0244098Y0268759D01*
X0243691Y0269319D01*
X0243202Y0269809D01*
X0242641Y0270216D01*
X0242024Y0270531D01*
X0243193Y0269816D02*
X0254995Y0269816D01*
X0254995Y0271414D02*
X0221291Y0271414D01*
X0222889Y0269816D02*
X0232278Y0269816D01*
X0231096Y0268217D02*
X0224488Y0268217D01*
X0226086Y0266619D02*
X0230735Y0266619D01*
X0230974Y0265020D02*
X0227685Y0265020D01*
X0230132Y0263422D02*
X0231944Y0263422D01*
X0230795Y0261823D02*
X0254995Y0261823D01*
X0254995Y0260225D02*
X0242625Y0260225D01*
X0242641Y0260216D02*
X0242024Y0260531D01*
X0241365Y0260745D01*
X0240681Y0260853D01*
X0237735Y0260853D01*
X0234789Y0260853D01*
X0234105Y0260745D01*
X0233446Y0260531D01*
X0232829Y0260216D01*
X0232269Y0259809D01*
X0231779Y0259319D01*
X0231372Y0258759D01*
X0231058Y0258142D01*
X0230843Y0257483D01*
X0230735Y0256799D01*
X0230735Y0256453D01*
X0230735Y0256107D01*
X0230843Y0255423D01*
X0231058Y0254764D01*
X0231372Y0254147D01*
X0231779Y0253587D01*
X0232269Y0253097D01*
X0232829Y0252690D01*
X0233446Y0252375D01*
X0234105Y0252161D01*
X0234789Y0252053D01*
X0237735Y0252053D01*
X0237735Y0256453D01*
X0230735Y0256453D01*
X0237735Y0256453D01*
X0237735Y0256453D01*
X0237735Y0256453D01*
X0237735Y0260853D01*
X0237735Y0256453D01*
X0237735Y0256453D01*
X0237735Y0252053D01*
X0240681Y0252053D01*
X0241365Y0252161D01*
X0242024Y0252375D01*
X0242641Y0252690D01*
X0243202Y0253097D01*
X0243691Y0253587D01*
X0244098Y0254147D01*
X0244413Y0254764D01*
X0244627Y0255423D01*
X0244735Y0256107D01*
X0244735Y0256453D01*
X0237735Y0256453D01*
X0237735Y0256453D01*
X0244735Y0256453D01*
X0244735Y0256799D01*
X0244627Y0257483D01*
X0244413Y0258142D01*
X0244098Y0258759D01*
X0243691Y0259319D01*
X0243202Y0259809D01*
X0242641Y0260216D01*
X0244166Y0258626D02*
X0254995Y0258626D01*
X0254995Y0257028D02*
X0244699Y0257028D01*
X0244628Y0255429D02*
X0254995Y0255429D01*
X0254995Y0253831D02*
X0243869Y0253831D01*
X0241583Y0252232D02*
X0254995Y0252232D01*
X0254995Y0250634D02*
X0241740Y0250634D01*
X0243976Y0249035D02*
X0254995Y0249035D01*
X0254995Y0247437D02*
X0245269Y0247437D01*
X0246867Y0245838D02*
X0254995Y0245838D01*
X0254995Y0244240D02*
X0248466Y0244240D01*
X0250064Y0242641D02*
X0254995Y0242641D01*
X0254995Y0241043D02*
X0251663Y0241043D01*
X0253261Y0239444D02*
X0254995Y0239444D01*
X0254995Y0237845D02*
X0253695Y0237845D01*
X0253695Y0236247D02*
X0254995Y0236247D01*
X0254995Y0234648D02*
X0253695Y0234648D01*
X0253695Y0233050D02*
X0254995Y0233050D01*
X0254995Y0231451D02*
X0253695Y0231451D01*
X0253695Y0229853D02*
X0254995Y0229853D01*
X0254995Y0228254D02*
X0253695Y0228254D01*
X0253695Y0226656D02*
X0254995Y0226656D01*
X0254995Y0225057D02*
X0253695Y0225057D01*
X0253695Y0223459D02*
X0254995Y0223459D01*
X0254995Y0221860D02*
X0253695Y0221860D01*
X0253695Y0220262D02*
X0254995Y0220262D01*
X0254995Y0218663D02*
X0253695Y0218663D01*
X0253695Y0217065D02*
X0254995Y0217065D01*
X0254995Y0215466D02*
X0253695Y0215466D01*
X0253695Y0213868D02*
X0254995Y0213868D01*
X0254995Y0212269D02*
X0253695Y0212269D01*
X0253695Y0210671D02*
X0254995Y0210671D01*
X0254995Y0209072D02*
X0253695Y0209072D01*
X0254295Y0207474D02*
X0254995Y0207474D01*
X0254995Y0205875D02*
X0254121Y0205875D01*
X0254995Y0204277D02*
X0252964Y0204277D01*
X0260195Y0204277D02*
X0261274Y0204277D01*
X0260735Y0205875D02*
X0260195Y0205875D01*
X0260195Y0207474D02*
X0260795Y0207474D01*
X0260195Y0209072D02*
X0261532Y0209072D01*
X0260195Y0210671D02*
X0263820Y0210671D01*
X0263738Y0212269D02*
X0260195Y0212269D01*
X0260195Y0213868D02*
X0261498Y0213868D01*
X0260781Y0215466D02*
X0260195Y0215466D01*
X0260195Y0217065D02*
X0260735Y0217065D01*
X0260195Y0218663D02*
X0261288Y0218663D01*
X0260195Y0220262D02*
X0262833Y0220262D01*
X0260195Y0221860D02*
X0286598Y0221860D01*
X0284999Y0223459D02*
X0279533Y0223459D01*
X0281290Y0225057D02*
X0283401Y0225057D01*
X0288222Y0229853D02*
X0291195Y0229853D01*
X0291195Y0231451D02*
X0287688Y0231451D01*
X0287688Y0233050D02*
X0291195Y0233050D01*
X0291195Y0234648D02*
X0287688Y0234648D01*
X0286583Y0237118D02*
X0286994Y0237355D01*
X0287329Y0237690D01*
X0287566Y0238100D01*
X0287688Y0238558D01*
X0287688Y0241170D01*
X0283120Y0241170D01*
X0283120Y0242720D01*
X0281570Y0242720D01*
X0281570Y0246894D01*
X0278565Y0246894D01*
X0278107Y0246772D01*
X0277697Y0246535D01*
X0277361Y0246200D01*
X0277124Y0245789D01*
X0277002Y0245331D01*
X0277002Y0242720D01*
X0281570Y0242720D01*
X0281570Y0241170D01*
X0277002Y0241170D01*
X0277002Y0238558D01*
X0277124Y0238100D01*
X0277361Y0237690D01*
X0277697Y0237355D01*
X0278107Y0237118D01*
X0278565Y0236995D01*
X0281570Y0236995D01*
X0281570Y0241170D01*
X0283120Y0241170D01*
X0283120Y0236995D01*
X0286125Y0236995D01*
X0286583Y0237118D01*
X0287419Y0237845D02*
X0291195Y0237845D01*
X0291195Y0236247D02*
X0274735Y0236247D01*
X0274735Y0236107D02*
X0274735Y0236453D01*
X0267735Y0236453D01*
X0260735Y0236453D01*
X0260735Y0236107D01*
X0260843Y0235423D01*
X0261058Y0234764D01*
X0261372Y0234147D01*
X0261779Y0233587D01*
X0262269Y0233097D01*
X0262829Y0232690D01*
X0263446Y0232375D01*
X0264105Y0232161D01*
X0264789Y0232053D01*
X0267735Y0232053D01*
X0267735Y0236453D01*
X0267735Y0236453D01*
X0267735Y0236453D01*
X0260735Y0236453D01*
X0260735Y0236799D01*
X0260843Y0237483D01*
X0261058Y0238142D01*
X0261372Y0238759D01*
X0261779Y0239319D01*
X0262269Y0239809D01*
X0262829Y0240216D01*
X0263446Y0240531D01*
X0264105Y0240745D01*
X0264789Y0240853D01*
X0267735Y0240853D01*
X0267735Y0236453D01*
X0267735Y0236453D01*
X0267735Y0232053D01*
X0270681Y0232053D01*
X0271365Y0232161D01*
X0272024Y0232375D01*
X0272641Y0232690D01*
X0273202Y0233097D01*
X0273691Y0233587D01*
X0274098Y0234147D01*
X0274413Y0234764D01*
X0274627Y0235423D01*
X0274735Y0236107D01*
X0274735Y0236453D02*
X0274735Y0236799D01*
X0274627Y0237483D01*
X0274413Y0238142D01*
X0274098Y0238759D01*
X0273691Y0239319D01*
X0273202Y0239809D01*
X0272641Y0240216D01*
X0272024Y0240531D01*
X0271365Y0240745D01*
X0270681Y0240853D01*
X0267735Y0240853D01*
X0267735Y0236453D01*
X0267735Y0236453D01*
X0274735Y0236453D01*
X0274509Y0237845D02*
X0277272Y0237845D01*
X0277002Y0239444D02*
X0273567Y0239444D01*
X0272630Y0242641D02*
X0281570Y0242641D01*
X0283120Y0242641D02*
X0291195Y0242641D01*
X0291195Y0241043D02*
X0287688Y0241043D01*
X0287688Y0239444D02*
X0291195Y0239444D01*
X0287688Y0242720D02*
X0287688Y0245331D01*
X0287566Y0245789D01*
X0287329Y0246200D01*
X0286994Y0246535D01*
X0286583Y0246772D01*
X0286125Y0246894D01*
X0283120Y0246894D01*
X0283120Y0242720D01*
X0287688Y0242720D01*
X0287688Y0244240D02*
X0291195Y0244240D01*
X0291195Y0245838D02*
X0287538Y0245838D01*
X0291195Y0247437D02*
X0274690Y0247437D01*
X0274735Y0247328D02*
X0274065Y0248945D01*
X0272828Y0250183D01*
X0271210Y0250853D01*
X0264260Y0250853D01*
X0262643Y0250183D01*
X0261405Y0248945D01*
X0260735Y0247328D01*
X0260735Y0245578D01*
X0261405Y0243961D01*
X0262643Y0242723D01*
X0264260Y0242053D01*
X0271210Y0242053D01*
X0272828Y0242723D01*
X0274065Y0243961D01*
X0274735Y0245578D01*
X0274735Y0247328D01*
X0274735Y0245838D02*
X0277153Y0245838D01*
X0277002Y0244240D02*
X0274181Y0244240D01*
X0277002Y0241043D02*
X0260195Y0241043D01*
X0260195Y0242641D02*
X0262840Y0242641D01*
X0261289Y0244240D02*
X0260195Y0244240D01*
X0260195Y0245838D02*
X0260735Y0245838D01*
X0260780Y0247437D02*
X0260195Y0247437D01*
X0260195Y0249035D02*
X0261495Y0249035D01*
X0260195Y0250634D02*
X0263730Y0250634D01*
X0264260Y0252053D02*
X0262643Y0252723D01*
X0261405Y0253961D01*
X0260735Y0255578D01*
X0260735Y0257328D01*
X0261405Y0258945D01*
X0262643Y0260183D01*
X0264260Y0260853D01*
X0271210Y0260853D01*
X0272828Y0260183D01*
X0274065Y0258945D01*
X0274735Y0257328D01*
X0274735Y0255578D01*
X0274065Y0253961D01*
X0272828Y0252723D01*
X0271210Y0252053D01*
X0264260Y0252053D01*
X0263828Y0252232D02*
X0260195Y0252232D01*
X0260195Y0253831D02*
X0261535Y0253831D01*
X0260797Y0255429D02*
X0260195Y0255429D01*
X0260195Y0257028D02*
X0260735Y0257028D01*
X0260195Y0258626D02*
X0261273Y0258626D01*
X0260195Y0260225D02*
X0262743Y0260225D01*
X0264260Y0262053D02*
X0262643Y0262723D01*
X0261405Y0263961D01*
X0260735Y0265578D01*
X0260735Y0267328D01*
X0261405Y0268945D01*
X0262643Y0270183D01*
X0264260Y0270853D01*
X0271210Y0270853D01*
X0272828Y0270183D01*
X0274065Y0268945D01*
X0274735Y0267328D01*
X0274735Y0265578D01*
X0274065Y0263961D01*
X0272828Y0262723D01*
X0271210Y0262053D01*
X0264260Y0262053D01*
X0261944Y0263422D02*
X0260195Y0263422D01*
X0260195Y0265020D02*
X0260966Y0265020D01*
X0260735Y0266619D02*
X0260195Y0266619D01*
X0260195Y0268217D02*
X0261103Y0268217D01*
X0260195Y0269816D02*
X0262275Y0269816D01*
X0260195Y0271414D02*
X0277095Y0271414D01*
X0277095Y0272052D02*
X0277095Y0269864D01*
X0277932Y0267843D01*
X0279480Y0266295D01*
X0281501Y0265458D01*
X0283689Y0265458D01*
X0285711Y0266295D01*
X0287258Y0267843D01*
X0287585Y0268632D01*
X0287932Y0267793D01*
X0289480Y0266245D01*
X0291501Y0265408D01*
X0293689Y0265408D01*
X0295711Y0266245D01*
X0297258Y0267793D01*
X0297605Y0268632D01*
X0297932Y0267843D01*
X0299480Y0266295D01*
X0301501Y0265458D01*
X0303689Y0265458D01*
X0305711Y0266295D01*
X0307120Y0267705D01*
X0307120Y0266971D01*
X0307243Y0266513D01*
X0307480Y0266103D01*
X0307815Y0265768D01*
X0308225Y0265531D01*
X0308683Y0265408D01*
X0312534Y0265408D01*
X0312534Y0270822D01*
X0312706Y0270822D01*
X0312706Y0265408D01*
X0316557Y0265408D01*
X0317015Y0265531D01*
X0317425Y0265768D01*
X0317760Y0266103D01*
X0317997Y0266513D01*
X0318120Y0266971D01*
X0318120Y0270822D01*
X0312706Y0270822D01*
X0312706Y0270994D01*
X0312534Y0270994D01*
X0312534Y0276408D01*
X0308683Y0276408D01*
X0308225Y0276285D01*
X0307815Y0276048D01*
X0307480Y0275713D01*
X0307243Y0275303D01*
X0307120Y0274845D01*
X0307120Y0274211D01*
X0305711Y0275621D01*
X0303689Y0276458D01*
X0301501Y0276458D01*
X0299480Y0275621D01*
X0297932Y0274074D01*
X0297585Y0273234D01*
X0297258Y0274024D01*
X0295711Y0275571D01*
X0293689Y0276408D01*
X0291501Y0276408D01*
X0289480Y0275571D01*
X0287932Y0274024D01*
X0287605Y0273234D01*
X0287258Y0274074D01*
X0285711Y0275621D01*
X0283689Y0276458D01*
X0281501Y0276458D01*
X0279480Y0275621D01*
X0277932Y0274074D01*
X0277095Y0272052D01*
X0277493Y0273013D02*
X0273117Y0273013D01*
X0272828Y0272723D02*
X0274065Y0273961D01*
X0274735Y0275578D01*
X0274735Y0277328D01*
X0274065Y0278945D01*
X0272828Y0280183D01*
X0271210Y0280853D01*
X0264260Y0280853D01*
X0262643Y0280183D01*
X0261405Y0278945D01*
X0260735Y0277328D01*
X0260735Y0275578D01*
X0261405Y0273961D01*
X0262643Y0272723D01*
X0264260Y0272053D01*
X0271210Y0272053D01*
X0272828Y0272723D01*
X0274335Y0274611D02*
X0278470Y0274611D01*
X0280902Y0276210D02*
X0274735Y0276210D01*
X0274536Y0277808D02*
X0330870Y0277808D01*
X0330220Y0276210D02*
X0317146Y0276210D01*
X0317015Y0276285D02*
X0316557Y0276408D01*
X0312706Y0276408D01*
X0312706Y0270994D01*
X0318120Y0270994D01*
X0318120Y0274845D01*
X0317997Y0275303D01*
X0317760Y0275713D01*
X0317425Y0276048D01*
X0317015Y0276285D01*
X0318120Y0274611D02*
X0330220Y0274611D01*
X0330836Y0273013D02*
X0318120Y0273013D01*
X0318120Y0271414D02*
X0332623Y0271414D01*
X0336522Y0271433D02*
X0337073Y0271661D01*
X0337382Y0271970D01*
X0342250Y0271970D01*
X0349195Y0265025D01*
X0349195Y0252841D01*
X0340880Y0244526D01*
X0333962Y0244526D01*
X0332907Y0243472D01*
X0332907Y0236554D01*
X0331783Y0235429D01*
X0331783Y0243472D01*
X0330729Y0244526D01*
X0330195Y0244526D01*
X0330195Y0245356D01*
X0336799Y0251960D01*
X0337195Y0252916D01*
X0337195Y0255247D01*
X0337916Y0255247D01*
X0338970Y0256302D01*
X0338970Y0262942D01*
X0337916Y0263997D01*
X0337283Y0263997D01*
X0338304Y0265018D01*
X0338970Y0266626D01*
X0338970Y0268366D01*
X0338304Y0269974D01*
X0337073Y0271205D01*
X0336522Y0271433D01*
X0336568Y0271414D02*
X0342806Y0271414D01*
X0344404Y0269816D02*
X0338370Y0269816D01*
X0338970Y0268217D02*
X0346003Y0268217D01*
X0347601Y0266619D02*
X0338967Y0266619D01*
X0338305Y0265020D02*
X0349195Y0265020D01*
X0349195Y0263422D02*
X0338491Y0263422D01*
X0338970Y0261823D02*
X0349195Y0261823D01*
X0349195Y0260225D02*
X0338970Y0260225D01*
X0338970Y0258626D02*
X0349195Y0258626D01*
X0349195Y0257028D02*
X0338970Y0257028D01*
X0338097Y0255429D02*
X0349195Y0255429D01*
X0349195Y0253831D02*
X0337195Y0253831D01*
X0336912Y0252232D02*
X0348586Y0252232D01*
X0346987Y0250634D02*
X0335473Y0250634D01*
X0333874Y0249035D02*
X0345389Y0249035D01*
X0343790Y0247437D02*
X0332276Y0247437D01*
X0330677Y0245838D02*
X0342192Y0245838D01*
X0347013Y0241043D02*
X0378345Y0241043D01*
X0378345Y0240933D02*
X0369253Y0240933D01*
X0369385Y0240098D01*
X0369663Y0239245D01*
X0370070Y0238446D01*
X0370597Y0237720D01*
X0371232Y0237085D01*
X0371958Y0236558D01*
X0372757Y0236151D01*
X0373610Y0235873D01*
X0374497Y0235733D01*
X0378345Y0235733D01*
X0378345Y0240933D01*
X0378345Y0241933D01*
X0369253Y0241933D01*
X0369385Y0242768D01*
X0369663Y0243621D01*
X0370070Y0244421D01*
X0370597Y0245146D01*
X0371232Y0245781D01*
X0371958Y0246308D01*
X0372757Y0246715D01*
X0373610Y0246993D01*
X0374497Y0247133D01*
X0378345Y0247133D01*
X0378345Y0241933D01*
X0379345Y0241933D01*
X0379345Y0247133D01*
X0383194Y0247133D01*
X0384080Y0246993D01*
X0384933Y0246715D01*
X0385733Y0246308D01*
X0386458Y0245781D01*
X0387093Y0245146D01*
X0387620Y0244421D01*
X0388028Y0243621D01*
X0388305Y0242768D01*
X0388437Y0241933D01*
X0379345Y0241933D01*
X0379345Y0240933D01*
X0379345Y0235733D01*
X0383194Y0235733D01*
X0384080Y0235873D01*
X0384933Y0236151D01*
X0385733Y0236558D01*
X0386458Y0237085D01*
X0387093Y0237720D01*
X0387620Y0238446D01*
X0388028Y0239245D01*
X0388305Y0240098D01*
X0388437Y0240933D01*
X0379345Y0240933D01*
X0378345Y0240933D01*
X0379345Y0241043D02*
X0395945Y0241043D01*
X0395945Y0242641D02*
X0388325Y0242641D01*
X0387712Y0244240D02*
X0395945Y0244240D01*
X0395945Y0245838D02*
X0386380Y0245838D01*
X0379345Y0245838D02*
X0378345Y0245838D01*
X0378345Y0244240D02*
X0379345Y0244240D01*
X0379345Y0242641D02*
X0378345Y0242641D01*
X0378345Y0239444D02*
X0379345Y0239444D01*
X0379345Y0237845D02*
X0378345Y0237845D01*
X0378345Y0236247D02*
X0379345Y0236247D01*
X0385122Y0236247D02*
X0395945Y0236247D01*
X0395945Y0237845D02*
X0387184Y0237845D01*
X0388092Y0239444D02*
X0395945Y0239444D01*
X0395945Y0234648D02*
X0342561Y0234648D01*
X0342807Y0236247D02*
X0372568Y0236247D01*
X0370506Y0237845D02*
X0343816Y0237845D01*
X0345414Y0239444D02*
X0369598Y0239444D01*
X0369365Y0242641D02*
X0348611Y0242641D01*
X0350210Y0244240D02*
X0369978Y0244240D01*
X0371311Y0245838D02*
X0351808Y0245838D01*
X0353407Y0247437D02*
X0395945Y0247437D01*
X0395945Y0249035D02*
X0355005Y0249035D01*
X0354521Y0248551D02*
X0354521Y0248551D01*
X0356604Y0250634D02*
X0395945Y0250634D01*
X0395945Y0252232D02*
X0358202Y0252232D01*
X0359801Y0253831D02*
X0395945Y0253831D01*
X0395945Y0255429D02*
X0361400Y0255429D01*
X0362998Y0257028D02*
X0370990Y0257028D01*
X0370771Y0265020D02*
X0355995Y0265020D01*
X0355995Y0263422D02*
X0359775Y0263422D01*
X0358177Y0261823D02*
X0355995Y0261823D01*
X0355995Y0260225D02*
X0356578Y0260225D01*
X0355995Y0266619D02*
X0373294Y0266619D01*
X0384396Y0266619D02*
X0395945Y0266619D01*
X0395945Y0268217D02*
X0355536Y0268217D01*
X0354021Y0269816D02*
X0395945Y0269816D01*
X0395945Y0271414D02*
X0352422Y0271414D01*
X0350824Y0273013D02*
X0395945Y0273013D01*
X0395945Y0274611D02*
X0349225Y0274611D01*
X0347627Y0276210D02*
X0395485Y0276210D01*
X0393886Y0277808D02*
X0346028Y0277808D01*
X0338364Y0281005D02*
X0390689Y0281005D01*
X0389091Y0282604D02*
X0338923Y0282604D01*
X0338970Y0283244D02*
X0338970Y0283588D01*
X0338862Y0284269D01*
X0338649Y0284923D01*
X0338337Y0285537D01*
X0337932Y0286094D01*
X0337445Y0286581D01*
X0336888Y0286986D01*
X0336274Y0287298D01*
X0335620Y0287511D01*
X0334939Y0287619D01*
X0334595Y0287619D01*
X0334251Y0287619D01*
X0333571Y0287511D01*
X0332916Y0287298D01*
X0332302Y0286986D01*
X0331745Y0286581D01*
X0331258Y0286094D01*
X0330853Y0285537D01*
X0330541Y0284923D01*
X0330328Y0284269D01*
X0330220Y0283588D01*
X0330220Y0283244D01*
X0334595Y0283244D01*
X0334595Y0283244D01*
X0334595Y0287619D01*
X0334595Y0283244D01*
X0334595Y0283244D01*
X0334595Y0283244D01*
X0338970Y0283244D01*
X0338873Y0284202D02*
X0387492Y0284202D01*
X0385894Y0285801D02*
X0338145Y0285801D01*
X0335964Y0287399D02*
X0384295Y0287399D01*
X0382697Y0288998D02*
X0296914Y0288998D01*
X0298050Y0287399D02*
X0333227Y0287399D01*
X0334595Y0287399D02*
X0334595Y0287399D01*
X0334595Y0285801D02*
X0334595Y0285801D01*
X0334595Y0284202D02*
X0334595Y0284202D01*
X0331045Y0285801D02*
X0298189Y0285801D01*
X0297248Y0284202D02*
X0330318Y0284202D01*
X0330267Y0282604D02*
X0264943Y0282604D01*
X0263344Y0281005D02*
X0330826Y0281005D01*
X0332490Y0279407D02*
X0273604Y0279407D01*
X0265095Y0286433D02*
X0257595Y0278933D01*
X0257595Y0151433D01*
X0254755Y0149927D02*
X0243083Y0149927D01*
X0244321Y0148329D02*
X0256727Y0148329D01*
X0258463Y0148329D02*
X0261150Y0148329D01*
X0260735Y0146730D02*
X0244735Y0146730D01*
X0244550Y0145132D02*
X0260920Y0145132D01*
X0260435Y0149927D02*
X0262387Y0149927D01*
X0273229Y0153124D02*
X0275195Y0153124D01*
X0275195Y0154723D02*
X0274381Y0154723D01*
X0274735Y0156321D02*
X0275195Y0156321D01*
X0275195Y0157920D02*
X0274490Y0157920D01*
X0275195Y0159518D02*
X0273492Y0159518D01*
X0284995Y0167511D02*
X0335615Y0167511D01*
X0337213Y0169110D02*
X0284995Y0169110D01*
X0284995Y0170708D02*
X0338812Y0170708D01*
X0330819Y0162715D02*
X0327576Y0162715D01*
X0327745Y0161117D02*
X0329221Y0161117D01*
X0327622Y0159518D02*
X0327315Y0159518D01*
X0297002Y0137139D02*
X0294689Y0137139D01*
X0295721Y0135541D02*
X0295984Y0135541D01*
X0320795Y0125950D02*
X0326902Y0125950D01*
X0362695Y0154723D02*
X0371690Y0154723D01*
X0370078Y0156321D02*
X0362695Y0156321D01*
X0362695Y0157920D02*
X0369408Y0157920D01*
X0369196Y0159518D02*
X0362695Y0159518D01*
X0362695Y0161117D02*
X0369369Y0161117D01*
X0370031Y0162715D02*
X0362695Y0162715D01*
X0362695Y0164314D02*
X0371584Y0164314D01*
X0370521Y0135541D02*
X0370420Y0135541D01*
X0370420Y0133942D02*
X0370521Y0133942D01*
X0370521Y0132344D02*
X0370420Y0132344D01*
X0370420Y0130745D02*
X0370521Y0130745D01*
X0370521Y0129147D02*
X0370420Y0129147D01*
X0370420Y0127548D02*
X0370521Y0127548D01*
X0370935Y0125950D02*
X0369714Y0125950D01*
X0375470Y0126808D02*
X0375470Y0131338D01*
X0380420Y0130745D02*
X0382495Y0130745D01*
X0382495Y0129147D02*
X0380420Y0129147D01*
X0380420Y0127548D02*
X0382495Y0127548D01*
X0382495Y0125950D02*
X0379714Y0125950D01*
X0380420Y0132344D02*
X0382495Y0132344D01*
X0382495Y0133942D02*
X0380420Y0133942D01*
X0380420Y0135541D02*
X0382495Y0135541D01*
X0303933Y0191489D02*
X0299608Y0191489D01*
X0299382Y0189890D02*
X0301463Y0189890D01*
X0300439Y0188292D02*
X0298543Y0188292D01*
X0300083Y0186693D02*
X0296250Y0186693D01*
X0299336Y0193087D02*
X0301352Y0193087D01*
X0300393Y0194686D02*
X0298431Y0194686D01*
X0300083Y0196284D02*
X0295982Y0196284D01*
X0298134Y0197883D02*
X0300270Y0197883D01*
X0301054Y0199481D02*
X0299212Y0199481D01*
X0299608Y0201080D02*
X0303215Y0201080D01*
X0301761Y0202678D02*
X0299505Y0202678D01*
X0298896Y0208833D02*
X0299240Y0209509D01*
X0299484Y0210259D01*
X0299608Y0211039D01*
X0299608Y0211229D01*
X0294799Y0211229D01*
X0294799Y0211637D01*
X0299608Y0211637D01*
X0299608Y0211828D01*
X0299484Y0212607D01*
X0299240Y0213357D01*
X0298896Y0214033D01*
X0300664Y0214033D01*
X0300846Y0213594D01*
X0302256Y0212184D01*
X0304068Y0211433D01*
X0302256Y0210683D01*
X0300846Y0209272D01*
X0300664Y0208833D01*
X0298896Y0208833D01*
X0299018Y0209072D02*
X0300763Y0209072D01*
X0299549Y0210671D02*
X0302244Y0210671D01*
X0302170Y0212269D02*
X0299538Y0212269D01*
X0298980Y0213868D02*
X0300732Y0213868D01*
X0283643Y0205875D02*
X0280431Y0205875D01*
X0279995Y0204277D02*
X0282045Y0204277D01*
X0280513Y0202678D02*
X0279995Y0202678D01*
X0275195Y0189890D02*
X0273121Y0189890D01*
X0274336Y0188292D02*
X0275195Y0188292D01*
X0275195Y0186693D02*
X0274735Y0186693D01*
X0274535Y0185095D02*
X0275195Y0185095D01*
X0262751Y0202678D02*
X0260195Y0202678D01*
X0248495Y0213868D02*
X0243972Y0213868D01*
X0244689Y0215466D02*
X0248495Y0215466D01*
X0248495Y0217065D02*
X0244735Y0217065D01*
X0244182Y0218663D02*
X0248495Y0218663D01*
X0248495Y0220262D02*
X0242638Y0220262D01*
X0241210Y0222053D02*
X0242828Y0222723D01*
X0244065Y0223961D01*
X0244735Y0225578D01*
X0244735Y0227328D01*
X0244065Y0228945D01*
X0242828Y0230183D01*
X0241210Y0230853D01*
X0234260Y0230853D01*
X0232643Y0230183D01*
X0231405Y0228945D01*
X0230735Y0227328D01*
X0230735Y0225578D01*
X0231405Y0223961D01*
X0232643Y0222723D01*
X0234260Y0222053D01*
X0241210Y0222053D01*
X0243564Y0223459D02*
X0248495Y0223459D01*
X0248495Y0225057D02*
X0244520Y0225057D01*
X0244735Y0226656D02*
X0248495Y0226656D01*
X0248495Y0228254D02*
X0244352Y0228254D01*
X0243158Y0229853D02*
X0248495Y0229853D01*
X0248495Y0231451D02*
X0221445Y0231451D01*
X0221445Y0229853D02*
X0232312Y0229853D01*
X0231119Y0228254D02*
X0221445Y0228254D01*
X0221536Y0226656D02*
X0230735Y0226656D01*
X0230951Y0225057D02*
X0221895Y0225057D01*
X0221432Y0223459D02*
X0231907Y0223459D01*
X0232833Y0220262D02*
X0213221Y0220262D01*
X0213262Y0218663D02*
X0211711Y0218663D01*
X0211711Y0217065D02*
X0212306Y0217065D01*
X0212444Y0215466D02*
X0211711Y0215466D01*
X0214060Y0221860D02*
X0248495Y0221860D01*
X0260195Y0223459D02*
X0261907Y0223459D01*
X0260951Y0225057D02*
X0260195Y0225057D01*
X0260195Y0226656D02*
X0260735Y0226656D01*
X0261119Y0228254D02*
X0260195Y0228254D01*
X0260195Y0229853D02*
X0262312Y0229853D01*
X0260195Y0231451D02*
X0277002Y0231451D01*
X0277002Y0233050D02*
X0273137Y0233050D01*
X0274354Y0234648D02*
X0277002Y0234648D01*
X0281570Y0237845D02*
X0283120Y0237845D01*
X0283120Y0239444D02*
X0281570Y0239444D01*
X0281570Y0241043D02*
X0283120Y0241043D01*
X0283120Y0244240D02*
X0281570Y0244240D01*
X0281570Y0245838D02*
X0283120Y0245838D01*
X0291195Y0249035D02*
X0273976Y0249035D01*
X0271740Y0250634D02*
X0291987Y0250634D01*
X0293586Y0252232D02*
X0271643Y0252232D01*
X0273935Y0253831D02*
X0295184Y0253831D01*
X0296783Y0255429D02*
X0274674Y0255429D01*
X0274735Y0257028D02*
X0298381Y0257028D01*
X0298884Y0258626D02*
X0274198Y0258626D01*
X0272727Y0260225D02*
X0299636Y0260225D01*
X0299156Y0266619D02*
X0296084Y0266619D01*
X0297434Y0268217D02*
X0297777Y0268217D01*
X0298470Y0274611D02*
X0296670Y0274611D01*
X0294168Y0276210D02*
X0300902Y0276210D01*
X0304289Y0276210D02*
X0308094Y0276210D01*
X0307120Y0274611D02*
X0306720Y0274611D01*
X0312534Y0274611D02*
X0312706Y0274611D01*
X0312706Y0273013D02*
X0312534Y0273013D01*
X0312534Y0271414D02*
X0312706Y0271414D01*
X0312706Y0269816D02*
X0312534Y0269816D01*
X0312534Y0268217D02*
X0312706Y0268217D01*
X0312706Y0266619D02*
X0312534Y0266619D01*
X0307215Y0266619D02*
X0306034Y0266619D01*
X0308030Y0260225D02*
X0310660Y0260225D01*
X0309907Y0258626D02*
X0308783Y0258626D01*
X0308783Y0257028D02*
X0309907Y0257028D01*
X0309907Y0255429D02*
X0308783Y0255429D01*
X0308783Y0253831D02*
X0309907Y0253831D01*
X0309907Y0252232D02*
X0308783Y0252232D01*
X0308522Y0250634D02*
X0310168Y0250634D01*
X0314857Y0255183D02*
X0327170Y0267496D01*
X0334595Y0267496D01*
X0334595Y0259622D02*
X0334595Y0253433D01*
X0327595Y0246433D01*
X0327595Y0240945D01*
X0326833Y0239183D01*
X0322583Y0244433D01*
X0320095Y0244433D01*
X0316895Y0244240D02*
X0297995Y0244240D01*
X0297995Y0245838D02*
X0317213Y0245838D01*
X0318864Y0247437D02*
X0298407Y0247437D01*
X0300005Y0249035D02*
X0317607Y0249035D01*
X0320595Y0250183D02*
X0315607Y0255183D01*
X0314857Y0255183D01*
X0317820Y0261823D02*
X0260195Y0261823D01*
X0254995Y0263422D02*
X0243526Y0263422D01*
X0244496Y0265020D02*
X0254995Y0265020D01*
X0254995Y0266619D02*
X0244735Y0266619D01*
X0244375Y0268217D02*
X0254995Y0268217D01*
X0260195Y0273013D02*
X0262353Y0273013D01*
X0261136Y0274611D02*
X0260195Y0274611D01*
X0260195Y0276210D02*
X0260735Y0276210D01*
X0260934Y0277808D02*
X0260195Y0277808D01*
X0261746Y0279407D02*
X0261866Y0279407D01*
X0257589Y0282604D02*
X0214060Y0282604D01*
X0214060Y0284202D02*
X0259187Y0284202D01*
X0260786Y0285801D02*
X0214060Y0285801D01*
X0214060Y0287399D02*
X0262384Y0287399D01*
X0264493Y0288998D02*
X0214060Y0288998D01*
X0213143Y0290596D02*
X0381098Y0290596D01*
X0379500Y0292195D02*
X0179095Y0292195D01*
X0179095Y0293793D02*
X0377901Y0293793D01*
X0376303Y0295392D02*
X0179095Y0295392D01*
X0179095Y0296990D02*
X0374704Y0296990D01*
X0392288Y0279407D02*
X0336700Y0279407D01*
X0325976Y0269816D02*
X0318120Y0269816D01*
X0318120Y0268217D02*
X0324214Y0268217D01*
X0322616Y0266619D02*
X0318026Y0266619D01*
X0321017Y0265020D02*
X0274504Y0265020D01*
X0274735Y0266619D02*
X0279156Y0266619D01*
X0277777Y0268217D02*
X0274367Y0268217D01*
X0273195Y0269816D02*
X0277115Y0269816D01*
X0273526Y0263422D02*
X0319419Y0263422D01*
X0312706Y0276210D02*
X0312534Y0276210D01*
X0295095Y0286433D02*
X0265095Y0286433D01*
X0284289Y0276210D02*
X0291022Y0276210D01*
X0288520Y0274611D02*
X0286720Y0274611D01*
X0287413Y0268217D02*
X0287757Y0268217D01*
X0289106Y0266619D02*
X0286034Y0266619D01*
X0303833Y0255183D02*
X0303833Y0252671D01*
X0304891Y0241446D02*
X0301646Y0241446D01*
X0301188Y0241323D01*
X0300777Y0241086D01*
X0300442Y0240751D01*
X0300205Y0240340D01*
X0300083Y0239883D01*
X0300083Y0236637D01*
X0304891Y0236637D01*
X0304891Y0241446D01*
X0304891Y0241043D02*
X0305299Y0241043D01*
X0305299Y0241446D02*
X0305299Y0236637D01*
X0310108Y0236637D01*
X0310108Y0239883D01*
X0309985Y0240340D01*
X0309748Y0240751D01*
X0309413Y0241086D01*
X0309003Y0241323D01*
X0308545Y0241446D01*
X0305299Y0241446D01*
X0305299Y0239444D02*
X0304891Y0239444D01*
X0304891Y0237845D02*
X0305299Y0237845D01*
X0305299Y0236247D02*
X0321884Y0236247D01*
X0321884Y0237845D02*
X0310108Y0237845D01*
X0310108Y0239444D02*
X0321884Y0239444D01*
X0321884Y0241043D02*
X0309456Y0241043D01*
X0317374Y0242641D02*
X0297995Y0242641D01*
X0297995Y0241043D02*
X0300734Y0241043D01*
X0300083Y0239444D02*
X0297995Y0239444D01*
X0297995Y0237845D02*
X0300083Y0237845D01*
X0297995Y0236247D02*
X0304891Y0236247D01*
X0300083Y0234648D02*
X0297995Y0234648D01*
X0297995Y0233050D02*
X0300083Y0233050D01*
X0301530Y0231451D02*
X0297995Y0231451D01*
X0297995Y0229853D02*
X0301426Y0229853D01*
X0308764Y0229853D02*
X0326207Y0229853D01*
X0327805Y0231451D02*
X0308660Y0231451D01*
X0310108Y0233050D02*
X0329404Y0233050D01*
X0331783Y0236247D02*
X0332601Y0236247D01*
X0332907Y0237845D02*
X0331783Y0237845D01*
X0331783Y0239444D02*
X0332907Y0239444D01*
X0332907Y0241043D02*
X0331783Y0241043D01*
X0331783Y0242641D02*
X0332907Y0242641D01*
X0333675Y0244240D02*
X0331015Y0244240D01*
X0337857Y0239183D02*
X0337857Y0238671D01*
X0338845Y0237683D01*
X0339020Y0233050D02*
X0395945Y0233050D01*
X0395945Y0231451D02*
X0337422Y0231451D01*
X0335823Y0229853D02*
X0395945Y0229853D01*
X0371552Y0217065D02*
X0348035Y0217065D01*
X0328157Y0215466D02*
X0326965Y0215466D01*
X0327033Y0213868D02*
X0328157Y0213868D01*
X0328157Y0212269D02*
X0327033Y0212269D01*
X0322129Y0234648D02*
X0310108Y0234648D01*
X0291195Y0228254D02*
X0289820Y0228254D01*
X0282857Y0231433D02*
X0282345Y0230921D01*
X0267735Y0233050D02*
X0267735Y0233050D01*
X0267735Y0234648D02*
X0267735Y0234648D01*
X0267735Y0236247D02*
X0267735Y0236247D01*
X0267735Y0237845D02*
X0267735Y0237845D01*
X0267735Y0239444D02*
X0267735Y0239444D01*
X0261904Y0239444D02*
X0260195Y0239444D01*
X0260195Y0237845D02*
X0260961Y0237845D01*
X0260735Y0236247D02*
X0260195Y0236247D01*
X0260195Y0234648D02*
X0261116Y0234648D01*
X0260195Y0233050D02*
X0262333Y0233050D01*
X0248495Y0233050D02*
X0243155Y0233050D01*
X0242828Y0232723D02*
X0244065Y0233961D01*
X0244735Y0235578D01*
X0244735Y0237328D01*
X0244065Y0238945D01*
X0242828Y0240183D01*
X0241210Y0240853D01*
X0234260Y0240853D01*
X0232643Y0240183D01*
X0231405Y0238945D01*
X0230735Y0237328D01*
X0230735Y0235578D01*
X0231405Y0233961D01*
X0232643Y0232723D01*
X0234260Y0232053D01*
X0241210Y0232053D01*
X0242828Y0232723D01*
X0244350Y0234648D02*
X0248495Y0234648D01*
X0248495Y0236247D02*
X0244735Y0236247D01*
X0244521Y0237845D02*
X0247506Y0237845D01*
X0245907Y0239444D02*
X0243567Y0239444D01*
X0244309Y0241043D02*
X0220413Y0241043D01*
X0221445Y0239444D02*
X0231904Y0239444D01*
X0230949Y0237845D02*
X0221445Y0237845D01*
X0221445Y0236247D02*
X0230735Y0236247D01*
X0231120Y0234648D02*
X0221445Y0234648D01*
X0221445Y0233050D02*
X0232316Y0233050D01*
X0242630Y0242641D02*
X0242710Y0242641D01*
X0237735Y0252232D02*
X0237735Y0252232D01*
X0237735Y0253831D02*
X0237735Y0253831D01*
X0237735Y0255429D02*
X0237735Y0255429D01*
X0237735Y0257028D02*
X0237735Y0257028D01*
X0237735Y0258626D02*
X0237735Y0258626D01*
X0237735Y0260225D02*
X0237735Y0260225D01*
X0237735Y0263422D02*
X0237735Y0263422D01*
X0237735Y0265020D02*
X0237735Y0265020D01*
X0237735Y0266619D02*
X0237735Y0266619D01*
X0237735Y0268217D02*
X0237735Y0268217D01*
X0237735Y0269816D02*
X0237735Y0269816D01*
X0237735Y0273013D02*
X0237735Y0273013D01*
X0237735Y0274611D02*
X0237735Y0274611D01*
X0237735Y0276210D02*
X0237735Y0276210D01*
X0237735Y0277808D02*
X0237735Y0277808D01*
X0237735Y0279407D02*
X0237735Y0279407D01*
X0232385Y0273013D02*
X0219692Y0273013D01*
X0209111Y0279917D02*
X0209111Y0285390D01*
X0204161Y0285801D02*
X0203037Y0285801D01*
X0203037Y0287399D02*
X0204161Y0287399D01*
X0204161Y0288998D02*
X0203037Y0288998D01*
X0202119Y0290596D02*
X0205079Y0290596D01*
X0204161Y0284202D02*
X0203037Y0284202D01*
X0203037Y0282604D02*
X0204161Y0282604D01*
X0204257Y0281005D02*
X0202941Y0281005D01*
X0198087Y0285390D02*
X0180099Y0285390D01*
X0179095Y0290596D02*
X0194055Y0290596D01*
X0193138Y0288998D02*
X0185537Y0288998D01*
X0185899Y0282604D02*
X0193138Y0282604D01*
X0193233Y0281005D02*
X0179095Y0281005D01*
X0190246Y0257028D02*
X0191965Y0257028D01*
X0192595Y0253933D02*
X0188845Y0250183D01*
X0181345Y0250183D01*
X0180306Y0255183D02*
X0180099Y0255390D01*
X0180099Y0245390D02*
X0198087Y0245390D01*
X0203037Y0245838D02*
X0204161Y0245838D01*
X0204161Y0244240D02*
X0203037Y0244240D01*
X0203037Y0242641D02*
X0204161Y0242641D01*
X0204220Y0241043D02*
X0202979Y0241043D01*
X0203037Y0247437D02*
X0204161Y0247437D01*
X0204161Y0249035D02*
X0203037Y0249035D01*
X0202082Y0250634D02*
X0205116Y0250634D01*
X0210154Y0246433D02*
X0209111Y0245390D01*
X0210154Y0246433D02*
X0211345Y0246433D01*
X0218845Y0238933D01*
X0218845Y0225183D01*
X0215795Y0225057D02*
X0214060Y0225057D01*
X0214060Y0223459D02*
X0216258Y0223459D01*
X0216154Y0226656D02*
X0214060Y0226656D01*
X0214060Y0228254D02*
X0216245Y0228254D01*
X0216245Y0229853D02*
X0213886Y0229853D01*
X0216245Y0231451D02*
X0194498Y0231451D01*
X0195585Y0233050D02*
X0216245Y0233050D01*
X0216245Y0234648D02*
X0195654Y0234648D01*
X0194665Y0236247D02*
X0216245Y0236247D01*
X0216245Y0237845D02*
X0189428Y0237845D01*
X0185090Y0239444D02*
X0214657Y0239444D01*
X0222595Y0246433D02*
X0209111Y0259917D01*
X0209111Y0265390D01*
X0214079Y0258626D02*
X0226010Y0258626D01*
X0229181Y0258626D02*
X0231304Y0258626D01*
X0230771Y0257028D02*
X0215678Y0257028D01*
X0217276Y0255429D02*
X0230842Y0255429D01*
X0231602Y0253831D02*
X0218875Y0253831D01*
X0220473Y0252232D02*
X0233887Y0252232D01*
X0233730Y0250634D02*
X0222072Y0250634D01*
X0224519Y0249035D02*
X0231495Y0249035D01*
X0230780Y0247437D02*
X0225643Y0247437D01*
X0225795Y0245838D02*
X0230735Y0245838D01*
X0231289Y0244240D02*
X0224927Y0244240D01*
X0230558Y0260225D02*
X0232846Y0260225D01*
X0194093Y0250634D02*
X0192973Y0250634D01*
X0193138Y0249035D02*
X0191374Y0249035D01*
X0193138Y0242641D02*
X0185899Y0242641D01*
X0179095Y0241043D02*
X0193196Y0241043D01*
X0192595Y0233933D02*
X0188845Y0230183D01*
X0181345Y0230183D01*
X0180099Y0225390D02*
X0198087Y0225390D01*
X0193138Y0228254D02*
X0190593Y0228254D01*
X0192192Y0229853D02*
X0193312Y0229853D01*
X0209111Y0205390D02*
X0209111Y0194417D01*
X0386701Y0257028D02*
X0395945Y0257028D01*
X0395945Y0258626D02*
X0387876Y0258626D01*
X0388445Y0260225D02*
X0395945Y0260225D01*
X0395945Y0261823D02*
X0388445Y0261823D01*
X0387967Y0263422D02*
X0395945Y0263422D01*
X0395945Y0265020D02*
X0386919Y0265020D01*
D40*
X0295095Y0286433D03*
X0192595Y0273933D03*
X0192595Y0253933D03*
X0192595Y0233933D03*
X0192595Y0213933D03*
X0192595Y0193933D03*
X0192595Y0173933D03*
X0181345Y0170183D03*
X0215220Y0106433D03*
X0225220Y0106433D03*
X0235720Y0106433D03*
X0254720Y0092933D03*
X0237220Y0070433D03*
X0217220Y0065433D03*
X0185970Y0063933D03*
X0175720Y0063933D03*
X0286220Y0095433D03*
X0297595Y0081433D03*
X0295095Y0062433D03*
X0326595Y0096933D03*
X0318973Y0101433D03*
D41*
X0314220Y0101933D03*
X0310095Y0098933D03*
X0313595Y0112433D03*
X0322470Y0117308D03*
X0331220Y0117558D03*
X0317595Y0126433D03*
X0306720Y0081933D03*
X0329845Y0077683D03*
X0377470Y0081308D03*
X0391470Y0136558D03*
X0347595Y0171933D03*
X0352595Y0192183D03*
X0356595Y0205683D03*
X0319720Y0232058D03*
X0320095Y0244433D03*
X0320595Y0250183D03*
X0345470Y0262683D03*
X0369720Y0284433D03*
X0277970Y0218058D03*
X0251095Y0206933D03*
X0294970Y0179058D03*
X0257595Y0151433D03*
X0250470Y0147308D03*
X0250470Y0167308D03*
X0187565Y0175183D03*
X0187565Y0155183D03*
X0187565Y0195183D03*
X0187565Y0215183D03*
X0187565Y0235183D03*
X0187565Y0255183D03*
X0187565Y0275183D03*
X0227595Y0261433D03*
X0222595Y0246433D03*
X0202595Y0106433D03*
X0185095Y0106433D03*
X0227595Y0071433D03*
X0125095Y0048933D03*
D42*
X0175720Y0063933D02*
X0185970Y0063933D01*
X0190883Y0053539D02*
X0190883Y0043433D01*
X0190845Y0043433D01*
X0200845Y0043433D02*
X0200883Y0043433D01*
X0200883Y0053539D01*
X0210883Y0053539D02*
X0210883Y0043433D01*
X0210845Y0043433D01*
X0220845Y0043433D02*
X0220883Y0043433D01*
X0220883Y0053539D01*
X0230883Y0053539D02*
X0230883Y0043433D01*
X0230845Y0043433D01*
X0240845Y0043433D02*
X0240883Y0043433D01*
X0240883Y0053539D01*
X0250883Y0053539D02*
X0250883Y0043433D01*
X0250845Y0043433D01*
X0260845Y0043433D02*
X0260883Y0043433D01*
X0260883Y0053539D01*
X0270883Y0053539D02*
X0270883Y0043433D01*
X0270845Y0043433D01*
X0280845Y0043433D02*
X0280883Y0043433D01*
X0280883Y0053539D01*
X0290883Y0053539D02*
X0290883Y0043433D01*
X0290845Y0043433D01*
X0280883Y0123539D02*
X0280845Y0123577D01*
X0280845Y0133558D01*
X0270845Y0133558D02*
X0270845Y0123577D01*
X0270883Y0123539D01*
X0260883Y0123539D02*
X0260845Y0123577D01*
X0260845Y0133558D01*
X0250845Y0133558D02*
X0250845Y0123577D01*
X0250883Y0123539D01*
X0240883Y0123539D02*
X0240845Y0123577D01*
X0240845Y0133558D01*
X0230845Y0133558D02*
X0230845Y0123577D01*
X0230883Y0123539D01*
X0220883Y0123539D02*
X0220720Y0123702D01*
X0220720Y0134558D01*
X0210845Y0133558D02*
X0210845Y0123577D01*
X0210883Y0123539D01*
X0200883Y0123539D02*
X0200845Y0123577D01*
X0200845Y0133558D01*
X0190845Y0133558D02*
X0190845Y0123577D01*
X0190883Y0123539D01*
X0187565Y0155183D02*
X0186217Y0155311D01*
X0180099Y0155311D01*
X0180306Y0175183D02*
X0187565Y0175183D01*
X0187565Y0195183D02*
X0186138Y0195390D01*
X0180099Y0195390D01*
X0180306Y0215183D02*
X0187565Y0215183D01*
X0187565Y0235183D02*
X0186138Y0235390D01*
X0180099Y0235390D01*
X0180306Y0255183D02*
X0187565Y0255183D01*
X0187565Y0275183D02*
X0186138Y0275390D01*
X0180099Y0275390D01*
X0333107Y0211433D02*
X0333107Y0200257D01*
X0330595Y0197746D01*
D43*
X0320095Y0226433D03*
X0354595Y0055433D03*
D44*
X0181345Y0190183D03*
X0181345Y0210183D03*
X0181345Y0230183D03*
X0181345Y0250183D03*
X0181345Y0270183D03*
X0218845Y0225183D03*
X0215345Y0216433D03*
X0214845Y0196433D03*
D45*
X0277595Y0206433D02*
X0277595Y0143308D01*
X0275720Y0141433D01*
X0227595Y0141433D01*
X0220720Y0134558D01*
X0240720Y0133433D02*
X0240845Y0133558D01*
X0245970Y0138683D01*
X0278970Y0138683D01*
X0282595Y0142308D01*
X0282595Y0201433D01*
X0287595Y0206433D01*
X0305095Y0206433D01*
X0305095Y0216433D02*
X0287595Y0216433D01*
X0277595Y0206433D01*
X0289083Y0161433D02*
X0290345Y0160171D01*
X0290345Y0146433D01*
X0300107Y0161433D02*
X0313345Y0161433D01*
X0240883Y0123539D02*
X0240720Y0123702D01*
X0290883Y0053539D02*
X0290970Y0053452D01*
D46*
X0373599Y0061433D02*
X0382595Y0061433D01*
M02*
