%
M48
M72
T01C0.01300
T02C0.01400
T03C0.02500
T04C0.03150
T05C0.03200
T06C0.03500
T07C0.03543
T08C0.04000
T09C0.04016
T10C0.04331
T11C0.05118
T12C0.05200
%
T01
X181345Y190183
X181345Y210183
X181345Y230183
X181345Y250183
X181345Y270183
X218845Y225183
X215345Y216433
X214845Y196433
T02
X125095Y48933
X175720Y63933
X185970Y63933
X217220Y65433
X227595Y71433
X237220Y70433
X254720Y92933
X235720Y106433
X225220Y106433
X215220Y106433
X202595Y106433
X185095Y106433
X187565Y155183
X181345Y170183
X187565Y175183
X192595Y173933
X192595Y193933
X187565Y195183
X192595Y213933
X187565Y215183
X192595Y233933
X187565Y235183
X192595Y253933
X187565Y255183
X192595Y273933
X187565Y275183
X227595Y261433
X222595Y246433
X251095Y206933
X277970Y218058
X320095Y226433
X319720Y232058
X320095Y244433
X320595Y250183
X345470Y262683
X369720Y284433
X250470Y167308
X257595Y151433
X250470Y147308
X294970Y179058
X342595Y216433
X356095Y221433
X356595Y205683
X352595Y192183
X347595Y171933
X391470Y136558
X375154Y106433
X377470Y81308
X354595Y55433
X329845Y77683
X326595Y96933
X318973Y101433
X314220Y101933
X310095Y98933
X313595Y112433
X322470Y117308
X331220Y117558
X317595Y126433
X286220Y95433
X297595Y81433
X306720Y81933
X295095Y62433
X295095Y286433
T03
X142595Y136433
T04
X318595Y197746
X324595Y190120
X330595Y197746
X335595Y190120
X334595Y259622
X334595Y267496
X334595Y275370
X334595Y283244
T05
X137465Y43853
X137465Y53853
X137465Y63853
X237735Y146453
X237735Y156453
X237735Y166453
X237735Y176453
X237735Y186453
X237735Y196453
X237735Y206453
X237735Y216453
X237735Y226453
X237735Y236453
X237735Y246453
X237735Y256453
X237735Y266453
X237735Y276453
X267735Y276453
X267735Y266453
X267735Y256453
X267735Y246453
X267735Y236453
X267735Y226453
X267735Y216453
X267735Y206453
X267735Y196453
X267735Y186453
X267735Y176453
X267735Y166453
X267735Y156453
X267735Y146453
X290345Y146433
X313345Y161433
X323345Y161433
X382595Y61433
T06
X190845Y43433
X200845Y43433
X210845Y43433
X220845Y43433
X230845Y43433
X240845Y43433
X250845Y43433
X260845Y43433
X270845Y43433
X280845Y43433
X290845Y43433
X300845Y43433
X300845Y133558
X290845Y133558
X280845Y133558
X270845Y133558
X260845Y133558
X250845Y133558
X240845Y133558
X230845Y133558
X220845Y133558
X210845Y133558
X200845Y133558
X190845Y133558
T07
X282595Y270958
X292595Y270908
X302595Y270958
X312620Y270908
T08
X190883Y53539
X200883Y53539
X210883Y53539
X220883Y53539
X230883Y53539
X240883Y53539
X250883Y53539
X260883Y53539
X270883Y53539
X280883Y53539
X290883Y53539
X300883Y53539
X300883Y123539
X290883Y123539
X280883Y123539
X270883Y123539
X260883Y123539
X250883Y123539
X240883Y123539
X230883Y123539
X220883Y123539
X210883Y123539
X200883Y123539
X190883Y123539
X378595Y195683
X378595Y205683
T09
X294595Y191433
X305095Y186433
X305095Y176433
X305095Y196433
X294595Y201433
X305095Y206433
X294595Y211433
X305095Y216433
X294595Y221433
X305095Y226433
X305095Y236433
T10
X153745Y92236
X163745Y112236
X123745Y112236
X103745Y112236
T11
X111079Y76811
X159111Y76811
X166985Y100433
X159111Y124055
X111079Y124055
T12
X76355Y69328
X76355Y89128
X76394Y109265
X76394Y129065
X76394Y149359
X76394Y169159
X76394Y188859
X76394Y208559
X76394Y228259
X76394Y247959
X76394Y267759
X378796Y159565
X378796Y179365
X378845Y221733
X378845Y241433
X378845Y261133
M30
